<?xml version="1.0" encoding="UTF-8" standalone="no"?><!DOCTYPE svg PUBLIC "-//W3C//DTD SVG 1.1//EN" "http://www.w3.org/Graphics/SVG/1.1/DTD/svg11.dtd"><svg width="842px" height="596px" version="1.1" xmlns="http://www.w3.org/2000/svg" xmlns:xlink="http://www.w3.org/1999/xlink" xml:space="preserve" xmlns:serif="http://www.serif.com/" style="fill-rule:evenodd;clip-rule:evenodd;stroke-linejoin:round;stroke-miterlimit:2;"><g id="Mask"><path d="M461.36,223.521l0.271,0.054l0.23,0.154l0.154,0.23l0.054,0.271l-0,1.417l-0.054,0.272l-0.154,0.23l-0.23,0.153l-0.271,0.054l-2.693,0l-0.271,-0.054l-0.23,-0.153l-0.154,-0.23l-0.054,-0.272l0,-1.417l0.054,-0.271l0.154,-0.23l0.23,-0.154l0.271,-0.054l2.693,0Zm-0,-5.385l0.271,0.053l0.23,0.154l0.154,0.23l0.054,0.271l-0,1.418l-0.054,0.271l-0.154,0.23l-0.23,0.153l-0.271,0.054l-2.693,0l-0.271,-0.054l-0.23,-0.153l-0.154,-0.23l-0.054,-0.271l0,-1.418l0.054,-0.271l0.154,-0.23l0.23,-0.154l0.271,-0.053l2.693,-0Zm-48.743,-39.02l0.271,0.053l0.23,0.154l0.153,0.23l0.054,0.271l0,1.418l-0.054,0.271l-0.153,0.23l-0.23,0.153l-0.271,0.054l-2.693,0l-0.271,-0.054l-0.23,-0.153l-0.154,-0.23l-0.054,-0.271l0,-1.418l0.054,-0.271l0.154,-0.23l0.23,-0.154l0.271,-0.053l2.693,-0Zm-0,-5.386l0.271,0.054l0.23,0.153l0.153,0.23l0.054,0.271l0,1.418l-0.054,0.271l-0.153,0.23l-0.23,0.154l-0.271,0.053l-2.693,0l-0.271,-0.053l-0.23,-0.154l-0.154,-0.23l-0.054,-0.271l0,-1.418l0.054,-0.271l0.154,-0.23l0.23,-0.153l0.271,-0.054l2.693,-0Zm37.837,14.408l-0.272,-0.054l-0.23,-0.153l-0.153,-0.23l-0.054,-0.271l-0,-1.418l0.054,-0.271l0.153,-0.23l0.23,-0.154l0.272,-0.053l2.692,-0l0.272,0.053l0.23,0.154l0.153,0.23l0.054,0.271l0,1.418l-0.054,0.271l-0.153,0.23l-0.23,0.153l-0.272,0.054l-2.692,0Zm-0,5.386l-0.272,-0.054l-0.23,-0.153l-0.153,-0.23l-0.054,-0.272l-0,-1.417l0.054,-0.271l0.153,-0.23l0.23,-0.154l0.272,-0.054l2.692,0l0.272,0.054l0.23,0.154l0.153,0.23l0.054,0.271l0,1.417l-0.054,0.272l-0.153,0.23l-0.23,0.153l-0.272,0.054l-2.692,0Zm-5.482,7.507l-0.163,-0.033l-0.138,-0.092l-0.092,-0.138l-0.032,-0.162l-0,-4.678l0.032,-0.162l0.092,-0.138l0.138,-0.092l0.163,-0.033l0.851,0l0.162,0.033l0.138,0.092l0.092,0.138l0.033,0.162l-0,4.678l-0.033,0.162l-0.092,0.138l-0.138,0.092l-0.162,0.033l-0.851,-0Zm3.6,-0l-0.163,-0.033l-0.138,-0.092l-0.092,-0.138l-0.032,-0.162l-0,-4.678l0.032,-0.162l0.092,-0.138l0.138,-0.092l0.163,-0.033l0.851,0l0.162,0.033l0.138,0.092l0.092,0.138l0.033,0.162l-0,4.678l-0.033,0.162l-0.092,0.138l-0.138,0.092l-0.162,0.033l-0.851,-0Zm3.6,-0l-0.163,-0.033l-0.138,-0.092l-0.092,-0.138l-0.032,-0.162l-0,-4.678l0.032,-0.162l0.092,-0.138l0.138,-0.092l0.163,-0.033l0.851,0l0.162,0.033l0.138,0.092l0.092,0.138l0.033,0.162l-0,4.678l-0.033,0.162l-0.092,0.138l-0.138,0.092l-0.162,0.033l-0.851,-0Zm3.6,-0l-0.163,-0.033l-0.138,-0.092l-0.092,-0.138l-0.032,-0.162l-0,-4.678l0.032,-0.162l0.092,-0.138l0.138,-0.092l0.163,-0.033l0.851,0l0.162,0.033l0.138,0.092l0.092,0.138l0.033,0.162l-0,4.678l-0.033,0.162l-0.092,0.138l-0.138,0.092l-0.162,0.033l-0.851,-0Zm3.6,-0l-0.163,-0.033l-0.138,-0.092l-0.092,-0.138l-0.032,-0.162l-0,-4.678l0.032,-0.162l0.092,-0.138l0.138,-0.092l0.163,-0.033l0.851,0l0.162,0.033l0.138,0.092l0.092,0.138l0.033,0.162l-0,4.678l-0.033,0.162l-0.092,0.138l-0.138,0.092l-0.162,0.033l-0.851,-0Zm3.6,-0l-0.163,-0.033l-0.138,-0.092l-0.092,-0.138l-0.032,-0.162l-0,-4.678l0.032,-0.162l0.092,-0.138l0.138,-0.092l0.163,-0.033l0.851,0l0.162,0.033l0.138,0.092l0.092,0.138l0.033,0.162l-0,4.678l-0.033,0.162l-0.092,0.138l-0.138,0.092l-0.162,0.033l-0.851,-0Zm3.6,-0l-0.163,-0.033l-0.138,-0.092l-0.092,-0.138l-0.032,-0.162l-0,-4.678l0.032,-0.162l0.092,-0.138l0.138,-0.092l0.163,-0.033l0.851,0l0.162,0.033l0.138,0.092l0.092,0.138l0.033,0.162l-0,4.678l-0.033,0.162l-0.092,0.138l-0.138,0.092l-0.162,0.033l-0.851,-0Zm0,14.031l-0.163,-0.032l-0.138,-0.092l-0.092,-0.138l-0.032,-0.163l-0,-4.677l0.032,-0.163l0.092,-0.138l0.138,-0.092l0.163,-0.032l0.851,-0l0.162,0.032l0.138,0.092l0.092,0.138l0.033,0.163l-0,4.677l-0.033,0.163l-0.092,0.138l-0.138,0.092l-0.162,0.032l-0.851,0Zm-3.6,0l-0.163,-0.032l-0.138,-0.092l-0.092,-0.138l-0.032,-0.163l-0,-4.677l0.032,-0.163l0.092,-0.138l0.138,-0.092l0.163,-0.032l0.851,-0l0.162,0.032l0.138,0.092l0.092,0.138l0.033,0.163l-0,4.677l-0.033,0.163l-0.092,0.138l-0.138,0.092l-0.162,0.032l-0.851,0Zm-3.6,0l-0.163,-0.032l-0.138,-0.092l-0.092,-0.138l-0.032,-0.163l-0,-4.677l0.032,-0.163l0.092,-0.138l0.138,-0.092l0.163,-0.032l0.851,-0l0.162,0.032l0.138,0.092l0.092,0.138l0.033,0.163l-0,4.677l-0.033,0.163l-0.092,0.138l-0.138,0.092l-0.162,0.032l-0.851,0Zm-3.6,0l-0.163,-0.032l-0.138,-0.092l-0.092,-0.138l-0.032,-0.163l-0,-4.677l0.032,-0.163l0.092,-0.138l0.138,-0.092l0.163,-0.032l0.851,-0l0.162,0.032l0.138,0.092l0.092,0.138l0.033,0.163l-0,4.677l-0.033,0.163l-0.092,0.138l-0.138,0.092l-0.162,0.032l-0.851,0Zm-3.6,0l-0.163,-0.032l-0.138,-0.092l-0.092,-0.138l-0.032,-0.163l-0,-4.677l0.032,-0.163l0.092,-0.138l0.138,-0.092l0.163,-0.032l0.851,-0l0.162,0.032l0.138,0.092l0.092,0.138l0.033,0.163l-0,4.677l-0.033,0.163l-0.092,0.138l-0.138,0.092l-0.162,0.032l-0.851,0Zm-3.6,0l-0.163,-0.032l-0.138,-0.092l-0.092,-0.138l-0.032,-0.163l-0,-4.677l0.032,-0.163l0.092,-0.138l0.138,-0.092l0.163,-0.032l0.851,-0l0.162,0.032l0.138,0.092l0.092,0.138l0.033,0.163l-0,4.677l-0.033,0.163l-0.092,0.138l-0.138,0.092l-0.162,0.032l-0.851,0Zm-3.6,0l-0.163,-0.032l-0.138,-0.092l-0.092,-0.138l-0.032,-0.163l-0,-4.677l0.032,-0.163l0.092,-0.138l0.138,-0.092l0.163,-0.032l0.851,-0l0.162,0.032l0.138,0.092l0.092,0.138l0.033,0.163l-0,4.677l-0.033,0.163l-0.092,0.138l-0.138,0.092l-0.162,0.032l-0.851,0Zm15.009,42.936l0.271,0.054l0.23,0.154l0.154,0.229l0.053,0.272l0,7.937l-0.053,0.271l-0.154,0.23l-0.23,0.154l-0.271,0.053l-3.402,0l-0.271,-0.053l-0.23,-0.154l-0.154,-0.23l-0.053,-0.271l-0,-7.937l0.053,-0.272l0.154,-0.229l0.23,-0.154l0.271,-0.054l3.402,0Zm-0,-15.59l0.271,0.053l0.23,0.154l0.154,0.23l0.053,0.271l0,7.937l-0.053,0.272l-0.154,0.229l-0.23,0.154l-0.271,0.054l-3.402,-0l-0.271,-0.054l-0.23,-0.154l-0.154,-0.229l-0.053,-0.272l-0,-7.937l0.053,-0.271l0.154,-0.23l0.23,-0.154l0.271,-0.053l3.402,-0Zm-27.163,-64.262l-0.271,-0.054l-0.23,-0.153l-0.154,-0.23l-0.054,-0.272l0,-1.488l0.054,-0.271l0.154,-0.23l0.23,-0.154l0.271,-0.053l2.551,-0l0.271,0.053l0.23,0.154l0.154,0.23l0.054,0.271l-0,1.488l-0.054,0.272l-0.154,0.23l-0.23,0.153l-0.271,0.054l-2.551,0Zm-0,5.173l-0.271,-0.053l-0.23,-0.154l-0.154,-0.23l-0.054,-0.271l0,-1.488l0.054,-0.272l0.154,-0.23l0.23,-0.153l0.271,-0.054l2.551,-0l0.271,0.054l0.23,0.153l0.154,0.23l0.054,0.272l-0,1.488l-0.054,0.271l-0.154,0.23l-0.23,0.154l-0.271,0.053l-2.551,0Zm-1.005,45.17l-0.054,0.272l-0.154,0.23l-0.229,0.153l-0.272,0.054l-1.488,0l-0.271,-0.054l-0.23,-0.153l-0.154,-0.23l-0.054,-0.272l0,-2.551l0.054,-0.271l0.154,-0.23l0.23,-0.154l0.271,-0.053l1.488,-0l0.272,0.053l0.229,0.154l0.154,0.23l0.054,0.271l-0,2.551Zm5.173,0l-0.054,0.272l-0.153,0.23l-0.23,0.153l-0.272,0.054l-1.488,0l-0.271,-0.054l-0.23,-0.153l-0.154,-0.23l-0.053,-0.272l-0,-2.551l0.053,-0.271l0.154,-0.23l0.23,-0.154l0.271,-0.053l1.488,-0l0.272,0.053l0.23,0.154l0.153,0.23l0.054,0.271l0,2.551Zm22.326,-55.44l-0.054,0.272l-0.154,0.23l-0.23,0.153l-0.271,0.054l-1.488,0l-0.272,-0.054l-0.229,-0.153l-0.154,-0.23l-0.054,-0.272l0,-2.551l0.054,-0.271l0.154,-0.23l0.229,-0.154l0.272,-0.053l1.488,-0l0.271,0.053l0.23,0.154l0.154,0.23l0.054,0.271l-0,2.551Zm5.173,0l-0.054,0.272l-0.154,0.23l-0.23,0.153l-0.271,0.054l-1.488,0l-0.271,-0.054l-0.23,-0.153l-0.154,-0.23l-0.054,-0.272l0,-2.551l0.054,-0.271l0.154,-0.23l0.23,-0.154l0.271,-0.053l1.488,-0l0.271,0.053l0.23,0.154l0.154,0.23l0.054,0.271l-0,2.551Zm-17.736,12.328l0.271,0.054l0.23,0.153l0.153,0.23l0.054,0.271l0,1.418l-0.054,0.271l-0.153,0.23l-0.23,0.154l-0.271,0.053l-1.418,0l-0.271,-0.053l-0.23,-0.154l-0.153,-0.23l-0.054,-0.271l-0,-1.418l0.054,-0.271l0.153,-0.23l0.23,-0.153l0.271,-0.054l1.418,-0Zm-0,-7.087l0.271,0.054l0.23,0.154l0.153,0.23l0.054,0.271l0,1.417l-0.054,0.271l-0.153,0.23l-0.23,0.154l-0.271,0.054l-1.418,-0l-0.271,-0.054l-0.23,-0.154l-0.153,-0.23l-0.054,-0.271l-0,-1.417l0.054,-0.271l0.153,-0.23l0.23,-0.154l0.271,-0.054l1.418,0Zm1.044,112.545l-0.054,0.271l-0.153,0.23l-0.23,0.153l-0.271,0.054l-11.056,0l-0.271,-0.054l-0.23,-0.153l-0.153,-0.23l-0.054,-0.271l-0,-5.67l0.054,-0.271l0.153,-0.23l0.23,-0.153l0.271,-0.054l11.056,-0l0.271,0.054l0.23,0.153l0.153,0.23l0.054,0.271l0,5.67Zm20.977,-0l-0.054,0.271l-0.154,0.23l-0.23,0.153l-0.271,0.054l-11.055,0l-0.271,-0.054l-0.23,-0.153l-0.154,-0.23l-0.054,-0.271l0,-5.67l0.054,-0.271l0.154,-0.23l0.23,-0.153l0.271,-0.054l11.055,-0l0.271,0.054l0.23,0.153l0.154,0.23l0.054,0.271l-0,5.67Zm-34.841,51.512l0.271,0.054l0.23,0.154l0.154,0.23l0.054,0.271l-0,1.488l-0.054,0.271l-0.154,0.23l-0.23,0.154l-0.271,0.054l-2.551,-0l-0.271,-0.054l-0.23,-0.154l-0.154,-0.23l-0.054,-0.271l0,-1.488l0.054,-0.271l0.154,-0.23l0.23,-0.154l0.271,-0.054l2.551,0Zm-0,-5.173l0.271,0.054l0.23,0.154l0.154,0.229l0.054,0.272l-0,1.488l-0.054,0.271l-0.154,0.23l-0.23,0.154l-0.271,0.054l-2.551,-0l-0.271,-0.054l-0.23,-0.154l-0.154,-0.23l-0.054,-0.271l0,-1.488l0.054,-0.272l0.154,-0.229l0.23,-0.154l0.271,-0.054l2.551,0Zm-6.262,-122.036l0.054,-0.271l0.154,-0.23l0.23,-0.154l0.271,-0.053l1.488,-0l0.271,0.053l0.23,0.154l0.154,0.23l0.054,0.271l-0,2.551l-0.054,0.272l-0.154,0.23l-0.23,0.153l-0.271,0.054l-1.488,0l-0.271,-0.054l-0.23,-0.153l-0.154,-0.23l-0.054,-0.272l0,-2.551Zm-5.173,0l0.054,-0.271l0.154,-0.23l0.229,-0.154l0.272,-0.053l1.488,-0l0.271,0.053l0.23,0.154l0.154,0.23l0.054,0.271l-0,2.551l-0.054,0.272l-0.154,0.23l-0.23,0.153l-0.271,0.054l-1.488,0l-0.272,-0.054l-0.229,-0.153l-0.154,-0.23l-0.054,-0.272l0,-2.551Zm42.102,-25.271l0.053,-0.271l0.154,-0.23l0.23,-0.153l0.271,-0.054l1.418,-0l0.271,0.054l0.23,0.153l0.153,0.23l0.054,0.271l0,2.693l-0.054,0.272l-0.153,0.229l-0.23,0.154l-0.271,0.054l-1.418,-0l-0.271,-0.054l-0.23,-0.154l-0.154,-0.229l-0.053,-0.272l-0,-2.693Zm-5.386,0l0.054,-0.271l0.153,-0.23l0.23,-0.153l0.271,-0.054l1.418,-0l0.271,0.054l0.23,0.153l0.154,0.23l0.053,0.271l0,2.693l-0.053,0.272l-0.154,0.229l-0.23,0.154l-0.271,0.054l-1.418,-0l-0.271,-0.054l-0.23,-0.154l-0.153,-0.229l-0.054,-0.272l-0,-2.693Zm-3.61,33.654l0.271,0.054l0.23,0.154l0.154,0.23l0.054,0.271l-0,1.417l-0.054,0.272l-0.154,0.23l-0.23,0.153l-0.271,0.054l-2.693,0l-0.271,-0.054l-0.23,-0.153l-0.154,-0.23l-0.054,-0.272l0,-1.417l0.054,-0.271l0.154,-0.23l0.23,-0.154l0.271,-0.054l2.693,0Zm-0,-5.385l0.271,0.053l0.23,0.154l0.154,0.23l0.054,0.271l-0,1.418l-0.054,0.271l-0.154,0.23l-0.23,0.153l-0.271,0.054l-2.693,0l-0.271,-0.054l-0.23,-0.153l-0.154,-0.23l-0.054,-0.271l0,-1.418l0.054,-0.271l0.154,-0.23l0.23,-0.154l0.271,-0.053l2.693,-0Zm3.642,-39.256l-0.054,0.272l-0.154,0.229l-0.23,0.154l-0.271,0.054l-1.417,-0l-0.271,-0.054l-0.23,-0.154l-0.154,-0.229l-0.054,-0.272l0,-2.693l0.054,-0.271l0.154,-0.23l0.23,-0.153l0.271,-0.054l1.417,-0l0.271,0.054l0.23,0.153l0.154,0.23l0.054,0.271l-0,2.693Zm5.386,0l-0.054,0.272l-0.154,0.229l-0.23,0.154l-0.271,0.054l-1.417,-0l-0.272,-0.054l-0.23,-0.154l-0.153,-0.229l-0.054,-0.272l-0,-2.693l0.054,-0.271l0.153,-0.23l0.23,-0.153l0.272,-0.054l1.417,-0l0.271,0.054l0.23,0.153l0.154,0.23l0.054,0.271l-0,2.693Zm-4.509,51.851l-0.053,0.271l-0.154,0.23l-0.23,0.153l-0.271,0.054l-1.418,0l-0.271,-0.054l-0.23,-0.153l-0.153,-0.23l-0.054,-0.271l-0,-1.418l0.054,-0.271l0.153,-0.23l0.23,-0.154l0.271,-0.053l1.418,-0l0.271,0.053l0.23,0.154l0.154,0.23l0.053,0.271l0,1.418Zm7.087,-0l-0.054,0.271l-0.153,0.23l-0.23,0.153l-0.272,0.054l-1.417,0l-0.271,-0.054l-0.23,-0.153l-0.154,-0.23l-0.054,-0.271l0,-1.418l0.054,-0.271l0.154,-0.23l0.23,-0.154l0.271,-0.053l1.417,-0l0.272,0.053l0.23,0.154l0.153,0.23l0.054,0.271l0,1.418Zm-13.333,-51.026l0.271,0.053l0.23,0.154l0.154,0.23l0.054,0.271l-0,1.488l-0.054,0.272l-0.154,0.23l-0.23,0.153l-0.271,0.054l-2.551,0l-0.271,-0.054l-0.23,-0.153l-0.154,-0.23l-0.054,-0.272l0,-1.488l0.054,-0.271l0.154,-0.23l0.23,-0.154l0.271,-0.053l2.551,-0Zm-0,-5.174l0.271,0.054l0.23,0.154l0.154,0.23l0.054,0.271l-0,1.488l-0.054,0.272l-0.154,0.229l-0.23,0.154l-0.271,0.054l-2.551,-0l-0.271,-0.054l-0.23,-0.154l-0.154,-0.229l-0.054,-0.272l0,-1.488l0.054,-0.271l0.154,-0.23l0.23,-0.154l0.271,-0.054l2.551,0Zm7.634,158.993l0.054,-0.271l0.154,-0.23l0.23,-0.153l0.271,-0.054l1.488,-0l0.271,0.054l0.23,0.153l0.154,0.23l0.054,0.271l-0,2.552l-0.054,0.271l-0.154,0.23l-0.23,0.153l-0.271,0.054l-1.488,0l-0.271,-0.054l-0.23,-0.153l-0.154,-0.23l-0.054,-0.271l0,-2.552Zm-5.173,0l0.054,-0.271l0.154,-0.23l0.229,-0.153l0.272,-0.054l1.488,-0l0.271,0.054l0.23,0.153l0.154,0.23l0.054,0.271l-0,2.552l-0.054,0.271l-0.154,0.23l-0.23,0.153l-0.271,0.054l-1.488,0l-0.272,-0.054l-0.229,-0.153l-0.154,-0.23l-0.054,-0.271l0,-2.552Zm-31.48,-138.186l0.054,-0.271l0.153,-0.23l0.23,-0.154l0.272,-0.053l1.488,-0l0.271,0.053l0.23,0.154l0.154,0.23l0.053,0.271l0,2.551l-0.053,0.272l-0.154,0.23l-0.23,0.153l-0.271,0.054l-1.488,0l-0.272,-0.054l-0.23,-0.153l-0.153,-0.23l-0.054,-0.272l-0,-2.551Zm-5.173,0l0.053,-0.271l0.154,-0.23l0.23,-0.154l0.271,-0.053l1.488,-0l0.272,0.053l0.23,0.154l0.153,0.23l0.054,0.271l0,2.551l-0.054,0.272l-0.153,0.23l-0.23,0.153l-0.272,0.054l-1.488,0l-0.271,-0.054l-0.23,-0.153l-0.154,-0.23l-0.053,-0.272l-0,-2.551Zm-32.485,-31.844l0.271,0.054l0.23,0.153l0.153,0.23l0.054,0.272l0,1.488l-0.054,0.271l-0.153,0.23l-0.23,0.154l-0.271,0.053l-2.552,0l-0.271,-0.053l-0.23,-0.154l-0.153,-0.23l-0.054,-0.271l-0,-1.488l0.054,-0.272l0.153,-0.23l0.23,-0.153l0.271,-0.054l2.552,-0Zm-0,-5.173l0.271,0.053l0.23,0.154l0.153,0.23l0.054,0.271l0,1.488l-0.054,0.272l-0.153,0.23l-0.23,0.153l-0.271,0.054l-2.552,0l-0.271,-0.054l-0.23,-0.153l-0.153,-0.23l-0.054,-0.272l-0,-1.488l0.054,-0.271l0.153,-0.23l0.23,-0.154l0.271,-0.053l2.552,-0Zm-0,14.959l0.271,0.054l0.23,0.154l0.153,0.23l0.054,0.271l0,1.488l-0.054,0.272l-0.153,0.229l-0.23,0.154l-0.271,0.054l-2.552,-0l-0.271,-0.054l-0.23,-0.154l-0.153,-0.229l-0.054,-0.272l-0,-1.488l0.054,-0.271l0.153,-0.23l0.23,-0.154l0.271,-0.054l2.552,0Zm-0,-5.173l0.271,0.054l0.23,0.154l0.153,0.23l0.054,0.271l0,1.488l-0.054,0.271l-0.153,0.23l-0.23,0.154l-0.271,0.054l-2.552,-0l-0.271,-0.054l-0.23,-0.154l-0.153,-0.23l-0.054,-0.271l-0,-1.488l0.054,-0.271l0.153,-0.23l0.23,-0.154l0.271,-0.054l2.552,0Zm-0,34.267l0.271,0.054l0.23,0.153l0.153,0.23l0.054,0.272l0,1.488l-0.054,0.271l-0.153,0.23l-0.23,0.154l-0.271,0.053l-2.552,0l-0.271,-0.053l-0.23,-0.154l-0.153,-0.23l-0.054,-0.271l-0,-1.488l0.054,-0.272l0.153,-0.23l0.23,-0.153l0.271,-0.054l2.552,-0Zm-0,-5.173l0.271,0.053l0.23,0.154l0.153,0.23l0.054,0.271l0,1.488l-0.054,0.272l-0.153,0.23l-0.23,0.153l-0.271,0.054l-2.552,0l-0.271,-0.054l-0.23,-0.153l-0.153,-0.23l-0.054,-0.272l-0,-1.488l0.054,-0.271l0.153,-0.23l0.23,-0.154l0.271,-0.053l2.552,-0Zm35.365,12.177l0.053,-0.271l0.154,-0.23l0.23,-0.154l0.271,-0.053l1.488,-0l0.272,0.053l0.23,0.154l0.153,0.23l0.054,0.271l0,2.551l-0.054,0.272l-0.153,0.23l-0.23,0.153l-0.272,0.054l-1.488,0l-0.271,-0.054l-0.23,-0.153l-0.154,-0.23l-0.053,-0.272l-0,-2.551Zm-5.174,0l0.054,-0.271l0.154,-0.23l0.23,-0.154l0.271,-0.053l1.488,-0l0.272,0.053l0.229,0.154l0.154,0.23l0.054,0.271l-0,2.551l-0.054,0.272l-0.154,0.23l-0.229,0.153l-0.272,0.054l-1.488,0l-0.271,-0.054l-0.23,-0.153l-0.154,-0.23l-0.054,-0.272l0,-2.551Zm21.624,-9.763l-0.271,-0.054l-0.23,-0.153l-0.154,-0.23l-0.054,-0.271l0,-1.418l0.054,-0.271l0.154,-0.23l0.23,-0.154l0.271,-0.053l2.693,-0l0.271,0.053l0.23,0.154l0.154,0.23l0.054,0.271l-0,1.418l-0.054,0.271l-0.154,0.23l-0.23,0.153l-0.271,0.054l-2.693,0Zm-0,5.386l-0.271,-0.054l-0.23,-0.153l-0.154,-0.23l-0.054,-0.272l0,-1.417l0.054,-0.271l0.154,-0.23l0.23,-0.154l0.271,-0.054l2.693,0l0.271,0.054l0.23,0.154l0.154,0.23l0.054,0.271l-0,1.417l-0.054,0.272l-0.154,0.23l-0.23,0.153l-0.271,0.054l-2.693,0Zm22.496,135.003l0.054,-0.271l0.154,-0.23l0.23,-0.153l0.271,-0.054l1.488,-0l0.271,0.054l0.23,0.153l0.154,0.23l0.054,0.271l-0,2.552l-0.054,0.271l-0.154,0.23l-0.23,0.153l-0.271,0.054l-1.488,0l-0.271,-0.054l-0.23,-0.153l-0.154,-0.23l-0.054,-0.271l0,-2.552Zm-5.173,0l0.054,-0.271l0.154,-0.23l0.229,-0.153l0.272,-0.054l1.488,-0l0.271,0.054l0.23,0.153l0.154,0.23l0.054,0.271l-0,2.552l-0.054,0.271l-0.154,0.23l-0.23,0.153l-0.271,0.054l-1.488,0l-0.272,-0.054l-0.229,-0.153l-0.154,-0.23l-0.054,-0.271l0,-2.552Zm-13.849,-26.016l-0.271,-0.054l-0.23,-0.153l-0.153,-0.23l-0.054,-0.272l-0,-11.055l0.054,-0.271l0.153,-0.23l0.23,-0.154l0.271,-0.053l5.67,-0l0.271,0.053l0.23,0.154l0.153,0.23l0.054,0.271l0,11.055l-0.054,0.272l-0.153,0.23l-0.23,0.153l-0.271,0.054l-5.67,0Zm0,20.976l-0.271,-0.053l-0.23,-0.154l-0.153,-0.23l-0.054,-0.271l-0,-11.055l0.054,-0.272l0.153,-0.23l0.23,-0.153l0.271,-0.054l5.67,-0l0.271,0.054l0.23,0.153l0.153,0.23l0.054,0.272l0,11.055l-0.054,0.271l-0.153,0.23l-0.23,0.154l-0.271,0.053l-5.67,0Zm1.507,13.539l0.032,-0.302l0.141,-0.378l0.242,-0.323l0.323,-0.241l0.378,-0.141l0.301,-0.033l2.835,0l0.301,0.033l0.378,0.141l0.323,0.241l0.242,0.323l0.141,0.378l0.032,0.302l0,2.834l-0.032,0.302l-0.141,0.378l-0.242,0.323l-0.323,0.241l-0.378,0.141l-0.301,0.033l-2.835,-0l-0.301,-0.033l-0.378,-0.141l-0.323,-0.241l-0.242,-0.323l-0.141,-0.378l-0.032,-0.302l-0,-2.834Zm-14.173,-0l0.032,-0.302l0.141,-0.378l0.242,-0.323l0.323,-0.241l0.378,-0.141l0.301,-0.033l2.835,0l0.301,0.033l0.378,0.141l0.323,0.241l0.242,0.323l0.141,0.378l0.032,0.302l0,2.834l-0.032,0.302l-0.141,0.378l-0.242,0.323l-0.323,0.241l-0.378,0.141l-0.301,0.033l-2.835,-0l-0.301,-0.033l-0.378,-0.141l-0.323,-0.241l-0.242,-0.323l-0.141,-0.378l-0.032,-0.302l-0,-2.834Zm-14.173,-0l0.032,-0.302l0.141,-0.378l0.242,-0.323l0.323,-0.241l0.378,-0.141l0.301,-0.033l2.834,0l0.302,0.033l0.378,0.141l0.323,0.241l0.241,0.323l0.141,0.378l0.033,0.302l-0,2.834l-0.033,0.302l-0.141,0.378l-0.241,0.323l-0.323,0.241l-0.378,0.141l-0.302,0.033l-2.834,-0l-0.301,-0.033l-0.378,-0.141l-0.323,-0.241l-0.242,-0.323l-0.141,-0.378l-0.032,-0.302l-0,-2.834Zm51.402,-124.953l0.271,0.054l0.23,0.154l0.154,0.23l0.054,0.271l-0,1.417l-0.054,0.272l-0.154,0.23l-0.23,0.153l-0.271,0.054l-2.693,0l-0.271,-0.054l-0.23,-0.153l-0.154,-0.23l-0.054,-0.272l0,-1.417l0.054,-0.271l0.154,-0.23l0.23,-0.154l0.271,-0.054l2.693,0Zm-0,-5.385l0.271,0.053l0.23,0.154l0.154,0.23l0.054,0.271l-0,1.418l-0.054,0.271l-0.154,0.23l-0.23,0.153l-0.271,0.054l-2.693,0l-0.271,-0.054l-0.23,-0.153l-0.154,-0.23l-0.054,-0.271l0,-1.418l0.054,-0.271l0.154,-0.23l0.23,-0.154l0.271,-0.053l2.693,-0Zm-41.332,-52.471l0.053,-0.272l0.154,-0.23l0.23,-0.153l0.271,-0.054l1.418,-0l0.271,0.054l0.23,0.153l0.153,0.23l0.054,0.272l0,2.692l-0.054,0.272l-0.153,0.23l-0.23,0.153l-0.271,0.054l-1.418,0l-0.271,-0.054l-0.23,-0.153l-0.154,-0.23l-0.053,-0.272l-0,-2.692Zm-5.386,-0l0.054,-0.272l0.153,-0.23l0.23,-0.153l0.271,-0.054l1.418,-0l0.271,0.054l0.23,0.153l0.154,0.23l0.053,0.272l0,2.692l-0.053,0.272l-0.154,0.23l-0.23,0.153l-0.271,0.054l-1.418,0l-0.271,-0.054l-0.23,-0.153l-0.153,-0.23l-0.054,-0.272l-0,-2.692Zm14.122,82.751l0.054,-0.271l0.153,-0.23l0.23,-0.153l0.272,-0.054l11.055,-0l0.271,0.054l0.23,0.153l0.154,0.23l0.053,0.271l0,5.67l-0.053,0.271l-0.154,0.23l-0.23,0.153l-0.271,0.054l-11.055,0l-0.272,-0.054l-0.23,-0.153l-0.153,-0.23l-0.054,-0.271l-0,-5.67Zm-20.976,0l0.053,-0.271l0.154,-0.23l0.23,-0.153l0.271,-0.054l11.055,-0l0.272,0.054l0.23,0.153l0.153,0.23l0.054,0.271l0,5.67l-0.054,0.271l-0.153,0.23l-0.23,0.153l-0.272,0.054l-11.055,0l-0.271,-0.054l-0.23,-0.153l-0.154,-0.23l-0.053,-0.271l-0,-5.67Zm-14.542,-40.921l0.054,-0.271l0.153,-0.23l0.23,-0.153l0.272,-0.054l1.488,-0l0.271,0.054l0.23,0.153l0.154,0.23l0.053,0.271l0,2.552l-0.053,0.271l-0.154,0.23l-0.23,0.153l-0.271,0.054l-1.488,0l-0.272,-0.054l-0.23,-0.153l-0.153,-0.23l-0.054,-0.271l-0,-2.552Zm-5.173,0l0.053,-0.271l0.154,-0.23l0.23,-0.153l0.271,-0.054l1.488,-0l0.272,0.054l0.23,0.153l0.153,0.23l0.054,0.271l0,2.552l-0.054,0.271l-0.153,0.23l-0.23,0.153l-0.272,0.054l-1.488,0l-0.271,-0.054l-0.23,-0.153l-0.154,-0.23l-0.053,-0.271l-0,-2.552Zm55.288,134.823l0.271,0.054l0.23,0.154l0.154,0.23l0.054,0.271l-0,1.488l-0.054,0.271l-0.154,0.23l-0.23,0.154l-0.271,0.054l-2.551,-0l-0.271,-0.054l-0.23,-0.154l-0.154,-0.23l-0.054,-0.271l0,-1.488l0.054,-0.271l0.154,-0.23l0.23,-0.154l0.271,-0.054l2.551,0Zm-0,-5.173l0.271,0.054l0.23,0.154l0.154,0.229l0.054,0.272l-0,1.488l-0.054,0.271l-0.154,0.23l-0.23,0.154l-0.271,0.054l-2.551,-0l-0.271,-0.054l-0.23,-0.154l-0.154,-0.23l-0.054,-0.271l0,-1.488l0.054,-0.272l0.154,-0.229l0.23,-0.154l0.271,-0.054l2.551,0Zm15.317,-153.869l0.054,-0.271l0.153,-0.23l0.23,-0.154l0.272,-0.053l1.417,-0l0.271,0.053l0.23,0.154l0.154,0.23l0.054,0.271l-0,1.418l-0.054,0.271l-0.154,0.23l-0.23,0.153l-0.271,0.054l-1.417,0l-0.272,-0.054l-0.23,-0.153l-0.153,-0.23l-0.054,-0.271l-0,-1.418Zm-7.087,0l0.054,-0.271l0.154,-0.23l0.23,-0.154l0.271,-0.053l1.417,-0l0.272,0.053l0.23,0.154l0.153,0.23l0.054,0.271l0,1.418l-0.054,0.271l-0.153,0.23l-0.23,0.153l-0.272,0.054l-1.417,0l-0.271,-0.054l-0.23,-0.153l-0.154,-0.23l-0.054,-0.271l0,-1.418Zm-12.293,42.116l-0.054,0.272l-0.154,0.229l-0.23,0.154l-0.271,0.054l-1.417,-0l-0.271,-0.054l-0.23,-0.154l-0.154,-0.229l-0.054,-0.272l0,-2.693l0.054,-0.271l0.154,-0.23l0.23,-0.153l0.271,-0.054l1.417,-0l0.271,0.054l0.23,0.153l0.154,0.23l0.054,0.271l-0,2.693Zm5.386,0l-0.054,0.272l-0.154,0.229l-0.23,0.154l-0.271,0.054l-1.417,-0l-0.272,-0.054l-0.23,-0.154l-0.153,-0.229l-0.054,-0.272l-0,-2.693l0.054,-0.271l0.153,-0.23l0.23,-0.153l0.272,-0.054l1.417,-0l0.271,0.054l0.23,0.153l0.154,0.23l0.054,0.271l-0,2.693Zm-2.925,7.542l-0.053,0.271l-0.154,0.23l-0.23,0.153l-0.271,0.054l-1.418,0l-0.271,-0.054l-0.23,-0.153l-0.153,-0.23l-0.054,-0.271l-0,-1.418l0.054,-0.271l0.153,-0.23l0.23,-0.154l0.271,-0.053l1.418,-0l0.271,0.053l0.23,0.154l0.154,0.23l0.053,0.271l0,1.418Zm7.087,-0l-0.054,0.271l-0.153,0.23l-0.23,0.153l-0.272,0.054l-1.417,0l-0.271,-0.054l-0.23,-0.153l-0.154,-0.23l-0.054,-0.271l0,-1.418l0.054,-0.271l0.154,-0.23l0.23,-0.154l0.271,-0.053l1.417,-0l0.272,0.053l0.23,0.154l0.153,0.23l0.054,0.271l0,1.418Zm-12.375,-71.847l-0.053,0.271l-0.154,0.23l-0.23,0.153l-0.271,0.054l-1.488,0l-0.272,-0.054l-0.23,-0.153l-0.153,-0.23l-0.054,-0.271l-0,-2.552l0.054,-0.271l0.153,-0.23l0.23,-0.153l0.272,-0.054l1.488,-0l0.271,0.054l0.23,0.153l0.154,0.23l0.053,0.271l0,2.552Zm-5.173,-0l-0.054,0.271l-0.153,0.23l-0.23,0.153l-0.272,0.054l-1.488,0l-0.271,-0.054l-0.23,-0.153l-0.154,-0.23l-0.053,-0.271l-0,-2.552l0.053,-0.271l0.154,-0.23l0.23,-0.153l0.271,-0.054l1.488,-0l0.272,0.054l0.23,0.153l0.153,0.23l0.054,0.271l0,2.552Zm8.214,58.69l-0.054,0.272l-0.154,0.23l-0.23,0.153l-0.271,0.054l-1.488,0l-0.272,-0.054l-0.229,-0.153l-0.154,-0.23l-0.054,-0.272l0,-2.551l0.054,-0.271l0.154,-0.23l0.229,-0.154l0.272,-0.053l1.488,-0l0.271,0.053l0.23,0.154l0.154,0.23l0.054,0.271l-0,2.551Zm5.173,0l-0.054,0.272l-0.154,0.23l-0.23,0.153l-0.271,0.054l-1.488,0l-0.271,-0.054l-0.23,-0.153l-0.154,-0.23l-0.054,-0.272l0,-2.551l0.054,-0.271l0.154,-0.23l0.23,-0.154l0.271,-0.053l1.488,-0l0.271,0.053l0.23,0.154l0.154,0.23l0.054,0.271l-0,2.551Zm-63.177,-36.872l0.271,0.054l0.23,0.153l0.153,0.23l0.054,0.272l0,1.488l-0.054,0.271l-0.153,0.23l-0.23,0.154l-0.271,0.053l-2.552,0l-0.271,-0.053l-0.23,-0.154l-0.153,-0.23l-0.054,-0.271l-0,-1.488l0.054,-0.272l0.153,-0.23l0.23,-0.153l0.271,-0.054l2.552,-0Zm-0,-5.173l0.271,0.053l0.23,0.154l0.153,0.23l0.054,0.271l0,1.488l-0.054,0.272l-0.153,0.23l-0.23,0.153l-0.271,0.054l-2.552,0l-0.271,-0.054l-0.23,-0.153l-0.153,-0.23l-0.054,-0.272l-0,-1.488l0.054,-0.271l0.153,-0.23l0.23,-0.154l0.271,-0.053l2.552,-0Zm84.902,50.888l0.271,0.054l0.23,0.153l0.154,0.23l0.054,0.271l-0,1.418l-0.054,0.271l-0.154,0.23l-0.23,0.154l-0.271,0.053l-1.417,0l-0.272,-0.053l-0.229,-0.154l-0.154,-0.23l-0.054,-0.271l0,-1.418l0.054,-0.271l0.154,-0.23l0.229,-0.153l0.272,-0.054l1.417,-0Zm0,-7.087l0.271,0.054l0.23,0.154l0.154,0.23l0.054,0.271l-0,1.417l-0.054,0.271l-0.154,0.23l-0.23,0.154l-0.271,0.054l-1.417,-0l-0.272,-0.054l-0.229,-0.154l-0.154,-0.23l-0.054,-0.271l0,-1.417l0.054,-0.271l0.154,-0.23l0.229,-0.154l0.272,-0.054l1.417,0Zm-46.039,-63.139l0.032,-0.302l0.141,-0.378l0.242,-0.323l0.323,-0.241l0.378,-0.141l0.301,-0.033l2.835,0l0.301,0.033l0.378,0.141l0.323,0.241l0.241,0.323l0.142,0.378l0.032,0.302l-0,2.834l-0.032,0.302l-0.142,0.378l-0.241,0.323l-0.323,0.241l-0.378,0.141l-0.301,0.033l-2.835,-0l-0.301,-0.033l-0.378,-0.141l-0.323,-0.241l-0.242,-0.323l-0.141,-0.378l-0.032,-0.302l-0,-2.834Zm-28.347,-0l0.032,-0.302l0.142,-0.378l0.241,-0.323l0.323,-0.241l0.378,-0.141l0.301,-0.033l2.835,0l0.301,0.033l0.378,0.141l0.323,0.241l0.242,0.323l0.141,0.378l0.032,0.302l0,2.834l-0.032,0.302l-0.141,0.378l-0.242,0.323l-0.323,0.241l-0.378,0.141l-0.301,0.033l-2.835,-0l-0.301,-0.033l-0.378,-0.141l-0.323,-0.241l-0.241,-0.323l-0.142,-0.378l-0.032,-0.302l0,-2.834Zm70.382,14.595l-0.272,-0.054l-0.23,-0.153l-0.153,-0.23l-0.054,-0.271l-0,-1.418l0.054,-0.271l0.153,-0.23l0.23,-0.154l0.272,-0.053l2.692,-0l0.272,0.053l0.23,0.154l0.153,0.23l0.054,0.271l0,1.418l-0.054,0.271l-0.153,0.23l-0.23,0.153l-0.272,0.054l-2.692,0Zm-0,5.386l-0.272,-0.054l-0.23,-0.153l-0.153,-0.23l-0.054,-0.272l-0,-1.417l0.054,-0.271l0.153,-0.23l0.23,-0.154l0.272,-0.054l2.692,0l0.272,0.054l0.23,0.154l0.153,0.23l0.054,0.271l0,1.417l-0.054,0.272l-0.153,0.23l-0.23,0.153l-0.272,0.054l-2.692,0Zm-80.898,14.25l0.271,0.054l0.23,0.153l0.153,0.23l0.054,0.272l0,1.488l-0.054,0.271l-0.153,0.23l-0.23,0.154l-0.271,0.053l-2.552,0l-0.271,-0.053l-0.23,-0.154l-0.153,-0.23l-0.054,-0.271l-0,-1.488l0.054,-0.272l0.153,-0.23l0.23,-0.153l0.271,-0.054l2.552,-0Zm-0,-5.173l0.271,0.053l0.23,0.154l0.153,0.23l0.054,0.271l0,1.488l-0.054,0.272l-0.153,0.23l-0.23,0.153l-0.271,0.054l-2.552,0l-0.271,-0.054l-0.23,-0.153l-0.153,-0.23l-0.054,-0.272l-0,-1.488l0.054,-0.271l0.153,-0.23l0.23,-0.154l0.271,-0.053l2.552,-0Zm21.458,20.043l0.054,-0.271l0.153,-0.23l0.23,-0.153l0.272,-0.054l1.488,-0l0.271,0.054l0.23,0.153l0.154,0.23l0.053,0.271l0,2.552l-0.053,0.271l-0.154,0.23l-0.23,0.153l-0.271,0.054l-1.488,0l-0.272,-0.054l-0.23,-0.153l-0.153,-0.23l-0.054,-0.271l-0,-2.552Zm-5.173,0l0.053,-0.271l0.154,-0.23l0.23,-0.153l0.271,-0.054l1.488,-0l0.272,0.054l0.23,0.153l0.153,0.23l0.054,0.271l0,2.552l-0.054,0.271l-0.153,0.23l-0.23,0.153l-0.272,0.054l-1.488,0l-0.271,-0.054l-0.23,-0.153l-0.154,-0.23l-0.053,-0.271l-0,-2.552Zm70.628,-15.264l0.271,0.054l0.23,0.153l0.153,0.23l0.054,0.272l0,1.417l-0.054,0.271l-0.153,0.23l-0.23,0.154l-0.271,0.053l-1.418,0l-0.271,-0.053l-0.23,-0.154l-0.153,-0.23l-0.054,-0.271l-0,-1.417l0.054,-0.272l0.153,-0.23l0.23,-0.153l0.271,-0.054l1.418,-0Zm-0,-7.087l0.271,0.054l0.23,0.154l0.153,0.23l0.054,0.271l0,1.417l-0.054,0.271l-0.153,0.23l-0.23,0.154l-0.271,0.054l-1.418,-0l-0.271,-0.054l-0.23,-0.154l-0.153,-0.23l-0.054,-0.271l-0,-1.417l0.054,-0.271l0.153,-0.23l0.23,-0.154l0.271,-0.054l1.418,0Zm-65.705,14.933l-0.271,-0.054l-0.23,-0.153l-0.153,-0.23l-0.054,-0.272l-0,-1.488l0.054,-0.271l0.153,-0.23l0.23,-0.154l0.271,-0.053l2.552,-0l0.271,0.053l0.23,0.154l0.153,0.23l0.054,0.271l0,1.488l-0.054,0.272l-0.153,0.23l-0.23,0.153l-0.271,0.054l-2.552,0Zm0,5.173l-0.271,-0.053l-0.23,-0.154l-0.153,-0.23l-0.054,-0.271l-0,-1.488l0.054,-0.272l0.153,-0.23l0.23,-0.153l0.271,-0.054l2.552,-0l0.271,0.054l0.23,0.153l0.153,0.23l0.054,0.272l0,1.488l-0.054,0.271l-0.153,0.23l-0.23,0.154l-0.271,0.053l-2.552,0Zm55.37,47.965l-0.272,-0.053l-0.23,-0.154l-0.153,-0.23l-0.054,-0.271l-0,-1.418l0.054,-0.271l0.153,-0.23l0.23,-0.153l0.272,-0.054l2.692,-0l0.272,0.054l0.23,0.153l0.153,0.23l0.054,0.271l0,1.418l-0.054,0.271l-0.153,0.23l-0.23,0.154l-0.272,0.053l-2.692,0Zm-0,5.386l-0.272,-0.054l-0.23,-0.153l-0.153,-0.23l-0.054,-0.271l-0,-1.418l0.054,-0.271l0.153,-0.23l0.23,-0.154l0.272,-0.053l2.692,-0l0.272,0.053l0.23,0.154l0.153,0.23l0.054,0.271l0,1.418l-0.054,0.271l-0.153,0.23l-0.23,0.153l-0.272,0.054l-2.692,0Zm-74.627,-51.106l0.054,-0.271l0.154,-0.23l0.23,-0.153l0.271,-0.054l1.488,-0l0.271,0.054l0.23,0.153l0.154,0.23l0.054,0.271l-0,2.552l-0.054,0.271l-0.154,0.23l-0.23,0.153l-0.271,0.054l-1.488,0l-0.271,-0.054l-0.23,-0.153l-0.154,-0.23l-0.054,-0.271l0,-2.552Zm-5.173,0l0.054,-0.271l0.154,-0.23l0.229,-0.153l0.272,-0.054l1.488,-0l0.271,0.054l0.23,0.153l0.154,0.23l0.054,0.271l-0,2.552l-0.054,0.271l-0.154,0.23l-0.23,0.153l-0.271,0.054l-1.488,0l-0.272,-0.054l-0.229,-0.153l-0.154,-0.23l-0.054,-0.271l0,-2.552Zm89.482,-5.142l0.271,0.054l0.23,0.154l0.154,0.23l0.054,0.271l-0,1.417l-0.054,0.272l-0.154,0.23l-0.23,0.153l-0.271,0.054l-2.693,0l-0.271,-0.054l-0.23,-0.153l-0.154,-0.23l-0.054,-0.272l0,-1.417l0.054,-0.271l0.154,-0.23l0.23,-0.154l0.271,-0.054l2.693,0Zm-0,-5.385l0.271,0.053l0.23,0.154l0.154,0.23l0.054,0.271l-0,1.418l-0.054,0.271l-0.154,0.23l-0.23,0.153l-0.271,0.054l-2.693,0l-0.271,-0.054l-0.23,-0.153l-0.154,-0.23l-0.054,-0.271l0,-1.418l0.054,-0.271l0.154,-0.23l0.23,-0.154l0.271,-0.053l2.693,-0Zm-0.278,17.684l0.271,0.054l0.23,0.153l0.154,0.23l0.054,0.271l-0,1.418l-0.054,0.271l-0.154,0.23l-0.23,0.154l-0.271,0.053l-1.417,0l-0.272,-0.053l-0.229,-0.154l-0.154,-0.23l-0.054,-0.271l0,-1.418l0.054,-0.271l0.154,-0.23l0.229,-0.153l0.272,-0.054l1.417,-0Zm0,-7.087l0.271,0.054l0.23,0.154l0.154,0.23l0.054,0.271l-0,1.417l-0.054,0.271l-0.154,0.23l-0.23,0.154l-0.271,0.054l-1.417,-0l-0.272,-0.054l-0.229,-0.154l-0.154,-0.23l-0.054,-0.271l0,-1.417l0.054,-0.271l0.154,-0.23l0.229,-0.154l0.272,-0.054l1.417,0Zm-49.858,20.504l-0.271,-0.054l-0.23,-0.153l-0.153,-0.23l-0.054,-0.271l-0,-1.418l0.054,-0.271l0.153,-0.23l0.23,-0.154l0.271,-0.053l2.693,-0l0.272,0.053l0.229,0.154l0.154,0.23l0.054,0.271l-0,1.418l-0.054,0.271l-0.154,0.23l-0.229,0.153l-0.272,0.054l-2.693,0Zm0,5.386l-0.271,-0.054l-0.23,-0.153l-0.153,-0.23l-0.054,-0.272l-0,-1.417l0.054,-0.271l0.153,-0.23l0.23,-0.154l0.271,-0.054l2.693,0l0.272,0.054l0.229,0.154l0.154,0.23l0.054,0.271l-0,1.417l-0.054,0.272l-0.154,0.23l-0.229,0.153l-0.272,0.054l-2.693,0Zm-8.195,87.344l-0.271,-0.054l-0.23,-0.153l-0.153,-0.23l-0.054,-0.272l-0,-11.055l0.054,-0.271l0.153,-0.23l0.23,-0.154l0.271,-0.053l5.67,-0l0.271,0.053l0.23,0.154l0.153,0.23l0.054,0.271l0,11.055l-0.054,0.272l-0.153,0.23l-0.23,0.153l-0.271,0.054l-5.67,0Zm0,20.976l-0.271,-0.053l-0.23,-0.154l-0.153,-0.23l-0.054,-0.271l-0,-11.055l0.054,-0.272l0.153,-0.23l0.23,-0.153l0.271,-0.054l5.67,-0l0.271,0.054l0.23,0.153l0.153,0.23l0.054,0.272l0,11.055l-0.054,0.271l-0.153,0.23l-0.23,0.154l-0.271,0.053l-5.67,0Zm5.67,-53.512l0.271,0.054l0.23,0.153l0.153,0.23l0.054,0.272l0,11.055l-0.054,0.271l-0.153,0.23l-0.23,0.154l-0.271,0.053l-5.67,0l-0.271,-0.053l-0.23,-0.154l-0.153,-0.23l-0.054,-0.271l-0,-11.055l0.054,-0.272l0.153,-0.23l0.23,-0.153l0.271,-0.054l5.67,-0Zm-0,-20.976l0.271,0.053l0.23,0.154l0.153,0.23l0.054,0.271l0,11.055l-0.054,0.272l-0.153,0.23l-0.23,0.153l-0.271,0.054l-5.67,0l-0.271,-0.054l-0.23,-0.153l-0.153,-0.23l-0.054,-0.272l-0,-11.055l0.054,-0.271l0.153,-0.23l0.23,-0.154l0.271,-0.053l5.67,-0Zm-12.391,-76.93l-0.271,-0.054l-0.23,-0.153l-0.153,-0.23l-0.054,-0.272l-0,-1.488l0.054,-0.271l0.153,-0.23l0.23,-0.154l0.271,-0.053l2.552,-0l0.271,0.053l0.23,0.154l0.153,0.23l0.054,0.271l0,1.488l-0.054,0.272l-0.153,0.23l-0.23,0.153l-0.271,0.054l-2.552,0Zm0,5.173l-0.271,-0.053l-0.23,-0.154l-0.153,-0.23l-0.054,-0.271l-0,-1.488l0.054,-0.272l0.153,-0.23l0.23,-0.153l0.271,-0.054l2.552,-0l0.271,0.054l0.23,0.153l0.153,0.23l0.054,0.272l0,1.488l-0.054,0.271l-0.153,0.23l-0.23,0.154l-0.271,0.053l-2.552,0Zm20.715,-8.373l0.162,0.032l0.138,0.092l0.092,0.138l0.033,0.163l-0,4.677l-0.033,0.163l-0.092,0.138l-0.138,0.092l-0.162,0.032l-0.851,0l-0.163,-0.032l-0.138,-0.092l-0.092,-0.138l-0.032,-0.163l-0,-4.677l0.032,-0.163l0.092,-0.138l0.138,-0.092l0.163,-0.032l0.851,-0Zm-3.6,-0l0.162,0.032l0.138,0.092l0.092,0.138l0.033,0.163l-0,4.677l-0.033,0.163l-0.092,0.138l-0.138,0.092l-0.162,0.032l-0.851,0l-0.163,-0.032l-0.138,-0.092l-0.092,-0.138l-0.032,-0.163l-0,-4.677l0.032,-0.163l0.092,-0.138l0.138,-0.092l0.163,-0.032l0.851,-0Zm-3.6,-0l0.162,0.032l0.138,0.092l0.092,0.138l0.033,0.163l-0,4.677l-0.033,0.163l-0.092,0.138l-0.138,0.092l-0.162,0.032l-0.851,0l-0.163,-0.032l-0.138,-0.092l-0.092,-0.138l-0.032,-0.163l-0,-4.677l0.032,-0.163l0.092,-0.138l0.138,-0.092l0.163,-0.032l0.851,-0Zm-3.6,-0l0.162,0.032l0.138,0.092l0.092,0.138l0.033,0.163l-0,4.677l-0.033,0.163l-0.092,0.138l-0.138,0.092l-0.162,0.032l-0.851,0l-0.163,-0.032l-0.138,-0.092l-0.092,-0.138l-0.032,-0.163l-0,-4.677l0.032,-0.163l0.092,-0.138l0.138,-0.092l0.163,-0.032l0.851,-0Zm-0,-14.032l0.162,0.033l0.138,0.092l0.092,0.138l0.033,0.163l-0,4.677l-0.033,0.162l-0.092,0.138l-0.138,0.093l-0.162,0.032l-0.851,-0l-0.163,-0.032l-0.138,-0.093l-0.092,-0.138l-0.032,-0.162l-0,-4.677l0.032,-0.163l0.092,-0.138l0.138,-0.092l0.163,-0.033l0.851,0Zm3.6,0l0.162,0.033l0.138,0.092l0.092,0.138l0.033,0.163l-0,4.677l-0.033,0.162l-0.092,0.138l-0.138,0.093l-0.162,0.032l-0.851,-0l-0.163,-0.032l-0.138,-0.093l-0.092,-0.138l-0.032,-0.162l-0,-4.677l0.032,-0.163l0.092,-0.138l0.138,-0.092l0.163,-0.033l0.851,0Zm3.6,0l0.162,0.033l0.138,0.092l0.092,0.138l0.033,0.163l-0,4.677l-0.033,0.162l-0.092,0.138l-0.138,0.093l-0.162,0.032l-0.851,-0l-0.163,-0.032l-0.138,-0.093l-0.092,-0.138l-0.032,-0.162l-0,-4.677l0.032,-0.163l0.092,-0.138l0.138,-0.092l0.163,-0.033l0.851,0Zm3.6,0l0.162,0.033l0.138,0.092l0.092,0.138l0.033,0.163l-0,4.677l-0.033,0.162l-0.092,0.138l-0.138,0.093l-0.162,0.032l-0.851,-0l-0.163,-0.032l-0.138,-0.093l-0.092,-0.138l-0.032,-0.162l-0,-4.677l0.032,-0.163l0.092,-0.138l0.138,-0.092l0.163,-0.033l0.851,0Z"/></g></svg>