<?xml version="1.0" encoding="UTF-8" standalone="no"?><!DOCTYPE svg PUBLIC "-//W3C//DTD SVG 1.1//EN" "http://www.w3.org/Graphics/SVG/1.1/DTD/svg11.dtd"><svg width="842px" height="596px" version="1.1" xmlns="http://www.w3.org/2000/svg" xmlns:xlink="http://www.w3.org/1999/xlink" xml:space="preserve" xmlns:serif="http://www.serif.com/" style="fill-rule:evenodd;clip-rule:evenodd;stroke-linejoin:round;stroke-miterlimit:2;"><g id="Cutout"><path d="M374.581,139.956c0,-2.063 1.697,-3.76 3.76,-3.76l108.698,-0c2.062,-0 3.759,1.697 3.759,3.76c0,0.001 0,0.003 0,0.005l-9.516,228.948c-0.003,0.076 -0.066,0.136 -0.142,0.136c-0.002,-0 -0.004,-0.001 -0.006,-0.001l-0.254,0.001c-4.52,-0 -8.239,3.718 -8.239,8.238c0,0.078 -0.063,0.141 -0.141,0.141l-79.56,-0.005c-0.078,0 -0.141,-0.063 -0.141,-0.142c-0,-4.519 -3.719,-8.238 -8.239,-8.238l-0.254,0c-0.002,0 -0.004,0 -0.006,0c-0.076,0 -0.139,-0.06 -0.142,-0.135c0,-0.002 -0,-0.004 -0,-0.006l-9.577,-228.937c0,-0.002 0,-0.003 0,-0.005Zm3.76,-3.477c-1.905,0 -3.473,1.566 -3.476,3.471l-0,0.006l9.571,228.8l0.124,-0c4.628,-0 8.444,3.769 8.521,8.38l79.278,0.005c0.077,-4.611 3.893,-8.38 8.52,-8.38c0.002,0 0.125,0 0.125,0l9.511,-228.805l0,-0.006c-0.003,-1.905 -1.571,-3.471 -3.476,-3.471l-108.698,0Z"/><path d="M390.454,149.642c-2.18,0 -3.95,-1.77 -3.95,-3.95c0,-2.18 1.77,-3.95 3.95,-3.95l2.268,0c2.18,0 3.95,1.77 3.95,3.95c0,2.18 -1.77,3.95 -3.95,3.95l-2.268,0Zm0,-0.123l2.268,-0c2.112,-0 3.827,-1.715 3.827,-3.827c-0,-2.112 -1.715,-3.827 -3.827,-3.827l-2.268,0c-2.112,0 -3.826,1.715 -3.826,3.827c-0,2.112 1.714,3.827 3.826,3.827Z"/><path d="M472.659,149.642c-2.18,0 -3.95,-1.77 -3.95,-3.95c0,-2.18 1.77,-3.95 3.95,-3.95l2.268,0c2.18,0 3.95,1.77 3.95,3.95c-0,2.18 -1.77,3.95 -3.95,3.95l-2.268,0Zm0,-0.123l2.268,-0c2.112,-0 3.827,-1.715 3.827,-3.827c-0,-2.112 -1.715,-3.827 -3.827,-3.827l-2.268,0c-2.112,0 -3.827,1.715 -3.827,3.827c0,2.112 1.715,3.827 3.827,3.827Z"/></g></svg>