<?xml version="1.0" encoding="UTF-8" standalone="no"?><!DOCTYPE svg PUBLIC "-//W3C//DTD SVG 1.1//EN" "http://www.w3.org/Graphics/SVG/1.1/DTD/svg11.dtd"><svg width="842px" height="596px" version="1.1" xmlns="http://www.w3.org/2000/svg" xmlns:xlink="http://www.w3.org/1999/xlink" xml:space="preserve" xmlns:serif="http://www.serif.com/" style="fill-rule:evenodd;clip-rule:evenodd;stroke-linejoin:round;stroke-miterlimit:2;"><g id="Copper"><path d="M374.581,139.956c0,-2.063 1.697,-3.76 3.76,-3.76l108.698,-0c2.062,-0 3.759,1.697 3.759,3.76c0,0.001 0,0.003 0,0.005l-9.516,228.948c-0.003,0.076 -0.066,0.136 -0.142,0.136c-0.002,-0 -0.004,-0.001 -0.006,-0.001l-0.254,0.001c-4.52,-0 -8.239,3.718 -8.239,8.238c0,0.078 -0.063,0.141 -0.141,0.141l-79.56,-0.005c-0.078,0 -0.141,-0.063 -0.141,-0.142c-0,-4.519 -3.719,-8.238 -8.239,-8.238l-0.254,0c-0.002,0 -0.004,0 -0.006,0c-0.076,0 -0.139,-0.06 -0.142,-0.135c0,-0.002 -0,-0.004 -0,-0.006l-9.577,-228.937c0,-0.002 0,-0.003 0,-0.005Zm10.772,55.603l0,1.642l-0.709,-0l-0.271,0.053l-0.23,0.154l-0.153,0.23l-0.054,0.271l-0,1.488l0.054,0.272l0.153,0.23l0.23,0.153l0.271,0.054l2.552,0l0.271,-0.054l0.23,-0.153l0.153,-0.23l0.054,-0.272l0,-1.488l-0.054,-0.271l-0.153,-0.23l-0.23,-0.154l-0.271,-0.053l-0.709,-0l-0,-1.642l0.709,0l0.271,-0.053l0.23,-0.154l0.153,-0.23l0.054,-0.271l0,-1.488l-0.054,-0.272l-0.153,-0.23l-0.23,-0.153l-0.271,-0.054l-2.552,-0l-0.271,0.054l-0.23,0.153l-0.153,0.23l-0.054,0.272l-0,1.488l0.054,0.271l0.153,0.23l0.23,0.154l0.271,0.053l0.709,0Zm47.867,151.526l0,-1.832l0.709,-0l0.271,-0.054l0.23,-0.154l0.154,-0.23l0.054,-0.271l-0,-1.488l-0.054,-0.271l-0.154,-0.23l-0.23,-0.154l-0.271,-0.054l-2.551,0l-0.271,0.054l-0.23,0.154l-0.154,0.23l-0.054,0.271l0,1.488l0.054,0.271l0.154,0.23l0.23,0.154l0.271,0.054l0.708,-0l0,1.832l-0.85,0l-0.301,0.033l-0.378,0.141l-0.323,0.241l-0.242,0.323l-0.141,0.378l-0.032,0.302l-0,2.834l0.032,0.302l0.141,0.378l0.242,0.323l0.323,0.241l0.378,0.141l0.301,0.033l2.835,-0l0.301,-0.033l0.378,-0.141l0.323,-0.241l0.242,-0.323l0.141,-0.378l0.032,-0.302l0,-2.834l-0.032,-0.302l-0.141,-0.378l-0.242,-0.323l-0.323,-0.241l-0.378,-0.141l-0.301,-0.033l-0.851,0Zm-47.867,-170.899l0,1.575l-0.709,-0l-0.271,0.053l-0.23,0.154l-0.153,0.23l-0.054,0.271l-0,1.488l0.054,0.272l0.153,0.23l0.23,0.153l0.271,0.054l2.552,0l0.271,-0.054l0.23,-0.153l0.153,-0.23l0.054,-0.272l0,-1.488l-0.054,-0.271l-0.153,-0.23l-0.23,-0.154l-0.271,-0.053l-0.709,-0l-0,-1.575l0.709,-0l0.271,-0.054l0.23,-0.154l0.153,-0.229l0.054,-0.272l0,-1.488l-0.054,-0.271l-0.153,-0.23l-0.23,-0.154l-0.271,-0.054l-2.552,0l-0.271,0.054l-0.23,0.154l-0.153,0.23l-0.054,0.271l-0,1.488l0.054,0.272l0.153,0.229l0.23,0.154l0.271,0.054l0.709,-0Zm0,29.093l0,1.537l-0.67,-0l-0.272,0.054l-0.229,0.153l-0.154,0.23l-0.054,0.271l0,2.552l0.054,0.271l0.154,0.23l0.229,0.153l0.272,0.054l1.488,0l0.271,-0.054l0.23,-0.153l0.154,-0.23l0.054,-0.271l-0,-2.552l-0.054,-0.271l-0.154,-0.23l-0.185,-0.123l-0,-1.621l0.709,0l0.271,-0.053l0.23,-0.154l0.153,-0.23l0.054,-0.271l0,-1.488l-0.054,-0.272l-0.153,-0.23l-0.23,-0.153l-0.271,-0.054l-2.552,-0l-0.271,0.054l-0.23,0.153l-0.153,0.23l-0.054,0.272l-0,1.488l0.054,0.271l0.153,0.23l0.23,0.154l0.271,0.053l0.709,0Zm2.551,-44.939l2.403,0c0.15,0 0.294,-0.059 0.4,-0.166l5.888,-5.887l20.05,-0l4.535,4.535l0,6.163l-0.142,-0l-0.271,0.054l-0.23,0.153l-0.153,0.23l-0.054,0.272l-0,2.692l0.054,0.272l0.153,0.23l0.23,0.153l0.159,0.032l0,4.109l-0.021,0.005l-0.138,0.092l-0.092,0.138l-0.032,0.163l-0,4.677l0.032,0.162l0.092,0.138l0.138,0.093l0.163,0.032l0.851,-0l0.162,-0.032l0.138,-0.093l0.092,-0.138l0.033,-0.162l-0,-4.677l-0.033,-0.163l-0.092,-0.138l-0.138,-0.092l-0.021,-0.005l0,-4.087l0.396,0l0.271,-0.054l0.23,-0.153l0.154,-0.23l0.053,-0.272l0,-2.692l-0.053,-0.272l-0.154,-0.23l-0.23,-0.153l-0.271,-0.054l-0.142,-0l-0,-6.398c-0,-0.151 -0.059,-0.294 -0.166,-0.401l-4.867,-4.867c-0.107,-0.106 -0.25,-0.166 -0.401,-0.166l-20.52,0c-0.151,0 -0.294,0.06 -0.401,0.166l-5.887,5.887l-2.168,0l0,-0.177l-0.054,-0.271l-0.153,-0.23l-0.23,-0.154l-0.271,-0.053l-2.552,-0l-0.271,0.053l-0.23,0.154l-0.153,0.23l-0.054,0.271l-0,1.488l0.054,0.272l0.153,0.23l0.23,0.153l0.271,0.054l2.552,0l0.271,-0.054l0.23,-0.153l0.153,-0.23l0.054,-0.272l0,-0.177Zm74.489,151.678l0,20.798l-0.177,-0l-0.271,0.054l-0.23,0.153l-0.154,0.23l-0.054,0.271l0,2.552l0.054,0.271l0.154,0.23l0.23,0.153l0.271,0.054l0.177,0l0,2.512l-0.177,-0l-0.271,0.054l-0.23,0.153l-0.154,0.23l-0.054,0.271l0,2.552l0.054,0.271l0.154,0.23l0.23,0.153l0.271,0.054l1.488,0l0.271,-0.054l0.23,-0.153l0.154,-0.23l0.054,-0.271l-0,-2.552l-0.054,-0.271l-0.154,-0.23l-0.23,-0.153l-0.271,-0.054l-0.177,-0l-0,-2.512l0.177,0l0.271,-0.054l0.23,-0.153l0.154,-0.23l0.054,-0.271l-0,-2.552l-0.054,-0.271l-0.154,-0.23l-0.23,-0.153l-0.271,-0.054l-0.177,-0l-0,-20.798c1.293,-0.263 2.268,-1.408 2.268,-2.778c-0,-1.564 -1.271,-2.835 -2.835,-2.835c-1.564,0 -2.835,1.271 -2.835,2.835c0,1.37 0.975,2.515 2.268,2.778Zm-17.64,22.946l0,1.209c0,0.151 0.06,0.295 0.166,0.401l0.969,0.969l-0.045,0.068l-0.054,0.272l0,1.488l0.054,0.271l0.154,0.23l0.23,0.154l0.271,0.054l2.551,-0l0.271,-0.054l0.23,-0.154l0.154,-0.23l0.054,-0.271l-0,-0.177l0.015,-0c0.151,-0 0.294,-0.06 0.401,-0.166l3.661,-3.661l2.499,-0l0,0.709l0.054,0.271l0.154,0.23l0.229,0.153l0.272,0.054l1.488,0l0.271,-0.054l0.23,-0.153l0.154,-0.23l0.054,-0.271l-0,-2.552l-0.054,-0.271l-0.154,-0.23l-0.23,-0.153l-0.271,-0.054l-1.488,-0l-0.272,0.054l-0.229,0.153l-0.154,0.23l-0.054,0.271l0,0.709l-2.734,0c-0.151,0 -0.294,0.06 -0.401,0.166l-3.448,3.449l-0.047,-0.237l-0.154,-0.229l-0.23,-0.154l-0.271,-0.054l-1.927,0l-1.235,-1.235l-0,-0.975l2.268,0l0.271,-0.053l0.23,-0.154l0.153,-0.23l0.054,-0.271l0,-11.055l-0.054,-0.272l-0.153,-0.23l-0.23,-0.153l-0.271,-0.054l-5.67,-0l-0.271,0.054l-0.23,0.153l-0.153,0.23l-0.054,0.272l-0,11.055l0.054,0.271l0.153,0.23l0.23,0.154l0.271,0.053l2.268,0Zm-12.135,-31.277l7.835,-0l1.324,1.323l-0,8.269l0.054,0.272l0.153,0.23l0.23,0.153l0.271,0.054l5.67,0l0.271,-0.054l0.23,-0.153l0.153,-0.23l0.054,-0.272l0,-11.055l-0.054,-0.271l-0.153,-0.23l-0.23,-0.154l-0.271,-0.053l-5.67,-0l-0.271,0.053l-0.23,0.154l-0.153,0.23l-0.054,0.271l-0,1.183l-0.688,-0.688c-0.107,-0.106 -0.25,-0.166 -0.401,-0.166l-8.07,0c-0.263,-1.293 -1.408,-2.268 -2.778,-2.268c-1.564,0 -2.835,1.271 -2.835,2.835c0,1.564 1.271,2.835 2.835,2.835c1.37,-0 2.515,-0.975 2.778,-2.268Zm-11.115,34.608l9.166,0l0,1.076l0.054,0.271l0.154,0.23l0.23,0.154l0.271,0.054l2.551,-0l0.271,-0.054l0.23,-0.154l0.154,-0.23l0.003,-0.014l4.406,4.407l0,9.125c0,0.151 0.06,0.294 0.166,0.401l1.08,1.08c0.107,0.106 0.25,0.166 0.401,0.166l14.76,-0c0.151,-0 0.294,-0.06 0.401,-0.166l2.387,-2.387c0.106,-0.107 0.166,-0.25 0.166,-0.401l-0,-8.589l0.177,0l0.271,-0.054l0.23,-0.153l0.154,-0.23l0.054,-0.271l-0,-2.552l-0.054,-0.271l-0.154,-0.23l-0.23,-0.153l-0.271,-0.054l-1.488,-0l-0.272,0.054l-0.229,0.153l-0.154,0.23l-0.054,0.271l0,2.552l0.054,0.271l0.154,0.23l0.229,0.153l0.272,0.054l0.177,0l-0,8.354l-2.055,2.055l-14.29,0l-0.748,-0.748l-0,-9.125c-0,-0.151 -0.06,-0.294 -0.166,-0.401l-5.173,-5.173c-0.045,-0.044 -0.095,-0.081 -0.15,-0.108l-0,-0.235l-0.054,-0.272l-0.154,-0.229l-0.23,-0.154l-0.271,-0.054l-2.054,0c-0.039,-0.008 -0.08,-0.013 -0.12,-0.013l-10.252,0l0,-7.12l-0.054,-0.272l-0.153,-0.23l-0.23,-0.153l-0.271,-0.054l-5.67,-0l-0.271,0.054l-0.23,0.153l-0.153,0.23l-0.054,0.272l-0,11.055l0.054,0.271l0.153,0.23l0.23,0.154l0.271,0.053l5.67,0l0.271,-0.053l0.23,-0.154l0.153,-0.23l0.054,-0.271l0,-2.801Zm-11.963,-133.016l-0,1.537l-0.177,-0l-0.272,0.054l-0.23,0.153l-0.153,0.23l-0.054,0.271l-0,2.552l0.054,0.271l0.153,0.23l0.23,0.153l0.272,0.054l1.488,0l0.271,-0.054l0.23,-0.153l0.154,-0.23l0.053,-0.271l0,-2.552l-0.053,-0.271l-0.154,-0.23l-0.23,-0.153l-0.271,-0.054l-0.177,-0l-0,-1.537l0.282,0l0.271,-0.053l0.23,-0.154l0.153,-0.23l0.054,-0.271l0,-1.488l-0.054,-0.272l-0.153,-0.23l-0.23,-0.153l-0.271,-0.054l-2.552,-0l-0.271,0.054l-0.23,0.153l-0.153,0.23l-0.054,0.272l-0,1.488l0.054,0.271l0.153,0.23l0.23,0.154l0.271,0.053l1.136,0Zm-0.249,104.014l5.126,5.125l-0,5.701l0.054,0.272l0.153,0.23l0.23,0.153l0.271,0.054l5.67,0l0.271,-0.054l0.23,-0.153l0.153,-0.23l0.054,-0.272l0,-11.055l-0.054,-0.271l-0.153,-0.23l-0.23,-0.154l-0.271,-0.053l-5.67,-0l-0.271,0.053l-0.23,0.154l-0.153,0.23l-0.054,0.271l-0,3.751l-4.398,-4.397c0.214,-0.399 0.336,-0.854 0.336,-1.338c-0,-1.564 -1.271,-2.835 -2.835,-2.835c-1.564,0 -2.835,1.271 -2.835,2.835c0,1.564 1.271,2.835 2.835,2.835c0.67,-0 1.286,-0.233 1.771,-0.622Zm-17.238,-99.926l1.708,-0l-0,0.709l0.053,0.271l0.154,0.23l0.23,0.153l0.271,0.054l1.488,0l0.272,-0.054l0.23,-0.153l0.153,-0.23l0.054,-0.271l0,-2.552l-0.054,-0.271l-0.153,-0.23l-0.23,-0.153l-0.272,-0.054l-1.488,-0l-0.271,0.054l-0.23,0.153l-0.154,0.23l-0.053,0.271l-0,0.709l-1.708,0l-0,-0.709l-0.054,-0.271l-0.154,-0.23l-0.23,-0.153l-0.271,-0.054l-1.488,-0l-0.271,0.054l-0.23,0.153l-0.154,0.23l-0.054,0.271l0,2.552l0.054,0.271l0.154,0.23l0.23,0.153l0.271,0.054l1.488,0l0.271,-0.054l0.23,-0.153l0.154,-0.23l0.054,-0.271l-0,-0.709Zm-6.7,-23.528l0,1.642l-0.709,-0l-0.271,0.053l-0.23,0.154l-0.153,0.23l-0.054,0.271l-0,1.488l0.054,0.272l0.153,0.23l0.23,0.153l0.271,0.054l2.552,0l0.271,-0.054l0.23,-0.153l0.153,-0.23l0.054,-0.272l0,-1.488l-0.054,-0.271l-0.153,-0.23l-0.23,-0.154l-0.271,-0.053l-0.709,-0l-0,-1.642l0.709,0l0.271,-0.053l0.23,-0.154l0.153,-0.23l0.054,-0.271l0,-1.488l-0.054,-0.272l-0.153,-0.23l-0.23,-0.153l-0.271,-0.054l-2.552,-0l-0.271,0.054l-0.23,0.153l-0.153,0.23l-0.054,0.272l-0,1.488l0.054,0.271l0.153,0.23l0.23,0.154l0.271,0.053l0.709,0Zm25.35,-14.195l0,2.086l-0.779,-0l-0.271,0.054l-0.23,0.153l-0.154,0.23l-0.054,0.271l0,1.418l0.054,0.271l0.154,0.23l0.23,0.154l0.271,0.053l2.693,0l0.271,-0.053l0.034,-0.023l4.121,-0l-0,1.769l0.032,0.162l0.092,0.138l0.138,0.093l0.163,0.032l0.851,-0l0.162,-0.032l0.138,-0.093l0.092,-0.138l0.033,-0.162l-0,-4.677l-0.033,-0.163l-0.092,-0.138l-0.138,-0.092l-0.162,-0.033l-0.851,0l-0.163,0.033l-0.138,0.092l-0.092,0.138l-0.032,0.163l-0,1.774l-3.718,0l0,-0.916l-0.054,-0.271l-0.153,-0.23l-0.23,-0.153l-0.271,-0.054l-0.78,-0l0,-2.147c1.218,-0.318 2.118,-1.426 2.118,-2.743c-0,-1.564 -1.271,-2.835 -2.835,-2.835c-1.564,0 -2.835,1.271 -2.835,2.835c0,1.423 1.051,2.602 2.418,2.804Zm24.263,51.439l0,2.147l-0.177,-0l-0.271,0.053l-0.23,0.154l-0.154,0.23l-0.053,0.271l-0,2.551l0.053,0.272l0.154,0.23l0.23,0.153l0.271,0.054l1.488,0l0.272,-0.054l0.068,-0.045l3.556,3.556c0.106,0.106 0.25,0.166 0.4,0.166l4.04,-0l-0,0.142l0.054,0.271l0.153,0.23l0.23,0.153l0.271,0.054l0.142,0l0,5.413c0,0.151 0.06,0.294 0.166,0.401l7.516,7.516c0.107,0.106 0.25,0.166 0.401,0.166l2.325,-0l-0,3.886l0.053,0.272l0.154,0.229l0.23,0.154l0.271,0.054l3.402,-0l0.271,-0.054l0.23,-0.154l0.154,-0.229l0.053,-0.272l0,-3.042l2.597,2.597l-0.014,0.009l-0.153,0.23l-0.054,0.271l-0,0.142l-0.157,0c-0.151,0 -0.294,0.06 -0.401,0.166l-2.887,2.887l-6.74,0c-0.151,0 -0.294,0.06 -0.401,0.166l-1.08,1.08c-0.106,0.107 -0.166,0.25 -0.166,0.401l0,17.28c0,0.151 0.06,0.294 0.166,0.401l10.567,10.567l0,0.249l-4.96,-0l-0.271,0.054l-0.23,0.153l-0.154,0.23l-0.054,0.271l0,5.67l0.054,0.271l0.154,0.23l0.23,0.153l0.271,0.054l5.387,0l0,0.519c-1.293,0.263 -2.268,1.408 -2.268,2.778c0,1.564 1.271,2.835 2.835,2.835c1.564,-0 2.835,-1.271 2.835,-2.835c-0,-1.37 -0.975,-2.515 -2.268,-2.778l-0,-0.519l4.534,0l0.271,-0.054l0.23,-0.153l0.154,-0.23l0.054,-0.271l-0,-5.67l-0.054,-0.271l-0.154,-0.23l-0.23,-0.153l-0.271,-0.054l-4.961,-0l0,-0.484c0,-0.15 -0.059,-0.294 -0.166,-0.4l-10.567,-10.568l-0,-16.81l0.748,-0.748l6.74,-0c0.151,-0 0.294,-0.06 0.401,-0.166l2.809,-2.809l-0,0.064l0.054,0.271l0.153,0.23l0.23,0.154l0.272,0.053l2.692,0l0.272,-0.053l0.23,-0.154l0.153,-0.23l0.054,-0.271l0,-1.418l-0.054,-0.271l-0.153,-0.23l-0.23,-0.153l-0.272,-0.054l-1.774,-0l-3.726,-3.726c-0.077,-0.077 -0.173,-0.129 -0.277,-0.152l0,-3.416l-0.053,-0.271l-0.154,-0.23l-0.23,-0.154l-0.271,-0.053l-3.402,-0l-0.271,0.053l-0.23,0.154l-0.154,0.23l-0.053,0.271l-0,2.917l-2.09,0l-7.184,-7.184l0,-5.178l0.142,0l0.271,-0.054l0.23,-0.153l0.154,-0.23l0.053,-0.271l0,-1.418l-0.053,-0.271l-0.154,-0.23l-0.23,-0.154l-0.271,-0.053l-1.418,-0l-0.271,0.053l-0.23,0.154l-0.153,0.23l-0.054,0.271l-0,0.142l-3.805,-0l-3.822,-3.822l0,-1.927l-0.054,-0.271l-0.153,-0.23l-0.23,-0.154l-0.272,-0.053l-0.177,-0l0,-2.119c1.327,-0.237 2.335,-1.397 2.335,-2.791c-0,-1.564 -1.271,-2.835 -2.835,-2.835c-1.564,0 -2.835,1.271 -2.835,2.835c0,1.347 0.942,2.475 2.201,2.763Zm-24.053,-27.524l0,1.642l-2.509,-0l-0.271,0.053l-0.23,0.154l-0.153,0.23l-0.054,0.271l-0,1.488l0.054,0.272l0.153,0.23l0.23,0.153l0.271,0.054l2.552,0l0.271,-0.054l0.23,-0.153l0.153,-0.23l0.054,-0.272l0,-0.207c0.223,-0.077 0.383,-0.288 0.383,-0.537l-0,-4.546c-0,-0.249 -0.16,-0.46 -0.383,-0.537l0,-0.207l-0.054,-0.272l-0.153,-0.23l-0.23,-0.153l-0.271,-0.054l-2.552,-0l-0.271,0.054l-0.23,0.153l-0.153,0.23l-0.054,0.272l-0,1.488l0.054,0.271l0.153,0.23l0.23,0.154l0.271,0.053l2.509,0Zm11.147,-0.893l0,-1.981l0.021,-0.004l0.138,-0.092l0.092,-0.138l0.033,-0.163l-0,-4.677l-0.033,-0.163l-0.092,-0.138l-0.138,-0.092l-0.021,-0.004l0,-2.899l0.149,-0.148l10.151,-0c0.151,-0 0.294,-0.06 0.401,-0.166l0.681,-0.682l1.927,0l0.271,-0.053l0.23,-0.154l0.154,-0.23l0.054,-0.271l-0,-1.488l-0.054,-0.272l-0.154,-0.23l-0.23,-0.153l-0.271,-0.054l-2.551,-0l-0.271,0.054l-0.23,0.153l-0.154,0.23l-0.054,0.272l0,1.488l0.054,0.271l0.045,0.068l-0.083,0.083l-10.151,0c-0.151,0 -0.294,0.06 -0.401,0.166l-0.48,0.481c-0.107,0.106 -0.166,0.25 -0.166,0.4l-0.001,3.134l-0.021,0.004l-0.138,0.092l-0.092,0.138l-0.032,0.163l-0,4.677l0.032,0.163l0.092,0.138l0.138,0.092l0.021,0.004l0,1.945l-0.537,-0l-0.271,0.053l-0.23,0.154l-0.154,0.23l-0.053,0.271l-0,2.551l0.053,0.272l0.154,0.23l0.23,0.153l0.271,0.054l1.488,0l0.272,-0.054l0.23,-0.153l0.153,-0.23l0.054,-0.272l0,-2.551l-0.054,-0.271l-0.153,-0.23l-0.23,-0.154l-0.089,-0.017Zm5.64,-29.681l-0,-2.31l2.611,-0l0.301,-0.033l0.378,-0.141l0.323,-0.241l0.241,-0.323l0.142,-0.378l0.032,-0.302l-0,-0.85l2.353,-0l-0,0.709l0.053,0.271l0.154,0.23l0.23,0.153l0.271,0.054l1.488,0l0.272,-0.054l0.23,-0.153l0.153,-0.23l0.054,-0.271l0,-2.552l-0.054,-0.271l-0.153,-0.23l-0.23,-0.153l-0.272,-0.054l-1.488,-0l-0.271,0.054l-0.23,0.153l-0.154,0.23l-0.053,0.271l-0,0.709l-2.353,0l-0,-0.85l-0.032,-0.302l-0.142,-0.378l-0.241,-0.323l-0.323,-0.241l-0.378,-0.141l-0.301,-0.033l-2.835,0l-0.301,0.033l-0.378,0.141l-0.323,0.241l-0.242,0.323l-0.141,0.378l-0.032,0.302l-0,2.834l0.032,0.302l0.141,0.378l0.242,0.323l0.092,0.069l0,2.656l-0.142,-0l-0.271,0.054l-0.23,0.153l-0.154,0.23l-0.053,0.272l-0,2.692l0.053,0.272l0.154,0.23l0.23,0.153l0.271,0.054l1.418,0l0.271,-0.054l0.23,-0.153l0.153,-0.23l0.054,-0.272l0,-2.692l-0.054,-0.272l-0.153,-0.23l-0.23,-0.153l-0.271,-0.054l-0.142,-0Zm-12.054,185.862l-0,0.49l0.032,0.302l0.141,0.378l0.242,0.323l0.323,0.241l0.378,0.141l0.301,0.033l2.834,-0l0.302,-0.033l0.378,-0.141l0.323,-0.241l0.241,-0.323l0.141,-0.378l0.033,-0.302l-0,-2.834l-0.033,-0.302l-0.141,-0.378l-0.241,-0.323l-0.323,-0.241l-0.378,-0.141l-0.302,-0.033l-2.834,0l-0.301,0.033l-0.378,0.141l-0.323,0.241l-0.242,0.323l-0.141,0.378l-0.032,0.302l-0,1.21l-5.371,0l-2.908,-2.908l-0,-14.65l6.508,-6.508l17.765,-0c0.151,-0 0.294,-0.06 0.401,-0.166l5.234,-5.234l12.365,-0c0.151,-0 0.294,-0.06 0.401,-0.166l3.6,-3.6c0.106,-0.107 0.166,-0.25 0.166,-0.401l-0,-14.4c-0,-0.151 -0.06,-0.294 -0.166,-0.401l-3.6,-3.6c-0.107,-0.106 -0.25,-0.166 -0.401,-0.166l-2.285,0l-5.231,-5.231l-0,-0.739l4.961,0l0.271,-0.054l0.23,-0.153l0.153,-0.23l0.054,-0.271l0,-1l11.886,11.886c0.107,0.106 0.25,0.166 0.401,0.166l7.56,-0c0.151,-0 0.294,-0.06 0.401,-0.166l5.04,-5.04c0.106,-0.107 0.166,-0.25 0.166,-0.401l-0,-19.205c-0,-0.151 -0.06,-0.294 -0.166,-0.401l-12.392,-12.391l0,-2.011l3.643,-3.642l2.134,0l0.272,-0.054l0.23,-0.153l0.153,-0.23l0.054,-0.271l0,-0.142l1.372,-0c0.151,-0 0.294,-0.06 0.401,-0.166l4.493,-4.493c0.106,-0.107 0.166,-0.25 0.166,-0.401l-0,-16.631l3.434,-3.434c0.106,-0.107 0.166,-0.25 0.166,-0.401l-0,-19.593l0.513,-0c0.151,-0 0.294,-0.06 0.401,-0.166l2.16,-2.16c0.106,-0.107 0.166,-0.25 0.166,-0.401l-0,-28.08c-0,-0.151 -0.06,-0.294 -0.166,-0.401l-4.514,-4.514l-0,-8.045c-0,-0.151 -0.06,-0.294 -0.166,-0.401l-9.414,-9.414c-0.107,-0.106 -0.25,-0.166 -0.401,-0.166l-9.306,0c-0.151,0 -0.294,0.06 -0.401,0.166l-15.48,15.48c-0.106,0.107 -0.166,0.25 -0.166,0.401l0,6.965l-6.314,6.314c-0.106,0.107 -0.166,0.25 -0.166,0.401l0,15.534c0,0.151 0.06,0.294 0.166,0.401l4.32,4.32c0.107,0.106 0.25,0.166 0.401,0.166l0.513,-0l0,17.073c0,0.151 0.06,0.294 0.166,0.401l2.16,2.16c0.107,0.106 0.25,0.166 0.401,0.166l5.4,-0c0.151,-0 0.294,-0.06 0.401,-0.166l1.192,-1.193l0,7.632c0,0.151 0.06,0.294 0.166,0.401l0.72,0.72c0.107,0.106 0.25,0.166 0.401,0.166l22.113,-0l0,16.064l-4.161,4.161l-1.137,-0l0,-0.142l-0.054,-0.271l-0.153,-0.23l-0.23,-0.154l-0.272,-0.053l-2.692,-0l-0.272,0.053l-0.23,0.154l-0.153,0.23l-0.054,0.271l-0,1.418l0.054,0.271l0.018,0.028l-2.448,2.448l0,-1.962l-0.053,-0.272l-0.154,-0.229l-0.23,-0.154l-0.271,-0.054l-3.402,0l-0.271,0.054l-0.23,0.154l-0.154,0.229l-0.053,0.272l-0,7.937l0.053,0.271l0.154,0.23l0.23,0.154l0.271,0.053l3.402,0l0.271,-0.053l0.23,-0.154l0.154,-0.23l0.053,-0.271l0,-0.758l11.424,11.424l0,18.735l-4.708,4.708l-7.09,0l-12.522,-12.522l0,-3.066l-0.054,-0.271l-0.153,-0.23l-0.23,-0.153l-0.271,-0.054l-11.056,-0l-0.271,0.054l-0.23,0.153l-0.153,0.23l-0.054,0.271l-0,5.67l0.054,0.271l0.153,0.23l0.23,0.153l0.271,0.054l4.961,0l0,0.974c0,0.151 0.06,0.294 0.166,0.401l4.595,4.595l-13.516,0l-3.386,-3.386c-0.107,-0.106 -0.25,-0.166 -0.401,-0.166l-6.945,0l0,-2.174l19.586,-19.586c0.107,-0.107 0.166,-0.25 0.166,-0.401l0,-16.977l4.961,0l0.271,-0.054l0.23,-0.153l0.154,-0.23l0.053,-0.271l0,-5.67l-0.053,-0.271l-0.154,-0.23l-0.23,-0.153l-0.271,-0.054l-11.055,-0l-0.272,0.054l-0.23,0.153l-0.153,0.23l-0.054,0.271l-0,5.67l0.054,0.271l0.153,0.23l0.23,0.153l0.272,0.054l4.96,0l0,16.742l-18.618,18.618l0,-1.182l-0.054,-0.272l-0.153,-0.23l-0.23,-0.153l-0.271,-0.054l-5.67,-0l-0.271,0.054l-0.23,0.153l-0.153,0.23l-0.054,0.272l-0,1.182l-5.61,-5.61l-0,-18.298l3.988,-3.988l12.365,-0c0.151,-0 0.294,-0.06 0.401,-0.166l3.6,-3.6c0.106,-0.107 0.166,-0.25 0.166,-0.401l-0,-21.96c-0,-0.151 -0.06,-0.294 -0.166,-0.401l-2.581,-2.581l0.088,-0.131l0.054,-0.272l-0,-1.417l-0.054,-0.271l-0.154,-0.23l-0.229,-0.154l-0.272,-0.054l-1.962,0l-4.084,-4.084l-0,-2.027c1.293,-0.263 2.268,-1.408 2.268,-2.778c-0,-1.37 -0.975,-2.515 -2.268,-2.778l-0,-6.472l0.118,-0.079l0.154,-0.23l0.054,-0.272l-0,-2.551l-0.054,-0.271l-0.154,-0.23l-0.229,-0.154l-0.272,-0.053l-1.488,-0l-0.271,0.053l-0.23,0.154l-0.154,0.23l-0.054,0.271l0,2.551l0.054,0.272l0.154,0.23l0.23,0.153l0.271,0.054l0.737,0l0,6.344c-1.293,0.263 -2.268,1.408 -2.268,2.778c0,1.37 0.975,2.515 2.268,2.778l0,2.262c0,0.151 0.06,0.294 0.166,0.401l3.754,3.754l-0.087,0.132l-0.054,0.271l-0,1.417l0.054,0.272l0.153,0.23l0.23,0.153l0.271,0.054l1.962,0l2.911,2.911l0,21.49l-3.268,3.268l-12.365,0c-0.151,0 -0.294,0.06 -0.401,0.166l-4.32,4.32c-0.106,0.107 -0.166,0.25 -0.166,0.401l0,18.768c0,0.151 0.06,0.294 0.166,0.401l6.578,6.578l-0,8.269l0.054,0.271l0.153,0.23l0.23,0.154l0.271,0.053l5.67,0l0.271,-0.053l0.23,-0.154l0.153,-0.23l0.054,-0.271l0,-4.961l6.71,0l3.386,3.386c0.107,0.106 0.25,0.166 0.401,0.166l15.12,-0l2.285,-0l3.268,3.268l0,13.93l-3.268,3.268l-12.365,0c-0.151,0 -0.294,0.06 -0.401,0.166l-5.234,5.234l-17.765,0c-0.151,0 -0.294,0.06 -0.401,0.166l-6.84,6.84c-0.106,0.107 -0.166,0.25 -0.166,0.401l0,15.12c0,0.151 0.06,0.294 0.166,0.401l3.24,3.24c0.107,0.106 0.25,0.166 0.401,0.166l5.606,-0Zm55.849,-173.52l0,-1.049l-0.054,-0.271l-0.153,-0.23l-0.23,-0.154l-0.272,-0.054l-2.692,0l-0.272,0.054l-0.23,0.154l-0.153,0.23l-0.054,0.271l-0,0.142l-2.757,-0l-0,-0.233l-0.054,-0.271l-0.154,-0.23l-0.23,-0.153l-0.271,-0.054l-1.417,-0l-0.272,0.054l-0.23,0.153l-0.153,0.23l-0.054,0.271l-0,2.693l0.054,0.272l0.153,0.229l0.23,0.154l0.272,0.054l1.417,-0l0.271,-0.054l0.23,-0.154l0.154,-0.229l0.054,-0.272l-0,-1.326l2.757,-0l-0,0.141l0.054,0.272l0.153,0.23l0.23,0.153l0.272,0.054l2.006,0c0.076,0.037 0.16,0.057 0.247,0.057l4.133,-0c0.151,-0 0.294,-0.06 0.401,-0.166l0.319,-0.319l4.113,4.113l0,27.61l-1.828,1.828l-1.205,-0l-8.432,-0l-0,-1.567l-0.033,-0.163l-0.092,-0.138l-0.138,-0.092l-0.162,-0.032l-0.851,-0l-0.163,0.032l-0.138,0.092l-0.092,0.138l-0.032,0.163l-0,4.677l0.032,0.163l0.092,0.138l0.138,0.092l0.163,0.032l0.851,0l0.162,-0.032l0.138,-0.092l0.092,-0.138l0.033,-0.163l-0,-1.976l8.197,-0l0.028,0.028l0,19.33l-3.268,3.268l-22.21,-0l-0.388,-0.388l-0,-9.041l0.111,-0.165l0.054,-0.272l-0,-2.693l-0.054,-0.271l-0.154,-0.23l-0.23,-0.153l-0.271,-0.054l-1.417,-0l-0.272,0.054l-0.23,0.153l-0.153,0.23l-0.054,0.271l-0,2.693l0.054,0.272l0.153,0.229l0.23,0.154l0.272,0.054l0.141,-0l0,0.455l-1.142,1.142l-4.93,-0l-1.828,-1.828l-0,-16.733l0.271,-0.271c0.106,-0.106 0.166,-0.248 0.166,-0.401l0,-3.493l0.78,0l0.271,-0.054l0.23,-0.153l0.154,-0.23l0.054,-0.272l-0,-1.417l-0.054,-0.271l-0.154,-0.23l-0.23,-0.154l-0.271,-0.054l-2.693,0l-0.271,0.054l-0.23,0.154l-0.154,0.23l-0.054,0.271l0,1.417l0.054,0.272l0.154,0.23l0.23,0.153l0.271,0.054l0.779,0l0,2.926l-0.715,-0l-3.988,-3.988l-0,-15.064l6.314,-6.314c0.106,-0.107 0.166,-0.25 0.166,-0.401l-0,-6.965l15.148,-15.148l8.836,-0l9.082,9.082l0,7.81l-0.388,0.388l-2.75,-0Zm-16.961,54.311l0.12,-0.12l0.93,-0.929l1.701,-0l-0,0.142l0.054,0.271l0.153,0.23l0.23,0.153l0.271,0.054l1.418,0l0.271,-0.054l0.23,-0.153l0.154,-0.23l0.053,-0.271l0,-1.418l-0.053,-0.271l-0.154,-0.23l-0.23,-0.154l-0.271,-0.053l-1.418,-0l-0.271,0.053l-0.23,0.154l-0.153,0.23l-0.054,0.271l-0,0.142l-1.936,-0c-0.151,-0 -0.295,0.059 -0.401,0.166l-0.128,0.128l0,-3.393l0.78,0l0.271,-0.054l0.23,-0.153l0.154,-0.23l0.054,-0.272l-0,-1.417l-0.054,-0.271l-0.154,-0.23l-0.23,-0.154l-0.271,-0.054l-2.693,0l-0.271,0.054l-0.23,0.154l-0.154,0.23l-0.054,0.271l0,1.417l0.054,0.272l0.154,0.23l0.23,0.153l0.271,0.054l0.779,0l0,4.481l-1.278,-0l-0.271,0.053l-0.23,0.154l-0.154,0.23l-0.054,0.271l0,1.418l0.054,0.271l0.154,0.23l0.23,0.153l0.271,0.054l1.417,0l0.272,-0.054l0.23,-0.153l0.153,-0.23l0.054,-0.271l0,-1.325Zm-10.22,-9.611l-0,-1.512l0.177,0l0.271,-0.054l0.23,-0.153l0.154,-0.23l0.054,-0.272l-0,-2.551l-0.054,-0.271l-0.154,-0.23l-0.23,-0.154l-0.271,-0.053l-0.277,-0l-0,-2.263l0.333,-0.333l-0,0.686l0.032,0.163l0.092,0.138l0.138,0.092l0.163,0.032l0.851,0l0.162,-0.032l0.138,-0.092l0.092,-0.138l0.033,-0.163l-0,-4.677l-0.033,-0.163l-0.092,-0.138l-0.138,-0.092l-0.162,-0.032l-0.851,-0l-0.163,0.032l-0.138,0.092l-0.092,0.138l-0.032,0.163l-0,2.387l-1.301,1.301c-0.107,0.107 -0.166,0.25 -0.166,0.401l-0,2.498l-0.077,-0l-0.272,0.053l-0.229,0.154l-0.154,0.23l-0.054,0.271l0,2.551l0.054,0.272l0.154,0.23l0.229,0.153l0.272,0.054l0.177,0l-0,1.505l-0.32,-0l-0.271,0.054l-0.23,0.153l-0.154,0.23l-0.054,0.271l0,2.693l0.054,0.272l0.154,0.229l0.23,0.154l0.271,0.054l1.417,-0l0.271,-0.054l0.23,-0.154l0.154,-0.229l0.054,-0.272l-0,-2.693l-0.054,-0.271l-0.154,-0.23l-0.23,-0.153l-0.234,-0.047Zm3.143,-34.666l2.288,0l-0,0.069l0.054,0.271l0.153,0.23l0.23,0.153l0.272,0.054l2.692,0l0.272,-0.054l0.23,-0.153l0.153,-0.23l0.054,-0.271l0,-0.296c0.004,-0.004 0.009,-0.008 0.013,-0.012l2.541,-2.541l0.87,-0l0,0.142l0.054,0.271l0.154,0.23l0.23,0.153l0.271,0.054l1.417,0l0.272,-0.054l0.23,-0.153l0.153,-0.23l0.054,-0.271l0,-1.418l-0.054,-0.271l-0.153,-0.23l-0.23,-0.154l-0.272,-0.053l-1.417,-0l-0.271,0.053l-0.23,0.154l-0.154,0.23l-0.054,0.271l0,0.142l-1.105,-0c-0.151,-0 -0.294,0.059 -0.401,0.166l-2.034,2.034l-0.091,-0.136l-0.23,-0.154l-0.272,-0.053l-2.692,-0l-0.272,0.053l-0.23,0.154l-0.153,0.23l-0.054,0.271l-0,0.215l-2.288,0l0,-0.142l-0.054,-0.271l-0.153,-0.23l-0.23,-0.153l-0.271,-0.054l-1.418,-0l-0.271,0.054l-0.23,0.153l-0.153,0.23l-0.054,0.271l-0,1.418l0.054,0.271l0.153,0.23l0.23,0.154l0.271,0.053l1.418,0l0.271,-0.053l0.23,-0.154l0.153,-0.23l0.054,-0.271l0,-0.142Zm-7.667,7.586l0,1.834l-0.779,-0l-0.271,0.053l-0.23,0.154l-0.154,0.23l-0.054,0.271l0,1.418l0.054,0.271l0.154,0.23l0.23,0.153l0.271,0.054l2.693,0l0.271,-0.054l0.23,-0.153l0.154,-0.23l0.054,-0.271l-0,-0.073l2.134,-0l-0,1.772l0.032,0.162l0.092,0.138l0.138,0.092l0.163,0.033l0.851,-0l0.162,-0.033l0.138,-0.092l0.092,-0.138l0.033,-0.162l-0,-4.678l-0.033,-0.162l-0.092,-0.138l-0.138,-0.092l-0.162,-0.033l-0.851,0l-0.163,0.033l-0.138,0.092l-0.092,0.138l-0.032,0.162l-0,1.772l-2.134,0l-0,-0.211l-0.054,-0.271l-0.154,-0.23l-0.23,-0.154l-0.271,-0.053l-0.78,-0l0,-2.565c0.482,-0.508 0.778,-1.194 0.778,-1.949c-0,-1.565 -1.271,-2.835 -2.835,-2.835c-1.565,0 -2.835,1.27 -2.835,2.835c0,1.564 1.27,2.835 2.835,2.835c0.323,-0 0.634,-0.055 0.923,-0.155Zm10.501,25.173l1.907,-0l0,0.142l0.054,0.271l0.154,0.23l0.23,0.153l0.271,0.054l2.693,0l0.271,-0.054l0.23,-0.153l0.154,-0.23l0.054,-0.271l-0,-1.418l-0.054,-0.271l-0.154,-0.23l-0.23,-0.154l-0.271,-0.053l-2.693,-0l-0.271,0.053l-0.23,0.154l-0.154,0.23l-0.054,0.271l0,0.142l-1.825,0l-0,-1.731l-0.054,-0.271l-0.154,-0.23l-0.23,-0.154l-0.271,-0.053l-0.1,-0l0,-1.513l0.021,-0.004l0.138,-0.092l0.092,-0.138l0.033,-0.163l-0,-1.772l1.899,0l-0,1.772l0.032,0.163l0.092,0.138l0.138,0.092l0.163,0.032l0.851,0l0.162,-0.032l0.138,-0.092l0.092,-0.138l0.033,-0.163l-0,-4.677l-0.033,-0.163l-0.092,-0.138l-0.138,-0.092l-0.162,-0.032l-0.851,-0l-0.163,0.032l-0.138,0.092l-0.092,0.138l-0.032,0.163l-0,1.772l-1.899,-0l-0,-1.772l-0.033,-0.163l-0.092,-0.138l-0.138,-0.092l-0.162,-0.032l-0.851,-0l-0.163,0.032l-0.138,0.092l-0.092,0.138l-0.032,0.163l-0,4.677l0.032,0.163l0.092,0.138l0.138,0.092l0.021,0.004l0,1.513l-0.254,-0l-0.271,0.053l-0.23,0.154l-0.154,0.23l-0.054,0.271l0,2.551l0.054,0.272l0.154,0.23l0.23,0.153l0.271,0.054l1.488,0l0.271,-0.054l0.23,-0.153l0.126,-0.188Zm10.338,6.236l3.742,3.742l0,0.633l0.054,0.271l0.154,0.23l0.23,0.153l0.271,0.054l1.417,0l0.272,-0.054l0.23,-0.153l0.153,-0.23l0.054,-0.271l0,-0.098l2.766,0l0,0.142l0.054,0.271l0.154,0.23l0.229,0.154l0.272,0.053l1.417,0l0.271,-0.053l0.23,-0.154l0.154,-0.23l0.054,-0.271l-0,-1.418l-0.054,-0.271l-0.154,-0.23l-0.23,-0.153l-0.271,-0.054l-1.417,-0l-0.272,0.054l-0.229,0.153l-0.154,0.23l-0.054,0.271l0,0.142l-2.766,0l0,-0.186l-0.054,-0.271l-0.153,-0.23l-0.23,-0.154l-0.272,-0.053l-1.417,-0l-0.271,0.053l-0.164,0.11l-2.718,-2.718l0.088,-0.131l0.054,-0.272l-0,-1.417l-0.054,-0.271l-0.154,-0.23l-0.23,-0.154l-0.271,-0.054l-2.693,0l-0.271,0.054l-0.23,0.154l-0.154,0.23l-0.054,0.271l0,1.417l0.054,0.272l0.154,0.23l0.23,0.153l0.271,0.054l1.962,0Zm5.364,-40.925l0,3.728l-0.689,-0l-0.271,0.054l-0.23,0.153l-0.154,0.23l-0.053,0.271l-0,2.693l0.053,0.272l0.154,0.229l0.23,0.154l0.271,0.054l1.418,-0l0.271,-0.054l0.23,-0.154l0.153,-0.229l0.054,-0.272l0,-2.693l-0.054,-0.271l-0.153,-0.23l-0.096,-0.064l-0,-3.143l0.832,0.832c0.107,0.107 0.25,0.166 0.401,0.166l3.623,0l-0,0.142l0.054,0.271l0.153,0.23l0.23,0.154l0.271,0.054l1.418,-0l0.271,-0.054l0.23,-0.154l0.153,-0.23l0.054,-0.271l0,-1.417l-0.054,-0.271l-0.153,-0.23l-0.23,-0.154l-0.271,-0.054l-1.418,0l-0.271,0.054l-0.23,0.154l-0.153,0.23l-0.054,0.271l-0,0.142l-3.388,-0l-1.394,-1.395l-0,-1.324l-0.054,-0.271l-0.154,-0.23l-0.23,-0.154l-0.271,-0.053l-1.417,-0l-0.272,0.053l-0.23,0.154l-0.153,0.23l-0.054,0.271l-0,1.418l0.054,0.271l0.153,0.23l0.23,0.153l0.272,0.054l0.918,0Zm-8.945,27.434l1.899,0l-0,1.772l0.032,0.163l0.092,0.138l0.138,0.092l0.163,0.032l0.074,0l0,3.074l-0.779,-0l-0.271,0.053l-0.23,0.154l-0.154,0.23l-0.054,0.271l0,1.418l0.054,0.271l0.154,0.23l0.23,0.153l0.271,0.054l2.693,0l0.271,-0.054l0.23,-0.153l0.154,-0.23l0.054,-0.271l-0,-1.418l-0.054,-0.271l-0.154,-0.23l-0.23,-0.154l-0.271,-0.053l-0.78,-0l0,-3.284l0.035,-0.052l0.033,-0.163l-0,-4.677l-0.033,-0.163l-0.092,-0.138l-0.138,-0.092l-0.162,-0.032l-0.851,-0l-0.163,0.032l-0.138,0.092l-0.092,0.138l-0.032,0.163l-0,1.772l-1.899,-0l-0,-1.772l-0.033,-0.163l-0.092,-0.138l-0.138,-0.092l-0.162,-0.032l-0.851,-0l-0.163,0.032l-0.138,0.092l-0.092,0.138l-0.032,0.163l-0,4.677l0.032,0.163l0.092,0.138l0.138,0.092l0.163,0.032l0.851,0l0.162,-0.032l0.138,-0.092l0.092,-0.138l0.033,-0.163l-0,-1.772Zm-0.284,-17.334l0,-5.96l2.156,-2.156l2.645,0c0.151,0 0.295,-0.059 0.401,-0.166l0.675,-0.674c0.106,-0.107 0.166,-0.25 0.166,-0.401l-0,-2.806l1.667,-1.667l10.131,-0l1.828,1.828l0,5.29l-0.748,0.748l-5.165,-0c-0.151,-0 -0.294,0.059 -0.401,0.166l-0.72,0.72c-0.106,0.107 -0.166,0.25 -0.166,0.401l0,6.818l-0.028,0.028l-1.357,0l-0,-1.772l-0.033,-0.162l-0.092,-0.138l-0.138,-0.092l-0.162,-0.033l-0.851,0l-0.163,0.033l-0.138,0.092l-0.092,0.138l-0.032,0.162l-0,4.678l0.032,0.162l0.092,0.138l0.138,0.092l0.163,0.033l0.851,-0l0.162,-0.033l0.138,-0.092l0.092,-0.138l0.033,-0.162l-0,-1.772l1.592,-0l0.614,-0l0,0.289l0.054,0.271l0.154,0.23l0.23,0.153l0.271,0.054l2.693,0l0.271,-0.054l0.23,-0.153l0.154,-0.23l0.054,-0.271l-0,-1.418l-0.054,-0.271l-0.154,-0.23l-0.23,-0.154l-0.271,-0.053l-2.693,-0l-0.271,0.053l-0.125,0.084l-0,-6.045l0.388,-0.388l5.165,-0c0.151,-0 0.294,-0.06 0.401,-0.166l1.08,-1.08c0.106,-0.107 0.166,-0.25 0.166,-0.401l-0,-5.76c-0,-0.151 -0.06,-0.294 -0.166,-0.401l-2.16,-2.16c-0.107,-0.107 -0.25,-0.166 -0.401,-0.166l-10.601,-0c-0.151,-0 -0.294,0.059 -0.401,0.166l-1.999,1.999c-0.106,0.107 -0.166,0.25 -0.166,0.401l0,2.806l-0.342,0.343l-2.646,-0c-0.15,-0 -0.294,0.059 -0.4,0.166l-2.488,2.488c-0.107,0.106 -0.166,0.25 -0.166,0.4l-0.001,6.195l-0.021,0.005l-0.138,0.092l-0.092,0.138l-0.032,0.162l-0,4.678l0.032,0.162l0.092,0.138l0.138,0.092l0.163,0.033l0.851,-0l0.162,-0.033l0.138,-0.092l0.092,-0.138l0.033,-0.162l-0,-4.678l-0.033,-0.162l-0.092,-0.138l-0.138,-0.092l-0.021,-0.005Zm-2.282,-20.63l1.924,-1.924l0,0.072l0.054,0.272l0.154,0.23l0.229,0.153l0.272,0.054l0.177,0l-0,1.721l-0.176,-0l-0.271,0.054l-0.23,0.153l-0.154,0.23l-0.054,0.271l0,2.693l0.054,0.272l0.154,0.229l0.23,0.154l0.271,0.054l1.417,-0l0.271,-0.054l0.23,-0.154l0.154,-0.229l0.054,-0.272l-0,-2.693l-0.054,-0.271l-0.154,-0.23l-0.23,-0.153l-0.271,-0.054l-0.107,-0l-0,-1.721l0.177,0l0.271,-0.054l0.23,-0.153l0.154,-0.23l0.054,-0.272l-0,-2.551l-0.054,-0.271l-0.154,-0.23l-0.23,-0.154l-0.271,-0.053l-1.488,-0l-0.272,0.053l-0.229,0.154l-0.154,0.23l-0.054,0.271l0,0.875l-3.158,3.158l-1.926,0l-0.271,0.054l-0.23,0.154l-0.154,0.23l-0.054,0.271l0,1.488l0.054,0.272l0.154,0.229l0.23,0.154l0.271,0.054l2.551,-0l0.271,-0.054l0.23,-0.154l0.154,-0.229l0.054,-0.272l-0,-1.488l-0.054,-0.271l-0.046,-0.068Zm13.275,50.634l1.644,-0c0.151,-0 0.294,-0.06 0.401,-0.166l0.972,-0.972l1.324,-0l0.271,-0.054l0.23,-0.154l0.154,-0.23l0.054,-0.271l-0,-1.417l-0.054,-0.271l-0.154,-0.23l-0.23,-0.154l-0.271,-0.054l-0.142,0l0,-4.047l1.222,0l0.271,-0.053l0.23,-0.154l0.154,-0.23l0.054,-0.271l-0,-1.418l-0.054,-0.271l-0.154,-0.23l-0.23,-0.153l-0.271,-0.054l-1.417,-0l-0.272,0.054l-0.229,0.153l-0.154,0.23l-0.054,0.271l0,1.325l-0.063,0.063c-0.107,0.107 -0.166,0.25 -0.166,0.401l-0.001,4.384l-0.141,0l-0.272,0.054l-0.229,0.154l-0.154,0.23l-0.054,0.271l0,1.324l-0.806,0.806l-1.409,-0l-0,-0.142l-0.054,-0.271l-0.154,-0.23l-0.23,-0.154l-0.271,-0.054l-2.693,0l-0.271,0.054l-0.23,0.154l-0.154,0.23l-0.054,0.271l0,1.417l0.054,0.272l0.154,0.23l0.23,0.153l0.271,0.054l2.693,0l0.271,-0.054l0.23,-0.153l0.154,-0.23l0.054,-0.272l-0,-0.141Zm-5.292,-58.498l0,2.753l-0.177,-0l-0.271,0.053l-0.23,0.154l-0.154,0.23l-0.054,0.271l0,2.551l0.054,0.272l0.154,0.23l0.23,0.153l0.271,0.054l1.488,0l0.271,-0.054l0.23,-0.153l0.154,-0.23l0.054,-0.272l-0,-0.708l2.906,-0l0.048,0.24l0.153,0.23l0.23,0.153l0.272,0.054l2.692,0l0.272,-0.054l0.23,-0.153l0.153,-0.23l0.054,-0.271l0,-1.418l-0.054,-0.271l-0.153,-0.23l-0.23,-0.154l-0.272,-0.053l-2.692,-0l-0.272,0.053l-0.23,0.154l-0.153,0.23l-0.054,0.271l-0,0.315l-2.9,-0l-0,-0.709l-0.054,-0.271l-0.154,-0.23l-0.23,-0.154l-0.271,-0.053l-0.177,-0l-0,-3.398c-0,-0.106 -0.029,-0.207 -0.083,-0.296c0.302,-0.451 0.479,-0.993 0.479,-1.576c-0,-1.564 -1.271,-2.835 -2.835,-2.835c-1.564,0 -2.835,1.271 -2.835,2.835c0,1.564 1.271,2.835 2.835,2.835c0.47,-0 0.914,-0.115 1.305,-0.318Zm-14.035,33.966l0.001,3.248c-0,0.151 0.059,0.294 0.166,0.401l0.642,0.643c0.107,0.106 0.25,0.166 0.401,0.166l9.36,-0c0.151,-0 0.294,-0.06 0.401,-0.166l0.72,-0.72c0.106,-0.107 0.166,-0.25 0.166,-0.401l-0,-3.156l0.098,-0.02l0.138,-0.092l0.092,-0.138l0.033,-0.162l-0,-4.678l-0.033,-0.162l-0.092,-0.138l-0.138,-0.092l-0.021,-0.005l0,-2.262l0.972,-0l0.271,-0.054l0.23,-0.154l0.154,-0.229l0.053,-0.272l0,-2.693l-0.053,-0.271l-0.154,-0.23l-0.23,-0.153l-0.271,-0.054l-1.418,-0l-0.271,0.054l-0.23,0.153l-0.153,0.23l-0.054,0.271l-0,2.693l0.021,0.105l-0.001,2.866l-0.021,0.005l-0.138,0.092l-0.092,0.138l-0.032,0.162l-0,4.678l0.032,0.162l0.092,0.138l0.082,0.055l0,2.978l-0.388,0.388l-8.89,-0l-0.311,-0.311l0,-3.013l0.021,-0.005l0.138,-0.092l0.092,-0.138l0.033,-0.162l-0,-4.678l-0.033,-0.162l-0.092,-0.138l-0.138,-0.092l-0.162,-0.033l-0.851,0l-0.163,0.033l-0.138,0.092l-0.092,0.138l-0.032,0.162l-0,4.678l0.032,0.162l0.092,0.138l0.138,0.092l0.021,0.005Zm23.472,4.214l0,2.377l-0.141,0l-0.272,0.054l-0.229,0.154l-0.154,0.23l-0.054,0.271l0,1.417l0.054,0.271l0.154,0.23l0.229,0.154l0.272,0.054l1.417,-0l0.271,-0.054l0.23,-0.154l0.154,-0.23l0.054,-0.271l-0,-1.417l-0.054,-0.271l-0.154,-0.23l-0.23,-0.154l-0.271,-0.054l-0.142,0l0,-2.377l0.42,0l0.271,-0.054l0.23,-0.153l0.154,-0.23l0.054,-0.272l-0,-0.141l0.329,-0c0.151,-0 0.294,-0.06 0.401,-0.166l2.866,-2.866c0.106,-0.107 0.166,-0.25 0.166,-0.401l-0,-5.04c-0,-0.151 -0.06,-0.294 -0.166,-0.401l-2.217,-2.217c-0.106,-0.106 -0.25,-0.166 -0.401,-0.166l-0.326,0l0,-0.141l-0.054,-0.272l-0.153,-0.23l-0.23,-0.153l-0.271,-0.054l-1.418,-0l-0.271,0.054l-0.23,0.153l-0.153,0.23l-0.054,0.272l-0,1.417l0.054,0.271l0.153,0.23l0.23,0.154l0.271,0.053l1.418,0l0.271,-0.053l0.23,-0.154l0.153,-0.23l0.054,-0.271l0,-0.142l0.091,0l1.885,1.885l0,4.57l-2.534,2.534l-0.094,-0l-0,-0.142l-0.054,-0.271l-0.154,-0.23l-0.23,-0.154l-0.271,-0.054l-2.693,0l-0.271,0.054l-0.23,0.154l-0.154,0.23l-0.054,0.271l0,1.417l0.054,0.272l0.154,0.23l0.23,0.153l0.271,0.054l1.139,0Zm-9.072,-4.214l0,8.56l-0.021,0.004l-0.138,0.092l-0.092,0.138l-0.032,0.163l-0,4.677l0.032,0.163l0.092,0.138l0.138,0.092l0.021,0.004l0.001,2.244c-0,0.151 0.059,0.294 0.166,0.401l0.791,0.791l-0.088,0.132l-0.054,0.271l0,1.418l0.054,0.271l0.154,0.23l0.23,0.153l0.271,0.054l2.693,0l0.271,-0.054l0.23,-0.153l0.154,-0.23l0.054,-0.271l-0,-1.418l-0.054,-0.271l-0.154,-0.23l-0.23,-0.154l-0.271,-0.053l-1.962,-0l-1.122,-1.122l0,-2.009l0.021,-0.004l0.138,-0.092l0.092,-0.138l0.033,-0.163l-0,-4.677l-0.033,-0.163l-0.092,-0.138l-0.138,-0.092l-0.021,-0.004l0,-8.56l0.021,-0.005l0.138,-0.092l0.092,-0.138l0.033,-0.162l-0,-4.678l-0.033,-0.162l-0.092,-0.138l-0.138,-0.092l-0.162,-0.033l-0.851,0l-0.163,0.033l-0.138,0.092l-0.092,0.138l-0.032,0.162l-0,4.678l0.032,0.162l0.092,0.138l0.138,0.092l0.021,0.005Zm-10.8,-7.479l0,2.007l-0.021,0.005l-0.138,0.092l-0.092,0.138l-0.032,0.162l-0,4.678l0.032,0.162l0.092,0.138l0.138,0.092l0.163,0.033l0.851,-0l0.162,-0.033l0.138,-0.092l0.092,-0.138l0.033,-0.162l-0,-4.678l-0.033,-0.162l-0.092,-0.138l-0.138,-0.092l-0.021,-0.005l0,-2.01l0.254,-0.051l0.23,-0.153l0.153,-0.23l0.054,-0.272l0,-1.417l-0.054,-0.271l-0.153,-0.23l-0.23,-0.154l-0.272,-0.054l-2.692,0l-0.272,0.054l-0.23,0.154l-0.153,0.23l-0.054,0.271l-0,1.417l0.054,0.272l0.153,0.23l0.23,0.153l0.272,0.054l1.576,0Zm-5.374,-12.399l0.433,0.433c0.107,0.107 0.25,0.166 0.401,0.166l3.123,0l0,0.177l0.054,0.272l0.154,0.23l0.23,0.153l0.271,0.054l2.551,0l0.271,-0.054l0.23,-0.153l0.154,-0.23l0.054,-0.272l-0,-1.488l-0.054,-0.271l-0.154,-0.23l-0.23,-0.154l-0.271,-0.053l-2.551,-0l-0.271,0.053l-0.23,0.154l-0.154,0.23l-0.054,0.271l0,0.177l-2.888,0l-0.268,-0.267l0,-1.324l-0.054,-0.271l-0.153,-0.23l-0.23,-0.154l-0.271,-0.054l-1.418,0l-0.271,0.054l-0.23,0.154l-0.153,0.23l-0.054,0.271l-0,1.417l0.054,0.271l0.153,0.23l0.23,0.154l0.271,0.054l1.325,-0Zm-19.782,19.497l-0,-2.024l0.177,0l0.271,-0.054l0.23,-0.153l0.154,-0.23l0.053,-0.272l0,-2.551l-0.053,-0.271l-0.154,-0.23l-0.23,-0.154l-0.271,-0.053l-1.391,-0l0,-1.945l0.021,-0.004l0.138,-0.092l0.092,-0.138l0.033,-0.163l-0,-4.677l-0.033,-0.163l-0.092,-0.138l-0.138,-0.092l-0.162,-0.032l-0.851,-0l-0.163,0.032l-0.138,0.092l-0.092,0.138l-0.032,0.163l-0,4.677l0.032,0.163l0.092,0.138l0.138,0.092l0.021,0.004l0.001,2.716c-0,0.15 0.059,0.294 0.166,0.4l0.161,0.162l-0,1.926l0.054,0.272l0.153,0.23l0.23,0.153l0.272,0.054l0.177,0l-0,2.024c-1.294,0.263 -2.268,1.408 -2.268,2.778c-0,1.564 1.27,2.835 2.835,2.835c1.564,-0 2.834,-1.271 2.834,-2.835c0,-1.37 -0.974,-2.515 -2.267,-2.778Zm15.285,-40.215l3.623,-0c0.263,1.293 1.408,2.268 2.778,2.268c1.564,-0 2.835,-1.271 2.835,-2.835c-0,-1.564 -1.271,-2.835 -2.835,-2.835c-1.37,0 -2.515,0.975 -2.778,2.268l-3.623,0l0,-0.709l-0.053,-0.271l-0.154,-0.23l-0.23,-0.153l-0.271,-0.054l-1.488,-0l-0.272,0.054l-0.23,0.153l-0.153,0.23l-0.054,0.271l-0,2.552l0.054,0.271l0.153,0.23l0.23,0.153l0.272,0.054l1.488,0l0.271,-0.054l0.23,-0.153l0.154,-0.23l0.053,-0.271l0,-0.709Zm6.181,186.689l0,-1.843l0.709,-0l0.271,-0.054l0.23,-0.154l0.154,-0.23l0.054,-0.271l-0,-1.488l-0.054,-0.271l-0.154,-0.23l-0.23,-0.154l-0.271,-0.054l-2.551,0l-0.271,0.054l-0.23,0.154l-0.154,0.23l-0.054,0.271l0,1.488l0.054,0.271l0.154,0.23l0.23,0.154l0.271,0.054l0.708,-0l0,1.832l-1.797,0l-0.301,0.033l-0.378,0.141l-0.323,0.241l-0.242,0.323l-0.141,0.378l-0.032,0.302l-0,2.834l0.032,0.302l0.141,0.378l0.242,0.323l0.323,0.241l0.378,0.141l0.301,0.033l2.835,-0l0.301,-0.033l0.378,-0.141l0.323,-0.241l0.242,-0.323l0.141,-0.378l0.032,-0.302l0,-2.834l-0.032,-0.302l-0.141,-0.378l-0.242,-0.323l-0.323,-0.241l-0.378,-0.141l-0.205,-0.022Zm-62.987,-180.697l0,1.708l-0.709,0l-0.271,0.054l-0.23,0.154l-0.153,0.23l-0.054,0.271l-0,1.488l0.054,0.271l0.153,0.23l0.23,0.154l0.271,0.054l2.552,-0l0.271,-0.054l0.23,-0.154l0.153,-0.23l0.054,-0.271l0,-1.488l-0.054,-0.271l-0.153,-0.23l-0.23,-0.154l-0.271,-0.054l-0.709,0l-0,-1.708l0.709,0l0.271,-0.053l0.23,-0.154l0.153,-0.23l0.054,-0.271l0,-1.488l-0.054,-0.272l-0.153,-0.23l-0.23,-0.153l-0.271,-0.054l-2.552,-0l-0.271,0.054l-0.23,0.153l-0.153,0.23l-0.054,0.272l-0,1.488l0.054,0.271l0.153,0.23l0.23,0.154l0.271,0.053l0.709,0Zm16.486,42.968l1.642,-0l-0,0.709l0.053,0.271l0.154,0.23l0.23,0.153l0.271,0.054l1.488,0l0.272,-0.054l0.23,-0.153l0.153,-0.23l0.054,-0.271l0,-2.552l-0.054,-0.271l-0.153,-0.23l-0.23,-0.153l-0.272,-0.054l-1.488,-0l-0.271,0.054l-0.23,0.153l-0.154,0.23l-0.053,0.271l-0,0.709l-1.642,0l0,-0.709l-0.053,-0.271l-0.154,-0.23l-0.23,-0.153l-0.271,-0.054l-1.488,-0l-0.272,0.054l-0.23,0.153l-0.153,0.23l-0.054,0.271l-0,2.552l0.054,0.271l0.153,0.23l0.23,0.153l0.272,0.054l1.488,0l0.271,-0.054l0.23,-0.153l0.154,-0.23l0.053,-0.271l0,-0.709Zm24.105,-32.882l1.899,-0l-0,1.772l0.032,0.162l0.092,0.138l0.138,0.093l0.163,0.032l0.851,-0l0.162,-0.032l0.138,-0.093l0.092,-0.138l0.033,-0.162l-0,-0.997l2.565,0l0,0.177l0.054,0.272l0.154,0.23l0.23,0.153l0.271,0.054l2.551,0l0.271,-0.054l0.23,-0.153l0.154,-0.23l0.054,-0.272l-0,-1.488l-0.054,-0.271l-0.154,-0.23l-0.23,-0.154l-0.271,-0.053l-2.551,-0l-0.271,0.053l-0.23,0.154l-0.154,0.23l-0.054,0.271l0,0.177l-2.406,0l-0.159,-0.159l-0,-0.098l3.878,-3.878c0.426,0.256 0.925,0.404 1.458,0.404c1.564,-0 2.835,-1.271 2.835,-2.835c-0,-1.564 -1.271,-2.835 -2.835,-2.835c-1.564,0 -2.835,1.271 -2.835,2.835c0,0.622 0.201,1.197 0.541,1.664l-3.042,3.042l-0,-0.686l-0.033,-0.163l-0.092,-0.138l-0.138,-0.092l-0.162,-0.033l-0.851,0l-0.163,0.033l-0.138,0.092l-0.092,0.138l-0.032,0.163l-0,1.771l-1.899,0l-0,-1.771l-0.033,-0.163l-0.092,-0.138l-0.138,-0.092l-0.162,-0.033l-0.851,0l-0.163,0.033l-0.138,0.092l-0.092,0.138l-0.032,0.163l-0,4.677l0.032,0.162l0.092,0.138l0.138,0.093l0.163,0.032l0.851,-0l0.162,-0.032l0.138,-0.093l0.092,-0.138l0.033,-0.162l-0,-1.772Zm-4.441,97.634l5.505,-0c0.151,-0 0.294,-0.06 0.401,-0.166l4.272,-4.272c0.106,-0.107 0.166,-0.25 0.166,-0.401l-0,-41.146c-0,-0.067 -0.012,-0.133 -0.034,-0.194l-0,-2.002l-0.054,-0.271l-0.154,-0.23l-0.229,-0.154l-0.272,-0.053l-0.177,-0l0,-7.576c0,-0.151 -0.059,-0.294 -0.166,-0.401l-0.188,-0.188l-0,-1.302l0.748,-0.748c0.106,-0.107 0.166,-0.25 0.166,-0.401l-0,-20.574c-0,-0.151 -0.06,-0.294 -0.166,-0.401l-1.777,-1.777l-0,-4.251l-0.033,-0.163l-0.092,-0.138l-0.138,-0.092l-0.162,-0.032l-0.851,-0l-0.163,0.032l-0.138,0.092l-0.092,0.138l-0.032,0.163l-0,4.677l0.032,0.163l0.092,0.138l0.138,0.092l0.163,0.032l0.524,0l1.561,1.562l0,20.104l-0.15,0.15l-0.068,-0.046l-0.271,-0.053l-1.488,-0l-0.271,0.053l-0.23,0.154l-0.154,0.23l-0.054,0.271l0,2.551l0.054,0.272l0.154,0.23l0.23,0.153l0.271,0.054l1.417,0l0,6.832l-0.177,-0l-0.271,0.053l-0.23,0.154l-0.154,0.23l-0.054,0.271l0,0.709l-2.185,-0l-0,-0.675l-0.054,-0.271l-0.154,-0.23l-0.229,-0.154l-0.272,-0.053l-2.693,-0l-0.271,0.053l-0.23,0.154l-0.153,0.23l-0.054,0.271l-0,1.418l0.054,0.271l0.153,0.23l0.23,0.153l0.271,0.054l2.693,0l0.272,-0.054l0.229,-0.153l0.074,-0.11l2.319,-0l0,0.708l0.054,0.272l0.154,0.23l0.23,0.153l0.271,0.054l1.097,0l0,39.847l-3.94,3.94l-5.27,-0l0,-4.961l-0.054,-0.271l-0.153,-0.23l-0.23,-0.154l-0.271,-0.053l-5.67,-0l-0.271,0.053l-0.23,0.154l-0.153,0.23l-0.054,0.271l-0,11.055l0.054,0.272l0.153,0.23l0.23,0.153l0.271,0.054l5.67,0l0.271,-0.054l0.23,-0.153l0.153,-0.23l0.054,-0.272l0,-4.96Zm-21.523,-111.444l-0,21.512c-0,0.151 0.059,0.294 0.166,0.401l4.747,4.746c0.106,0.107 0.25,0.166 0.4,0.166l2.403,0l-0,0.177l0.054,0.272l0.153,0.23l0.23,0.153l0.271,0.054l2.552,0l0.271,-0.054l0.23,-0.153l0.153,-0.23l0.054,-0.272l0,-0.177l4.978,0l0.401,0.401l-0,2.387l0.032,0.163l0.092,0.138l0.138,0.092l0.021,0.004l0,7.947l-3.007,3.008c-0.106,0.106 -0.166,0.25 -0.166,0.401l0,34.639c0,0.151 0.06,0.294 0.166,0.401l4.826,4.826l-0,3.83l-4.961,-0l-0.271,0.054l-0.23,0.153l-0.154,0.23l-0.053,0.271l-0,5.67l0.053,0.271l0.154,0.23l0.23,0.153l0.271,0.054l11.055,0l0.272,-0.054l0.23,-0.153l0.153,-0.23l0.054,-0.271l0,-5.67l-0.054,-0.271l-0.153,-0.23l-0.23,-0.153l-0.272,-0.054l-4.96,-0l-0,-4.065c-0,-0.151 -0.06,-0.294 -0.166,-0.401l-4.826,-4.826l-0,-34.17l2.04,-2.039c-0,0.006 -0,0.011 -0,0.017c-0,0.151 0.059,0.295 0.166,0.401l5.953,5.954l0,0.062l-0.177,-0l-0.271,0.053l-0.23,0.154l-0.154,0.23l-0.053,0.271l-0,2.551l0.053,0.272l0.154,0.23l0.23,0.153l0.271,0.054l0.111,0l-0,1.792l-0.177,-0l-0.272,0.053l-0.229,0.154l-0.154,0.23l-0.054,0.271l0,2.551l0.054,0.272l0.154,0.23l0.229,0.153l0.272,0.054l1.488,0l0.271,-0.054l0.23,-0.153l0.154,-0.23l0.054,-0.272l-0,-2.551l-0.054,-0.271l-0.154,-0.23l-0.23,-0.154l-0.271,-0.053l-0.177,-0l-0,-1.792l0.243,0l0.272,-0.054l0.23,-0.153l0.153,-0.23l0.054,-0.272l0,-2.551l-0.054,-0.271l-0.153,-0.23l-0.23,-0.154l-0.272,-0.053l-0.177,-0l0,-0.297c0,-0.15 -0.059,-0.294 -0.166,-0.4l-5.954,-5.954l0,-1.152l0,-8.182l0.021,-0.004l0.138,-0.092l0.092,-0.138l0.033,-0.163l-0,-4.677l-0.033,-0.163l-0.092,-0.138l-0.138,-0.092l-0.162,-0.032l-0.851,-0l-0.163,0.032l-0.138,0.092l-0.092,0.138l-0.032,0.163l-0,0.78c-0.053,-0.016 -0.109,-0.024 -0.166,-0.024l-5.04,-0.001l0,-6.416l0.78,0l0.271,-0.054l0.23,-0.153l0.153,-0.23l0.054,-0.271l0,-1.418l-0.054,-0.271l-0.153,-0.23l-0.23,-0.154l-0.271,-0.053l-2.693,-0l-0.271,0.053l-0.23,0.154l-0.154,0.23l-0.054,0.271l0,1.418l0.054,0.271l0.154,0.23l0.23,0.153l0.271,0.054l0.779,0l0,5.531l-2.299,-0l-0.271,0.053l-0.23,0.154l-0.153,0.23l-0.054,0.271l-0,0.177l-2.168,0l-4.414,-4.414l-0,-21.277l0.85,-0l0.301,-0.033l0.378,-0.141l0.323,-0.241l0.242,-0.323l0.141,-0.378l0.032,-0.302l0,-2.834l-0.032,-0.302l-0.141,-0.378l-0.242,-0.323l-0.323,-0.241l-0.378,-0.141l-0.301,-0.033l-2.835,0l-0.301,0.033l-0.378,0.141l-0.323,0.241l-0.241,0.323l-0.142,0.378l-0.032,0.302l0,2.834l0.032,0.302l0.142,0.378l0.241,0.323l0.323,0.241l0.378,0.141l0.301,0.033l0.851,-0Z"/></g><g id="Cutout"><path d="M390.454,149.642c-2.18,0 -3.95,-1.77 -3.95,-3.95c0,-2.18 1.77,-3.95 3.95,-3.95l2.268,0c2.18,0 3.95,1.77 3.95,3.95c0,2.18 -1.77,3.95 -3.95,3.95l-2.268,0Zm0,-0.123l2.268,-0c2.112,-0 3.827,-1.715 3.827,-3.827c-0,-2.112 -1.715,-3.827 -3.827,-3.827l-2.268,0c-2.112,0 -3.826,1.715 -3.826,3.827c-0,2.112 1.714,3.827 3.826,3.827Z"/><path d="M472.659,149.642c-2.18,0 -3.95,-1.77 -3.95,-3.95c0,-2.18 1.77,-3.95 3.95,-3.95l2.268,0c2.18,0 3.95,1.77 3.95,3.95c-0,2.18 -1.77,3.95 -3.95,3.95l-2.268,0Zm0,-0.123l2.268,-0c2.112,-0 3.827,-1.715 3.827,-3.827c-0,-2.112 -1.715,-3.827 -3.827,-3.827l-2.268,0c-2.112,0 -3.827,1.715 -3.827,3.827c0,2.112 1.715,3.827 3.827,3.827Z"/></g></svg>