<?xml version="1.0" standalone="no"?>
 <!DOCTYPE svg PUBLIC "-//W3C//DTD SVG 1.1//EN" 
 "http://www.w3.org/Graphics/SVG/1.1/DTD/svg11.dtd"> 
<svg
  xmlns:svg="http://www.w3.org/2000/svg"
  xmlns="http://www.w3.org/2000/svg"
  xmlns:xlink="http://www.w3.org/1999/xlink"
  version="1.1"
  width="297.0022mm" height="210.0072mm" viewBox="0.0000 0.0000 297.0022 210.0072">
<title>SVG Image created as StudioMic-NPTH-drl_map.svg date 2023/03/18 07:42:17 </title>
  <desc>Image generated by PCBNEW </desc>
<g style="fill:#000000; fill-opacity:1.0000;stroke:#000000; stroke-opacity:1.0000;
stroke-linecap:round; stroke-linejoin:round;"
 transform="translate(0 0) scale(1 1)">
</g>
<g style="fill:#000000; fill-opacity:0.0; 
stroke:#000000; stroke-width:0.0000; stroke-opacity:1; 
stroke-linecap:round; stroke-linejoin:round;">
</g>
<g style="fill:#000000; fill-opacity:0.0; 
stroke:#000000; stroke-width:0.1363; stroke-opacity:1; 
stroke-linecap:round; stroke-linejoin:round;">
<path d="M171.6750 116.9064
L171.8005 116.9064
" />
<path d="M129.3860 120.9338 A4.0298 4.0298 0.0 0 0 125.3562 116.9040" />
<path d="M125.3562 116.9040
L125.2307 116.9040
" />
<path d="M176.3769 6.8080 A1.7398 1.7398 0.0 0 0 174.6370 5.0682" />
<path d="M122.3652 5.0682 A1.7398 1.7398 0.0 0 0 120.6253 6.8080" />
<path d="M120.6253 6.8080
L125.2307 116.9040
" />
<path d="M122.3652 5.0682
L174.6370 5.0682
" />
<path d="M176.3769 6.8080
L171.8005 116.9064
" />
<path d="M171.6750 116.9064 A4.0298 4.0298 0.0 0 0 167.6452 120.9362" />
<path d="M129.3860 120.9338
L167.6452 120.9362
" />
</g>
<g style="fill:#000000; fill-opacity:0.0; 
stroke:#000000; stroke-width:0.2726; stroke-opacity:1; 
stroke-linecap:round; stroke-linejoin:round;">
</g>
<g style="fill:#000000; fill-opacity:0.0; 
stroke:#000000; stroke-width:0.3681; stroke-opacity:1; 
stroke-linecap:round; stroke-linejoin:round;">
<path d="M126.8955 7.7263
L130.5760 11.4068
" />
<path d="M130.5760 7.7263
L126.8955 11.4068
" />
</g>
<g style="fill:#000000; fill-opacity:0.0; 
stroke:#000000; stroke-width:0.2726; stroke-opacity:1; 
stroke-linecap:round; stroke-linejoin:round;">
<path d="M128.1905 11.4068
L129.2810 11.4068
" />
<path d="M129.2810 11.4068 A1.8403 1.8403 0.0 0 0 129.2810 7.7263" />
<path d="M129.2810 7.7263
L128.1905 7.7263
" />
<path d="M128.1905 7.7263 A1.8403 1.8403 0.0 0 0 128.1905 11.4068" />
</g>
<g style="fill:#000000; fill-opacity:0.0; 
stroke:#000000; stroke-width:0.3681; stroke-opacity:1; 
stroke-linecap:round; stroke-linejoin:round;">
<path d="M166.4269 7.7263
L170.1074 11.4068
" />
<path d="M170.1074 7.7263
L166.4269 11.4068
" />
</g>
<g style="fill:#000000; fill-opacity:0.0; 
stroke:#000000; stroke-width:0.2726; stroke-opacity:1; 
stroke-linecap:round; stroke-linejoin:round;">
<path d="M167.7219 11.4068
L168.8124 11.4068
" />
<path d="M168.8124 11.4068 A1.8403 1.8403 0.0 0 0 168.8124 7.7263" />
<path d="M168.8124 7.7263
L167.7219 7.7263
" />
<path d="M167.7219 7.7263 A1.8403 1.8403 0.0 0 0 167.7219 11.4068" />
</g>
<g style="fill:#000000; fill-opacity:0.0; 
stroke:#000000; stroke-width:0.2000; stroke-opacity:1; 
stroke-linecap:round; stroke-linejoin:round;">
<text x="122.5572" y="124.2043"
textLength="14.4429" font-size="2.6667" lengthAdjust="spacingAndGlyphs"
text-anchor="start" opacity="0">Drill Map:</text>
<g class="stroked-text"><desc>Drill Map:</desc>
<path d="M123.0334 123.9391
L123.0334 121.9391
" />
<path d="M123.0334 121.9391
L123.5096 121.9391
" />
<path d="M123.5096 121.9391
L123.7953 122.0343
" />
<path d="M123.7953 122.0343
L123.9858 122.2248
" />
<path d="M123.9858 122.2248
L124.0810 122.4153
" />
<path d="M124.0810 122.4153
L124.1762 122.7962
" />
<path d="M124.1762 122.7962
L124.1762 123.0819
" />
<path d="M124.1762 123.0819
L124.0810 123.4629
" />
<path d="M124.0810 123.4629
L123.9858 123.6534
" />
<path d="M123.9858 123.6534
L123.7953 123.8438
" />
<path d="M123.7953 123.8438
L123.5096 123.9391
" />
<path d="M123.5096 123.9391
L123.0334 123.9391
" />
<path d="M125.0334 123.9391
L125.0334 122.6058
" />
<path d="M125.0334 122.9867
L125.1286 122.7962
" />
<path d="M125.1286 122.7962
L125.2239 122.7010
" />
<path d="M125.2239 122.7010
L125.4143 122.6058
" />
<path d="M125.4143 122.6058
L125.6048 122.6058
" />
<path d="M126.2715 123.9391
L126.2715 122.6058
" />
<path d="M126.2715 121.9391
L126.1762 122.0343
" />
<path d="M126.1762 122.0343
L126.2715 122.1296
" />
<path d="M126.2715 122.1296
L126.3667 122.0343
" />
<path d="M126.3667 122.0343
L126.2715 121.9391
" />
<path d="M126.2715 121.9391
L126.2715 122.1296
" />
<path d="M127.5096 123.9391
L127.3191 123.8438
" />
<path d="M127.3191 123.8438
L127.2239 123.6534
" />
<path d="M127.2239 123.6534
L127.2239 121.9391
" />
<path d="M128.5572 123.9391
L128.3667 123.8438
" />
<path d="M128.3667 123.8438
L128.2715 123.6534
" />
<path d="M128.2715 123.6534
L128.2715 121.9391
" />
<path d="M130.5191 123.9391
L130.5191 121.9391
" />
<path d="M130.5191 121.9391
L131.1858 123.3677
" />
<path d="M131.1858 123.3677
L131.8524 121.9391
" />
<path d="M131.8524 121.9391
L131.8524 123.9391
" />
<path d="M133.6619 123.9391
L133.6619 122.8915
" />
<path d="M133.6619 122.8915
L133.5667 122.7010
" />
<path d="M133.5667 122.7010
L133.3762 122.6058
" />
<path d="M133.3762 122.6058
L132.9953 122.6058
" />
<path d="M132.9953 122.6058
L132.8048 122.7010
" />
<path d="M133.6619 123.8438
L133.4715 123.9391
" />
<path d="M133.4715 123.9391
L132.9953 123.9391
" />
<path d="M132.9953 123.9391
L132.8048 123.8438
" />
<path d="M132.8048 123.8438
L132.7096 123.6534
" />
<path d="M132.7096 123.6534
L132.7096 123.4629
" />
<path d="M132.7096 123.4629
L132.8048 123.2724
" />
<path d="M132.8048 123.2724
L132.9953 123.1772
" />
<path d="M132.9953 123.1772
L133.4715 123.1772
" />
<path d="M133.4715 123.1772
L133.6619 123.0819
" />
<path d="M134.6143 122.6058
L134.6143 124.6058
" />
<path d="M134.6143 122.7010
L134.8048 122.6058
" />
<path d="M134.8048 122.6058
L135.1858 122.6058
" />
<path d="M135.1858 122.6058
L135.3762 122.7010
" />
<path d="M135.3762 122.7010
L135.4715 122.7962
" />
<path d="M135.4715 122.7962
L135.5667 122.9867
" />
<path d="M135.5667 122.9867
L135.5667 123.5581
" />
<path d="M135.5667 123.5581
L135.4715 123.7486
" />
<path d="M135.4715 123.7486
L135.3762 123.8438
" />
<path d="M135.3762 123.8438
L135.1858 123.9391
" />
<path d="M135.1858 123.9391
L134.8048 123.9391
" />
<path d="M134.8048 123.9391
L134.6143 123.8438
" />
<path d="M136.4239 123.7486
L136.5191 123.8438
" />
<path d="M136.5191 123.8438
L136.4239 123.9391
" />
<path d="M136.4239 123.9391
L136.3286 123.8438
" />
<path d="M136.3286 123.8438
L136.4239 123.7486
" />
<path d="M136.4239 123.7486
L136.4239 123.9391
" />
<path d="M136.4239 122.7010
L136.5191 122.7962
" />
<path d="M136.5191 122.7962
L136.4239 122.8915
" />
<path d="M136.4239 122.8915
L136.3286 122.7962
" />
<path d="M136.3286 122.7962
L136.4239 122.7010
" />
<path d="M136.4239 122.7010
L136.4239 122.8915
" />
</g></g>
<g style="fill:#000000; fill-opacity:0.0; 
stroke:#000000; stroke-width:0.2000; stroke-opacity:1; 
stroke-linecap:round; stroke-linejoin:round;">
<path d="M118.5572 126.4043
L120.5572 128.4043
" />
<path d="M120.5572 126.4043
L118.5572 128.4043
" />
</g>
<g style="fill:#000000; fill-opacity:0.0; 
stroke:#000000; stroke-width:0.2726; stroke-opacity:1; 
stroke-linecap:round; stroke-linejoin:round;">
</g>
<g style="fill:#000000; fill-opacity:0.0; 
stroke:#000000; stroke-width:0.2000; stroke-opacity:1; 
stroke-linecap:round; stroke-linejoin:round;">
<text x="122.5572" y="128.4043"
textLength="79.8524" font-size="2.6667" lengthAdjust="spacingAndGlyphs"
text-anchor="start" opacity="0">2.700mm / 0.1063" (0 holes + 2 slots) (not plated)</text>
<g class="stroked-text"><desc>2.700mm / 0.1063" (0 holes + 2 slots) (not plated)</desc>
<path d="M122.9381 126.3296
L123.0334 126.2343
" />
<path d="M123.0334 126.2343
L123.2239 126.1391
" />
<path d="M123.2239 126.1391
L123.7000 126.1391
" />
<path d="M123.7000 126.1391
L123.8905 126.2343
" />
<path d="M123.8905 126.2343
L123.9858 126.3296
" />
<path d="M123.9858 126.3296
L124.0810 126.5200
" />
<path d="M124.0810 126.5200
L124.0810 126.7105
" />
<path d="M124.0810 126.7105
L123.9858 126.9962
" />
<path d="M123.9858 126.9962
L122.8429 128.1391
" />
<path d="M122.8429 128.1391
L124.0810 128.1391
" />
<path d="M124.9381 127.9486
L125.0334 128.0438
" />
<path d="M125.0334 128.0438
L124.9381 128.1391
" />
<path d="M124.9381 128.1391
L124.8429 128.0438
" />
<path d="M124.8429 128.0438
L124.9381 127.9486
" />
<path d="M124.9381 127.9486
L124.9381 128.1391
" />
<path d="M125.7000 126.1391
L127.0334 126.1391
" />
<path d="M127.0334 126.1391
L126.1762 128.1391
" />
<path d="M128.1762 126.1391
L128.3667 126.1391
" />
<path d="M128.3667 126.1391
L128.5572 126.2343
" />
<path d="M128.5572 126.2343
L128.6524 126.3296
" />
<path d="M128.6524 126.3296
L128.7477 126.5200
" />
<path d="M128.7477 126.5200
L128.8429 126.9010
" />
<path d="M128.8429 126.9010
L128.8429 127.3772
" />
<path d="M128.8429 127.3772
L128.7477 127.7581
" />
<path d="M128.7477 127.7581
L128.6524 127.9486
" />
<path d="M128.6524 127.9486
L128.5572 128.0438
" />
<path d="M128.5572 128.0438
L128.3667 128.1391
" />
<path d="M128.3667 128.1391
L128.1762 128.1391
" />
<path d="M128.1762 128.1391
L127.9858 128.0438
" />
<path d="M127.9858 128.0438
L127.8905 127.9486
" />
<path d="M127.8905 127.9486
L127.7953 127.7581
" />
<path d="M127.7953 127.7581
L127.7000 127.3772
" />
<path d="M127.7000 127.3772
L127.7000 126.9010
" />
<path d="M127.7000 126.9010
L127.7953 126.5200
" />
<path d="M127.7953 126.5200
L127.8905 126.3296
" />
<path d="M127.8905 126.3296
L127.9858 126.2343
" />
<path d="M127.9858 126.2343
L128.1762 126.1391
" />
<path d="M130.0810 126.1391
L130.2715 126.1391
" />
<path d="M130.2715 126.1391
L130.4619 126.2343
" />
<path d="M130.4619 126.2343
L130.5572 126.3296
" />
<path d="M130.5572 126.3296
L130.6524 126.5200
" />
<path d="M130.6524 126.5200
L130.7477 126.9010
" />
<path d="M130.7477 126.9010
L130.7477 127.3772
" />
<path d="M130.7477 127.3772
L130.6524 127.7581
" />
<path d="M130.6524 127.7581
L130.5572 127.9486
" />
<path d="M130.5572 127.9486
L130.4619 128.0438
" />
<path d="M130.4619 128.0438
L130.2715 128.1391
" />
<path d="M130.2715 128.1391
L130.0810 128.1391
" />
<path d="M130.0810 128.1391
L129.8905 128.0438
" />
<path d="M129.8905 128.0438
L129.7953 127.9486
" />
<path d="M129.7953 127.9486
L129.7000 127.7581
" />
<path d="M129.7000 127.7581
L129.6048 127.3772
" />
<path d="M129.6048 127.3772
L129.6048 126.9010
" />
<path d="M129.6048 126.9010
L129.7000 126.5200
" />
<path d="M129.7000 126.5200
L129.7953 126.3296
" />
<path d="M129.7953 126.3296
L129.8905 126.2343
" />
<path d="M129.8905 126.2343
L130.0810 126.1391
" />
<path d="M131.6048 128.1391
L131.6048 126.8058
" />
<path d="M131.6048 126.9962
L131.7000 126.9010
" />
<path d="M131.7000 126.9010
L131.8905 126.8058
" />
<path d="M131.8905 126.8058
L132.1762 126.8058
" />
<path d="M132.1762 126.8058
L132.3667 126.9010
" />
<path d="M132.3667 126.9010
L132.4619 127.0915
" />
<path d="M132.4619 127.0915
L132.4619 128.1391
" />
<path d="M132.4619 127.0915
L132.5572 126.9010
" />
<path d="M132.5572 126.9010
L132.7477 126.8058
" />
<path d="M132.7477 126.8058
L133.0334 126.8058
" />
<path d="M133.0334 126.8058
L133.2239 126.9010
" />
<path d="M133.2239 126.9010
L133.3191 127.0915
" />
<path d="M133.3191 127.0915
L133.3191 128.1391
" />
<path d="M134.2715 128.1391
L134.2715 126.8058
" />
<path d="M134.2715 126.9962
L134.3667 126.9010
" />
<path d="M134.3667 126.9010
L134.5572 126.8058
" />
<path d="M134.5572 126.8058
L134.8429 126.8058
" />
<path d="M134.8429 126.8058
L135.0334 126.9010
" />
<path d="M135.0334 126.9010
L135.1286 127.0915
" />
<path d="M135.1286 127.0915
L135.1286 128.1391
" />
<path d="M135.1286 127.0915
L135.2239 126.9010
" />
<path d="M135.2239 126.9010
L135.4143 126.8058
" />
<path d="M135.4143 126.8058
L135.7000 126.8058
" />
<path d="M135.7000 126.8058
L135.8905 126.9010
" />
<path d="M135.8905 126.9010
L135.9858 127.0915
" />
<path d="M135.9858 127.0915
L135.9858 128.1391
" />
<path d="M139.5667 126.0438
L137.8524 128.6153
" />
<path d="M141.8143 126.1391
L142.0048 126.1391
" />
<path d="M142.0048 126.1391
L142.1953 126.2343
" />
<path d="M142.1953 126.2343
L142.2905 126.3296
" />
<path d="M142.2905 126.3296
L142.3858 126.5200
" />
<path d="M142.3858 126.5200
L142.4810 126.9010
" />
<path d="M142.4810 126.9010
L142.4810 127.3772
" />
<path d="M142.4810 127.3772
L142.3858 127.7581
" />
<path d="M142.3858 127.7581
L142.2905 127.9486
" />
<path d="M142.2905 127.9486
L142.1953 128.0438
" />
<path d="M142.1953 128.0438
L142.0048 128.1391
" />
<path d="M142.0048 128.1391
L141.8143 128.1391
" />
<path d="M141.8143 128.1391
L141.6239 128.0438
" />
<path d="M141.6239 128.0438
L141.5286 127.9486
" />
<path d="M141.5286 127.9486
L141.4334 127.7581
" />
<path d="M141.4334 127.7581
L141.3381 127.3772
" />
<path d="M141.3381 127.3772
L141.3381 126.9010
" />
<path d="M141.3381 126.9010
L141.4334 126.5200
" />
<path d="M141.4334 126.5200
L141.5286 126.3296
" />
<path d="M141.5286 126.3296
L141.6239 126.2343
" />
<path d="M141.6239 126.2343
L141.8143 126.1391
" />
<path d="M143.3381 127.9486
L143.4334 128.0438
" />
<path d="M143.4334 128.0438
L143.3381 128.1391
" />
<path d="M143.3381 128.1391
L143.2429 128.0438
" />
<path d="M143.2429 128.0438
L143.3381 127.9486
" />
<path d="M143.3381 127.9486
L143.3381 128.1391
" />
<path d="M145.3381 128.1391
L144.1953 128.1391
" />
<path d="M144.7667 128.1391
L144.7667 126.1391
" />
<path d="M144.7667 126.1391
L144.5762 126.4248
" />
<path d="M144.5762 126.4248
L144.3858 126.6153
" />
<path d="M144.3858 126.6153
L144.1953 126.7105
" />
<path d="M146.5762 126.1391
L146.7667 126.1391
" />
<path d="M146.7667 126.1391
L146.9572 126.2343
" />
<path d="M146.9572 126.2343
L147.0524 126.3296
" />
<path d="M147.0524 126.3296
L147.1477 126.5200
" />
<path d="M147.1477 126.5200
L147.2429 126.9010
" />
<path d="M147.2429 126.9010
L147.2429 127.3772
" />
<path d="M147.2429 127.3772
L147.1477 127.7581
" />
<path d="M147.1477 127.7581
L147.0524 127.9486
" />
<path d="M147.0524 127.9486
L146.9572 128.0438
" />
<path d="M146.9572 128.0438
L146.7667 128.1391
" />
<path d="M146.7667 128.1391
L146.5762 128.1391
" />
<path d="M146.5762 128.1391
L146.3858 128.0438
" />
<path d="M146.3858 128.0438
L146.2905 127.9486
" />
<path d="M146.2905 127.9486
L146.1953 127.7581
" />
<path d="M146.1953 127.7581
L146.1000 127.3772
" />
<path d="M146.1000 127.3772
L146.1000 126.9010
" />
<path d="M146.1000 126.9010
L146.1953 126.5200
" />
<path d="M146.1953 126.5200
L146.2905 126.3296
" />
<path d="M146.2905 126.3296
L146.3858 126.2343
" />
<path d="M146.3858 126.2343
L146.5762 126.1391
" />
<path d="M148.9572 126.1391
L148.5762 126.1391
" />
<path d="M148.5762 126.1391
L148.3858 126.2343
" />
<path d="M148.3858 126.2343
L148.2905 126.3296
" />
<path d="M148.2905 126.3296
L148.1000 126.6153
" />
<path d="M148.1000 126.6153
L148.0048 126.9962
" />
<path d="M148.0048 126.9962
L148.0048 127.7581
" />
<path d="M148.0048 127.7581
L148.1000 127.9486
" />
<path d="M148.1000 127.9486
L148.1953 128.0438
" />
<path d="M148.1953 128.0438
L148.3858 128.1391
" />
<path d="M148.3858 128.1391
L148.7667 128.1391
" />
<path d="M148.7667 128.1391
L148.9572 128.0438
" />
<path d="M148.9572 128.0438
L149.0524 127.9486
" />
<path d="M149.0524 127.9486
L149.1477 127.7581
" />
<path d="M149.1477 127.7581
L149.1477 127.2819
" />
<path d="M149.1477 127.2819
L149.0524 127.0915
" />
<path d="M149.0524 127.0915
L148.9572 126.9962
" />
<path d="M148.9572 126.9962
L148.7667 126.9010
" />
<path d="M148.7667 126.9010
L148.3858 126.9010
" />
<path d="M148.3858 126.9010
L148.1953 126.9962
" />
<path d="M148.1953 126.9962
L148.1000 127.0915
" />
<path d="M148.1000 127.0915
L148.0048 127.2819
" />
<path d="M149.8143 126.1391
L151.0524 126.1391
" />
<path d="M151.0524 126.1391
L150.3858 126.9010
" />
<path d="M150.3858 126.9010
L150.6715 126.9010
" />
<path d="M150.6715 126.9010
L150.8619 126.9962
" />
<path d="M150.8619 126.9962
L150.9572 127.0915
" />
<path d="M150.9572 127.0915
L151.0524 127.2819
" />
<path d="M151.0524 127.2819
L151.0524 127.7581
" />
<path d="M151.0524 127.7581
L150.9572 127.9486
" />
<path d="M150.9572 127.9486
L150.8619 128.0438
" />
<path d="M150.8619 128.0438
L150.6715 128.1391
" />
<path d="M150.6715 128.1391
L150.1000 128.1391
" />
<path d="M150.1000 128.1391
L149.9096 128.0438
" />
<path d="M149.9096 128.0438
L149.8143 127.9486
" />
<path d="M151.8143 126.1391
L151.8143 126.5200
" />
<path d="M152.5762 126.1391
L152.5762 126.5200
" />
<path d="M155.2048 128.9010
L155.1096 128.8058
" />
<path d="M155.1096 128.8058
L154.9191 128.5200
" />
<path d="M154.9191 128.5200
L154.8239 128.3296
" />
<path d="M154.8239 128.3296
L154.7286 128.0438
" />
<path d="M154.7286 128.0438
L154.6334 127.5677
" />
<path d="M154.6334 127.5677
L154.6334 127.1867
" />
<path d="M154.6334 127.1867
L154.7286 126.7105
" />
<path d="M154.7286 126.7105
L154.8239 126.4248
" />
<path d="M154.8239 126.4248
L154.9191 126.2343
" />
<path d="M154.9191 126.2343
L155.1096 125.9486
" />
<path d="M155.1096 125.9486
L155.2048 125.8534
" />
<path d="M156.3477 126.1391
L156.5381 126.1391
" />
<path d="M156.5381 126.1391
L156.7286 126.2343
" />
<path d="M156.7286 126.2343
L156.8239 126.3296
" />
<path d="M156.8239 126.3296
L156.9191 126.5200
" />
<path d="M156.9191 126.5200
L157.0143 126.9010
" />
<path d="M157.0143 126.9010
L157.0143 127.3772
" />
<path d="M157.0143 127.3772
L156.9191 127.7581
" />
<path d="M156.9191 127.7581
L156.8239 127.9486
" />
<path d="M156.8239 127.9486
L156.7286 128.0438
" />
<path d="M156.7286 128.0438
L156.5381 128.1391
" />
<path d="M156.5381 128.1391
L156.3477 128.1391
" />
<path d="M156.3477 128.1391
L156.1572 128.0438
" />
<path d="M156.1572 128.0438
L156.0619 127.9486
" />
<path d="M156.0619 127.9486
L155.9667 127.7581
" />
<path d="M155.9667 127.7581
L155.8715 127.3772
" />
<path d="M155.8715 127.3772
L155.8715 126.9010
" />
<path d="M155.8715 126.9010
L155.9667 126.5200
" />
<path d="M155.9667 126.5200
L156.0619 126.3296
" />
<path d="M156.0619 126.3296
L156.1572 126.2343
" />
<path d="M156.1572 126.2343
L156.3477 126.1391
" />
<path d="M159.0715 128.1391
L159.0715 126.1391
" />
<path d="M159.9286 128.1391
L159.9286 127.0915
" />
<path d="M159.9286 127.0915
L159.8334 126.9010
" />
<path d="M159.8334 126.9010
L159.6429 126.8058
" />
<path d="M159.6429 126.8058
L159.3572 126.8058
" />
<path d="M159.3572 126.8058
L159.1667 126.9010
" />
<path d="M159.1667 126.9010
L159.0715 126.9962
" />
<path d="M161.1667 128.1391
L160.9762 128.0438
" />
<path d="M160.9762 128.0438
L160.8810 127.9486
" />
<path d="M160.8810 127.9486
L160.7858 127.7581
" />
<path d="M160.7858 127.7581
L160.7858 127.1867
" />
<path d="M160.7858 127.1867
L160.8810 126.9962
" />
<path d="M160.8810 126.9962
L160.9762 126.9010
" />
<path d="M160.9762 126.9010
L161.1667 126.8058
" />
<path d="M161.1667 126.8058
L161.4524 126.8058
" />
<path d="M161.4524 126.8058
L161.6429 126.9010
" />
<path d="M161.6429 126.9010
L161.7381 126.9962
" />
<path d="M161.7381 126.9962
L161.8334 127.1867
" />
<path d="M161.8334 127.1867
L161.8334 127.7581
" />
<path d="M161.8334 127.7581
L161.7381 127.9486
" />
<path d="M161.7381 127.9486
L161.6429 128.0438
" />
<path d="M161.6429 128.0438
L161.4524 128.1391
" />
<path d="M161.4524 128.1391
L161.1667 128.1391
" />
<path d="M162.9762 128.1391
L162.7858 128.0438
" />
<path d="M162.7858 128.0438
L162.6905 127.8534
" />
<path d="M162.6905 127.8534
L162.6905 126.1391
" />
<path d="M164.5000 128.0438
L164.3096 128.1391
" />
<path d="M164.3096 128.1391
L163.9286 128.1391
" />
<path d="M163.9286 128.1391
L163.7381 128.0438
" />
<path d="M163.7381 128.0438
L163.6429 127.8534
" />
<path d="M163.6429 127.8534
L163.6429 127.0915
" />
<path d="M163.6429 127.0915
L163.7381 126.9010
" />
<path d="M163.7381 126.9010
L163.9286 126.8058
" />
<path d="M163.9286 126.8058
L164.3096 126.8058
" />
<path d="M164.3096 126.8058
L164.5000 126.9010
" />
<path d="M164.5000 126.9010
L164.5953 127.0915
" />
<path d="M164.5953 127.0915
L164.5953 127.2819
" />
<path d="M164.5953 127.2819
L163.6429 127.4724
" />
<path d="M165.3572 128.0438
L165.5477 128.1391
" />
<path d="M165.5477 128.1391
L165.9286 128.1391
" />
<path d="M165.9286 128.1391
L166.1191 128.0438
" />
<path d="M166.1191 128.0438
L166.2143 127.8534
" />
<path d="M166.2143 127.8534
L166.2143 127.7581
" />
<path d="M166.2143 127.7581
L166.1191 127.5677
" />
<path d="M166.1191 127.5677
L165.9286 127.4724
" />
<path d="M165.9286 127.4724
L165.6429 127.4724
" />
<path d="M165.6429 127.4724
L165.4524 127.3772
" />
<path d="M165.4524 127.3772
L165.3572 127.1867
" />
<path d="M165.3572 127.1867
L165.3572 127.0915
" />
<path d="M165.3572 127.0915
L165.4524 126.9010
" />
<path d="M165.4524 126.9010
L165.6429 126.8058
" />
<path d="M165.6429 126.8058
L165.9286 126.8058
" />
<path d="M165.9286 126.8058
L166.1191 126.9010
" />
<path d="M168.2715 127.3772
L169.7953 127.3772
" />
<path d="M169.0334 128.1391
L169.0334 126.6153
" />
<path d="M171.8524 126.3296
L171.9477 126.2343
" />
<path d="M171.9477 126.2343
L172.1381 126.1391
" />
<path d="M172.1381 126.1391
L172.6143 126.1391
" />
<path d="M172.6143 126.1391
L172.8048 126.2343
" />
<path d="M172.8048 126.2343
L172.9000 126.3296
" />
<path d="M172.9000 126.3296
L172.9953 126.5200
" />
<path d="M172.9953 126.5200
L172.9953 126.7105
" />
<path d="M172.9953 126.7105
L172.9000 126.9962
" />
<path d="M172.9000 126.9962
L171.7572 128.1391
" />
<path d="M171.7572 128.1391
L172.9953 128.1391
" />
<path d="M174.9572 128.0438
L175.1477 128.1391
" />
<path d="M175.1477 128.1391
L175.5286 128.1391
" />
<path d="M175.5286 128.1391
L175.7191 128.0438
" />
<path d="M175.7191 128.0438
L175.8143 127.8534
" />
<path d="M175.8143 127.8534
L175.8143 127.7581
" />
<path d="M175.8143 127.7581
L175.7191 127.5677
" />
<path d="M175.7191 127.5677
L175.5286 127.4724
" />
<path d="M175.5286 127.4724
L175.2429 127.4724
" />
<path d="M175.2429 127.4724
L175.0524 127.3772
" />
<path d="M175.0524 127.3772
L174.9572 127.1867
" />
<path d="M174.9572 127.1867
L174.9572 127.0915
" />
<path d="M174.9572 127.0915
L175.0524 126.9010
" />
<path d="M175.0524 126.9010
L175.2429 126.8058
" />
<path d="M175.2429 126.8058
L175.5286 126.8058
" />
<path d="M175.5286 126.8058
L175.7191 126.9010
" />
<path d="M176.9572 128.1391
L176.7667 128.0438
" />
<path d="M176.7667 128.0438
L176.6715 127.8534
" />
<path d="M176.6715 127.8534
L176.6715 126.1391
" />
<path d="M178.0048 128.1391
L177.8143 128.0438
" />
<path d="M177.8143 128.0438
L177.7191 127.9486
" />
<path d="M177.7191 127.9486
L177.6239 127.7581
" />
<path d="M177.6239 127.7581
L177.6239 127.1867
" />
<path d="M177.6239 127.1867
L177.7191 126.9962
" />
<path d="M177.7191 126.9962
L177.8143 126.9010
" />
<path d="M177.8143 126.9010
L178.0048 126.8058
" />
<path d="M178.0048 126.8058
L178.2905 126.8058
" />
<path d="M178.2905 126.8058
L178.4810 126.9010
" />
<path d="M178.4810 126.9010
L178.5762 126.9962
" />
<path d="M178.5762 126.9962
L178.6715 127.1867
" />
<path d="M178.6715 127.1867
L178.6715 127.7581
" />
<path d="M178.6715 127.7581
L178.5762 127.9486
" />
<path d="M178.5762 127.9486
L178.4810 128.0438
" />
<path d="M178.4810 128.0438
L178.2905 128.1391
" />
<path d="M178.2905 128.1391
L178.0048 128.1391
" />
<path d="M179.2429 126.8058
L180.0048 126.8058
" />
<path d="M179.5286 126.1391
L179.5286 127.8534
" />
<path d="M179.5286 127.8534
L179.6239 128.0438
" />
<path d="M179.6239 128.0438
L179.8143 128.1391
" />
<path d="M179.8143 128.1391
L180.0048 128.1391
" />
<path d="M180.5762 128.0438
L180.7667 128.1391
" />
<path d="M180.7667 128.1391
L181.1477 128.1391
" />
<path d="M181.1477 128.1391
L181.3381 128.0438
" />
<path d="M181.3381 128.0438
L181.4334 127.8534
" />
<path d="M181.4334 127.8534
L181.4334 127.7581
" />
<path d="M181.4334 127.7581
L181.3381 127.5677
" />
<path d="M181.3381 127.5677
L181.1477 127.4724
" />
<path d="M181.1477 127.4724
L180.8620 127.4724
" />
<path d="M180.8620 127.4724
L180.6715 127.3772
" />
<path d="M180.6715 127.3772
L180.5762 127.1867
" />
<path d="M180.5762 127.1867
L180.5762 127.0915
" />
<path d="M180.5762 127.0915
L180.6715 126.9010
" />
<path d="M180.6715 126.9010
L180.8620 126.8058
" />
<path d="M180.8620 126.8058
L181.1477 126.8058
" />
<path d="M181.1477 126.8058
L181.3381 126.9010
" />
<path d="M182.1000 128.9010
L182.1953 128.8058
" />
<path d="M182.1953 128.8058
L182.3858 128.5200
" />
<path d="M182.3858 128.5200
L182.4810 128.3296
" />
<path d="M182.4810 128.3296
L182.5762 128.0438
" />
<path d="M182.5762 128.0438
L182.6715 127.5677
" />
<path d="M182.6715 127.5677
L182.6715 127.1867
" />
<path d="M182.6715 127.1867
L182.5762 126.7105
" />
<path d="M182.5762 126.7105
L182.4810 126.4248
" />
<path d="M182.4810 126.4248
L182.3858 126.2343
" />
<path d="M182.3858 126.2343
L182.1953 125.9486
" />
<path d="M182.1953 125.9486
L182.1000 125.8534
" />
<path d="M185.3953 128.9010
L185.3000 128.8058
" />
<path d="M185.3000 128.8058
L185.1096 128.5200
" />
<path d="M185.1096 128.5200
L185.0143 128.3296
" />
<path d="M185.0143 128.3296
L184.9191 128.0438
" />
<path d="M184.9191 128.0438
L184.8239 127.5677
" />
<path d="M184.8239 127.5677
L184.8239 127.1867
" />
<path d="M184.8239 127.1867
L184.9191 126.7105
" />
<path d="M184.9191 126.7105
L185.0143 126.4248
" />
<path d="M185.0143 126.4248
L185.1096 126.2343
" />
<path d="M185.1096 126.2343
L185.3000 125.9486
" />
<path d="M185.3000 125.9486
L185.3953 125.8534
" />
<path d="M186.1572 126.8058
L186.1572 128.1391
" />
<path d="M186.1572 126.9962
L186.2524 126.9010
" />
<path d="M186.2524 126.9010
L186.4429 126.8058
" />
<path d="M186.4429 126.8058
L186.7286 126.8058
" />
<path d="M186.7286 126.8058
L186.9191 126.9010
" />
<path d="M186.9191 126.9010
L187.0143 127.0915
" />
<path d="M187.0143 127.0915
L187.0143 128.1391
" />
<path d="M188.2524 128.1391
L188.0620 128.0438
" />
<path d="M188.0620 128.0438
L187.9667 127.9486
" />
<path d="M187.9667 127.9486
L187.8715 127.7581
" />
<path d="M187.8715 127.7581
L187.8715 127.1867
" />
<path d="M187.8715 127.1867
L187.9667 126.9962
" />
<path d="M187.9667 126.9962
L188.0620 126.9010
" />
<path d="M188.0620 126.9010
L188.2524 126.8058
" />
<path d="M188.2524 126.8058
L188.5381 126.8058
" />
<path d="M188.5381 126.8058
L188.7286 126.9010
" />
<path d="M188.7286 126.9010
L188.8239 126.9962
" />
<path d="M188.8239 126.9962
L188.9191 127.1867
" />
<path d="M188.9191 127.1867
L188.9191 127.7581
" />
<path d="M188.9191 127.7581
L188.8239 127.9486
" />
<path d="M188.8239 127.9486
L188.7286 128.0438
" />
<path d="M188.7286 128.0438
L188.5381 128.1391
" />
<path d="M188.5381 128.1391
L188.2524 128.1391
" />
<path d="M189.4905 126.8058
L190.2524 126.8058
" />
<path d="M189.7762 126.1391
L189.7762 127.8534
" />
<path d="M189.7762 127.8534
L189.8715 128.0438
" />
<path d="M189.8715 128.0438
L190.0620 128.1391
" />
<path d="M190.0620 128.1391
L190.2524 128.1391
" />
<path d="M192.1191 126.8058
L192.1191 128.8058
" />
<path d="M192.1191 126.9010
L192.3096 126.8058
" />
<path d="M192.3096 126.8058
L192.6905 126.8058
" />
<path d="M192.6905 126.8058
L192.8810 126.9010
" />
<path d="M192.8810 126.9010
L192.9762 126.9962
" />
<path d="M192.9762 126.9962
L193.0715 127.1867
" />
<path d="M193.0715 127.1867
L193.0715 127.7581
" />
<path d="M193.0715 127.7581
L192.9762 127.9486
" />
<path d="M192.9762 127.9486
L192.8810 128.0438
" />
<path d="M192.8810 128.0438
L192.6905 128.1391
" />
<path d="M192.6905 128.1391
L192.3096 128.1391
" />
<path d="M192.3096 128.1391
L192.1191 128.0438
" />
<path d="M194.2143 128.1391
L194.0239 128.0438
" />
<path d="M194.0239 128.0438
L193.9286 127.8534
" />
<path d="M193.9286 127.8534
L193.9286 126.1391
" />
<path d="M195.8334 128.1391
L195.8334 127.0915
" />
<path d="M195.8334 127.0915
L195.7381 126.9010
" />
<path d="M195.7381 126.9010
L195.5477 126.8058
" />
<path d="M195.5477 126.8058
L195.1667 126.8058
" />
<path d="M195.1667 126.8058
L194.9762 126.9010
" />
<path d="M195.8334 128.0438
L195.6429 128.1391
" />
<path d="M195.6429 128.1391
L195.1667 128.1391
" />
<path d="M195.1667 128.1391
L194.9762 128.0438
" />
<path d="M194.9762 128.0438
L194.8810 127.8534
" />
<path d="M194.8810 127.8534
L194.8810 127.6629
" />
<path d="M194.8810 127.6629
L194.9762 127.4724
" />
<path d="M194.9762 127.4724
L195.1667 127.3772
" />
<path d="M195.1667 127.3772
L195.6429 127.3772
" />
<path d="M195.6429 127.3772
L195.8334 127.2819
" />
<path d="M196.5001 126.8058
L197.2620 126.8058
" />
<path d="M196.7858 126.1391
L196.7858 127.8534
" />
<path d="M196.7858 127.8534
L196.8810 128.0438
" />
<path d="M196.8810 128.0438
L197.0715 128.1391
" />
<path d="M197.0715 128.1391
L197.2620 128.1391
" />
<path d="M198.6905 128.0438
L198.5001 128.1391
" />
<path d="M198.5001 128.1391
L198.1191 128.1391
" />
<path d="M198.1191 128.1391
L197.9286 128.0438
" />
<path d="M197.9286 128.0438
L197.8334 127.8534
" />
<path d="M197.8334 127.8534
L197.8334 127.0915
" />
<path d="M197.8334 127.0915
L197.9286 126.9010
" />
<path d="M197.9286 126.9010
L198.1191 126.8058
" />
<path d="M198.1191 126.8058
L198.5001 126.8058
" />
<path d="M198.5001 126.8058
L198.6905 126.9010
" />
<path d="M198.6905 126.9010
L198.7858 127.0915
" />
<path d="M198.7858 127.0915
L198.7858 127.2819
" />
<path d="M198.7858 127.2819
L197.8334 127.4724
" />
<path d="M200.5001 128.1391
L200.5001 126.1391
" />
<path d="M200.5001 128.0438
L200.3096 128.1391
" />
<path d="M200.3096 128.1391
L199.9286 128.1391
" />
<path d="M199.9286 128.1391
L199.7381 128.0438
" />
<path d="M199.7381 128.0438
L199.6429 127.9486
" />
<path d="M199.6429 127.9486
L199.5477 127.7581
" />
<path d="M199.5477 127.7581
L199.5477 127.1867
" />
<path d="M199.5477 127.1867
L199.6429 126.9962
" />
<path d="M199.6429 126.9962
L199.7381 126.9010
" />
<path d="M199.7381 126.9010
L199.9286 126.8058
" />
<path d="M199.9286 126.8058
L200.3096 126.8058
" />
<path d="M200.3096 126.8058
L200.5001 126.9010
" />
<path d="M201.2620 128.9010
L201.3572 128.8058
" />
<path d="M201.3572 128.8058
L201.5477 128.5200
" />
<path d="M201.5477 128.5200
L201.6429 128.3296
" />
<path d="M201.6429 128.3296
L201.7381 128.0438
" />
<path d="M201.7381 128.0438
L201.8334 127.5677
" />
<path d="M201.8334 127.5677
L201.8334 127.1867
" />
<path d="M201.8334 127.1867
L201.7381 126.7105
" />
<path d="M201.7381 126.7105
L201.6429 126.4248
" />
<path d="M201.6429 126.4248
L201.5477 126.2343
" />
<path d="M201.5477 126.2343
L201.3572 125.9486
" />
<path d="M201.3572 125.9486
L201.2620 125.8534
" />
</g></g> 
</svg>
