<?xml version="1.0" standalone="no"?>
 <!DOCTYPE svg PUBLIC "-//W3C//DTD SVG 1.1//EN" 
 "http://www.w3.org/Graphics/SVG/1.1/DTD/svg11.dtd"> 
<svg
  xmlns:svg="http://www.w3.org/2000/svg"
  xmlns="http://www.w3.org/2000/svg"
  xmlns:xlink="http://www.w3.org/1999/xlink"
  version="1.1"
  width="297.0022mm" height="210.0072mm" viewBox="0.0000 0.0000 297.0022 210.0072">
<title>SVG Image created as StudioMic-PTH-drl_map.svg date 2023/03/18 07:42:17 </title>
  <desc>Image generated by PCBNEW </desc>
<g style="fill:#000000; fill-opacity:1.0000;stroke:#000000; stroke-opacity:1.0000;
stroke-linecap:round; stroke-linejoin:round;"
 transform="translate(0 0) scale(1 1)">
</g>
<g style="fill:#000000; fill-opacity:0.0; 
stroke:#000000; stroke-width:0.0000; stroke-opacity:1; 
stroke-linecap:round; stroke-linejoin:round;">
</g>
<g style="fill:#000000; fill-opacity:0.0; 
stroke:#000000; stroke-width:0.1363; stroke-opacity:1; 
stroke-linecap:round; stroke-linejoin:round;">
<path d="M171.6750 116.9064
L171.8005 116.9064
" />
<path d="M129.3860 120.9338 A4.0298 4.0298 0.0 0 0 125.3562 116.9040" />
<path d="M125.3562 116.9040
L125.2307 116.9040
" />
<path d="M176.3769 6.8080 A1.7398 1.7398 0.0 0 0 174.6370 5.0682" />
<path d="M122.3652 5.0682 A1.7398 1.7398 0.0 0 0 120.6253 6.8080" />
<path d="M120.6253 6.8080
L125.2307 116.9040
" />
<path d="M122.3652 5.0682
L174.6370 5.0682
" />
<path d="M176.3769 6.8080
L171.8005 116.9064
" />
<path d="M171.6750 116.9064 A4.0298 4.0298 0.0 0 0 167.6452 120.9362" />
<path d="M129.3860 120.9338
L167.6452 120.9362
" />
</g>
<g style="fill:#000000; fill-opacity:0.0; 
stroke:#000000; stroke-width:0.2726; stroke-opacity:1; 
stroke-linecap:round; stroke-linejoin:round;">
</g>
<g style="fill:#000000; fill-opacity:0.0; 
stroke:#000000; stroke-width:0.1363; stroke-opacity:1; 
stroke-linecap:round; stroke-linejoin:round;">
<path d="M135.7156 86.4949
L137.0787 87.8581
" />
<path d="M137.0787 86.4949
L135.7156 87.8581
" />
<path d="M137.4468 20.0167
L138.8100 21.3798
" />
<path d="M138.8100 20.0167
L137.4468 21.3798
" />
<path d="M141.4286 45.4654
L142.7917 46.8285
" />
<path d="M142.7917 45.4654
L141.4286 46.8285
" />
<path d="M144.7499 36.6362
L146.1130 37.9994
" />
<path d="M146.1130 36.6362
L144.7499 37.9994
" />
<path d="M146.4491 84.5906
L147.8122 85.9537
" />
<path d="M147.8122 84.5906
L146.4491 85.9537
" />
<path d="M148.8727 20.3629
L150.2359 21.7261
" />
<path d="M150.2359 20.3629
L148.8727 21.7261
" />
<path d="M149.2190 44.7729
L150.5821 46.1360
" />
<path d="M150.5821 44.7729
L149.2190 46.1360
" />
<path d="M150.7900 31.2824
L152.1532 32.6456
" />
<path d="M152.1532 31.2824
L150.7900 32.6456
" />
<path d="M155.4513 15.6887
L156.8145 17.0518
" />
<path d="M156.8145 15.6887
L155.4513 17.0518
" />
<path d="M161.5105 17.9392
L162.8737 19.3024
" />
<path d="M162.8737 17.9392
L161.5105 19.3024
" />
<path d="M162.3761 80.6088
L163.7393 81.9720
" />
<path d="M163.7393 80.6088
L162.3761 81.9720
" />
<path d="M162.3761 87.5336
L163.7393 88.8968
" />
<path d="M163.7393 87.5336
L162.3761 88.8968
" />
</g>
<g style="fill:#000000; fill-opacity:0.0; 
stroke:#000000; stroke-width:0.2726; stroke-opacity:1; 
stroke-linecap:round; stroke-linejoin:round;">
</g>
<g style="fill:#000000; fill-opacity:0.0; 
stroke:#000000; stroke-width:0.2000; stroke-opacity:1; 
stroke-linecap:round; stroke-linejoin:round;">
<text x="122.5572" y="124.2043"
textLength="14.4429" font-size="2.6667" lengthAdjust="spacingAndGlyphs"
text-anchor="start" opacity="0">Drill Map:</text>
<g class="stroked-text"><desc>Drill Map:</desc>
<path d="M123.0334 123.9391
L123.0334 121.9391
" />
<path d="M123.0334 121.9391
L123.5096 121.9391
" />
<path d="M123.5096 121.9391
L123.7953 122.0343
" />
<path d="M123.7953 122.0343
L123.9858 122.2248
" />
<path d="M123.9858 122.2248
L124.0810 122.4153
" />
<path d="M124.0810 122.4153
L124.1762 122.7962
" />
<path d="M124.1762 122.7962
L124.1762 123.0819
" />
<path d="M124.1762 123.0819
L124.0810 123.4629
" />
<path d="M124.0810 123.4629
L123.9858 123.6534
" />
<path d="M123.9858 123.6534
L123.7953 123.8438
" />
<path d="M123.7953 123.8438
L123.5096 123.9391
" />
<path d="M123.5096 123.9391
L123.0334 123.9391
" />
<path d="M125.0334 123.9391
L125.0334 122.6058
" />
<path d="M125.0334 122.9867
L125.1286 122.7962
" />
<path d="M125.1286 122.7962
L125.2239 122.7010
" />
<path d="M125.2239 122.7010
L125.4143 122.6058
" />
<path d="M125.4143 122.6058
L125.6048 122.6058
" />
<path d="M126.2715 123.9391
L126.2715 122.6058
" />
<path d="M126.2715 121.9391
L126.1762 122.0343
" />
<path d="M126.1762 122.0343
L126.2715 122.1296
" />
<path d="M126.2715 122.1296
L126.3667 122.0343
" />
<path d="M126.3667 122.0343
L126.2715 121.9391
" />
<path d="M126.2715 121.9391
L126.2715 122.1296
" />
<path d="M127.5096 123.9391
L127.3191 123.8438
" />
<path d="M127.3191 123.8438
L127.2239 123.6534
" />
<path d="M127.2239 123.6534
L127.2239 121.9391
" />
<path d="M128.5572 123.9391
L128.3667 123.8438
" />
<path d="M128.3667 123.8438
L128.2715 123.6534
" />
<path d="M128.2715 123.6534
L128.2715 121.9391
" />
<path d="M130.5191 123.9391
L130.5191 121.9391
" />
<path d="M130.5191 121.9391
L131.1858 123.3677
" />
<path d="M131.1858 123.3677
L131.8524 121.9391
" />
<path d="M131.8524 121.9391
L131.8524 123.9391
" />
<path d="M133.6619 123.9391
L133.6619 122.8915
" />
<path d="M133.6619 122.8915
L133.5667 122.7010
" />
<path d="M133.5667 122.7010
L133.3762 122.6058
" />
<path d="M133.3762 122.6058
L132.9953 122.6058
" />
<path d="M132.9953 122.6058
L132.8048 122.7010
" />
<path d="M133.6619 123.8438
L133.4715 123.9391
" />
<path d="M133.4715 123.9391
L132.9953 123.9391
" />
<path d="M132.9953 123.9391
L132.8048 123.8438
" />
<path d="M132.8048 123.8438
L132.7096 123.6534
" />
<path d="M132.7096 123.6534
L132.7096 123.4629
" />
<path d="M132.7096 123.4629
L132.8048 123.2724
" />
<path d="M132.8048 123.2724
L132.9953 123.1772
" />
<path d="M132.9953 123.1772
L133.4715 123.1772
" />
<path d="M133.4715 123.1772
L133.6619 123.0819
" />
<path d="M134.6143 122.6058
L134.6143 124.6058
" />
<path d="M134.6143 122.7010
L134.8048 122.6058
" />
<path d="M134.8048 122.6058
L135.1858 122.6058
" />
<path d="M135.1858 122.6058
L135.3762 122.7010
" />
<path d="M135.3762 122.7010
L135.4715 122.7962
" />
<path d="M135.4715 122.7962
L135.5667 122.9867
" />
<path d="M135.5667 122.9867
L135.5667 123.5581
" />
<path d="M135.5667 123.5581
L135.4715 123.7486
" />
<path d="M135.4715 123.7486
L135.3762 123.8438
" />
<path d="M135.3762 123.8438
L135.1858 123.9391
" />
<path d="M135.1858 123.9391
L134.8048 123.9391
" />
<path d="M134.8048 123.9391
L134.6143 123.8438
" />
<path d="M136.4239 123.7486
L136.5191 123.8438
" />
<path d="M136.5191 123.8438
L136.4239 123.9391
" />
<path d="M136.4239 123.9391
L136.3286 123.8438
" />
<path d="M136.3286 123.8438
L136.4239 123.7486
" />
<path d="M136.4239 123.7486
L136.4239 123.9391
" />
<path d="M136.4239 122.7010
L136.5191 122.7962
" />
<path d="M136.5191 122.7962
L136.4239 122.8915
" />
<path d="M136.4239 122.8915
L136.3286 122.7962
" />
<path d="M136.3286 122.7962
L136.4239 122.7010
" />
<path d="M136.4239 122.7010
L136.4239 122.8915
" />
</g></g>
<g style="fill:#000000; fill-opacity:0.0; 
stroke:#000000; stroke-width:0.1363; stroke-opacity:1; 
stroke-linecap:round; stroke-linejoin:round;">
<path d="M119.1940 126.7227
L120.5572 128.0859
" />
<path d="M120.5572 126.7227
L119.1940 128.0859
" />
</g>
<g style="fill:#000000; fill-opacity:0.0; 
stroke:#000000; stroke-width:0.2726; stroke-opacity:1; 
stroke-linecap:round; stroke-linejoin:round;">
</g>
<g style="fill:#000000; fill-opacity:0.0; 
stroke:#000000; stroke-width:0.2000; stroke-opacity:1; 
stroke-linecap:round; stroke-linejoin:round;">
<text x="122.5572" y="128.4043"
textLength="47.3762" font-size="2.6667" lengthAdjust="spacingAndGlyphs"
text-anchor="start" opacity="0">1.000mm / 0.0394" (12 holes)</text>
<g class="stroked-text"><desc>1.000mm / 0.0394" (12 holes)</desc>
<path d="M124.0810 128.1391
L122.9381 128.1391
" />
<path d="M123.5096 128.1391
L123.5096 126.1391
" />
<path d="M123.5096 126.1391
L123.3191 126.4248
" />
<path d="M123.3191 126.4248
L123.1286 126.6153
" />
<path d="M123.1286 126.6153
L122.9381 126.7105
" />
<path d="M124.9381 127.9486
L125.0334 128.0438
" />
<path d="M125.0334 128.0438
L124.9381 128.1391
" />
<path d="M124.9381 128.1391
L124.8429 128.0438
" />
<path d="M124.8429 128.0438
L124.9381 127.9486
" />
<path d="M124.9381 127.9486
L124.9381 128.1391
" />
<path d="M126.2715 126.1391
L126.4619 126.1391
" />
<path d="M126.4619 126.1391
L126.6524 126.2343
" />
<path d="M126.6524 126.2343
L126.7477 126.3296
" />
<path d="M126.7477 126.3296
L126.8429 126.5200
" />
<path d="M126.8429 126.5200
L126.9381 126.9010
" />
<path d="M126.9381 126.9010
L126.9381 127.3772
" />
<path d="M126.9381 127.3772
L126.8429 127.7581
" />
<path d="M126.8429 127.7581
L126.7477 127.9486
" />
<path d="M126.7477 127.9486
L126.6524 128.0438
" />
<path d="M126.6524 128.0438
L126.4619 128.1391
" />
<path d="M126.4619 128.1391
L126.2715 128.1391
" />
<path d="M126.2715 128.1391
L126.0810 128.0438
" />
<path d="M126.0810 128.0438
L125.9858 127.9486
" />
<path d="M125.9858 127.9486
L125.8905 127.7581
" />
<path d="M125.8905 127.7581
L125.7953 127.3772
" />
<path d="M125.7953 127.3772
L125.7953 126.9010
" />
<path d="M125.7953 126.9010
L125.8905 126.5200
" />
<path d="M125.8905 126.5200
L125.9858 126.3296
" />
<path d="M125.9858 126.3296
L126.0810 126.2343
" />
<path d="M126.0810 126.2343
L126.2715 126.1391
" />
<path d="M128.1762 126.1391
L128.3667 126.1391
" />
<path d="M128.3667 126.1391
L128.5572 126.2343
" />
<path d="M128.5572 126.2343
L128.6524 126.3296
" />
<path d="M128.6524 126.3296
L128.7477 126.5200
" />
<path d="M128.7477 126.5200
L128.8429 126.9010
" />
<path d="M128.8429 126.9010
L128.8429 127.3772
" />
<path d="M128.8429 127.3772
L128.7477 127.7581
" />
<path d="M128.7477 127.7581
L128.6524 127.9486
" />
<path d="M128.6524 127.9486
L128.5572 128.0438
" />
<path d="M128.5572 128.0438
L128.3667 128.1391
" />
<path d="M128.3667 128.1391
L128.1762 128.1391
" />
<path d="M128.1762 128.1391
L127.9858 128.0438
" />
<path d="M127.9858 128.0438
L127.8905 127.9486
" />
<path d="M127.8905 127.9486
L127.7953 127.7581
" />
<path d="M127.7953 127.7581
L127.7000 127.3772
" />
<path d="M127.7000 127.3772
L127.7000 126.9010
" />
<path d="M127.7000 126.9010
L127.7953 126.5200
" />
<path d="M127.7953 126.5200
L127.8905 126.3296
" />
<path d="M127.8905 126.3296
L127.9858 126.2343
" />
<path d="M127.9858 126.2343
L128.1762 126.1391
" />
<path d="M130.0810 126.1391
L130.2715 126.1391
" />
<path d="M130.2715 126.1391
L130.4619 126.2343
" />
<path d="M130.4619 126.2343
L130.5572 126.3296
" />
<path d="M130.5572 126.3296
L130.6524 126.5200
" />
<path d="M130.6524 126.5200
L130.7477 126.9010
" />
<path d="M130.7477 126.9010
L130.7477 127.3772
" />
<path d="M130.7477 127.3772
L130.6524 127.7581
" />
<path d="M130.6524 127.7581
L130.5572 127.9486
" />
<path d="M130.5572 127.9486
L130.4619 128.0438
" />
<path d="M130.4619 128.0438
L130.2715 128.1391
" />
<path d="M130.2715 128.1391
L130.0810 128.1391
" />
<path d="M130.0810 128.1391
L129.8905 128.0438
" />
<path d="M129.8905 128.0438
L129.7953 127.9486
" />
<path d="M129.7953 127.9486
L129.7000 127.7581
" />
<path d="M129.7000 127.7581
L129.6048 127.3772
" />
<path d="M129.6048 127.3772
L129.6048 126.9010
" />
<path d="M129.6048 126.9010
L129.7000 126.5200
" />
<path d="M129.7000 126.5200
L129.7953 126.3296
" />
<path d="M129.7953 126.3296
L129.8905 126.2343
" />
<path d="M129.8905 126.2343
L130.0810 126.1391
" />
<path d="M131.6048 128.1391
L131.6048 126.8058
" />
<path d="M131.6048 126.9962
L131.7000 126.9010
" />
<path d="M131.7000 126.9010
L131.8905 126.8058
" />
<path d="M131.8905 126.8058
L132.1762 126.8058
" />
<path d="M132.1762 126.8058
L132.3667 126.9010
" />
<path d="M132.3667 126.9010
L132.4619 127.0915
" />
<path d="M132.4619 127.0915
L132.4619 128.1391
" />
<path d="M132.4619 127.0915
L132.5572 126.9010
" />
<path d="M132.5572 126.9010
L132.7477 126.8058
" />
<path d="M132.7477 126.8058
L133.0334 126.8058
" />
<path d="M133.0334 126.8058
L133.2239 126.9010
" />
<path d="M133.2239 126.9010
L133.3191 127.0915
" />
<path d="M133.3191 127.0915
L133.3191 128.1391
" />
<path d="M134.2715 128.1391
L134.2715 126.8058
" />
<path d="M134.2715 126.9962
L134.3667 126.9010
" />
<path d="M134.3667 126.9010
L134.5572 126.8058
" />
<path d="M134.5572 126.8058
L134.8429 126.8058
" />
<path d="M134.8429 126.8058
L135.0334 126.9010
" />
<path d="M135.0334 126.9010
L135.1286 127.0915
" />
<path d="M135.1286 127.0915
L135.1286 128.1391
" />
<path d="M135.1286 127.0915
L135.2239 126.9010
" />
<path d="M135.2239 126.9010
L135.4143 126.8058
" />
<path d="M135.4143 126.8058
L135.7000 126.8058
" />
<path d="M135.7000 126.8058
L135.8905 126.9010
" />
<path d="M135.8905 126.9010
L135.9858 127.0915
" />
<path d="M135.9858 127.0915
L135.9858 128.1391
" />
<path d="M139.5667 126.0438
L137.8524 128.6153
" />
<path d="M141.8143 126.1391
L142.0048 126.1391
" />
<path d="M142.0048 126.1391
L142.1953 126.2343
" />
<path d="M142.1953 126.2343
L142.2905 126.3296
" />
<path d="M142.2905 126.3296
L142.3858 126.5200
" />
<path d="M142.3858 126.5200
L142.4810 126.9010
" />
<path d="M142.4810 126.9010
L142.4810 127.3772
" />
<path d="M142.4810 127.3772
L142.3858 127.7581
" />
<path d="M142.3858 127.7581
L142.2905 127.9486
" />
<path d="M142.2905 127.9486
L142.1953 128.0438
" />
<path d="M142.1953 128.0438
L142.0048 128.1391
" />
<path d="M142.0048 128.1391
L141.8143 128.1391
" />
<path d="M141.8143 128.1391
L141.6239 128.0438
" />
<path d="M141.6239 128.0438
L141.5286 127.9486
" />
<path d="M141.5286 127.9486
L141.4334 127.7581
" />
<path d="M141.4334 127.7581
L141.3381 127.3772
" />
<path d="M141.3381 127.3772
L141.3381 126.9010
" />
<path d="M141.3381 126.9010
L141.4334 126.5200
" />
<path d="M141.4334 126.5200
L141.5286 126.3296
" />
<path d="M141.5286 126.3296
L141.6239 126.2343
" />
<path d="M141.6239 126.2343
L141.8143 126.1391
" />
<path d="M143.3381 127.9486
L143.4334 128.0438
" />
<path d="M143.4334 128.0438
L143.3381 128.1391
" />
<path d="M143.3381 128.1391
L143.2429 128.0438
" />
<path d="M143.2429 128.0438
L143.3381 127.9486
" />
<path d="M143.3381 127.9486
L143.3381 128.1391
" />
<path d="M144.6715 126.1391
L144.8619 126.1391
" />
<path d="M144.8619 126.1391
L145.0524 126.2343
" />
<path d="M145.0524 126.2343
L145.1477 126.3296
" />
<path d="M145.1477 126.3296
L145.2429 126.5200
" />
<path d="M145.2429 126.5200
L145.3381 126.9010
" />
<path d="M145.3381 126.9010
L145.3381 127.3772
" />
<path d="M145.3381 127.3772
L145.2429 127.7581
" />
<path d="M145.2429 127.7581
L145.1477 127.9486
" />
<path d="M145.1477 127.9486
L145.0524 128.0438
" />
<path d="M145.0524 128.0438
L144.8619 128.1391
" />
<path d="M144.8619 128.1391
L144.6715 128.1391
" />
<path d="M144.6715 128.1391
L144.4810 128.0438
" />
<path d="M144.4810 128.0438
L144.3858 127.9486
" />
<path d="M144.3858 127.9486
L144.2905 127.7581
" />
<path d="M144.2905 127.7581
L144.1953 127.3772
" />
<path d="M144.1953 127.3772
L144.1953 126.9010
" />
<path d="M144.1953 126.9010
L144.2905 126.5200
" />
<path d="M144.2905 126.5200
L144.3858 126.3296
" />
<path d="M144.3858 126.3296
L144.4810 126.2343
" />
<path d="M144.4810 126.2343
L144.6715 126.1391
" />
<path d="M146.0048 126.1391
L147.2429 126.1391
" />
<path d="M147.2429 126.1391
L146.5762 126.9010
" />
<path d="M146.5762 126.9010
L146.8619 126.9010
" />
<path d="M146.8619 126.9010
L147.0524 126.9962
" />
<path d="M147.0524 126.9962
L147.1477 127.0915
" />
<path d="M147.1477 127.0915
L147.2429 127.2819
" />
<path d="M147.2429 127.2819
L147.2429 127.7581
" />
<path d="M147.2429 127.7581
L147.1477 127.9486
" />
<path d="M147.1477 127.9486
L147.0524 128.0438
" />
<path d="M147.0524 128.0438
L146.8619 128.1391
" />
<path d="M146.8619 128.1391
L146.2905 128.1391
" />
<path d="M146.2905 128.1391
L146.1000 128.0438
" />
<path d="M146.1000 128.0438
L146.0048 127.9486
" />
<path d="M148.1953 128.1391
L148.5762 128.1391
" />
<path d="M148.5762 128.1391
L148.7667 128.0438
" />
<path d="M148.7667 128.0438
L148.8619 127.9486
" />
<path d="M148.8619 127.9486
L149.0524 127.6629
" />
<path d="M149.0524 127.6629
L149.1477 127.2819
" />
<path d="M149.1477 127.2819
L149.1477 126.5200
" />
<path d="M149.1477 126.5200
L149.0524 126.3296
" />
<path d="M149.0524 126.3296
L148.9572 126.2343
" />
<path d="M148.9572 126.2343
L148.7667 126.1391
" />
<path d="M148.7667 126.1391
L148.3858 126.1391
" />
<path d="M148.3858 126.1391
L148.1953 126.2343
" />
<path d="M148.1953 126.2343
L148.1000 126.3296
" />
<path d="M148.1000 126.3296
L148.0048 126.5200
" />
<path d="M148.0048 126.5200
L148.0048 126.9962
" />
<path d="M148.0048 126.9962
L148.1000 127.1867
" />
<path d="M148.1000 127.1867
L148.1953 127.2819
" />
<path d="M148.1953 127.2819
L148.3858 127.3772
" />
<path d="M148.3858 127.3772
L148.7667 127.3772
" />
<path d="M148.7667 127.3772
L148.9572 127.2819
" />
<path d="M148.9572 127.2819
L149.0524 127.1867
" />
<path d="M149.0524 127.1867
L149.1477 126.9962
" />
<path d="M150.8619 126.8058
L150.8619 128.1391
" />
<path d="M150.3858 126.0438
L149.9096 127.4724
" />
<path d="M149.9096 127.4724
L151.1477 127.4724
" />
<path d="M151.8143 126.1391
L151.8143 126.5200
" />
<path d="M152.5762 126.1391
L152.5762 126.5200
" />
<path d="M155.2048 128.9010
L155.1096 128.8058
" />
<path d="M155.1096 128.8058
L154.9191 128.5200
" />
<path d="M154.9191 128.5200
L154.8239 128.3296
" />
<path d="M154.8239 128.3296
L154.7286 128.0438
" />
<path d="M154.7286 128.0438
L154.6334 127.5677
" />
<path d="M154.6334 127.5677
L154.6334 127.1867
" />
<path d="M154.6334 127.1867
L154.7286 126.7105
" />
<path d="M154.7286 126.7105
L154.8239 126.4248
" />
<path d="M154.8239 126.4248
L154.9191 126.2343
" />
<path d="M154.9191 126.2343
L155.1096 125.9486
" />
<path d="M155.1096 125.9486
L155.2048 125.8534
" />
<path d="M157.0143 128.1391
L155.8715 128.1391
" />
<path d="M156.4429 128.1391
L156.4429 126.1391
" />
<path d="M156.4429 126.1391
L156.2524 126.4248
" />
<path d="M156.2524 126.4248
L156.0619 126.6153
" />
<path d="M156.0619 126.6153
L155.8715 126.7105
" />
<path d="M157.7762 126.3296
L157.8715 126.2343
" />
<path d="M157.8715 126.2343
L158.0619 126.1391
" />
<path d="M158.0619 126.1391
L158.5381 126.1391
" />
<path d="M158.5381 126.1391
L158.7286 126.2343
" />
<path d="M158.7286 126.2343
L158.8239 126.3296
" />
<path d="M158.8239 126.3296
L158.9191 126.5200
" />
<path d="M158.9191 126.5200
L158.9191 126.7105
" />
<path d="M158.9191 126.7105
L158.8239 126.9962
" />
<path d="M158.8239 126.9962
L157.6810 128.1391
" />
<path d="M157.6810 128.1391
L158.9191 128.1391
" />
<path d="M160.9762 128.1391
L160.9762 126.1391
" />
<path d="M161.8334 128.1391
L161.8334 127.0915
" />
<path d="M161.8334 127.0915
L161.7381 126.9010
" />
<path d="M161.7381 126.9010
L161.5477 126.8058
" />
<path d="M161.5477 126.8058
L161.2619 126.8058
" />
<path d="M161.2619 126.8058
L161.0715 126.9010
" />
<path d="M161.0715 126.9010
L160.9762 126.9962
" />
<path d="M163.0715 128.1391
L162.8810 128.0438
" />
<path d="M162.8810 128.0438
L162.7858 127.9486
" />
<path d="M162.7858 127.9486
L162.6905 127.7581
" />
<path d="M162.6905 127.7581
L162.6905 127.1867
" />
<path d="M162.6905 127.1867
L162.7858 126.9962
" />
<path d="M162.7858 126.9962
L162.8810 126.9010
" />
<path d="M162.8810 126.9010
L163.0715 126.8058
" />
<path d="M163.0715 126.8058
L163.3572 126.8058
" />
<path d="M163.3572 126.8058
L163.5477 126.9010
" />
<path d="M163.5477 126.9010
L163.6429 126.9962
" />
<path d="M163.6429 126.9962
L163.7381 127.1867
" />
<path d="M163.7381 127.1867
L163.7381 127.7581
" />
<path d="M163.7381 127.7581
L163.6429 127.9486
" />
<path d="M163.6429 127.9486
L163.5477 128.0438
" />
<path d="M163.5477 128.0438
L163.3572 128.1391
" />
<path d="M163.3572 128.1391
L163.0715 128.1391
" />
<path d="M164.8810 128.1391
L164.6905 128.0438
" />
<path d="M164.6905 128.0438
L164.5953 127.8534
" />
<path d="M164.5953 127.8534
L164.5953 126.1391
" />
<path d="M166.4048 128.0438
L166.2143 128.1391
" />
<path d="M166.2143 128.1391
L165.8334 128.1391
" />
<path d="M165.8334 128.1391
L165.6429 128.0438
" />
<path d="M165.6429 128.0438
L165.5477 127.8534
" />
<path d="M165.5477 127.8534
L165.5477 127.0915
" />
<path d="M165.5477 127.0915
L165.6429 126.9010
" />
<path d="M165.6429 126.9010
L165.8334 126.8058
" />
<path d="M165.8334 126.8058
L166.2143 126.8058
" />
<path d="M166.2143 126.8058
L166.4048 126.9010
" />
<path d="M166.4048 126.9010
L166.5000 127.0915
" />
<path d="M166.5000 127.0915
L166.5000 127.2819
" />
<path d="M166.5000 127.2819
L165.5477 127.4724
" />
<path d="M167.2620 128.0438
L167.4524 128.1391
" />
<path d="M167.4524 128.1391
L167.8334 128.1391
" />
<path d="M167.8334 128.1391
L168.0239 128.0438
" />
<path d="M168.0239 128.0438
L168.1191 127.8534
" />
<path d="M168.1191 127.8534
L168.1191 127.7581
" />
<path d="M168.1191 127.7581
L168.0239 127.5677
" />
<path d="M168.0239 127.5677
L167.8334 127.4724
" />
<path d="M167.8334 127.4724
L167.5477 127.4724
" />
<path d="M167.5477 127.4724
L167.3572 127.3772
" />
<path d="M167.3572 127.3772
L167.2620 127.1867
" />
<path d="M167.2620 127.1867
L167.2620 127.0915
" />
<path d="M167.2620 127.0915
L167.3572 126.9010
" />
<path d="M167.3572 126.9010
L167.5477 126.8058
" />
<path d="M167.5477 126.8058
L167.8334 126.8058
" />
<path d="M167.8334 126.8058
L168.0239 126.9010
" />
<path d="M168.7858 128.9010
L168.8810 128.8058
" />
<path d="M168.8810 128.8058
L169.0715 128.5200
" />
<path d="M169.0715 128.5200
L169.1667 128.3296
" />
<path d="M169.1667 128.3296
L169.2620 128.0438
" />
<path d="M169.2620 128.0438
L169.3572 127.5677
" />
<path d="M169.3572 127.5677
L169.3572 127.1867
" />
<path d="M169.3572 127.1867
L169.2620 126.7105
" />
<path d="M169.2620 126.7105
L169.1667 126.4248
" />
<path d="M169.1667 126.4248
L169.0715 126.2343
" />
<path d="M169.0715 126.2343
L168.8810 125.9486
" />
<path d="M168.8810 125.9486
L168.7858 125.8534
" />
</g></g> 
</svg>
