<?xml version="1.0" standalone="no"?>
 <!DOCTYPE svg PUBLIC "-//W3C//DTD SVG 1.1//EN" 
 "http://www.w3.org/Graphics/SVG/1.1/DTD/svg11.dtd"> 
<svg
  xmlns:svg="http://www.w3.org/2000/svg"
  xmlns="http://www.w3.org/2000/svg"
  xmlns:xlink="http://www.w3.org/1999/xlink"
  version="1.1"
  width="297.0022mm" height="210.0072mm" viewBox="0.0000 0.0000 297.0022 210.0072">
<title>SVG Image created as StudioMic-F_Mask.svg date 2023/03/18 07:42:13 </title>
  <desc>Image generated by PCBNEW </desc>
<g style="fill:#000000; fill-opacity:1.0000;stroke:#000000; stroke-opacity:1.0000;
stroke-linecap:round; stroke-linejoin:round;"
 transform="translate(0 0) scale(1 1)">
</g>
<g style="fill:#000000; fill-opacity:0.0; 
stroke:#000000; stroke-width:0.0000; stroke-opacity:1; 
stroke-linecap:round; stroke-linejoin:round;">
<g >
</g>
<g >
</g>
<g >
</g>
<g style="fill:#000000; fill-opacity:0.0; 
stroke:#000000; stroke-width:0.0000; stroke-opacity:1; 
stroke-linecap:round; stroke-linejoin:round;">
</g>
<g style="fill:#000000; fill-opacity:0.0; 
stroke:#000000; stroke-width:0.0000; stroke-opacity:1; 
stroke-linecap:round; stroke-linejoin:round;">
</g>
<g style="fill:#000000; fill-opacity:1.0000; 
stroke:#000000; stroke-width:0.0000; stroke-opacity:1; 
stroke-linecap:round; stroke-linejoin:round;">
<path style="fill:#000000; fill-opacity:1.0000; 
stroke:#000000; stroke-width:0.0000; stroke-opacity:1; 
stroke-linecap:round; stroke-linejoin:round;fill-rule:evenodd;"
d="M 162.7575,78.8534
162.8532,78.8724
162.9343,78.9266
162.9885,79.0077
163.0075,79.1034
163.0075,79.6034
162.9885,79.6991
162.9343,79.7802
162.8532,79.8344
162.7575,79.8534
161.8075,79.8534
161.7118,79.8344
161.6307,79.7802
161.5765,79.6991
161.5575,79.6034
161.5575,79.1034
161.5765,79.0077
161.6307,78.9266
161.7118,78.8724
161.8075,78.8534
Z" /> 
<path style="fill:#000000; fill-opacity:1.0000; 
stroke:#000000; stroke-width:0.0000; stroke-opacity:1; 
stroke-linecap:round; stroke-linejoin:round;fill-rule:evenodd;"
d="M 162.7575,76.9534
162.8532,76.9724
162.9343,77.0266
162.9885,77.1077
163.0075,77.2034
163.0075,77.7034
162.9885,77.7991
162.9343,77.8802
162.8532,77.9344
162.7575,77.9534
161.8075,77.9534
161.7118,77.9344
161.6307,77.8802
161.5765,77.7991
161.5575,77.7034
161.5575,77.2034
161.5765,77.1077
161.6307,77.0266
161.7118,76.9724
161.8075,76.9534
Z" /> 
</g>
<g >
</g>
<g style="fill:#000000; fill-opacity:1.0000; 
stroke:#000000; stroke-width:0.0000; stroke-opacity:1; 
stroke-linecap:round; stroke-linejoin:round;">
<path style="fill:#000000; fill-opacity:1.0000; 
stroke:#000000; stroke-width:0.0000; stroke-opacity:1; 
stroke-linecap:round; stroke-linejoin:round;fill-rule:evenodd;"
d="M 145.5620,63.1880
145.6577,63.2070
145.7388,63.2612
145.7930,63.3423
145.8120,63.4380
145.8120,63.9380
145.7930,64.0337
145.7388,64.1148
145.6577,64.1690
145.5620,64.1880
144.6120,64.1880
144.5163,64.1690
144.4352,64.1148
144.3810,64.0337
144.3620,63.9380
144.3620,63.4380
144.3810,63.3423
144.4352,63.2612
144.5163,63.2070
144.6120,63.1880
Z" /> 
<path style="fill:#000000; fill-opacity:1.0000; 
stroke:#000000; stroke-width:0.0000; stroke-opacity:1; 
stroke-linecap:round; stroke-linejoin:round;fill-rule:evenodd;"
d="M 145.5620,61.2880
145.6577,61.3070
145.7388,61.3612
145.7930,61.4423
145.8120,61.5380
145.8120,62.0380
145.7930,62.1337
145.7388,62.2148
145.6577,62.2690
145.5620,62.2880
144.6120,62.2880
144.5163,62.2690
144.4352,62.2148
144.3810,62.1337
144.3620,62.0380
144.3620,61.5380
144.3810,61.4423
144.4352,61.3612
144.5163,61.3070
144.6120,61.2880
Z" /> 
</g>
<g >
</g>
<g >
</g>
<g style="fill:#000000; fill-opacity:1.0000; 
stroke:#000000; stroke-width:0.0000; stroke-opacity:1; 
stroke-linecap:round; stroke-linejoin:round;">
<path style="fill:#000000; fill-opacity:1.0000; 
stroke:#000000; stroke-width:0.0000; stroke-opacity:1; 
stroke-linecap:round; stroke-linejoin:round;fill-rule:evenodd;"
d="M 158.9100,66.3710
158.8143,66.3520
158.7332,66.2978
158.6790,66.2167
158.6600,66.1210
158.6600,65.6210
158.6790,65.5253
158.7332,65.4442
158.8143,65.3900
158.9100,65.3710
159.8600,65.3710
159.9557,65.3900
160.0368,65.4442
160.0910,65.5253
160.1100,65.6210
160.1100,66.1210
160.0910,66.2167
160.0368,66.2978
159.9557,66.3520
159.8600,66.3710
Z" /> 
<path style="fill:#000000; fill-opacity:1.0000; 
stroke:#000000; stroke-width:0.0000; stroke-opacity:1; 
stroke-linecap:round; stroke-linejoin:round;fill-rule:evenodd;"
d="M 158.9100,68.2710
158.8143,68.2520
158.7332,68.1978
158.6790,68.1167
158.6600,68.0210
158.6600,67.5210
158.6790,67.4253
158.7332,67.3442
158.8143,67.2900
158.9100,67.2710
159.8600,67.2710
159.9557,67.2900
160.0368,67.3442
160.0910,67.4253
160.1100,67.5210
160.1100,68.0210
160.0910,68.1167
160.0368,68.1978
159.9557,68.2520
159.8600,68.2710
Z" /> 
</g>
<g >
</g>
<g style="fill:#000000; fill-opacity:1.0000; 
stroke:#000000; stroke-width:0.0000; stroke-opacity:1; 
stroke-linecap:round; stroke-linejoin:round;">
<path style="fill:#000000; fill-opacity:1.0000; 
stroke:#000000; stroke-width:0.0000; stroke-opacity:1; 
stroke-linecap:round; stroke-linejoin:round;fill-rule:evenodd;"
d="M 156.9763,70.9192
156.9189,70.9078
156.8702,70.8753
156.8377,70.8266
156.8263,70.7692
156.8263,69.1192
156.8377,69.0618
156.8702,69.0131
156.9189,68.9806
156.9763,68.9692
157.2763,68.9692
157.3337,68.9806
157.3824,69.0131
157.4149,69.0618
157.4263,69.1192
157.4263,70.7692
157.4149,70.8266
157.3824,70.8753
157.3337,70.9078
157.2763,70.9192
Z" /> 
<path style="fill:#000000; fill-opacity:1.0000; 
stroke:#000000; stroke-width:0.0000; stroke-opacity:1; 
stroke-linecap:round; stroke-linejoin:round;fill-rule:evenodd;"
d="M 158.2463,70.9192
158.1889,70.9078
158.1402,70.8753
158.1077,70.8266
158.0963,70.7692
158.0963,69.1192
158.1077,69.0618
158.1402,69.0131
158.1889,68.9806
158.2463,68.9692
158.5463,68.9692
158.6037,68.9806
158.6524,69.0131
158.6849,69.0618
158.6963,69.1192
158.6963,70.7692
158.6849,70.8266
158.6524,70.8753
158.6037,70.9078
158.5463,70.9192
Z" /> 
<path style="fill:#000000; fill-opacity:1.0000; 
stroke:#000000; stroke-width:0.0000; stroke-opacity:1; 
stroke-linecap:round; stroke-linejoin:round;fill-rule:evenodd;"
d="M 159.5163,70.9192
159.4589,70.9078
159.4102,70.8753
159.3777,70.8266
159.3663,70.7692
159.3663,69.1192
159.3777,69.0618
159.4102,69.0131
159.4589,68.9806
159.5163,68.9692
159.8163,68.9692
159.8737,68.9806
159.9224,69.0131
159.9549,69.0618
159.9663,69.1192
159.9663,70.7692
159.9549,70.8266
159.9224,70.8753
159.8737,70.9078
159.8163,70.9192
Z" /> 
<path style="fill:#000000; fill-opacity:1.0000; 
stroke:#000000; stroke-width:0.0000; stroke-opacity:1; 
stroke-linecap:round; stroke-linejoin:round;fill-rule:evenodd;"
d="M 160.7863,70.9192
160.7289,70.9078
160.6802,70.8753
160.6477,70.8266
160.6363,70.7692
160.6363,69.1192
160.6477,69.0618
160.6802,69.0131
160.7289,68.9806
160.7863,68.9692
161.0863,68.9692
161.1437,68.9806
161.1924,69.0131
161.2249,69.0618
161.2363,69.1192
161.2363,70.7692
161.2249,70.8266
161.1924,70.8753
161.1437,70.9078
161.0863,70.9192
Z" /> 
<path style="fill:#000000; fill-opacity:1.0000; 
stroke:#000000; stroke-width:0.0000; stroke-opacity:1; 
stroke-linecap:round; stroke-linejoin:round;fill-rule:evenodd;"
d="M 162.0563,70.9192
161.9989,70.9078
161.9502,70.8753
161.9177,70.8266
161.9063,70.7692
161.9063,69.1192
161.9177,69.0618
161.9502,69.0131
161.9989,68.9806
162.0563,68.9692
162.3563,68.9692
162.4137,68.9806
162.4624,69.0131
162.4949,69.0618
162.5063,69.1192
162.5063,70.7692
162.4949,70.8266
162.4624,70.8753
162.4137,70.9078
162.3563,70.9192
Z" /> 
<path style="fill:#000000; fill-opacity:1.0000; 
stroke:#000000; stroke-width:0.0000; stroke-opacity:1; 
stroke-linecap:round; stroke-linejoin:round;fill-rule:evenodd;"
d="M 163.3263,70.9192
163.2689,70.9078
163.2202,70.8753
163.1877,70.8266
163.1763,70.7692
163.1763,69.1192
163.1877,69.0618
163.2202,69.0131
163.2689,68.9806
163.3263,68.9692
163.6263,68.9692
163.6837,68.9806
163.7324,69.0131
163.7649,69.0618
163.7763,69.1192
163.7763,70.7692
163.7649,70.8266
163.7324,70.8753
163.6837,70.9078
163.6263,70.9192
Z" /> 
<path style="fill:#000000; fill-opacity:1.0000; 
stroke:#000000; stroke-width:0.0000; stroke-opacity:1; 
stroke-linecap:round; stroke-linejoin:round;fill-rule:evenodd;"
d="M 164.5963,70.9192
164.5389,70.9078
164.4902,70.8753
164.4577,70.8266
164.4463,70.7692
164.4463,69.1192
164.4577,69.0618
164.4902,69.0131
164.5389,68.9806
164.5963,68.9692
164.8963,68.9692
164.9537,68.9806
165.0024,69.0131
165.0349,69.0618
165.0463,69.1192
165.0463,70.7692
165.0349,70.8266
165.0024,70.8753
164.9537,70.9078
164.8963,70.9192
Z" /> 
<path style="fill:#000000; fill-opacity:1.0000; 
stroke:#000000; stroke-width:0.0000; stroke-opacity:1; 
stroke-linecap:round; stroke-linejoin:round;fill-rule:evenodd;"
d="M 164.5963,75.8692
164.5389,75.8578
164.4902,75.8253
164.4577,75.7766
164.4463,75.7192
164.4463,74.0692
164.4577,74.0118
164.4902,73.9631
164.5389,73.9306
164.5963,73.9192
164.8963,73.9192
164.9537,73.9306
165.0024,73.9631
165.0349,74.0118
165.0463,74.0692
165.0463,75.7192
165.0349,75.7766
165.0024,75.8253
164.9537,75.8578
164.8963,75.8692
Z" /> 
<path style="fill:#000000; fill-opacity:1.0000; 
stroke:#000000; stroke-width:0.0000; stroke-opacity:1; 
stroke-linecap:round; stroke-linejoin:round;fill-rule:evenodd;"
d="M 163.3263,75.8692
163.2689,75.8578
163.2202,75.8253
163.1877,75.7766
163.1763,75.7192
163.1763,74.0692
163.1877,74.0118
163.2202,73.9631
163.2689,73.9306
163.3263,73.9192
163.6263,73.9192
163.6837,73.9306
163.7324,73.9631
163.7649,74.0118
163.7763,74.0692
163.7763,75.7192
163.7649,75.7766
163.7324,75.8253
163.6837,75.8578
163.6263,75.8692
Z" /> 
<path style="fill:#000000; fill-opacity:1.0000; 
stroke:#000000; stroke-width:0.0000; stroke-opacity:1; 
stroke-linecap:round; stroke-linejoin:round;fill-rule:evenodd;"
d="M 162.0563,75.8692
161.9989,75.8578
161.9502,75.8253
161.9177,75.7766
161.9063,75.7192
161.9063,74.0692
161.9177,74.0118
161.9502,73.9631
161.9989,73.9306
162.0563,73.9192
162.3563,73.9192
162.4137,73.9306
162.4624,73.9631
162.4949,74.0118
162.5063,74.0692
162.5063,75.7192
162.4949,75.7766
162.4624,75.8253
162.4137,75.8578
162.3563,75.8692
Z" /> 
<path style="fill:#000000; fill-opacity:1.0000; 
stroke:#000000; stroke-width:0.0000; stroke-opacity:1; 
stroke-linecap:round; stroke-linejoin:round;fill-rule:evenodd;"
d="M 160.7863,75.8692
160.7289,75.8578
160.6802,75.8253
160.6477,75.7766
160.6363,75.7192
160.6363,74.0692
160.6477,74.0118
160.6802,73.9631
160.7289,73.9306
160.7863,73.9192
161.0863,73.9192
161.1437,73.9306
161.1924,73.9631
161.2249,74.0118
161.2363,74.0692
161.2363,75.7192
161.2249,75.7766
161.1924,75.8253
161.1437,75.8578
161.0863,75.8692
Z" /> 
<path style="fill:#000000; fill-opacity:1.0000; 
stroke:#000000; stroke-width:0.0000; stroke-opacity:1; 
stroke-linecap:round; stroke-linejoin:round;fill-rule:evenodd;"
d="M 159.5163,75.8692
159.4589,75.8578
159.4102,75.8253
159.3777,75.7766
159.3663,75.7192
159.3663,74.0692
159.3777,74.0118
159.4102,73.9631
159.4589,73.9306
159.5163,73.9192
159.8163,73.9192
159.8737,73.9306
159.9224,73.9631
159.9549,74.0118
159.9663,74.0692
159.9663,75.7192
159.9549,75.7766
159.9224,75.8253
159.8737,75.8578
159.8163,75.8692
Z" /> 
<path style="fill:#000000; fill-opacity:1.0000; 
stroke:#000000; stroke-width:0.0000; stroke-opacity:1; 
stroke-linecap:round; stroke-linejoin:round;fill-rule:evenodd;"
d="M 158.2463,75.8692
158.1889,75.8578
158.1402,75.8253
158.1077,75.7766
158.0963,75.7192
158.0963,74.0692
158.1077,74.0118
158.1402,73.9631
158.1889,73.9306
158.2463,73.9192
158.5463,73.9192
158.6037,73.9306
158.6524,73.9631
158.6849,74.0118
158.6963,74.0692
158.6963,75.7192
158.6849,75.7766
158.6524,75.8253
158.6037,75.8578
158.5463,75.8692
Z" /> 
<path style="fill:#000000; fill-opacity:1.0000; 
stroke:#000000; stroke-width:0.0000; stroke-opacity:1; 
stroke-linecap:round; stroke-linejoin:round;fill-rule:evenodd;"
d="M 156.9763,75.8692
156.9189,75.8578
156.8702,75.8253
156.8377,75.7766
156.8263,75.7192
156.8263,74.0692
156.8377,74.0118
156.8702,73.9631
156.9189,73.9306
156.9763,73.9192
157.2763,73.9192
157.3337,73.9306
157.3824,73.9631
157.4149,74.0118
157.4263,74.0692
157.4263,75.7192
157.4149,75.7766
157.3824,75.8253
157.3337,75.8578
157.2763,75.8692
Z" /> 
</g>
<g >
</g>
<g style="fill:#000000; fill-opacity:1.0000; 
stroke:#000000; stroke-width:0.0000; stroke-opacity:1; 
stroke-linecap:round; stroke-linejoin:round;">
<path style="fill:#000000; fill-opacity:1.0000; 
stroke:#000000; stroke-width:0.0000; stroke-opacity:1; 
stroke-linecap:round; stroke-linejoin:round;fill-rule:evenodd;"
d="M 162.2710,91.0160
162.3667,91.0350
162.4478,91.0892
162.5020,91.1703
162.5210,91.2660
162.5210,94.0660
162.5020,94.1617
162.4478,94.2428
162.3667,94.2970
162.2710,94.3160
161.0710,94.3160
160.9753,94.2970
160.8942,94.2428
160.8400,94.1617
160.8210,94.0660
160.8210,91.2660
160.8400,91.1703
160.8942,91.0892
160.9753,91.0350
161.0710,91.0160
Z" /> 
<path style="fill:#000000; fill-opacity:1.0000; 
stroke:#000000; stroke-width:0.0000; stroke-opacity:1; 
stroke-linecap:round; stroke-linejoin:round;fill-rule:evenodd;"
d="M 162.2710,85.5160
162.3667,85.5350
162.4478,85.5892
162.5020,85.6703
162.5210,85.7660
162.5210,88.5660
162.5020,88.6617
162.4478,88.7428
162.3667,88.7970
162.2710,88.8160
161.0710,88.8160
160.9753,88.7970
160.8942,88.7428
160.8400,88.6617
160.8210,88.5660
160.8210,85.7660
160.8400,85.6703
160.8942,85.5892
160.9753,85.5350
161.0710,85.5160
Z" /> 
</g>
<g >
</g>
<g style="fill:#000000; fill-opacity:1.0000; 
stroke:#000000; stroke-width:0.0000; stroke-opacity:1; 
stroke-linecap:round; stroke-linejoin:round;">
<path style="fill:#000000; fill-opacity:1.0000; 
stroke:#000000; stroke-width:0.0000; stroke-opacity:1; 
stroke-linecap:round; stroke-linejoin:round;fill-rule:evenodd;"
d="M 152.6885,62.8460
152.5928,62.8270
152.5117,62.7728
152.4575,62.6917
152.4385,62.5960
152.4385,62.0710
152.4575,61.9753
152.5117,61.8942
152.5928,61.8400
152.6885,61.8210
153.5885,61.8210
153.6842,61.8400
153.7653,61.8942
153.8195,61.9753
153.8385,62.0710
153.8385,62.5960
153.8195,62.6917
153.7653,62.7728
153.6842,62.8270
153.5885,62.8460
Z" /> 
<path style="fill:#000000; fill-opacity:1.0000; 
stroke:#000000; stroke-width:0.0000; stroke-opacity:1; 
stroke-linecap:round; stroke-linejoin:round;fill-rule:evenodd;"
d="M 152.6885,64.6710
152.5928,64.6520
152.5117,64.5978
152.4575,64.5167
152.4385,64.4210
152.4385,63.8960
152.4575,63.8003
152.5117,63.7192
152.5928,63.6650
152.6885,63.6460
153.5885,63.6460
153.6842,63.6650
153.7653,63.7192
153.8195,63.8003
153.8385,63.8960
153.8385,64.4210
153.8195,64.5167
153.7653,64.5978
153.6842,64.6520
153.5885,64.6710
Z" /> 
</g>
<g >
</g>
<g style="fill:#000000; fill-opacity:1.0000; 
stroke:#000000; stroke-width:0.0000; stroke-opacity:1; 
stroke-linecap:round; stroke-linejoin:round;">
<path style="fill:#000000; fill-opacity:1.0000; 
stroke:#000000; stroke-width:0.0000; stroke-opacity:1; 
stroke-linecap:round; stroke-linejoin:round;fill-rule:evenodd;"
d="M 152.3340,80.6060
152.3150,80.7017
152.2608,80.7828
152.1797,80.8370
152.0840,80.8560
151.5590,80.8560
151.4633,80.8370
151.3822,80.7828
151.3280,80.7017
151.3090,80.6060
151.3090,79.7060
151.3280,79.6103
151.3822,79.5292
151.4633,79.4750
151.5590,79.4560
152.0840,79.4560
152.1797,79.4750
152.2608,79.5292
152.3150,79.6103
152.3340,79.7060
Z" /> 
<path style="fill:#000000; fill-opacity:1.0000; 
stroke:#000000; stroke-width:0.0000; stroke-opacity:1; 
stroke-linecap:round; stroke-linejoin:round;fill-rule:evenodd;"
d="M 154.1590,80.6060
154.1400,80.7017
154.0858,80.7828
154.0047,80.8370
153.9090,80.8560
153.3840,80.8560
153.2883,80.8370
153.2072,80.7828
153.1530,80.7017
153.1340,80.6060
153.1340,79.7060
153.1530,79.6103
153.2072,79.5292
153.2883,79.4750
153.3840,79.4560
153.9090,79.4560
154.0047,79.4750
154.0858,79.5292
154.1400,79.6103
154.1590,79.7060
Z" /> 
</g>
<g >
</g>
<g style="fill:#000000; fill-opacity:1.0000; 
stroke:#000000; stroke-width:0.0000; stroke-opacity:1; 
stroke-linecap:round; stroke-linejoin:round;">
<path style="fill:#000000; fill-opacity:1.0000; 
stroke:#000000; stroke-width:0.0000; stroke-opacity:1; 
stroke-linecap:round; stroke-linejoin:round;fill-rule:evenodd;"
d="M 162.0349,61.0480
162.0159,61.1437
161.9617,61.2248
161.8806,61.2790
161.7849,61.2980
161.2599,61.2980
161.1642,61.2790
161.0831,61.2248
161.0289,61.1437
161.0099,61.0480
161.0099,60.1480
161.0289,60.0523
161.0831,59.9712
161.1642,59.9170
161.2599,59.8980
161.7849,59.8980
161.8806,59.9170
161.9617,59.9712
162.0159,60.0523
162.0349,60.1480
Z" /> 
<path style="fill:#000000; fill-opacity:1.0000; 
stroke:#000000; stroke-width:0.0000; stroke-opacity:1; 
stroke-linecap:round; stroke-linejoin:round;fill-rule:evenodd;"
d="M 163.8599,61.0480
163.8409,61.1437
163.7867,61.2248
163.7056,61.2790
163.6099,61.2980
163.0849,61.2980
162.9892,61.2790
162.9081,61.2248
162.8539,61.1437
162.8349,61.0480
162.8349,60.1480
162.8539,60.0523
162.9081,59.9712
162.9892,59.9170
163.0849,59.8980
163.6099,59.8980
163.7056,59.9170
163.7867,59.9712
163.8409,60.0523
163.8599,60.1480
Z" /> 
</g>
<g >
</g>
<g >
</g>
<g style="fill:#000000; fill-opacity:1.0000; 
stroke:#000000; stroke-width:0.0000; stroke-opacity:1; 
stroke-linecap:round; stroke-linejoin:round;">
<path style="fill:#000000; fill-opacity:1.0000; 
stroke:#000000; stroke-width:0.0000; stroke-opacity:1; 
stroke-linecap:round; stroke-linejoin:round;fill-rule:evenodd;"
d="M 157.6030,65.3968
157.6987,65.4158
157.7798,65.4700
157.8340,65.5511
157.8530,65.6468
157.8530,66.1468
157.8340,66.2425
157.7798,66.3236
157.6987,66.3778
157.6030,66.3968
157.1030,66.3968
157.0073,66.3778
156.9262,66.3236
156.8720,66.2425
156.8530,66.1468
156.8530,65.6468
156.8720,65.5511
156.9262,65.4700
157.0073,65.4158
157.1030,65.3968
Z" /> 
<path style="fill:#000000; fill-opacity:1.0000; 
stroke:#000000; stroke-width:0.0000; stroke-opacity:1; 
stroke-linecap:round; stroke-linejoin:round;fill-rule:evenodd;"
d="M 157.6030,62.8968
157.6987,62.9158
157.7798,62.9700
157.8340,63.0511
157.8530,63.1468
157.8530,63.6468
157.8340,63.7425
157.7798,63.8236
157.6987,63.8778
157.6030,63.8968
157.1030,63.8968
157.0073,63.8778
156.9262,63.8236
156.8720,63.7425
156.8530,63.6468
156.8530,63.1468
156.8720,63.0511
156.9262,62.9700
157.0073,62.9158
157.1030,62.8968
Z" /> 
</g>
<g >
</g>
<g style="fill:#000000; fill-opacity:1.0000; 
stroke:#000000; stroke-width:0.0000; stroke-opacity:1; 
stroke-linecap:round; stroke-linejoin:round;">
<path style="fill:#000000; fill-opacity:1.0000; 
stroke:#000000; stroke-width:0.0000; stroke-opacity:1; 
stroke-linecap:round; stroke-linejoin:round;fill-rule:evenodd;"
d="M 157.9715,102.6000
157.9525,102.6957
157.8983,102.7768
157.8172,102.8310
157.7215,102.8500
153.8215,102.8500
153.7258,102.8310
153.6447,102.7768
153.5905,102.6957
153.5715,102.6000
153.5715,100.6000
153.5905,100.5043
153.6447,100.4232
153.7258,100.3690
153.8215,100.3500
157.7215,100.3500
157.8172,100.3690
157.8983,100.4232
157.9525,100.5043
157.9715,100.6000
Z" /> 
<path style="fill:#000000; fill-opacity:1.0000; 
stroke:#000000; stroke-width:0.0000; stroke-opacity:1; 
stroke-linecap:round; stroke-linejoin:round;fill-rule:evenodd;"
d="M 165.3715,102.6000
165.3525,102.6957
165.2983,102.7768
165.2172,102.8310
165.1215,102.8500
161.2215,102.8500
161.1258,102.8310
161.0447,102.7768
160.9905,102.6957
160.9715,102.6000
160.9715,100.6000
160.9905,100.5043
161.0447,100.4232
161.1258,100.3690
161.2215,100.3500
165.1215,100.3500
165.2172,100.3690
165.2983,100.4232
165.3525,100.5043
165.3715,100.6000
Z" /> 
</g>
<g >
</g>
<g style="fill:#000000; fill-opacity:1.0000; 
stroke:#000000; stroke-width:0.0000; stroke-opacity:1; 
stroke-linecap:round; stroke-linejoin:round;">
<path style="fill:#000000; fill-opacity:1.0000; 
stroke:#000000; stroke-width:0.0000; stroke-opacity:1; 
stroke-linecap:round; stroke-linejoin:round;fill-rule:evenodd;"
d="M 153.0805,120.7725
153.1762,120.7915
153.2573,120.8457
153.3115,120.9268
153.3305,121.0225
153.3305,121.5475
153.3115,121.6432
153.2573,121.7243
153.1762,121.7785
153.0805,121.7975
152.1805,121.7975
152.0848,121.7785
152.0037,121.7243
151.9495,121.6432
151.9305,121.5475
151.9305,121.0225
151.9495,120.9268
152.0037,120.8457
152.0848,120.7915
152.1805,120.7725
Z" /> 
<path style="fill:#000000; fill-opacity:1.0000; 
stroke:#000000; stroke-width:0.0000; stroke-opacity:1; 
stroke-linecap:round; stroke-linejoin:round;fill-rule:evenodd;"
d="M 153.0805,118.9475
153.1762,118.9665
153.2573,119.0207
153.3115,119.1018
153.3305,119.1975
153.3305,119.7225
153.3115,119.8182
153.2573,119.8993
153.1762,119.9535
153.0805,119.9725
152.1805,119.9725
152.0848,119.9535
152.0037,119.8993
151.9495,119.8182
151.9305,119.7225
151.9305,119.1975
151.9495,119.1018
152.0037,119.0207
152.0848,118.9665
152.1805,118.9475
Z" /> 
</g>
<g >
</g>
<g style="fill:#000000; fill-opacity:1.0000; 
stroke:#000000; stroke-width:0.0000; stroke-opacity:1; 
stroke-linecap:round; stroke-linejoin:round;">
<path style="fill:#000000; fill-opacity:1.0000; 
stroke:#000000; stroke-width:0.0000; stroke-opacity:1; 
stroke-linecap:round; stroke-linejoin:round;fill-rule:evenodd;"
d="M 150.8715,75.8960
150.8905,75.8003
150.9447,75.7192
151.0258,75.6650
151.1215,75.6460
151.6465,75.6460
151.7422,75.6650
151.8233,75.7192
151.8775,75.8003
151.8965,75.8960
151.8965,76.7960
151.8775,76.8917
151.8233,76.9728
151.7422,77.0270
151.6465,77.0460
151.1215,77.0460
151.0258,77.0270
150.9447,76.9728
150.8905,76.8917
150.8715,76.7960
Z" /> 
<path style="fill:#000000; fill-opacity:1.0000; 
stroke:#000000; stroke-width:0.0000; stroke-opacity:1; 
stroke-linecap:round; stroke-linejoin:round;fill-rule:evenodd;"
d="M 149.0465,75.8960
149.0655,75.8003
149.1197,75.7192
149.2008,75.6650
149.2965,75.6460
149.8215,75.6460
149.9172,75.6650
149.9983,75.7192
150.0525,75.8003
150.0715,75.8960
150.0715,76.7960
150.0525,76.8917
149.9983,76.9728
149.9172,77.0270
149.8215,77.0460
149.2965,77.0460
149.2008,77.0270
149.1197,76.9728
149.0655,76.8917
149.0465,76.7960
Z" /> 
</g>
<g >
</g>
<g >
</g>
<g style="fill:#000000; fill-opacity:1.0000; 
stroke:#000000; stroke-width:0.0000; stroke-opacity:1; 
stroke-linecap:round; stroke-linejoin:round;">
<path style="fill:#000000; fill-opacity:1.0000; 
stroke:#000000; stroke-width:0.0000; stroke-opacity:1; 
stroke-linecap:round; stroke-linejoin:round;fill-rule:evenodd;"
d="M 163.8990,66.9810
163.9180,66.8853
163.9722,66.8042
164.0533,66.7500
164.1490,66.7310
164.6490,66.7310
164.7447,66.7500
164.8258,66.8042
164.8800,66.8853
164.8990,66.9810
164.8990,67.9310
164.8800,68.0267
164.8258,68.1078
164.7447,68.1620
164.6490,68.1810
164.1490,68.1810
164.0533,68.1620
163.9722,68.1078
163.9180,68.0267
163.8990,67.9310
Z" /> 
<path style="fill:#000000; fill-opacity:1.0000; 
stroke:#000000; stroke-width:0.0000; stroke-opacity:1; 
stroke-linecap:round; stroke-linejoin:round;fill-rule:evenodd;"
d="M 161.9990,66.9810
162.0180,66.8853
162.0722,66.8042
162.1533,66.7500
162.2490,66.7310
162.7490,66.7310
162.8447,66.7500
162.9258,66.8042
162.9800,66.8853
162.9990,66.9810
162.9990,67.9310
162.9800,68.0267
162.9258,68.1078
162.8447,68.1620
162.7490,68.1810
162.2490,68.1810
162.1533,68.1620
162.0722,68.1078
162.0180,68.0267
161.9990,67.9310
Z" /> 
</g>
<g >
</g>
<g style="fill:#000000; fill-opacity:1.0000; 
stroke:#000000; stroke-width:0.0000; stroke-opacity:1; 
stroke-linecap:round; stroke-linejoin:round;">
<path style="fill:#000000; fill-opacity:1.0000; 
stroke:#000000; stroke-width:0.0000; stroke-opacity:1; 
stroke-linecap:round; stroke-linejoin:round;fill-rule:evenodd;"
d="M 160.7255,78.8534
160.8212,78.8724
160.9023,78.9266
160.9565,79.0077
160.9755,79.1034
160.9755,79.6034
160.9565,79.6991
160.9023,79.7802
160.8212,79.8344
160.7255,79.8534
159.7755,79.8534
159.6798,79.8344
159.5987,79.7802
159.5445,79.6991
159.5255,79.6034
159.5255,79.1034
159.5445,79.0077
159.5987,78.9266
159.6798,78.8724
159.7755,78.8534
Z" /> 
<path style="fill:#000000; fill-opacity:1.0000; 
stroke:#000000; stroke-width:0.0000; stroke-opacity:1; 
stroke-linecap:round; stroke-linejoin:round;fill-rule:evenodd;"
d="M 160.7255,76.9534
160.8212,76.9724
160.9023,77.0266
160.9565,77.1077
160.9755,77.2034
160.9755,77.7034
160.9565,77.7991
160.9023,77.8802
160.8212,77.9344
160.7255,77.9534
159.7755,77.9534
159.6798,77.9344
159.5987,77.8802
159.5445,77.7991
159.5255,77.7034
159.5255,77.2034
159.5445,77.1077
159.5987,77.0266
159.6798,76.9724
159.7755,76.9534
Z" /> 
</g>
<g >
</g>
<g style="fill:#000000; fill-opacity:1.0000; 
stroke:#000000; stroke-width:0.0000; stroke-opacity:1; 
stroke-linecap:round; stroke-linejoin:round;">
<path style="fill:#000000; fill-opacity:1.0000; 
stroke:#000000; stroke-width:0.0000; stroke-opacity:1; 
stroke-linecap:round; stroke-linejoin:round;fill-rule:evenodd;"
d="M 162.0103,63.1050
161.9913,63.2007
161.9371,63.2818
161.8560,63.3360
161.7603,63.3550
161.2603,63.3550
161.1646,63.3360
161.0835,63.2818
161.0293,63.2007
161.0103,63.1050
161.0103,62.1550
161.0293,62.0593
161.0835,61.9782
161.1646,61.9240
161.2603,61.9050
161.7603,61.9050
161.8560,61.9240
161.9371,61.9782
161.9913,62.0593
162.0103,62.1550
Z" /> 
<path style="fill:#000000; fill-opacity:1.0000; 
stroke:#000000; stroke-width:0.0000; stroke-opacity:1; 
stroke-linecap:round; stroke-linejoin:round;fill-rule:evenodd;"
d="M 163.9103,63.1050
163.8913,63.2007
163.8371,63.2818
163.7560,63.3360
163.6603,63.3550
163.1603,63.3550
163.0646,63.3360
162.9835,63.2818
162.9293,63.2007
162.9103,63.1050
162.9103,62.1550
162.9293,62.0593
162.9835,61.9782
163.0646,61.9240
163.1603,61.9050
163.6603,61.9050
163.7560,61.9240
163.8371,61.9782
163.8913,62.0593
163.9103,62.1550
Z" /> 
</g>
<g >
</g>
<g style="fill:#000000; fill-opacity:1.0000; 
stroke:#000000; stroke-width:0.0000; stroke-opacity:1; 
stroke-linecap:round; stroke-linejoin:round;">
</g>
<g style="fill:#000000; fill-opacity:1.0000; 
stroke:#000000; stroke-width:2.7000; stroke-opacity:1; 
stroke-linecap:round; stroke-linejoin:round;">
</g>
<g style="fill:#000000; fill-opacity:0.0; 
stroke:#000000; stroke-width:2.7000; stroke-opacity:1; 
stroke-linecap:round; stroke-linejoin:round;">
<path d="M137.7436 51.3969
L138.5436 51.3969
" />
</g>
<g >
</g>
<g style="fill:#000000; fill-opacity:0.0; 
stroke:#000000; stroke-width:2.7000; stroke-opacity:1; 
stroke-linecap:round; stroke-linejoin:round;">
</g>
<g style="fill:#000000; fill-opacity:0.0; 
stroke:#000000; stroke-width:0.0000; stroke-opacity:1; 
stroke-linecap:round; stroke-linejoin:round;">
</g>
<g style="fill:#000000; fill-opacity:1.0000; 
stroke:#000000; stroke-width:0.0000; stroke-opacity:1; 
stroke-linecap:round; stroke-linejoin:round;">
<path style="fill:#000000; fill-opacity:1.0000; 
stroke:#000000; stroke-width:0.0000; stroke-opacity:1; 
stroke-linecap:round; stroke-linejoin:round;fill-rule:evenodd;"
d="M 162.3199,81.3966
162.3009,81.4923
162.2467,81.5734
162.1656,81.6276
162.0699,81.6466
161.5699,81.6466
161.4742,81.6276
161.3931,81.5734
161.3389,81.4923
161.3199,81.3966
161.3199,80.8966
161.3389,80.8009
161.3931,80.7198
161.4742,80.6656
161.5699,80.6466
162.0699,80.6466
162.1656,80.6656
162.2467,80.7198
162.3009,80.8009
162.3199,80.8966
Z" /> 
<path style="fill:#000000; fill-opacity:1.0000; 
stroke:#000000; stroke-width:0.0000; stroke-opacity:1; 
stroke-linecap:round; stroke-linejoin:round;fill-rule:evenodd;"
d="M 164.8199,81.3966
164.8009,81.4923
164.7467,81.5734
164.6656,81.6276
164.5699,81.6466
164.0699,81.6466
163.9742,81.6276
163.8931,81.5734
163.8389,81.4923
163.8199,81.3966
163.8199,80.8966
163.8389,80.8009
163.8931,80.7198
163.9742,80.6656
164.0699,80.6466
164.5699,80.6466
164.6656,80.6656
164.7467,80.7198
164.8009,80.8009
164.8199,80.8966
Z" /> 
</g>
<g >
</g>
<g style="fill:#000000; fill-opacity:1.0000; 
stroke:#000000; stroke-width:0.0000; stroke-opacity:1; 
stroke-linecap:round; stroke-linejoin:round;">
<path style="fill:#000000; fill-opacity:1.0000; 
stroke:#000000; stroke-width:0.0000; stroke-opacity:1; 
stroke-linecap:round; stroke-linejoin:round;fill-rule:evenodd;"
d="M 160.1163,63.3958
160.2120,63.4148
160.2931,63.4690
160.3473,63.5501
160.3663,63.6458
160.3663,64.1708
160.3473,64.2665
160.2931,64.3476
160.2120,64.4018
160.1163,64.4208
159.2163,64.4208
159.1206,64.4018
159.0395,64.3476
158.9853,64.2665
158.9663,64.1708
158.9663,63.6458
158.9853,63.5501
159.0395,63.4690
159.1206,63.4148
159.2163,63.3958
Z" /> 
<path style="fill:#000000; fill-opacity:1.0000; 
stroke:#000000; stroke-width:0.0000; stroke-opacity:1; 
stroke-linecap:round; stroke-linejoin:round;fill-rule:evenodd;"
d="M 160.1163,61.5708
160.2120,61.5898
160.2931,61.6440
160.3473,61.7251
160.3663,61.8208
160.3663,62.3458
160.3473,62.4415
160.2931,62.5226
160.2120,62.5768
160.1163,62.5958
159.2163,62.5958
159.1206,62.5768
159.0395,62.5226
158.9853,62.4415
158.9663,62.3458
158.9663,61.8208
158.9853,61.7251
159.0395,61.6440
159.1206,61.5898
159.2163,61.5708
Z" /> 
</g>
<g >
</g>
<g style="fill:#000000; fill-opacity:1.0000; 
stroke:#000000; stroke-width:0.0000; stroke-opacity:1; 
stroke-linecap:round; stroke-linejoin:round;">
<path style="fill:#000000; fill-opacity:1.0000; 
stroke:#000000; stroke-width:0.0000; stroke-opacity:1; 
stroke-linecap:round; stroke-linejoin:round;fill-rule:evenodd;"
d="M 162.8095,117.6600
162.8285,117.5643
162.8827,117.4832
162.9638,117.4290
163.0595,117.4100
163.5845,117.4100
163.6802,117.4290
163.7613,117.4832
163.8155,117.5643
163.8345,117.6600
163.8345,118.5600
163.8155,118.6557
163.7613,118.7368
163.6802,118.7910
163.5845,118.8100
163.0595,118.8100
162.9638,118.7910
162.8827,118.7368
162.8285,118.6557
162.8095,118.5600
Z" /> 
<path style="fill:#000000; fill-opacity:1.0000; 
stroke:#000000; stroke-width:0.0000; stroke-opacity:1; 
stroke-linecap:round; stroke-linejoin:round;fill-rule:evenodd;"
d="M 160.9845,117.6600
161.0035,117.5643
161.0577,117.4832
161.1388,117.4290
161.2345,117.4100
161.7595,117.4100
161.8552,117.4290
161.9363,117.4832
161.9905,117.5643
162.0095,117.6600
162.0095,118.5600
161.9905,118.6557
161.9363,118.7368
161.8552,118.7910
161.7595,118.8100
161.2345,118.8100
161.1388,118.7910
161.0577,118.7368
161.0035,118.6557
160.9845,118.5600
Z" /> 
</g>
<g >
</g>
<g style="fill:#000000; fill-opacity:1.0000; 
stroke:#000000; stroke-width:0.0000; stroke-opacity:1; 
stroke-linecap:round; stroke-linejoin:round;">
<path style="fill:#000000; fill-opacity:1.0000; 
stroke:#000000; stroke-width:0.0000; stroke-opacity:1; 
stroke-linecap:round; stroke-linejoin:round;fill-rule:evenodd;"
d="M 149.8790,68.9110
149.8980,68.8153
149.9522,68.7342
150.0333,68.6800
150.1290,68.6610
150.6540,68.6610
150.7497,68.6800
150.8308,68.7342
150.8850,68.8153
150.9040,68.9110
150.9040,69.8110
150.8850,69.9067
150.8308,69.9878
150.7497,70.0420
150.6540,70.0610
150.1290,70.0610
150.0333,70.0420
149.9522,69.9878
149.8980,69.9067
149.8790,69.8110
Z" /> 
<path style="fill:#000000; fill-opacity:1.0000; 
stroke:#000000; stroke-width:0.0000; stroke-opacity:1; 
stroke-linecap:round; stroke-linejoin:round;fill-rule:evenodd;"
d="M 148.0540,68.9110
148.0730,68.8153
148.1272,68.7342
148.2083,68.6800
148.3040,68.6610
148.8290,68.6610
148.9247,68.6800
149.0058,68.7342
149.0600,68.8153
149.0790,68.9110
149.0790,69.8110
149.0600,69.9067
149.0058,69.9878
148.9247,70.0420
148.8290,70.0610
148.3040,70.0610
148.2083,70.0420
148.1272,69.9878
148.0730,69.9067
148.0540,69.8110
Z" /> 
</g>
<g >
</g>
<g style="fill:#000000; fill-opacity:1.0000; 
stroke:#000000; stroke-width:0.0000; stroke-opacity:1; 
stroke-linecap:round; stroke-linejoin:round;">
<path style="fill:#000000; fill-opacity:1.0000; 
stroke:#000000; stroke-width:0.0000; stroke-opacity:1; 
stroke-linecap:round; stroke-linejoin:round;fill-rule:evenodd;"
d="M 136.5940,57.6770
136.6897,57.6960
136.7708,57.7502
136.8250,57.8313
136.8440,57.9270
136.8440,58.4520
136.8250,58.5477
136.7708,58.6288
136.6897,58.6830
136.5940,58.7020
135.6940,58.7020
135.5983,58.6830
135.5172,58.6288
135.4630,58.5477
135.4440,58.4520
135.4440,57.9270
135.4630,57.8313
135.5172,57.7502
135.5983,57.6960
135.6940,57.6770
Z" /> 
<path style="fill:#000000; fill-opacity:1.0000; 
stroke:#000000; stroke-width:0.0000; stroke-opacity:1; 
stroke-linecap:round; stroke-linejoin:round;fill-rule:evenodd;"
d="M 136.5940,55.8520
136.6897,55.8710
136.7708,55.9252
136.8250,56.0063
136.8440,56.1020
136.8440,56.6270
136.8250,56.7227
136.7708,56.8038
136.6897,56.8580
136.5940,56.8770
135.6940,56.8770
135.5983,56.8580
135.5172,56.8038
135.4630,56.7227
135.4440,56.6270
135.4440,56.1020
135.4630,56.0063
135.5172,55.9252
135.5983,55.8710
135.6940,55.8520
Z" /> 
</g>
<g >
</g>
<g style="fill:#000000; fill-opacity:1.0000; 
stroke:#000000; stroke-width:0.0000; stroke-opacity:1; 
stroke-linecap:round; stroke-linejoin:round;">
<path style="fill:#000000; fill-opacity:1.0000; 
stroke:#000000; stroke-width:0.0000; stroke-opacity:1; 
stroke-linecap:round; stroke-linejoin:round;fill-rule:evenodd;"
d="M 136.5940,61.1295
136.6897,61.1485
136.7708,61.2027
136.8250,61.2838
136.8440,61.3795
136.8440,61.9045
136.8250,62.0002
136.7708,62.0813
136.6897,62.1355
136.5940,62.1545
135.6940,62.1545
135.5983,62.1355
135.5172,62.0813
135.4630,62.0002
135.4440,61.9045
135.4440,61.3795
135.4630,61.2838
135.5172,61.2027
135.5983,61.1485
135.6940,61.1295
Z" /> 
<path style="fill:#000000; fill-opacity:1.0000; 
stroke:#000000; stroke-width:0.0000; stroke-opacity:1; 
stroke-linecap:round; stroke-linejoin:round;fill-rule:evenodd;"
d="M 136.5940,59.3045
136.6897,59.3235
136.7708,59.3777
136.8250,59.4588
136.8440,59.5545
136.8440,60.0795
136.8250,60.1752
136.7708,60.2563
136.6897,60.3105
136.5940,60.3295
135.6940,60.3295
135.5983,60.3105
135.5172,60.2563
135.4630,60.1752
135.4440,60.0795
135.4440,59.5545
135.4630,59.4588
135.5172,59.3777
135.5983,59.3235
135.6940,59.3045
Z" /> 
</g>
<g >
</g>
<g style="fill:#000000; fill-opacity:1.0000; 
stroke:#000000; stroke-width:0.0000; stroke-opacity:1; 
stroke-linecap:round; stroke-linejoin:round;">
<path style="fill:#000000; fill-opacity:1.0000; 
stroke:#000000; stroke-width:0.0000; stroke-opacity:1; 
stroke-linecap:round; stroke-linejoin:round;fill-rule:evenodd;"
d="M 136.5940,71.3930
136.6897,71.4120
136.7708,71.4662
136.8250,71.5473
136.8440,71.6430
136.8440,72.1680
136.8250,72.2637
136.7708,72.3448
136.6897,72.3990
136.5940,72.4180
135.6940,72.4180
135.5983,72.3990
135.5172,72.3448
135.4630,72.2637
135.4440,72.1680
135.4440,71.6430
135.4630,71.5473
135.5172,71.4662
135.5983,71.4120
135.6940,71.3930
Z" /> 
<path style="fill:#000000; fill-opacity:1.0000; 
stroke:#000000; stroke-width:0.0000; stroke-opacity:1; 
stroke-linecap:round; stroke-linejoin:round;fill-rule:evenodd;"
d="M 136.5940,69.5680
136.6897,69.5870
136.7708,69.6412
136.8250,69.7223
136.8440,69.8180
136.8440,70.3430
136.8250,70.4387
136.7708,70.5198
136.6897,70.5740
136.5940,70.5930
135.6940,70.5930
135.5983,70.5740
135.5172,70.5198
135.4630,70.4387
135.4440,70.3430
135.4440,69.8180
135.4630,69.7223
135.5172,69.6412
135.5983,69.5870
135.6940,69.5680
Z" /> 
</g>
<g >
</g>
<g style="fill:#000000; fill-opacity:1.0000; 
stroke:#000000; stroke-width:0.0000; stroke-opacity:1; 
stroke-linecap:round; stroke-linejoin:round;">
<path style="fill:#000000; fill-opacity:1.0000; 
stroke:#000000; stroke-width:0.0000; stroke-opacity:1; 
stroke-linecap:round; stroke-linejoin:round;fill-rule:evenodd;"
d="M 149.0700,73.8640
149.0890,73.7683
149.1432,73.6872
149.2243,73.6330
149.3200,73.6140
149.8450,73.6140
149.9407,73.6330
150.0218,73.6872
150.0760,73.7683
150.0950,73.8640
150.0950,74.7640
150.0760,74.8597
150.0218,74.9408
149.9407,74.9950
149.8450,75.0140
149.3200,75.0140
149.2243,74.9950
149.1432,74.9408
149.0890,74.8597
149.0700,74.7640
Z" /> 
<path style="fill:#000000; fill-opacity:1.0000; 
stroke:#000000; stroke-width:0.0000; stroke-opacity:1; 
stroke-linecap:round; stroke-linejoin:round;fill-rule:evenodd;"
d="M 147.2450,73.8640
147.2640,73.7683
147.3182,73.6872
147.3993,73.6330
147.4950,73.6140
148.0200,73.6140
148.1157,73.6330
148.1968,73.6872
148.2510,73.7683
148.2700,73.8640
148.2700,74.7640
148.2510,74.8597
148.1968,74.9408
148.1157,74.9950
148.0200,75.0140
147.4950,75.0140
147.3993,74.9950
147.3182,74.9408
147.2640,74.8597
147.2450,74.7640
Z" /> 
</g>
<g >
</g>
<g style="fill:#000000; fill-opacity:1.0000; 
stroke:#000000; stroke-width:0.0000; stroke-opacity:1; 
stroke-linecap:round; stroke-linejoin:round;">
<path style="fill:#000000; fill-opacity:1.0000; 
stroke:#000000; stroke-width:0.0000; stroke-opacity:1; 
stroke-linecap:round; stroke-linejoin:round;fill-rule:evenodd;"
d="M 154.8733,70.4198
154.7776,70.4008
154.6965,70.3466
154.6423,70.2655
154.6233,70.1698
154.6233,69.6698
154.6423,69.5741
154.6965,69.4930
154.7776,69.4388
154.8733,69.4198
155.8233,69.4198
155.9190,69.4388
156.0001,69.4930
156.0543,69.5741
156.0733,69.6698
156.0733,70.1698
156.0543,70.2655
156.0001,70.3466
155.9190,70.4008
155.8233,70.4198
Z" /> 
<path style="fill:#000000; fill-opacity:1.0000; 
stroke:#000000; stroke-width:0.0000; stroke-opacity:1; 
stroke-linecap:round; stroke-linejoin:round;fill-rule:evenodd;"
d="M 154.8733,72.3198
154.7776,72.3008
154.6965,72.2466
154.6423,72.1655
154.6233,72.0698
154.6233,71.5698
154.6423,71.4741
154.6965,71.3930
154.7776,71.3388
154.8733,71.3198
155.8233,71.3198
155.9190,71.3388
156.0001,71.3930
156.0543,71.4741
156.0733,71.5698
156.0733,72.0698
156.0543,72.1655
156.0001,72.2466
155.9190,72.3008
155.8233,72.3198
Z" /> 
</g>
<g >
</g>
<g style="fill:#000000; fill-opacity:1.0000; 
stroke:#000000; stroke-width:0.0000; stroke-opacity:1; 
stroke-linecap:round; stroke-linejoin:round;">
<path style="fill:#000000; fill-opacity:1.0000; 
stroke:#000000; stroke-width:0.0000; stroke-opacity:1; 
stroke-linecap:round; stroke-linejoin:round;fill-rule:evenodd;"
d="M 162.8095,119.9460
162.8285,119.8503
162.8827,119.7692
162.9638,119.7150
163.0595,119.6960
163.5845,119.6960
163.6802,119.7150
163.7613,119.7692
163.8155,119.8503
163.8345,119.9460
163.8345,120.8460
163.8155,120.9417
163.7613,121.0228
163.6802,121.0770
163.5845,121.0960
163.0595,121.0960
162.9638,121.0770
162.8827,121.0228
162.8285,120.9417
162.8095,120.8460
Z" /> 
<path style="fill:#000000; fill-opacity:1.0000; 
stroke:#000000; stroke-width:0.0000; stroke-opacity:1; 
stroke-linecap:round; stroke-linejoin:round;fill-rule:evenodd;"
d="M 160.9845,119.9460
161.0035,119.8503
161.0577,119.7692
161.1388,119.7150
161.2345,119.6960
161.7595,119.6960
161.8552,119.7150
161.9363,119.7692
161.9905,119.8503
162.0095,119.9460
162.0095,120.8460
161.9905,120.9417
161.9363,121.0228
161.8552,121.0770
161.7595,121.0960
161.2345,121.0960
161.1388,121.0770
161.0577,121.0228
161.0035,120.9417
160.9845,120.8460
Z" /> 
</g>
<g >
</g>
<g style="fill:#000000; fill-opacity:1.0000; 
stroke:#000000; stroke-width:0.0000; stroke-opacity:1; 
stroke-linecap:round; stroke-linejoin:round;">
<path style="fill:#000000; fill-opacity:1.0000; 
stroke:#000000; stroke-width:0.0000; stroke-opacity:1; 
stroke-linecap:round; stroke-linejoin:round;fill-rule:evenodd;"
d="M 156.0990,110.7680
156.0033,110.7490
155.9222,110.6948
155.8680,110.6137
155.8490,110.5180
155.8490,106.6180
155.8680,106.5223
155.9222,106.4412
156.0033,106.3870
156.0990,106.3680
158.0990,106.3680
158.1947,106.3870
158.2758,106.4412
158.3300,106.5223
158.3490,106.6180
158.3490,110.5180
158.3300,110.6137
158.2758,110.6948
158.1947,110.7490
158.0990,110.7680
Z" /> 
<path style="fill:#000000; fill-opacity:1.0000; 
stroke:#000000; stroke-width:0.0000; stroke-opacity:1; 
stroke-linecap:round; stroke-linejoin:round;fill-rule:evenodd;"
d="M 156.0990,118.1680
156.0033,118.1490
155.9222,118.0948
155.8680,118.0137
155.8490,117.9180
155.8490,114.0180
155.8680,113.9223
155.9222,113.8412
156.0033,113.7870
156.0990,113.7680
158.0990,113.7680
158.1947,113.7870
158.2758,113.8412
158.3300,113.9223
158.3490,114.0180
158.3490,117.9180
158.3300,118.0137
158.2758,118.0948
158.1947,118.1490
158.0990,118.1680
Z" /> 
</g>
<g >
</g>
<g style="fill:#000000; fill-opacity:1.0000; 
stroke:#000000; stroke-width:0.0000; stroke-opacity:1; 
stroke-linecap:round; stroke-linejoin:round;">
<path style="fill:#000000; fill-opacity:1.0000; 
stroke:#000000; stroke-width:0.0000; stroke-opacity:1; 
stroke-linecap:round; stroke-linejoin:round;fill-rule:evenodd;"
d="M 156.6305,122.9440
156.6419,122.8377
156.6917,122.7044
156.7769,122.5904
156.8909,122.5052
157.0242,122.4554
157.1305,122.4440
158.1305,122.4440
158.2368,122.4554
158.3701,122.5052
158.4841,122.5904
158.5693,122.7044
158.6191,122.8377
158.6305,122.9440
158.6305,123.9440
158.6191,124.0503
158.5693,124.1836
158.4841,124.2976
158.3701,124.3828
158.2368,124.4326
158.1305,124.4440
157.1305,124.4440
157.0242,124.4326
156.8909,124.3828
156.7769,124.2976
156.6917,124.1836
156.6419,124.0503
156.6305,123.9440
Z" /> 
<path style="fill:#000000; fill-opacity:1.0000; 
stroke:#000000; stroke-width:0.0000; stroke-opacity:1; 
stroke-linecap:round; stroke-linejoin:round;fill-rule:evenodd;"
d="M 151.6305,122.9440
151.6419,122.8377
151.6917,122.7044
151.7769,122.5904
151.8909,122.5052
152.0242,122.4554
152.1305,122.4440
153.1305,122.4440
153.2368,122.4554
153.3701,122.5052
153.4841,122.5904
153.5693,122.7044
153.6191,122.8377
153.6305,122.9440
153.6305,123.9440
153.6191,124.0503
153.5693,124.1836
153.4841,124.2976
153.3701,124.3828
153.2368,124.4326
153.1305,124.4440
152.1305,124.4440
152.0242,124.4326
151.8909,124.3828
151.7769,124.2976
151.6917,124.1836
151.6419,124.0503
151.6305,123.9440
Z" /> 
<path style="fill:#000000; fill-opacity:1.0000; 
stroke:#000000; stroke-width:0.0000; stroke-opacity:1; 
stroke-linecap:round; stroke-linejoin:round;fill-rule:evenodd;"
d="M 146.6305,122.9440
146.6419,122.8377
146.6917,122.7044
146.7769,122.5904
146.8909,122.5052
147.0242,122.4554
147.1305,122.4440
148.1305,122.4440
148.2368,122.4554
148.3701,122.5052
148.4841,122.5904
148.5693,122.7044
148.6191,122.8377
148.6305,122.9440
148.6305,123.9440
148.6191,124.0503
148.5693,124.1836
148.4841,124.2976
148.3701,124.3828
148.2368,124.4326
148.1305,124.4440
147.1305,124.4440
147.0242,124.4326
146.8909,124.3828
146.7769,124.2976
146.6917,124.1836
146.6419,124.0503
146.6305,123.9440
Z" /> 
</g>
<g >
</g>
<g style="fill:#000000; fill-opacity:1.0000; 
stroke:#000000; stroke-width:0.0000; stroke-opacity:1; 
stroke-linecap:round; stroke-linejoin:round;">
<path style="fill:#000000; fill-opacity:1.0000; 
stroke:#000000; stroke-width:0.0000; stroke-opacity:1; 
stroke-linecap:round; stroke-linejoin:round;fill-rule:evenodd;"
d="M 164.7641,78.8636
164.8598,78.8826
164.9409,78.9368
164.9951,79.0179
165.0141,79.1136
165.0141,79.6136
164.9951,79.7093
164.9409,79.7904
164.8598,79.8446
164.7641,79.8636
163.8141,79.8636
163.7184,79.8446
163.6373,79.7904
163.5831,79.7093
163.5641,79.6136
163.5641,79.1136
163.5831,79.0179
163.6373,78.9368
163.7184,78.8826
163.8141,78.8636
Z" /> 
<path style="fill:#000000; fill-opacity:1.0000; 
stroke:#000000; stroke-width:0.0000; stroke-opacity:1; 
stroke-linecap:round; stroke-linejoin:round;fill-rule:evenodd;"
d="M 164.7641,76.9636
164.8598,76.9826
164.9409,77.0368
164.9951,77.1179
165.0141,77.2136
165.0141,77.7136
164.9951,77.8093
164.9409,77.8904
164.8598,77.9446
164.7641,77.9636
163.8141,77.9636
163.7184,77.9446
163.6373,77.8904
163.5831,77.8093
163.5641,77.7136
163.5641,77.2136
163.5831,77.1179
163.6373,77.0368
163.7184,76.9826
163.8141,76.9636
Z" /> 
</g>
<g >
</g>
<g style="fill:#000000; fill-opacity:1.0000; 
stroke:#000000; stroke-width:0.0000; stroke-opacity:1; 
stroke-linecap:round; stroke-linejoin:round;">
<path style="fill:#000000; fill-opacity:1.0000; 
stroke:#000000; stroke-width:0.0000; stroke-opacity:1; 
stroke-linecap:round; stroke-linejoin:round;fill-rule:evenodd;"
d="M 150.1830,58.4530
150.2020,58.3573
150.2562,58.2762
150.3373,58.2220
150.4330,58.2030
150.9330,58.2030
151.0287,58.2220
151.1098,58.2762
151.1640,58.3573
151.1830,58.4530
151.1830,59.4030
151.1640,59.4987
151.1098,59.5798
151.0287,59.6340
150.9330,59.6530
150.4330,59.6530
150.3373,59.6340
150.2562,59.5798
150.2020,59.4987
150.1830,59.4030
Z" /> 
<path style="fill:#000000; fill-opacity:1.0000; 
stroke:#000000; stroke-width:0.0000; stroke-opacity:1; 
stroke-linecap:round; stroke-linejoin:round;fill-rule:evenodd;"
d="M 148.2830,58.4530
148.3020,58.3573
148.3562,58.2762
148.4373,58.2220
148.5330,58.2030
149.0330,58.2030
149.1287,58.2220
149.2098,58.2762
149.2640,58.3573
149.2830,58.4530
149.2830,59.4030
149.2640,59.4987
149.2098,59.5798
149.1287,59.6340
149.0330,59.6530
148.5330,59.6530
148.4373,59.6340
148.3562,59.5798
148.3020,59.4987
148.2830,59.4030
Z" /> 
</g>
<g >
</g>
<g style="fill:#000000; fill-opacity:1.0000; 
stroke:#000000; stroke-width:0.0000; stroke-opacity:1; 
stroke-linecap:round; stroke-linejoin:round;">
<path style="fill:#000000; fill-opacity:1.0000; 
stroke:#000000; stroke-width:0.0000; stroke-opacity:1; 
stroke-linecap:round; stroke-linejoin:round;fill-rule:evenodd;"
d="M 153.2650,87.6460
153.2840,87.5503
153.3382,87.4692
153.4193,87.4150
153.5150,87.3960
157.4150,87.3960
157.5107,87.4150
157.5918,87.4692
157.6460,87.5503
157.6650,87.6460
157.6650,89.6460
157.6460,89.7417
157.5918,89.8228
157.5107,89.8770
157.4150,89.8960
153.5150,89.8960
153.4193,89.8770
153.3382,89.8228
153.2840,89.7417
153.2650,89.6460
Z" /> 
<path style="fill:#000000; fill-opacity:1.0000; 
stroke:#000000; stroke-width:0.0000; stroke-opacity:1; 
stroke-linecap:round; stroke-linejoin:round;fill-rule:evenodd;"
d="M 145.8650,87.6460
145.8840,87.5503
145.9382,87.4692
146.0193,87.4150
146.1150,87.3960
150.0150,87.3960
150.1107,87.4150
150.1918,87.4692
150.2460,87.5503
150.2650,87.6460
150.2650,89.6460
150.2460,89.7417
150.1918,89.8228
150.1107,89.8770
150.0150,89.8960
146.1150,89.8960
146.0193,89.8770
145.9382,89.8228
145.8840,89.7417
145.8650,89.6460
Z" /> 
</g>
<g >
</g>
<g style="fill:#000000; fill-opacity:1.0000; 
stroke:#000000; stroke-width:0.0000; stroke-opacity:1; 
stroke-linecap:round; stroke-linejoin:round;">
<path style="fill:#000000; fill-opacity:1.0000; 
stroke:#000000; stroke-width:0.0000; stroke-opacity:1; 
stroke-linecap:round; stroke-linejoin:round;fill-rule:evenodd;"
d="M 140.7350,73.2100
140.7540,73.1143
140.8082,73.0332
140.8893,72.9790
140.9850,72.9600
141.5100,72.9600
141.6057,72.9790
141.6868,73.0332
141.7410,73.1143
141.7600,73.2100
141.7600,74.1100
141.7410,74.2057
141.6868,74.2868
141.6057,74.3410
141.5100,74.3600
140.9850,74.3600
140.8893,74.3410
140.8082,74.2868
140.7540,74.2057
140.7350,74.1100
Z" /> 
<path style="fill:#000000; fill-opacity:1.0000; 
stroke:#000000; stroke-width:0.0000; stroke-opacity:1; 
stroke-linecap:round; stroke-linejoin:round;fill-rule:evenodd;"
d="M 138.9100,73.2100
138.9290,73.1143
138.9832,73.0332
139.0643,72.9790
139.1600,72.9600
139.6850,72.9600
139.7807,72.9790
139.8618,73.0332
139.9160,73.1143
139.9350,73.2100
139.9350,74.1100
139.9160,74.2057
139.8618,74.2868
139.7807,74.3410
139.6850,74.3600
139.1600,74.3600
139.0643,74.3410
138.9832,74.2868
138.9290,74.2057
138.9100,74.1100
Z" /> 
</g>
<g >
</g>
<g style="fill:#000000; fill-opacity:1.0000; 
stroke:#000000; stroke-width:0.0000; stroke-opacity:1; 
stroke-linecap:round; stroke-linejoin:round;">
<path style="fill:#000000; fill-opacity:1.0000; 
stroke:#000000; stroke-width:0.0000; stroke-opacity:1; 
stroke-linecap:round; stroke-linejoin:round;fill-rule:evenodd;"
d="M 158.4145,120.7725
158.5102,120.7915
158.5913,120.8457
158.6455,120.9268
158.6645,121.0225
158.6645,121.5475
158.6455,121.6432
158.5913,121.7243
158.5102,121.7785
158.4145,121.7975
157.5145,121.7975
157.4188,121.7785
157.3377,121.7243
157.2835,121.6432
157.2645,121.5475
157.2645,121.0225
157.2835,120.9268
157.3377,120.8457
157.4188,120.7915
157.5145,120.7725
Z" /> 
<path style="fill:#000000; fill-opacity:1.0000; 
stroke:#000000; stroke-width:0.0000; stroke-opacity:1; 
stroke-linecap:round; stroke-linejoin:round;fill-rule:evenodd;"
d="M 158.4145,118.9475
158.5102,118.9665
158.5913,119.0207
158.6455,119.1018
158.6645,119.1975
158.6645,119.7225
158.6455,119.8182
158.5913,119.8993
158.5102,119.9535
158.4145,119.9725
157.5145,119.9725
157.4188,119.9535
157.3377,119.8993
157.2835,119.8182
157.2645,119.7225
157.2645,119.1975
157.2835,119.1018
157.3377,119.0207
157.4188,118.9665
157.5145,118.9475
Z" /> 
</g>
<g >
</g>
<g style="fill:#000000; fill-opacity:1.0000; 
stroke:#000000; stroke-width:0.0000; stroke-opacity:1; 
stroke-linecap:round; stroke-linejoin:round;">
<path style="fill:#000000; fill-opacity:1.0000; 
stroke:#000000; stroke-width:0.0000; stroke-opacity:1; 
stroke-linecap:round; stroke-linejoin:round;fill-rule:evenodd;"
d="M 163.8180,64.6660
163.8370,64.5703
163.8912,64.4892
163.9723,64.4350
164.0680,64.4160
164.5680,64.4160
164.6637,64.4350
164.7448,64.4892
164.7990,64.5703
164.8180,64.6660
164.8180,65.1660
164.7990,65.2617
164.7448,65.3428
164.6637,65.3970
164.5680,65.4160
164.0680,65.4160
163.9723,65.3970
163.8912,65.3428
163.8370,65.2617
163.8180,65.1660
Z" /> 
<path style="fill:#000000; fill-opacity:1.0000; 
stroke:#000000; stroke-width:0.0000; stroke-opacity:1; 
stroke-linecap:round; stroke-linejoin:round;fill-rule:evenodd;"
d="M 161.3180,64.6660
161.3370,64.5703
161.3912,64.4892
161.4723,64.4350
161.5680,64.4160
162.0680,64.4160
162.1637,64.4350
162.2448,64.4892
162.2990,64.5703
162.3180,64.6660
162.3180,65.1660
162.2990,65.2617
162.2448,65.3428
162.1637,65.3970
162.0680,65.4160
161.5680,65.4160
161.4723,65.3970
161.3912,65.3428
161.3370,65.2617
161.3180,65.1660
Z" /> 
</g>
<g >
</g>
<g >
</g>
<g style="fill:#000000; fill-opacity:1.0000; 
stroke:#000000; stroke-width:0.0000; stroke-opacity:1; 
stroke-linecap:round; stroke-linejoin:round;">
<path style="fill:#000000; fill-opacity:1.0000; 
stroke:#000000; stroke-width:0.0000; stroke-opacity:1; 
stroke-linecap:round; stroke-linejoin:round;fill-rule:evenodd;"
d="M 156.9811,79.5236
156.9621,79.6193
156.9079,79.7004
156.8268,79.7546
156.7311,79.7736
156.2311,79.7736
156.1354,79.7546
156.0543,79.7004
156.0001,79.6193
155.9811,79.5236
155.9811,78.5736
156.0001,78.4779
156.0543,78.3968
156.1354,78.3426
156.2311,78.3236
156.7311,78.3236
156.8268,78.3426
156.9079,78.3968
156.9621,78.4779
156.9811,78.5736
Z" /> 
<path style="fill:#000000; fill-opacity:1.0000; 
stroke:#000000; stroke-width:0.0000; stroke-opacity:1; 
stroke-linecap:round; stroke-linejoin:round;fill-rule:evenodd;"
d="M 158.8811,79.5236
158.8621,79.6193
158.8079,79.7004
158.7268,79.7546
158.6311,79.7736
158.1311,79.7736
158.0354,79.7546
157.9543,79.7004
157.9001,79.6193
157.8811,79.5236
157.8811,78.5736
157.9001,78.4779
157.9543,78.3968
158.0354,78.3426
158.1311,78.3236
158.6311,78.3236
158.7268,78.3426
158.8079,78.3968
158.8621,78.4779
158.8811,78.5736
Z" /> 
</g>
<g >
</g>
<g style="fill:#000000; fill-opacity:1.0000; 
stroke:#000000; stroke-width:0.0000; stroke-opacity:1; 
stroke-linecap:round; stroke-linejoin:round;">
<path style="fill:#000000; fill-opacity:1.0000; 
stroke:#000000; stroke-width:0.0000; stroke-opacity:1; 
stroke-linecap:round; stroke-linejoin:round;fill-rule:evenodd;"
d="M 157.8495,82.1840
157.8305,82.2797
157.7763,82.3608
157.6952,82.4150
157.5995,82.4340
157.0995,82.4340
157.0038,82.4150
156.9227,82.3608
156.8685,82.2797
156.8495,82.1840
156.8495,81.6840
156.8685,81.5883
156.9227,81.5072
157.0038,81.4530
157.0995,81.4340
157.5995,81.4340
157.6952,81.4530
157.7763,81.5072
157.8305,81.5883
157.8495,81.6840
Z" /> 
<path style="fill:#000000; fill-opacity:1.0000; 
stroke:#000000; stroke-width:0.0000; stroke-opacity:1; 
stroke-linecap:round; stroke-linejoin:round;fill-rule:evenodd;"
d="M 160.3495,82.1840
160.3305,82.2797
160.2763,82.3608
160.1952,82.4150
160.0995,82.4340
159.5995,82.4340
159.5038,82.4150
159.4227,82.3608
159.3685,82.2797
159.3495,82.1840
159.3495,81.6840
159.3685,81.5883
159.4227,81.5072
159.5038,81.4530
159.5995,81.4340
160.0995,81.4340
160.1952,81.4530
160.2763,81.5072
160.3305,81.5883
160.3495,81.6840
Z" /> 
</g>
<g >
</g>
<g style="fill:#000000; fill-opacity:1.0000; 
stroke:#000000; stroke-width:0.0000; stroke-opacity:1; 
stroke-linecap:round; stroke-linejoin:round;">
<path style="fill:#000000; fill-opacity:1.0000; 
stroke:#000000; stroke-width:0.0000; stroke-opacity:1; 
stroke-linecap:round; stroke-linejoin:round;fill-rule:evenodd;"
d="M 155.9840,56.8380
155.9650,56.9337
155.9108,57.0148
155.8297,57.0690
155.7340,57.0880
155.2090,57.0880
155.1133,57.0690
155.0322,57.0148
154.9780,56.9337
154.9590,56.8380
154.9590,55.9380
154.9780,55.8423
155.0322,55.7612
155.1133,55.7070
155.2090,55.6880
155.7340,55.6880
155.8297,55.7070
155.9108,55.7612
155.9650,55.8423
155.9840,55.9380
Z" /> 
<path style="fill:#000000; fill-opacity:1.0000; 
stroke:#000000; stroke-width:0.0000; stroke-opacity:1; 
stroke-linecap:round; stroke-linejoin:round;fill-rule:evenodd;"
d="M 154.1590,56.8380
154.1400,56.9337
154.0858,57.0148
154.0047,57.0690
153.9090,57.0880
153.3840,57.0880
153.2883,57.0690
153.2072,57.0148
153.1530,56.9337
153.1340,56.8380
153.1340,55.9380
153.1530,55.8423
153.2072,55.7612
153.2883,55.7070
153.3840,55.6880
153.9090,55.6880
154.0047,55.7070
154.0858,55.7612
154.1400,55.8423
154.1590,55.9380
Z" /> 
</g>
<g >
</g>
<g style="fill:#000000; fill-opacity:1.0000; 
stroke:#000000; stroke-width:0.0000; stroke-opacity:1; 
stroke-linecap:round; stroke-linejoin:round;">
<path style="fill:#000000; fill-opacity:1.0000; 
stroke:#000000; stroke-width:0.0000; stroke-opacity:1; 
stroke-linecap:round; stroke-linejoin:round;fill-rule:evenodd;"
d="M 157.0565,77.5428
157.0375,77.6385
156.9833,77.7196
156.9022,77.7738
156.8065,77.7928
156.2815,77.7928
156.1858,77.7738
156.1047,77.7196
156.0505,77.6385
156.0315,77.5428
156.0315,76.6428
156.0505,76.5471
156.1047,76.4660
156.1858,76.4118
156.2815,76.3928
156.8065,76.3928
156.9022,76.4118
156.9833,76.4660
157.0375,76.5471
157.0565,76.6428
Z" /> 
<path style="fill:#000000; fill-opacity:1.0000; 
stroke:#000000; stroke-width:0.0000; stroke-opacity:1; 
stroke-linecap:round; stroke-linejoin:round;fill-rule:evenodd;"
d="M 158.8815,77.5428
158.8625,77.6385
158.8083,77.7196
158.7272,77.7738
158.6315,77.7928
158.1065,77.7928
158.0108,77.7738
157.9297,77.7196
157.8755,77.6385
157.8565,77.5428
157.8565,76.6428
157.8755,76.5471
157.9297,76.4660
158.0108,76.4118
158.1065,76.3928
158.6315,76.3928
158.7272,76.4118
158.8083,76.4660
158.8625,76.5471
158.8815,76.6428
Z" /> 
</g>
<g >
</g>
<g style="fill:#000000; fill-opacity:1.0000; 
stroke:#000000; stroke-width:0.0000; stroke-opacity:1; 
stroke-linecap:round; stroke-linejoin:round;">
<path style="fill:#000000; fill-opacity:1.0000; 
stroke:#000000; stroke-width:0.0000; stroke-opacity:1; 
stroke-linecap:round; stroke-linejoin:round;fill-rule:evenodd;"
d="M 136.5940,64.5350
136.6897,64.5540
136.7708,64.6082
136.8250,64.6893
136.8440,64.7850
136.8440,65.3100
136.8250,65.4057
136.7708,65.4868
136.6897,65.5410
136.5940,65.5600
135.6940,65.5600
135.5983,65.5410
135.5172,65.4868
135.4630,65.4057
135.4440,65.3100
135.4440,64.7850
135.4630,64.6893
135.5172,64.6082
135.5983,64.5540
135.6940,64.5350
Z" /> 
<path style="fill:#000000; fill-opacity:1.0000; 
stroke:#000000; stroke-width:0.0000; stroke-opacity:1; 
stroke-linecap:round; stroke-linejoin:round;fill-rule:evenodd;"
d="M 136.5940,62.7100
136.6897,62.7290
136.7708,62.7832
136.8250,62.8643
136.8440,62.9600
136.8440,63.4850
136.8250,63.5807
136.7708,63.6618
136.6897,63.7160
136.5940,63.7350
135.6940,63.7350
135.5983,63.7160
135.5172,63.6618
135.4630,63.5807
135.4440,63.4850
135.4440,62.9600
135.4630,62.8643
135.5172,62.7832
135.5983,62.7290
135.6940,62.7100
Z" /> 
</g>
<g >
</g>
<g style="fill:#000000; fill-opacity:1.0000; 
stroke:#000000; stroke-width:0.0000; stroke-opacity:1; 
stroke-linecap:round; stroke-linejoin:round;">
<path style="fill:#000000; fill-opacity:1.0000; 
stroke:#000000; stroke-width:0.0000; stroke-opacity:1; 
stroke-linecap:round; stroke-linejoin:round;fill-rule:evenodd;"
d="M 166.5457,80.6622
166.6414,80.6812
166.7225,80.7354
166.7767,80.8165
166.7957,80.9122
166.7957,81.4122
166.7767,81.5079
166.7225,81.5890
166.6414,81.6432
166.5457,81.6622
166.0457,81.6622
165.9500,81.6432
165.8689,81.5890
165.8147,81.5079
165.7957,81.4122
165.7957,80.9122
165.8147,80.8165
165.8689,80.7354
165.9500,80.6812
166.0457,80.6622
Z" /> 
<path style="fill:#000000; fill-opacity:1.0000; 
stroke:#000000; stroke-width:0.0000; stroke-opacity:1; 
stroke-linecap:round; stroke-linejoin:round;fill-rule:evenodd;"
d="M 166.5457,78.1622
166.6414,78.1812
166.7225,78.2354
166.7767,78.3165
166.7957,78.4122
166.7957,78.9122
166.7767,79.0079
166.7225,79.0890
166.6414,79.1432
166.5457,79.1622
166.0457,79.1622
165.9500,79.1432
165.8689,79.0890
165.8147,79.0079
165.7957,78.9122
165.7957,78.4122
165.8147,78.3165
165.8689,78.2354
165.9500,78.1812
166.0457,78.1622
Z" /> 
</g>
<g >
</g>
<g style="fill:#000000; fill-opacity:1.0000; 
stroke:#000000; stroke-width:0.0000; stroke-opacity:1; 
stroke-linecap:round; stroke-linejoin:round;">
<path style="fill:#000000; fill-opacity:1.0000; 
stroke:#000000; stroke-width:0.0000; stroke-opacity:1; 
stroke-linecap:round; stroke-linejoin:round;fill-rule:evenodd;"
d="M 150.3040,55.8880
150.3154,55.7817
150.3652,55.6484
150.4504,55.5344
150.5644,55.4492
150.6977,55.3994
150.8040,55.3880
151.8040,55.3880
151.9103,55.3994
152.0436,55.4492
152.1576,55.5344
152.2428,55.6484
152.2926,55.7817
152.3040,55.8880
152.3040,56.8880
152.2926,56.9943
152.2428,57.1276
152.1576,57.2416
152.0436,57.3268
151.9103,57.3766
151.8040,57.3880
150.8040,57.3880
150.6977,57.3766
150.5644,57.3268
150.4504,57.2416
150.3652,57.1276
150.3154,56.9943
150.3040,56.8880
Z" /> 
<path style="fill:#000000; fill-opacity:1.0000; 
stroke:#000000; stroke-width:0.0000; stroke-opacity:1; 
stroke-linecap:round; stroke-linejoin:round;fill-rule:evenodd;"
d="M 140.3040,55.8880
140.3154,55.7817
140.3652,55.6484
140.4504,55.5344
140.5644,55.4492
140.6977,55.3994
140.8040,55.3880
141.8040,55.3880
141.9103,55.3994
142.0436,55.4492
142.1576,55.5344
142.2428,55.6484
142.2926,55.7817
142.3040,55.8880
142.3040,56.8880
142.2926,56.9943
142.2428,57.1276
142.1576,57.2416
142.0436,57.3268
141.9103,57.3766
141.8040,57.3880
140.8040,57.3880
140.6977,57.3766
140.5644,57.3268
140.4504,57.2416
140.3652,57.1276
140.3154,56.9943
140.3040,56.8880
Z" /> 
</g>
<g >
</g>
<g style="fill:#000000; fill-opacity:1.0000; 
stroke:#000000; stroke-width:0.0000; stroke-opacity:1; 
stroke-linecap:round; stroke-linejoin:round;">
<path style="fill:#000000; fill-opacity:1.0000; 
stroke:#000000; stroke-width:0.0000; stroke-opacity:1; 
stroke-linecap:round; stroke-linejoin:round;fill-rule:evenodd;"
d="M 165.1330,61.0370
165.0373,61.0180
164.9562,60.9638
164.9020,60.8827
164.8830,60.7870
164.8830,60.2870
164.9020,60.1913
164.9562,60.1102
165.0373,60.0560
165.1330,60.0370
166.0830,60.0370
166.1787,60.0560
166.2598,60.1102
166.3140,60.1913
166.3330,60.2870
166.3330,60.7870
166.3140,60.8827
166.2598,60.9638
166.1787,61.0180
166.0830,61.0370
Z" /> 
<path style="fill:#000000; fill-opacity:1.0000; 
stroke:#000000; stroke-width:0.0000; stroke-opacity:1; 
stroke-linecap:round; stroke-linejoin:round;fill-rule:evenodd;"
d="M 165.1330,62.9370
165.0373,62.9180
164.9562,62.8638
164.9020,62.7827
164.8830,62.6870
164.8830,62.1870
164.9020,62.0913
164.9562,62.0102
165.0373,61.9560
165.1330,61.9370
166.0830,61.9370
166.1787,61.9560
166.2598,62.0102
166.3140,62.0913
166.3330,62.1870
166.3330,62.6870
166.3140,62.7827
166.2598,62.8638
166.1787,62.9180
166.0830,62.9370
Z" /> 
</g>
<g >
</g>
<g style="fill:#000000; fill-opacity:1.0000; 
stroke:#000000; stroke-width:0.0000; stroke-opacity:1; 
stroke-linecap:round; stroke-linejoin:round;">
<path style="fill:#000000; fill-opacity:1.0000; 
stroke:#000000; stroke-width:0.0000; stroke-opacity:1; 
stroke-linecap:round; stroke-linejoin:round;fill-rule:evenodd;"
d="M 136.5940,67.9640
136.6897,67.9830
136.7708,68.0372
136.8250,68.1183
136.8440,68.2140
136.8440,68.7390
136.8250,68.8347
136.7708,68.9158
136.6897,68.9700
136.5940,68.9890
135.6940,68.9890
135.5983,68.9700
135.5172,68.9158
135.4630,68.8347
135.4440,68.7390
135.4440,68.2140
135.4630,68.1183
135.5172,68.0372
135.5983,67.9830
135.6940,67.9640
Z" /> 
<path style="fill:#000000; fill-opacity:1.0000; 
stroke:#000000; stroke-width:0.0000; stroke-opacity:1; 
stroke-linecap:round; stroke-linejoin:round;fill-rule:evenodd;"
d="M 136.5940,66.1390
136.6897,66.1580
136.7708,66.2122
136.8250,66.2933
136.8440,66.3890
136.8440,66.9140
136.8250,67.0097
136.7708,67.0908
136.6897,67.1450
136.5940,67.1640
135.6940,67.1640
135.5983,67.1450
135.5172,67.0908
135.4630,67.0097
135.4440,66.9140
135.4440,66.3890
135.4630,66.2933
135.5172,66.2122
135.5983,66.1580
135.6940,66.1390
Z" /> 
</g>
<g >
</g>
<g style="fill:#000000; fill-opacity:1.0000; 
stroke:#000000; stroke-width:0.0000; stroke-opacity:1; 
stroke-linecap:round; stroke-linejoin:round;">
<path style="fill:#000000; fill-opacity:1.0000; 
stroke:#000000; stroke-width:0.0000; stroke-opacity:1; 
stroke-linecap:round; stroke-linejoin:round;fill-rule:evenodd;"
d="M 144.1640,73.2100
144.1830,73.1143
144.2372,73.0332
144.3183,72.9790
144.4140,72.9600
144.9390,72.9600
145.0347,72.9790
145.1158,73.0332
145.1700,73.1143
145.1890,73.2100
145.1890,74.1100
145.1700,74.2057
145.1158,74.2868
145.0347,74.3410
144.9390,74.3600
144.4140,74.3600
144.3183,74.3410
144.2372,74.2868
144.1830,74.2057
144.1640,74.1100
Z" /> 
<path style="fill:#000000; fill-opacity:1.0000; 
stroke:#000000; stroke-width:0.0000; stroke-opacity:1; 
stroke-linecap:round; stroke-linejoin:round;fill-rule:evenodd;"
d="M 142.3390,73.2100
142.3580,73.1143
142.4122,73.0332
142.4933,72.9790
142.5890,72.9600
143.1140,72.9600
143.2097,72.9790
143.2908,73.0332
143.3450,73.1143
143.3640,73.2100
143.3640,74.1100
143.3450,74.2057
143.2908,74.2868
143.2097,74.3410
143.1140,74.3600
142.5890,74.3600
142.4933,74.3410
142.4122,74.2868
142.3580,74.2057
142.3390,74.1100
Z" /> 
</g>
<g >
</g>
<g style="fill:#000000; fill-opacity:1.0000; 
stroke:#000000; stroke-width:0.0000; stroke-opacity:1; 
stroke-linecap:round; stroke-linejoin:round;">
</g>
<g style="fill:#000000; fill-opacity:1.0000; 
stroke:#000000; stroke-width:2.7000; stroke-opacity:1; 
stroke-linecap:round; stroke-linejoin:round;">
</g>
<g style="fill:#000000; fill-opacity:0.0; 
stroke:#000000; stroke-width:2.7000; stroke-opacity:1; 
stroke-linecap:round; stroke-linejoin:round;">
<path d="M166.7436 51.3969
L167.5436 51.3969
" />
</g>
<g >
</g>
<g style="fill:#000000; fill-opacity:0.0; 
stroke:#000000; stroke-width:2.7000; stroke-opacity:1; 
stroke-linecap:round; stroke-linejoin:round;">
</g>
<g style="fill:#000000; fill-opacity:0.0; 
stroke:#000000; stroke-width:0.0000; stroke-opacity:1; 
stroke-linecap:round; stroke-linejoin:round;">
</g>
<g style="fill:#000000; fill-opacity:1.0000; 
stroke:#000000; stroke-width:0.0000; stroke-opacity:1; 
stroke-linecap:round; stroke-linejoin:round;">
<path style="fill:#000000; fill-opacity:1.0000; 
stroke:#000000; stroke-width:0.0000; stroke-opacity:1; 
stroke-linecap:round; stroke-linejoin:round;fill-rule:evenodd;"
d="M 167.2550,67.8250
167.3507,67.8440
167.4318,67.8982
167.4860,67.9793
167.5050,68.0750
167.5050,68.5750
167.4860,68.6707
167.4318,68.7518
167.3507,68.8060
167.2550,68.8250
166.7550,68.8250
166.6593,68.8060
166.5782,68.7518
166.5240,68.6707
166.5050,68.5750
166.5050,68.0750
166.5240,67.9793
166.5782,67.8982
166.6593,67.8440
166.7550,67.8250
Z" /> 
<path style="fill:#000000; fill-opacity:1.0000; 
stroke:#000000; stroke-width:0.0000; stroke-opacity:1; 
stroke-linecap:round; stroke-linejoin:round;fill-rule:evenodd;"
d="M 167.2550,65.3250
167.3507,65.3440
167.4318,65.3982
167.4860,65.4793
167.5050,65.5750
167.5050,66.0750
167.4860,66.1707
167.4318,66.2518
167.3507,66.3060
167.2550,66.3250
166.7550,66.3250
166.6593,66.3060
166.5782,66.2518
166.5240,66.1707
166.5050,66.0750
166.5050,65.5750
166.5240,65.4793
166.5782,65.3982
166.6593,65.3440
166.7550,65.3250
Z" /> 
</g>
<g >
</g>
<g style="fill:#000000; fill-opacity:1.0000; 
stroke:#000000; stroke-width:0.0000; stroke-opacity:1; 
stroke-linecap:round; stroke-linejoin:round;">
<path style="fill:#000000; fill-opacity:1.0000; 
stroke:#000000; stroke-width:0.0000; stroke-opacity:1; 
stroke-linecap:round; stroke-linejoin:round;fill-rule:evenodd;"
d="M 144.0760,70.5930
143.9803,70.5740
143.8992,70.5198
143.8450,70.4387
143.8260,70.3430
143.8260,69.8180
143.8450,69.7223
143.8992,69.6412
143.9803,69.5870
144.0760,69.5680
144.9760,69.5680
145.0717,69.5870
145.1528,69.6412
145.2070,69.7223
145.2260,69.8180
145.2260,70.3430
145.2070,70.4387
145.1528,70.5198
145.0717,70.5740
144.9760,70.5930
Z" /> 
<path style="fill:#000000; fill-opacity:1.0000; 
stroke:#000000; stroke-width:0.0000; stroke-opacity:1; 
stroke-linecap:round; stroke-linejoin:round;fill-rule:evenodd;"
d="M 144.0760,72.4180
143.9803,72.3990
143.8992,72.3448
143.8450,72.2637
143.8260,72.1680
143.8260,71.6430
143.8450,71.5473
143.8992,71.4662
143.9803,71.4120
144.0760,71.3930
144.9760,71.3930
145.0717,71.4120
145.1528,71.4662
145.2070,71.5473
145.2260,71.6430
145.2260,72.1680
145.2070,72.2637
145.1528,72.3448
145.0717,72.3990
144.9760,72.4180
Z" /> 
</g>
<g >
</g>
<g style="fill:#000000; fill-opacity:1.0000; 
stroke:#000000; stroke-width:0.0000; stroke-opacity:1; 
stroke-linecap:round; stroke-linejoin:round;">
<path style="fill:#000000; fill-opacity:1.0000; 
stroke:#000000; stroke-width:0.0000; stroke-opacity:1; 
stroke-linecap:round; stroke-linejoin:round;fill-rule:evenodd;"
d="M 163.6090,89.3390
163.5133,89.3200
163.4322,89.2658
163.3780,89.1847
163.3590,89.0890
163.3590,88.5890
163.3780,88.4933
163.4322,88.4122
163.5133,88.3580
163.6090,88.3390
164.5590,88.3390
164.6547,88.3580
164.7358,88.4122
164.7900,88.4933
164.8090,88.5890
164.8090,89.0890
164.7900,89.1847
164.7358,89.2658
164.6547,89.3200
164.5590,89.3390
Z" /> 
<path style="fill:#000000; fill-opacity:1.0000; 
stroke:#000000; stroke-width:0.0000; stroke-opacity:1; 
stroke-linecap:round; stroke-linejoin:round;fill-rule:evenodd;"
d="M 163.6090,91.2390
163.5133,91.2200
163.4322,91.1658
163.3780,91.0847
163.3590,90.9890
163.3590,90.4890
163.3780,90.3933
163.4322,90.3122
163.5133,90.2580
163.6090,90.2390
164.5590,90.2390
164.6547,90.2580
164.7358,90.3122
164.7900,90.3933
164.8090,90.4890
164.8090,90.9890
164.7900,91.0847
164.7358,91.1658
164.6547,91.2200
164.5590,91.2390
Z" /> 
</g>
<g >
</g>
<g style="fill:#000000; fill-opacity:1.0000; 
stroke:#000000; stroke-width:0.0000; stroke-opacity:1; 
stroke-linecap:round; stroke-linejoin:round;">
<path style="fill:#000000; fill-opacity:1.0000; 
stroke:#000000; stroke-width:0.0000; stroke-opacity:1; 
stroke-linecap:round; stroke-linejoin:round;fill-rule:evenodd;"
d="M 137.2825,73.2100
137.3015,73.1143
137.3557,73.0332
137.4368,72.9790
137.5325,72.9600
138.0575,72.9600
138.1532,72.9790
138.2343,73.0332
138.2885,73.1143
138.3075,73.2100
138.3075,74.1100
138.2885,74.2057
138.2343,74.2868
138.1532,74.3410
138.0575,74.3600
137.5325,74.3600
137.4368,74.3410
137.3557,74.2868
137.3015,74.2057
137.2825,74.1100
Z" /> 
<path style="fill:#000000; fill-opacity:1.0000; 
stroke:#000000; stroke-width:0.0000; stroke-opacity:1; 
stroke-linecap:round; stroke-linejoin:round;fill-rule:evenodd;"
d="M 135.4575,73.2100
135.4765,73.1143
135.5307,73.0332
135.6118,72.9790
135.7075,72.9600
136.2325,72.9600
136.3282,72.9790
136.4093,73.0332
136.4635,73.1143
136.4825,73.2100
136.4825,74.1100
136.4635,74.2057
136.4093,74.2868
136.3282,74.3410
136.2325,74.3600
135.7075,74.3600
135.6118,74.3410
135.5307,74.2868
135.4765,74.2057
135.4575,74.1100
Z" /> 
</g>
<g >
</g>
<g style="fill:#000000; fill-opacity:1.0000; 
stroke:#000000; stroke-width:0.0000; stroke-opacity:1; 
stroke-linecap:round; stroke-linejoin:round;">
<path style="fill:#000000; fill-opacity:1.0000; 
stroke:#000000; stroke-width:0.0000; stroke-opacity:1; 
stroke-linecap:round; stroke-linejoin:round;fill-rule:evenodd;"
d="M 167.0247,71.3960
167.1204,71.4150
167.2015,71.4692
167.2557,71.5503
167.2747,71.6460
167.2747,72.1460
167.2557,72.2417
167.2015,72.3228
167.1204,72.3770
167.0247,72.3960
166.0747,72.3960
165.9790,72.3770
165.8979,72.3228
165.8437,72.2417
165.8247,72.1460
165.8247,71.6460
165.8437,71.5503
165.8979,71.4692
165.9790,71.4150
166.0747,71.3960
Z" /> 
<path style="fill:#000000; fill-opacity:1.0000; 
stroke:#000000; stroke-width:0.0000; stroke-opacity:1; 
stroke-linecap:round; stroke-linejoin:round;fill-rule:evenodd;"
d="M 167.0247,69.4960
167.1204,69.5150
167.2015,69.5692
167.2557,69.6503
167.2747,69.7460
167.2747,70.2460
167.2557,70.3417
167.2015,70.4228
167.1204,70.4770
167.0247,70.4960
166.0747,70.4960
165.9790,70.4770
165.8979,70.4228
165.8437,70.3417
165.8247,70.2460
165.8247,69.7460
165.8437,69.6503
165.8979,69.5692
165.9790,69.5150
166.0747,69.4960
Z" /> 
</g>
<g >
</g>
<g style="fill:#000000; fill-opacity:1.0000; 
stroke:#000000; stroke-width:0.0000; stroke-opacity:1; 
stroke-linecap:round; stroke-linejoin:round;">
<path style="fill:#000000; fill-opacity:1.0000; 
stroke:#000000; stroke-width:0.0000; stroke-opacity:1; 
stroke-linecap:round; stroke-linejoin:round;fill-rule:evenodd;"
d="M 166.9267,75.7346
167.0224,75.7536
167.1035,75.8078
167.1577,75.8889
167.1767,75.9846
167.1767,76.4846
167.1577,76.5803
167.1035,76.6614
167.0224,76.7156
166.9267,76.7346
166.4267,76.7346
166.3310,76.7156
166.2499,76.6614
166.1957,76.5803
166.1767,76.4846
166.1767,75.9846
166.1957,75.8889
166.2499,75.8078
166.3310,75.7536
166.4267,75.7346
Z" /> 
<path style="fill:#000000; fill-opacity:1.0000; 
stroke:#000000; stroke-width:0.0000; stroke-opacity:1; 
stroke-linecap:round; stroke-linejoin:round;fill-rule:evenodd;"
d="M 166.9267,73.2346
167.0224,73.2536
167.1035,73.3078
167.1577,73.3889
167.1767,73.4846
167.1767,73.9846
167.1577,74.0803
167.1035,74.1614
167.0224,74.2156
166.9267,74.2346
166.4267,74.2346
166.3310,74.2156
166.2499,74.1614
166.1957,74.0803
166.1767,73.9846
166.1767,73.4846
166.1957,73.3889
166.2499,73.3078
166.3310,73.2536
166.4267,73.2346
Z" /> 
</g>
<g >
</g>
<g style="fill:#000000; fill-opacity:1.0000; 
stroke:#000000; stroke-width:0.0000; stroke-opacity:1; 
stroke-linecap:round; stroke-linejoin:round;">
<path style="fill:#000000; fill-opacity:1.0000; 
stroke:#000000; stroke-width:0.0000; stroke-opacity:1; 
stroke-linecap:round; stroke-linejoin:round;fill-rule:evenodd;"
d="M 149.3380,80.4680
149.2423,80.4490
149.1612,80.3948
149.1070,80.3137
149.0880,80.2180
149.0880,79.7180
149.1070,79.6223
149.1612,79.5412
149.2423,79.4870
149.3380,79.4680
150.2880,79.4680
150.3837,79.4870
150.4648,79.5412
150.5190,79.6223
150.5380,79.7180
150.5380,80.2180
150.5190,80.3137
150.4648,80.3948
150.3837,80.4490
150.2880,80.4680
Z" /> 
<path style="fill:#000000; fill-opacity:1.0000; 
stroke:#000000; stroke-width:0.0000; stroke-opacity:1; 
stroke-linecap:round; stroke-linejoin:round;fill-rule:evenodd;"
d="M 149.3380,82.3680
149.2423,82.3490
149.1612,82.2948
149.1070,82.2137
149.0880,82.1180
149.0880,81.6180
149.1070,81.5223
149.1612,81.4412
149.2423,81.3870
149.3380,81.3680
150.2880,81.3680
150.3837,81.3870
150.4648,81.4412
150.5190,81.5223
150.5380,81.6180
150.5380,82.1180
150.5190,82.2137
150.4648,82.2948
150.3837,82.3490
150.2880,82.3680
Z" /> 
</g>
<g >
</g>
<g style="fill:#000000; fill-opacity:1.0000; 
stroke:#000000; stroke-width:0.0000; stroke-opacity:1; 
stroke-linecap:round; stroke-linejoin:round;">
<path style="fill:#000000; fill-opacity:1.0000; 
stroke:#000000; stroke-width:0.0000; stroke-opacity:1; 
stroke-linecap:round; stroke-linejoin:round;fill-rule:evenodd;"
d="M 146.4470,113.1810
146.3513,113.1620
146.2702,113.1078
146.2160,113.0267
146.1970,112.9310
146.1970,109.0310
146.2160,108.9353
146.2702,108.8542
146.3513,108.8000
146.4470,108.7810
148.4470,108.7810
148.5427,108.8000
148.6238,108.8542
148.6780,108.9353
148.6970,109.0310
148.6970,112.9310
148.6780,113.0267
148.6238,113.1078
148.5427,113.1620
148.4470,113.1810
Z" /> 
<path style="fill:#000000; fill-opacity:1.0000; 
stroke:#000000; stroke-width:0.0000; stroke-opacity:1; 
stroke-linecap:round; stroke-linejoin:round;fill-rule:evenodd;"
d="M 146.4470,120.5810
146.3513,120.5620
146.2702,120.5078
146.2160,120.4267
146.1970,120.3310
146.1970,116.4310
146.2160,116.3353
146.2702,116.2542
146.3513,116.2000
146.4470,116.1810
148.4470,116.1810
148.5427,116.2000
148.6238,116.2542
148.6780,116.3353
148.6970,116.4310
148.6970,120.3310
148.6780,120.4267
148.6238,120.5078
148.5427,120.5620
148.4470,120.5810
Z" /> 
</g>
<g >
</g>
<g style="fill:#000000; fill-opacity:1.0000; 
stroke:#000000; stroke-width:0.0000; stroke-opacity:1; 
stroke-linecap:round; stroke-linejoin:round;">
<path style="fill:#000000; fill-opacity:1.0000; 
stroke:#000000; stroke-width:0.0000; stroke-opacity:1; 
stroke-linecap:round; stroke-linejoin:round;fill-rule:evenodd;"
d="M 148.4470,101.7030
148.5427,101.7220
148.6238,101.7762
148.6780,101.8573
148.6970,101.9530
148.6970,105.8530
148.6780,105.9487
148.6238,106.0298
148.5427,106.0840
148.4470,106.1030
146.4470,106.1030
146.3513,106.0840
146.2702,106.0298
146.2160,105.9487
146.1970,105.8530
146.1970,101.9530
146.2160,101.8573
146.2702,101.7762
146.3513,101.7220
146.4470,101.7030
Z" /> 
<path style="fill:#000000; fill-opacity:1.0000; 
stroke:#000000; stroke-width:0.0000; stroke-opacity:1; 
stroke-linecap:round; stroke-linejoin:round;fill-rule:evenodd;"
d="M 148.4470,94.3030
148.5427,94.3220
148.6238,94.3762
148.6780,94.4573
148.6970,94.5530
148.6970,98.4530
148.6780,98.5487
148.6238,98.6298
148.5427,98.6840
148.4470,98.7030
146.4470,98.7030
146.3513,98.6840
146.2702,98.6298
146.2160,98.5487
146.1970,98.4530
146.1970,94.5530
146.2160,94.4573
146.2702,94.3762
146.3513,94.3220
146.4470,94.3030
Z" /> 
</g>
<g >
</g>
<g >
</g>
<g style="fill:#000000; fill-opacity:1.0000; 
stroke:#000000; stroke-width:0.0000; stroke-opacity:1; 
stroke-linecap:round; stroke-linejoin:round;">
<path style="fill:#000000; fill-opacity:1.0000; 
stroke:#000000; stroke-width:0.0000; stroke-opacity:1; 
stroke-linecap:round; stroke-linejoin:round;fill-rule:evenodd;"
d="M 144.0760,67.1640
143.9803,67.1450
143.8992,67.0908
143.8450,67.0097
143.8260,66.9140
143.8260,66.3890
143.8450,66.2933
143.8992,66.2122
143.9803,66.1580
144.0760,66.1390
144.9760,66.1390
145.0717,66.1580
145.1528,66.2122
145.2070,66.2933
145.2260,66.3890
145.2260,66.9140
145.2070,67.0097
145.1528,67.0908
145.0717,67.1450
144.9760,67.1640
Z" /> 
<path style="fill:#000000; fill-opacity:1.0000; 
stroke:#000000; stroke-width:0.0000; stroke-opacity:1; 
stroke-linecap:round; stroke-linejoin:round;fill-rule:evenodd;"
d="M 144.0760,68.9890
143.9803,68.9700
143.8992,68.9158
143.8450,68.8347
143.8260,68.7390
143.8260,68.2140
143.8450,68.1183
143.8992,68.0372
143.9803,67.9830
144.0760,67.9640
144.9760,67.9640
145.0717,67.9830
145.1528,68.0372
145.2070,68.1183
145.2260,68.2140
145.2260,68.7390
145.2070,68.8347
145.1528,68.9158
145.0717,68.9700
144.9760,68.9890
Z" /> 
</g>
<g >
</g>
<g style="fill:#000000; fill-opacity:1.0000; 
stroke:#000000; stroke-width:0.0000; stroke-opacity:1; 
stroke-linecap:round; stroke-linejoin:round;">
<path style="fill:#000000; fill-opacity:1.0000; 
stroke:#000000; stroke-width:0.0000; stroke-opacity:1; 
stroke-linecap:round; stroke-linejoin:round;fill-rule:evenodd;"
d="M 151.3835,66.0350
151.4409,66.0464
151.4896,66.0789
151.5221,66.1276
151.5335,66.1850
151.5335,67.8350
151.5221,67.8924
151.4896,67.9411
151.4409,67.9736
151.3835,67.9850
151.0835,67.9850
151.0261,67.9736
150.9774,67.9411
150.9449,67.8924
150.9335,67.8350
150.9335,66.1850
150.9449,66.1276
150.9774,66.0789
151.0261,66.0464
151.0835,66.0350
Z" /> 
<path style="fill:#000000; fill-opacity:1.0000; 
stroke:#000000; stroke-width:0.0000; stroke-opacity:1; 
stroke-linecap:round; stroke-linejoin:round;fill-rule:evenodd;"
d="M 150.1135,66.0350
150.1709,66.0464
150.2196,66.0789
150.2521,66.1276
150.2635,66.1850
150.2635,67.8350
150.2521,67.8924
150.2196,67.9411
150.1709,67.9736
150.1135,67.9850
149.8135,67.9850
149.7561,67.9736
149.7074,67.9411
149.6749,67.8924
149.6635,67.8350
149.6635,66.1850
149.6749,66.1276
149.7074,66.0789
149.7561,66.0464
149.8135,66.0350
Z" /> 
<path style="fill:#000000; fill-opacity:1.0000; 
stroke:#000000; stroke-width:0.0000; stroke-opacity:1; 
stroke-linecap:round; stroke-linejoin:round;fill-rule:evenodd;"
d="M 148.8435,66.0350
148.9009,66.0464
148.9496,66.0789
148.9821,66.1276
148.9935,66.1850
148.9935,67.8350
148.9821,67.8924
148.9496,67.9411
148.9009,67.9736
148.8435,67.9850
148.5435,67.9850
148.4861,67.9736
148.4374,67.9411
148.4049,67.8924
148.3935,67.8350
148.3935,66.1850
148.4049,66.1276
148.4374,66.0789
148.4861,66.0464
148.5435,66.0350
Z" /> 
<path style="fill:#000000; fill-opacity:1.0000; 
stroke:#000000; stroke-width:0.0000; stroke-opacity:1; 
stroke-linecap:round; stroke-linejoin:round;fill-rule:evenodd;"
d="M 147.5735,66.0350
147.6309,66.0464
147.6796,66.0789
147.7121,66.1276
147.7235,66.1850
147.7235,67.8350
147.7121,67.8924
147.6796,67.9411
147.6309,67.9736
147.5735,67.9850
147.2735,67.9850
147.2161,67.9736
147.1674,67.9411
147.1349,67.8924
147.1235,67.8350
147.1235,66.1850
147.1349,66.1276
147.1674,66.0789
147.2161,66.0464
147.2735,66.0350
Z" /> 
<path style="fill:#000000; fill-opacity:1.0000; 
stroke:#000000; stroke-width:0.0000; stroke-opacity:1; 
stroke-linecap:round; stroke-linejoin:round;fill-rule:evenodd;"
d="M 147.5735,61.0850
147.6309,61.0964
147.6796,61.1289
147.7121,61.1776
147.7235,61.2350
147.7235,62.8850
147.7121,62.9424
147.6796,62.9911
147.6309,63.0236
147.5735,63.0350
147.2735,63.0350
147.2161,63.0236
147.1674,62.9911
147.1349,62.9424
147.1235,62.8850
147.1235,61.2350
147.1349,61.1776
147.1674,61.1289
147.2161,61.0964
147.2735,61.0850
Z" /> 
<path style="fill:#000000; fill-opacity:1.0000; 
stroke:#000000; stroke-width:0.0000; stroke-opacity:1; 
stroke-linecap:round; stroke-linejoin:round;fill-rule:evenodd;"
d="M 148.8435,61.0850
148.9009,61.0964
148.9496,61.1289
148.9821,61.1776
148.9935,61.2350
148.9935,62.8850
148.9821,62.9424
148.9496,62.9911
148.9009,63.0236
148.8435,63.0350
148.5435,63.0350
148.4861,63.0236
148.4374,62.9911
148.4049,62.9424
148.3935,62.8850
148.3935,61.2350
148.4049,61.1776
148.4374,61.1289
148.4861,61.0964
148.5435,61.0850
Z" /> 
<path style="fill:#000000; fill-opacity:1.0000; 
stroke:#000000; stroke-width:0.0000; stroke-opacity:1; 
stroke-linecap:round; stroke-linejoin:round;fill-rule:evenodd;"
d="M 150.1135,61.0850
150.1709,61.0964
150.2196,61.1289
150.2521,61.1776
150.2635,61.2350
150.2635,62.8850
150.2521,62.9424
150.2196,62.9911
150.1709,63.0236
150.1135,63.0350
149.8135,63.0350
149.7561,63.0236
149.7074,62.9911
149.6749,62.9424
149.6635,62.8850
149.6635,61.2350
149.6749,61.1776
149.7074,61.1289
149.7561,61.0964
149.8135,61.0850
Z" /> 
<path style="fill:#000000; fill-opacity:1.0000; 
stroke:#000000; stroke-width:0.0000; stroke-opacity:1; 
stroke-linecap:round; stroke-linejoin:round;fill-rule:evenodd;"
d="M 151.3835,61.0850
151.4409,61.0964
151.4896,61.1289
151.5221,61.1776
151.5335,61.2350
151.5335,62.8850
151.5221,62.9424
151.4896,62.9911
151.4409,63.0236
151.3835,63.0350
151.0835,63.0350
151.0261,63.0236
150.9774,62.9911
150.9449,62.9424
150.9335,62.8850
150.9335,61.2350
150.9449,61.1776
150.9774,61.1289
151.0261,61.0964
151.0835,61.0850
Z" /> 
</g>
<g >
</g>
<g >
</g>
<g >
</g>
</g>
<g style="fill:#000000; fill-opacity:1.0000; 
stroke:#000000; stroke-width:0.0000; stroke-opacity:1; 
stroke-linecap:round; stroke-linejoin:round;">
</g>
<g style="fill:#000000; fill-opacity:1.0000; 
stroke:#000000; stroke-width:0.1000; stroke-opacity:1; 
stroke-linecap:round; stroke-linejoin:round;">
</g>
<g style="fill:#000000; fill-opacity:0.0; 
stroke:#000000; stroke-width:0.1000; stroke-opacity:1; 
stroke-linecap:round; stroke-linejoin:round;">
<path d="M169.6436 130.1407
L169.7356 130.1407
" />
<path d="M138.6206 133.0951 A2.9562 2.9562 0.0 0 0 135.6644 130.1389" />
<path d="M135.6644 130.1389
L135.5724 130.1389
" />
<path d="M173.0928 49.3732 A1.2763 1.2763 0.0 0 0 171.8165 48.0969" />
<path d="M133.4702 48.0969 A1.2763 1.2763 0.0 0 0 132.1939 49.3732" />
<path d="M132.1939 49.3732
L135.5724 130.1389
" />
<path d="M133.4702 48.0969
L171.8165 48.0969
" />
<path d="M173.0928 49.3732
L169.7356 130.1407
" />
<path d="M169.6436 130.1407 A2.9562 2.9562 0.0 0 0 166.6874 133.0969" />
<path d="M138.6206 133.0951
L166.6874 133.0969
" />
<g >
</g>
<g >
</g>
<g >
</g>
<g >
</g>
<g >
</g>
<g >
</g>
<g >
</g>
<g >
</g>
<g >
</g>
<g >
</g>
<g >
</g>
<g >
</g>
<g >
</g>
<g >
</g>
<g >
</g>
<g >
</g>
<g >
</g>
<g >
</g>
<g >
</g>
<g >
</g>
<g >
</g>
<g >
</g>
<g >
</g>
<g >
</g>
<g >
</g>
<g >
</g>
<g >
</g>
<g >
</g>
<g >
</g>
<g >
</g>
<g >
</g>
<g >
</g>
<g >
</g>
<g >
</g>
<g >
</g>
<g >
</g>
<g >
</g>
<g >
</g>
<g >
</g>
<g >
</g>
<g >
</g>
<g >
</g>
<g >
</g>
<g >
</g>
<g >
</g>
<g >
</g>
<g >
</g>
<g >
</g>
<g >
</g>
<g >
</g>
<g >
</g>
<g >
</g>
<g >
</g>
<g >
</g>
<g >
</g>
<g >
</g>
<g >
</g>
<g >
</g>
<g >
</g>
<g >
</g>
<g >
</g>
<g >
</g>
<g >
</g>
<g >
</g>
<g >
</g>
<g >
</g>
</g> 
</svg>
