  0
SECTION
  2
HEADER
  9
$ANGBASE
  50
0.0
  9
$ANGDIR
  70
1
  9
$MEASUREMENT
  70
1
  0
ENDSEC
  0
SECTION
  2
TABLES
  0
TABLE
  2
LTYPE
  70
4
  0
LTYPE
  5
40F
  2
CONTINUOUS
  70
0
  3
Solid line
  72
65
  73
0
  40
0.0
  0
LTYPE
  5
410
  2
DASHDOT
 70
0
  3
Dash Dot ____ _ ____ _
 72
65
 73
4
 40
2.0
 49
1.25
 49
-0.25
 49
0.25
 49
-0.25
  0
LTYPE
  5
411
  2
DASHED
 70
0
  3
Dashed __ __ __ __ __
 72
65
 73
2
 40
0.75
 49
0.5
 49
-0.25
  0
LTYPE
  5
43B
  2
DOTTED
 70
0
  3
Dotted .  .  .  .
 72
65
 73
2
 40
0.2
 49
0.0
 49
-0.2
  0
ENDTAB
  0
TABLE
  2
STYLE
  70
4
  0
STYLE
  2
KICAD
  70
0
  40
0
  41
1
  42
1
  50
0
  71
0
  3
isocp.shx
  0
STYLE
  2
KICADB
  70
0
  40
0
  41
1
  42
1
  50
0
  71
0
  3
isocp.shx
  0
STYLE
  2
KICADI
  70
0
  40
0
  41
1
  42
1
  50
15
  71
0
  3
isocp.shx
  0
STYLE
  2
KICADBI
  70
0
  40
0
  41
1
  42
1
  50
15
  71
0
  3
isocp.shx
  0
ENDTAB
  0
TABLE
  2
LAYER
  70
1
  0
LAYER
  2
BLACK
  70
0
  62
7
  6
CONTINUOUS
  0
ENDTAB
  0
ENDSEC
  0
SECTION
  2
ENTITIES
0
LINE
8
BLACK
6
CONTINUOUS
10
169.644
20
-130.141
11
169.736
21
-130.141
0
ARC
8
BLACK
10
135.664
20
-133.095
40
2.95622
50
-0.000290722
51
90.0003
0
LINE
8
BLACK
6
CONTINUOUS
10
135.664
20
-130.139
11
135.572
21
-130.139
0
ARC
8
BLACK
10
171.817
20
-49.3732
40
1.27633
50
-0
51
90
0
ARC
8
BLACK
10
133.47
20
-49.3732
40
1.27633
50
90
51
180
0
LINE
8
BLACK
6
CONTINUOUS
10
132.194
20
-49.3732
11
135.572
21
-130.139
0
LINE
8
BLACK
6
CONTINUOUS
10
133.47
20
-48.0969
11
171.817
21
-48.0969
0
LINE
8
BLACK
6
CONTINUOUS
10
173.093
20
-49.3732
11
169.736
21
-130.141
0
ARC
8
BLACK
10
169.644
20
-133.097
40
2.95622
50
89.9997
51
180
0
LINE
8
BLACK
6
CONTINUOUS
10
138.621
20
-133.095
11
166.687
21
-133.097
0
LINE
8
BLACK
6
CONTINUOUS
10
143.264
20
-107.831
11
144.264
21
-108.831
0
LINE
8
BLACK
6
CONTINUOUS
10
144.264
20
-107.831
11
143.264
21
-108.831
0
LINE
8
BLACK
6
CONTINUOUS
10
144.534
20
-59.063
11
145.534
21
-60.063
0
LINE
8
BLACK
6
CONTINUOUS
10
145.534
20
-59.063
11
144.534
21
-60.063
0
LINE
8
BLACK
6
CONTINUOUS
10
147.455
20
-77.732
11
148.455
21
-78.732
0
LINE
8
BLACK
6
CONTINUOUS
10
148.455
20
-77.732
11
147.455
21
-78.732
0
LINE
8
BLACK
6
CONTINUOUS
10
149.891
20
-71.255
11
150.891
21
-72.255
0
LINE
8
BLACK
6
CONTINUOUS
10
150.891
20
-71.255
11
149.891
21
-72.255
0
LINE
8
BLACK
6
CONTINUOUS
10
151.138
20
-106.434
11
152.138
21
-107.434
0
LINE
8
BLACK
6
CONTINUOUS
10
152.138
20
-106.434
11
151.138
21
-107.434
0
LINE
8
BLACK
6
CONTINUOUS
10
152.916
20
-59.317
11
153.916
21
-60.317
0
LINE
8
BLACK
6
CONTINUOUS
10
153.916
20
-59.317
11
152.916
21
-60.317
0
LINE
8
BLACK
6
CONTINUOUS
10
153.17
20
-77.224
11
154.17
21
-78.224
0
LINE
8
BLACK
6
CONTINUOUS
10
154.17
20
-77.224
11
153.17
21
-78.224
0
LINE
8
BLACK
6
CONTINUOUS
10
154.322
20
-67.3275
11
155.322
21
-68.3275
0
LINE
8
BLACK
6
CONTINUOUS
10
155.322
20
-67.3275
11
154.322
21
-68.3275
0
LINE
8
BLACK
6
CONTINUOUS
10
157.742
20
-55.888
11
158.742
21
-56.888
0
LINE
8
BLACK
6
CONTINUOUS
10
158.742
20
-55.888
11
157.742
21
-56.888
0
LINE
8
BLACK
6
CONTINUOUS
10
162.187
20
-57.539
11
163.187
21
-58.539
0
LINE
8
BLACK
6
CONTINUOUS
10
163.187
20
-57.539
11
162.187
21
-58.539
0
LINE
8
BLACK
6
CONTINUOUS
10
162.822
20
-103.513
11
163.822
21
-104.513
0
LINE
8
BLACK
6
CONTINUOUS
10
163.822
20
-103.513
11
162.822
21
-104.513
0
LINE
8
BLACK
6
CONTINUOUS
10
162.822
20
-108.593
11
163.822
21
-109.593
0
LINE
8
BLACK
6
CONTINUOUS
10
163.822
20
-108.593
11
162.822
21
-109.593
0
LINE
8
BLACK
6
CONTINUOUS
10
134.62
20
-136.082
11
134.62
21
-134.082
0
LINE
8
BLACK
6
CONTINUOUS
10
134.62
20
-134.082
11
135.096
21
-134.082
0
LINE
8
BLACK
6
CONTINUOUS
10
135.096
20
-134.082
11
135.382
21
-134.177
0
LINE
8
BLACK
6
CONTINUOUS
10
135.382
20
-134.177
11
135.572
21
-134.367
0
LINE
8
BLACK
6
CONTINUOUS
10
135.572
20
-134.367
11
135.668
21
-134.558
0
LINE
8
BLACK
6
CONTINUOUS
10
135.668
20
-134.558
11
135.763
21
-134.939
0
LINE
8
BLACK
6
CONTINUOUS
10
135.763
20
-134.939
11
135.763
21
-135.225
0
LINE
8
BLACK
6
CONTINUOUS
10
135.763
20
-135.225
11
135.668
21
-135.605
0
LINE
8
BLACK
6
CONTINUOUS
10
135.668
20
-135.605
11
135.572
21
-135.796
0
LINE
8
BLACK
6
CONTINUOUS
10
135.572
20
-135.796
11
135.382
21
-135.986
0
LINE
8
BLACK
6
CONTINUOUS
10
135.382
20
-135.986
11
135.096
21
-136.082
0
LINE
8
BLACK
6
CONTINUOUS
10
135.096
20
-136.082
11
134.62
21
-136.082
0
LINE
8
BLACK
6
CONTINUOUS
10
136.62
20
-136.082
11
136.62
21
-134.748
0
LINE
8
BLACK
6
CONTINUOUS
10
136.62
20
-135.129
11
136.715
21
-134.939
0
LINE
8
BLACK
6
CONTINUOUS
10
136.715
20
-134.939
11
136.811
21
-134.844
0
LINE
8
BLACK
6
CONTINUOUS
10
136.811
20
-134.844
11
137.001
21
-134.748
0
LINE
8
BLACK
6
CONTINUOUS
10
137.001
20
-134.748
11
137.192
21
-134.748
0
LINE
8
BLACK
6
CONTINUOUS
10
137.858
20
-136.082
11
137.858
21
-134.748
0
LINE
8
BLACK
6
CONTINUOUS
10
137.858
20
-134.082
11
137.763
21
-134.177
0
LINE
8
BLACK
6
CONTINUOUS
10
137.763
20
-134.177
11
137.858
21
-134.272
0
LINE
8
BLACK
6
CONTINUOUS
10
137.858
20
-134.272
11
137.953
21
-134.177
0
LINE
8
BLACK
6
CONTINUOUS
10
137.953
20
-134.177
11
137.858
21
-134.082
0
LINE
8
BLACK
6
CONTINUOUS
10
137.858
20
-134.082
11
137.858
21
-134.272
0
LINE
8
BLACK
6
CONTINUOUS
10
139.096
20
-136.082
11
138.906
21
-135.986
0
LINE
8
BLACK
6
CONTINUOUS
10
138.906
20
-135.986
11
138.811
21
-135.796
0
LINE
8
BLACK
6
CONTINUOUS
10
138.811
20
-135.796
11
138.811
21
-134.082
0
LINE
8
BLACK
6
CONTINUOUS
10
140.144
20
-136.082
11
139.953
21
-135.986
0
LINE
8
BLACK
6
CONTINUOUS
10
139.953
20
-135.986
11
139.858
21
-135.796
0
LINE
8
BLACK
6
CONTINUOUS
10
139.858
20
-135.796
11
139.858
21
-134.082
0
LINE
8
BLACK
6
CONTINUOUS
10
142.106
20
-136.082
11
142.106
21
-134.082
0
LINE
8
BLACK
6
CONTINUOUS
10
142.106
20
-134.082
11
142.772
21
-135.51
0
LINE
8
BLACK
6
CONTINUOUS
10
142.772
20
-135.51
11
143.439
21
-134.082
0
LINE
8
BLACK
6
CONTINUOUS
10
143.439
20
-134.082
11
143.439
21
-136.082
0
LINE
8
BLACK
6
CONTINUOUS
10
145.249
20
-136.082
11
145.249
21
-135.034
0
LINE
8
BLACK
6
CONTINUOUS
10
145.249
20
-135.034
11
145.153
21
-134.844
0
LINE
8
BLACK
6
CONTINUOUS
10
145.153
20
-134.844
11
144.963
21
-134.748
0
LINE
8
BLACK
6
CONTINUOUS
10
144.963
20
-134.748
11
144.582
21
-134.748
0
LINE
8
BLACK
6
CONTINUOUS
10
144.582
20
-134.748
11
144.392
21
-134.844
0
LINE
8
BLACK
6
CONTINUOUS
10
145.249
20
-135.986
11
145.058
21
-136.082
0
LINE
8
BLACK
6
CONTINUOUS
10
145.058
20
-136.082
11
144.582
21
-136.082
0
LINE
8
BLACK
6
CONTINUOUS
10
144.582
20
-136.082
11
144.392
21
-135.986
0
LINE
8
BLACK
6
CONTINUOUS
10
144.392
20
-135.986
11
144.296
21
-135.796
0
LINE
8
BLACK
6
CONTINUOUS
10
144.296
20
-135.796
11
144.296
21
-135.605
0
LINE
8
BLACK
6
CONTINUOUS
10
144.296
20
-135.605
11
144.392
21
-135.415
0
LINE
8
BLACK
6
CONTINUOUS
10
144.392
20
-135.415
11
144.582
21
-135.32
0
LINE
8
BLACK
6
CONTINUOUS
10
144.582
20
-135.32
11
145.058
21
-135.32
0
LINE
8
BLACK
6
CONTINUOUS
10
145.058
20
-135.32
11
145.249
21
-135.225
0
LINE
8
BLACK
6
CONTINUOUS
10
146.201
20
-134.748
11
146.201
21
-136.748
0
LINE
8
BLACK
6
CONTINUOUS
10
146.201
20
-134.844
11
146.392
21
-134.748
0
LINE
8
BLACK
6
CONTINUOUS
10
146.392
20
-134.748
11
146.772
21
-134.748
0
LINE
8
BLACK
6
CONTINUOUS
10
146.772
20
-134.748
11
146.963
21
-134.844
0
LINE
8
BLACK
6
CONTINUOUS
10
146.963
20
-134.844
11
147.058
21
-134.939
0
LINE
8
BLACK
6
CONTINUOUS
10
147.058
20
-134.939
11
147.153
21
-135.129
0
LINE
8
BLACK
6
CONTINUOUS
10
147.153
20
-135.129
11
147.153
21
-135.701
0
LINE
8
BLACK
6
CONTINUOUS
10
147.153
20
-135.701
11
147.058
21
-135.891
0
LINE
8
BLACK
6
CONTINUOUS
10
147.058
20
-135.891
11
146.963
21
-135.986
0
LINE
8
BLACK
6
CONTINUOUS
10
146.963
20
-135.986
11
146.772
21
-136.082
0
LINE
8
BLACK
6
CONTINUOUS
10
146.772
20
-136.082
11
146.392
21
-136.082
0
LINE
8
BLACK
6
CONTINUOUS
10
146.392
20
-136.082
11
146.201
21
-135.986
0
LINE
8
BLACK
6
CONTINUOUS
10
148.011
20
-135.891
11
148.106
21
-135.986
0
LINE
8
BLACK
6
CONTINUOUS
10
148.106
20
-135.986
11
148.011
21
-136.082
0
LINE
8
BLACK
6
CONTINUOUS
10
148.011
20
-136.082
11
147.915
21
-135.986
0
LINE
8
BLACK
6
CONTINUOUS
10
147.915
20
-135.986
11
148.011
21
-135.891
0
LINE
8
BLACK
6
CONTINUOUS
10
148.011
20
-135.891
11
148.011
21
-136.082
0
LINE
8
BLACK
6
CONTINUOUS
10
148.011
20
-134.844
11
148.106
21
-134.939
0
LINE
8
BLACK
6
CONTINUOUS
10
148.106
20
-134.939
11
148.011
21
-135.034
0
LINE
8
BLACK
6
CONTINUOUS
10
148.011
20
-135.034
11
147.915
21
-134.939
0
LINE
8
BLACK
6
CONTINUOUS
10
147.915
20
-134.939
11
148.011
21
-134.844
0
LINE
8
BLACK
6
CONTINUOUS
10
148.011
20
-134.844
11
148.011
21
-135.034
0
LINE
8
BLACK
6
CONTINUOUS
10
131.144
20
-139.047
11
132.144
21
-140.047
0
LINE
8
BLACK
6
CONTINUOUS
10
132.144
20
-139.047
11
131.144
21
-140.047
0
LINE
8
BLACK
6
CONTINUOUS
10
135.668
20
-140.282
11
134.525
21
-140.282
0
LINE
8
BLACK
6
CONTINUOUS
10
135.096
20
-140.282
11
135.096
21
-138.282
0
LINE
8
BLACK
6
CONTINUOUS
10
135.096
20
-138.282
11
134.906
21
-138.567
0
LINE
8
BLACK
6
CONTINUOUS
10
134.906
20
-138.567
11
134.715
21
-138.758
0
LINE
8
BLACK
6
CONTINUOUS
10
134.715
20
-138.758
11
134.525
21
-138.853
0
LINE
8
BLACK
6
CONTINUOUS
10
136.525
20
-140.091
11
136.62
21
-140.186
0
LINE
8
BLACK
6
CONTINUOUS
10
136.62
20
-140.186
11
136.525
21
-140.282
0
LINE
8
BLACK
6
CONTINUOUS
10
136.525
20
-140.282
11
136.43
21
-140.186
0
LINE
8
BLACK
6
CONTINUOUS
10
136.43
20
-140.186
11
136.525
21
-140.091
0
LINE
8
BLACK
6
CONTINUOUS
10
136.525
20
-140.091
11
136.525
21
-140.282
0
LINE
8
BLACK
6
CONTINUOUS
10
137.858
20
-138.282
11
138.049
21
-138.282
0
LINE
8
BLACK
6
CONTINUOUS
10
138.049
20
-138.282
11
138.239
21
-138.377
0
LINE
8
BLACK
6
CONTINUOUS
10
138.239
20
-138.377
11
138.334
21
-138.472
0
LINE
8
BLACK
6
CONTINUOUS
10
138.334
20
-138.472
11
138.43
21
-138.663
0
LINE
8
BLACK
6
CONTINUOUS
10
138.43
20
-138.663
11
138.525
21
-139.044
0
LINE
8
BLACK
6
CONTINUOUS
10
138.525
20
-139.044
11
138.525
21
-139.52
0
LINE
8
BLACK
6
CONTINUOUS
10
138.525
20
-139.52
11
138.43
21
-139.901
0
LINE
8
BLACK
6
CONTINUOUS
10
138.43
20
-139.901
11
138.334
21
-140.091
0
LINE
8
BLACK
6
CONTINUOUS
10
138.334
20
-140.091
11
138.239
21
-140.186
0
LINE
8
BLACK
6
CONTINUOUS
10
138.239
20
-140.186
11
138.049
21
-140.282
0
LINE
8
BLACK
6
CONTINUOUS
10
138.049
20
-140.282
11
137.858
21
-140.282
0
LINE
8
BLACK
6
CONTINUOUS
10
137.858
20
-140.282
11
137.668
21
-140.186
0
LINE
8
BLACK
6
CONTINUOUS
10
137.668
20
-140.186
11
137.572
21
-140.091
0
LINE
8
BLACK
6
CONTINUOUS
10
137.572
20
-140.091
11
137.477
21
-139.901
0
LINE
8
BLACK
6
CONTINUOUS
10
137.477
20
-139.901
11
137.382
21
-139.52
0
LINE
8
BLACK
6
CONTINUOUS
10
137.382
20
-139.52
11
137.382
21
-139.044
0
LINE
8
BLACK
6
CONTINUOUS
10
137.382
20
-139.044
11
137.477
21
-138.663
0
LINE
8
BLACK
6
CONTINUOUS
10
137.477
20
-138.663
11
137.572
21
-138.472
0
LINE
8
BLACK
6
CONTINUOUS
10
137.572
20
-138.472
11
137.668
21
-138.377
0
LINE
8
BLACK
6
CONTINUOUS
10
137.668
20
-138.377
11
137.858
21
-138.282
0
LINE
8
BLACK
6
CONTINUOUS
10
139.763
20
-138.282
11
139.953
21
-138.282
0
LINE
8
BLACK
6
CONTINUOUS
10
139.953
20
-138.282
11
140.144
21
-138.377
0
LINE
8
BLACK
6
CONTINUOUS
10
140.144
20
-138.377
11
140.239
21
-138.472
0
LINE
8
BLACK
6
CONTINUOUS
10
140.239
20
-138.472
11
140.334
21
-138.663
0
LINE
8
BLACK
6
CONTINUOUS
10
140.334
20
-138.663
11
140.43
21
-139.044
0
LINE
8
BLACK
6
CONTINUOUS
10
140.43
20
-139.044
11
140.43
21
-139.52
0
LINE
8
BLACK
6
CONTINUOUS
10
140.43
20
-139.52
11
140.334
21
-139.901
0
LINE
8
BLACK
6
CONTINUOUS
10
140.334
20
-139.901
11
140.239
21
-140.091
0
LINE
8
BLACK
6
CONTINUOUS
10
140.239
20
-140.091
11
140.144
21
-140.186
0
LINE
8
BLACK
6
CONTINUOUS
10
140.144
20
-140.186
11
139.953
21
-140.282
0
LINE
8
BLACK
6
CONTINUOUS
10
139.953
20
-140.282
11
139.763
21
-140.282
0
LINE
8
BLACK
6
CONTINUOUS
10
139.763
20
-140.282
11
139.572
21
-140.186
0
LINE
8
BLACK
6
CONTINUOUS
10
139.572
20
-140.186
11
139.477
21
-140.091
0
LINE
8
BLACK
6
CONTINUOUS
10
139.477
20
-140.091
11
139.382
21
-139.901
0
LINE
8
BLACK
6
CONTINUOUS
10
139.382
20
-139.901
11
139.287
21
-139.52
0
LINE
8
BLACK
6
CONTINUOUS
10
139.287
20
-139.52
11
139.287
21
-139.044
0
LINE
8
BLACK
6
CONTINUOUS
10
139.287
20
-139.044
11
139.382
21
-138.663
0
LINE
8
BLACK
6
CONTINUOUS
10
139.382
20
-138.663
11
139.477
21
-138.472
0
LINE
8
BLACK
6
CONTINUOUS
10
139.477
20
-138.472
11
139.572
21
-138.377
0
LINE
8
BLACK
6
CONTINUOUS
10
139.572
20
-138.377
11
139.763
21
-138.282
0
LINE
8
BLACK
6
CONTINUOUS
10
141.668
20
-138.282
11
141.858
21
-138.282
0
LINE
8
BLACK
6
CONTINUOUS
10
141.858
20
-138.282
11
142.049
21
-138.377
0
LINE
8
BLACK
6
CONTINUOUS
10
142.049
20
-138.377
11
142.144
21
-138.472
0
LINE
8
BLACK
6
CONTINUOUS
10
142.144
20
-138.472
11
142.239
21
-138.663
0
LINE
8
BLACK
6
CONTINUOUS
10
142.239
20
-138.663
11
142.334
21
-139.044
0
LINE
8
BLACK
6
CONTINUOUS
10
142.334
20
-139.044
11
142.334
21
-139.52
0
LINE
8
BLACK
6
CONTINUOUS
10
142.334
20
-139.52
11
142.239
21
-139.901
0
LINE
8
BLACK
6
CONTINUOUS
10
142.239
20
-139.901
11
142.144
21
-140.091
0
LINE
8
BLACK
6
CONTINUOUS
10
142.144
20
-140.091
11
142.049
21
-140.186
0
LINE
8
BLACK
6
CONTINUOUS
10
142.049
20
-140.186
11
141.858
21
-140.282
0
LINE
8
BLACK
6
CONTINUOUS
10
141.858
20
-140.282
11
141.668
21
-140.282
0
LINE
8
BLACK
6
CONTINUOUS
10
141.668
20
-140.282
11
141.477
21
-140.186
0
LINE
8
BLACK
6
CONTINUOUS
10
141.477
20
-140.186
11
141.382
21
-140.091
0
LINE
8
BLACK
6
CONTINUOUS
10
141.382
20
-140.091
11
141.287
21
-139.901
0
LINE
8
BLACK
6
CONTINUOUS
10
141.287
20
-139.901
11
141.192
21
-139.52
0
LINE
8
BLACK
6
CONTINUOUS
10
141.192
20
-139.52
11
141.192
21
-139.044
0
LINE
8
BLACK
6
CONTINUOUS
10
141.192
20
-139.044
11
141.287
21
-138.663
0
LINE
8
BLACK
6
CONTINUOUS
10
141.287
20
-138.663
11
141.382
21
-138.472
0
LINE
8
BLACK
6
CONTINUOUS
10
141.382
20
-138.472
11
141.477
21
-138.377
0
LINE
8
BLACK
6
CONTINUOUS
10
141.477
20
-138.377
11
141.668
21
-138.282
0
LINE
8
BLACK
6
CONTINUOUS
10
143.192
20
-140.282
11
143.192
21
-138.948
0
LINE
8
BLACK
6
CONTINUOUS
10
143.192
20
-139.139
11
143.287
21
-139.044
0
LINE
8
BLACK
6
CONTINUOUS
10
143.287
20
-139.044
11
143.477
21
-138.948
0
LINE
8
BLACK
6
CONTINUOUS
10
143.477
20
-138.948
11
143.763
21
-138.948
0
LINE
8
BLACK
6
CONTINUOUS
10
143.763
20
-138.948
11
143.953
21
-139.044
0
LINE
8
BLACK
6
CONTINUOUS
10
143.953
20
-139.044
11
144.049
21
-139.234
0
LINE
8
BLACK
6
CONTINUOUS
10
144.049
20
-139.234
11
144.049
21
-140.282
0
LINE
8
BLACK
6
CONTINUOUS
10
144.049
20
-139.234
11
144.144
21
-139.044
0
LINE
8
BLACK
6
CONTINUOUS
10
144.144
20
-139.044
11
144.334
21
-138.948
0
LINE
8
BLACK
6
CONTINUOUS
10
144.334
20
-138.948
11
144.62
21
-138.948
0
LINE
8
BLACK
6
CONTINUOUS
10
144.62
20
-138.948
11
144.811
21
-139.044
0
LINE
8
BLACK
6
CONTINUOUS
10
144.811
20
-139.044
11
144.906
21
-139.234
0
LINE
8
BLACK
6
CONTINUOUS
10
144.906
20
-139.234
11
144.906
21
-140.282
0
LINE
8
BLACK
6
CONTINUOUS
10
145.858
20
-140.282
11
145.858
21
-138.948
0
LINE
8
BLACK
6
CONTINUOUS
10
145.858
20
-139.139
11
145.953
21
-139.044
0
LINE
8
BLACK
6
CONTINUOUS
10
145.953
20
-139.044
11
146.144
21
-138.948
0
LINE
8
BLACK
6
CONTINUOUS
10
146.144
20
-138.948
11
146.43
21
-138.948
0
LINE
8
BLACK
6
CONTINUOUS
10
146.43
20
-138.948
11
146.62
21
-139.044
0
LINE
8
BLACK
6
CONTINUOUS
10
146.62
20
-139.044
11
146.715
21
-139.234
0
LINE
8
BLACK
6
CONTINUOUS
10
146.715
20
-139.234
11
146.715
21
-140.282
0
LINE
8
BLACK
6
CONTINUOUS
10
146.715
20
-139.234
11
146.811
21
-139.044
0
LINE
8
BLACK
6
CONTINUOUS
10
146.811
20
-139.044
11
147.001
21
-138.948
0
LINE
8
BLACK
6
CONTINUOUS
10
147.001
20
-138.948
11
147.287
21
-138.948
0
LINE
8
BLACK
6
CONTINUOUS
10
147.287
20
-138.948
11
147.477
21
-139.044
0
LINE
8
BLACK
6
CONTINUOUS
10
147.477
20
-139.044
11
147.572
21
-139.234
0
LINE
8
BLACK
6
CONTINUOUS
10
147.572
20
-139.234
11
147.572
21
-140.282
0
LINE
8
BLACK
6
CONTINUOUS
10
151.153
20
-138.186
11
149.439
21
-140.758
0
LINE
8
BLACK
6
CONTINUOUS
10
153.401
20
-138.282
11
153.592
21
-138.282
0
LINE
8
BLACK
6
CONTINUOUS
10
153.592
20
-138.282
11
153.782
21
-138.377
0
LINE
8
BLACK
6
CONTINUOUS
10
153.782
20
-138.377
11
153.877
21
-138.472
0
LINE
8
BLACK
6
CONTINUOUS
10
153.877
20
-138.472
11
153.972
21
-138.663
0
LINE
8
BLACK
6
CONTINUOUS
10
153.972
20
-138.663
11
154.068
21
-139.044
0
LINE
8
BLACK
6
CONTINUOUS
10
154.068
20
-139.044
11
154.068
21
-139.52
0
LINE
8
BLACK
6
CONTINUOUS
10
154.068
20
-139.52
11
153.972
21
-139.901
0
LINE
8
BLACK
6
CONTINUOUS
10
153.972
20
-139.901
11
153.877
21
-140.091
0
LINE
8
BLACK
6
CONTINUOUS
10
153.877
20
-140.091
11
153.782
21
-140.186
0
LINE
8
BLACK
6
CONTINUOUS
10
153.782
20
-140.186
11
153.592
21
-140.282
0
LINE
8
BLACK
6
CONTINUOUS
10
153.592
20
-140.282
11
153.401
21
-140.282
0
LINE
8
BLACK
6
CONTINUOUS
10
153.401
20
-140.282
11
153.211
21
-140.186
0
LINE
8
BLACK
6
CONTINUOUS
10
153.211
20
-140.186
11
153.115
21
-140.091
0
LINE
8
BLACK
6
CONTINUOUS
10
153.115
20
-140.091
11
153.02
21
-139.901
0
LINE
8
BLACK
6
CONTINUOUS
10
153.02
20
-139.901
11
152.925
21
-139.52
0
LINE
8
BLACK
6
CONTINUOUS
10
152.925
20
-139.52
11
152.925
21
-139.044
0
LINE
8
BLACK
6
CONTINUOUS
10
152.925
20
-139.044
11
153.02
21
-138.663
0
LINE
8
BLACK
6
CONTINUOUS
10
153.02
20
-138.663
11
153.115
21
-138.472
0
LINE
8
BLACK
6
CONTINUOUS
10
153.115
20
-138.472
11
153.211
21
-138.377
0
LINE
8
BLACK
6
CONTINUOUS
10
153.211
20
-138.377
11
153.401
21
-138.282
0
LINE
8
BLACK
6
CONTINUOUS
10
154.925
20
-140.091
11
155.02
21
-140.186
0
LINE
8
BLACK
6
CONTINUOUS
10
155.02
20
-140.186
11
154.925
21
-140.282
0
LINE
8
BLACK
6
CONTINUOUS
10
154.925
20
-140.282
11
154.83
21
-140.186
0
LINE
8
BLACK
6
CONTINUOUS
10
154.83
20
-140.186
11
154.925
21
-140.091
0
LINE
8
BLACK
6
CONTINUOUS
10
154.925
20
-140.091
11
154.925
21
-140.282
0
LINE
8
BLACK
6
CONTINUOUS
10
156.258
20
-138.282
11
156.449
21
-138.282
0
LINE
8
BLACK
6
CONTINUOUS
10
156.449
20
-138.282
11
156.639
21
-138.377
0
LINE
8
BLACK
6
CONTINUOUS
10
156.639
20
-138.377
11
156.734
21
-138.472
0
LINE
8
BLACK
6
CONTINUOUS
10
156.734
20
-138.472
11
156.83
21
-138.663
0
LINE
8
BLACK
6
CONTINUOUS
10
156.83
20
-138.663
11
156.925
21
-139.044
0
LINE
8
BLACK
6
CONTINUOUS
10
156.925
20
-139.044
11
156.925
21
-139.52
0
LINE
8
BLACK
6
CONTINUOUS
10
156.925
20
-139.52
11
156.83
21
-139.901
0
LINE
8
BLACK
6
CONTINUOUS
10
156.83
20
-139.901
11
156.734
21
-140.091
0
LINE
8
BLACK
6
CONTINUOUS
10
156.734
20
-140.091
11
156.639
21
-140.186
0
LINE
8
BLACK
6
CONTINUOUS
10
156.639
20
-140.186
11
156.449
21
-140.282
0
LINE
8
BLACK
6
CONTINUOUS
10
156.449
20
-140.282
11
156.258
21
-140.282
0
LINE
8
BLACK
6
CONTINUOUS
10
156.258
20
-140.282
11
156.068
21
-140.186
0
LINE
8
BLACK
6
CONTINUOUS
10
156.068
20
-140.186
11
155.972
21
-140.091
0
LINE
8
BLACK
6
CONTINUOUS
10
155.972
20
-140.091
11
155.877
21
-139.901
0
LINE
8
BLACK
6
CONTINUOUS
10
155.877
20
-139.901
11
155.782
21
-139.52
0
LINE
8
BLACK
6
CONTINUOUS
10
155.782
20
-139.52
11
155.782
21
-139.044
0
LINE
8
BLACK
6
CONTINUOUS
10
155.782
20
-139.044
11
155.877
21
-138.663
0
LINE
8
BLACK
6
CONTINUOUS
10
155.877
20
-138.663
11
155.972
21
-138.472
0
LINE
8
BLACK
6
CONTINUOUS
10
155.972
20
-138.472
11
156.068
21
-138.377
0
LINE
8
BLACK
6
CONTINUOUS
10
156.068
20
-138.377
11
156.258
21
-138.282
0
LINE
8
BLACK
6
CONTINUOUS
10
157.592
20
-138.282
11
158.83
21
-138.282
0
LINE
8
BLACK
6
CONTINUOUS
10
158.83
20
-138.282
11
158.163
21
-139.044
0
LINE
8
BLACK
6
CONTINUOUS
10
158.163
20
-139.044
11
158.449
21
-139.044
0
LINE
8
BLACK
6
CONTINUOUS
10
158.449
20
-139.044
11
158.639
21
-139.139
0
LINE
8
BLACK
6
CONTINUOUS
10
158.639
20
-139.139
11
158.734
21
-139.234
0
LINE
8
BLACK
6
CONTINUOUS
10
158.734
20
-139.234
11
158.83
21
-139.425
0
LINE
8
BLACK
6
CONTINUOUS
10
158.83
20
-139.425
11
158.83
21
-139.901
0
LINE
8
BLACK
6
CONTINUOUS
10
158.83
20
-139.901
11
158.734
21
-140.091
0
LINE
8
BLACK
6
CONTINUOUS
10
158.734
20
-140.091
11
158.639
21
-140.186
0
LINE
8
BLACK
6
CONTINUOUS
10
158.639
20
-140.186
11
158.449
21
-140.282
0
LINE
8
BLACK
6
CONTINUOUS
10
158.449
20
-140.282
11
157.877
21
-140.282
0
LINE
8
BLACK
6
CONTINUOUS
10
157.877
20
-140.282
11
157.687
21
-140.186
0
LINE
8
BLACK
6
CONTINUOUS
10
157.687
20
-140.186
11
157.592
21
-140.091
0
LINE
8
BLACK
6
CONTINUOUS
10
159.782
20
-140.282
11
160.163
21
-140.282
0
LINE
8
BLACK
6
CONTINUOUS
10
160.163
20
-140.282
11
160.353
21
-140.186
0
LINE
8
BLACK
6
CONTINUOUS
10
160.353
20
-140.186
11
160.449
21
-140.091
0
LINE
8
BLACK
6
CONTINUOUS
10
160.449
20
-140.091
11
160.639
21
-139.805
0
LINE
8
BLACK
6
CONTINUOUS
10
160.639
20
-139.805
11
160.734
21
-139.425
0
LINE
8
BLACK
6
CONTINUOUS
10
160.734
20
-139.425
11
160.734
21
-138.663
0
LINE
8
BLACK
6
CONTINUOUS
10
160.734
20
-138.663
11
160.639
21
-138.472
0
LINE
8
BLACK
6
CONTINUOUS
10
160.639
20
-138.472
11
160.544
21
-138.377
0
LINE
8
BLACK
6
CONTINUOUS
10
160.544
20
-138.377
11
160.353
21
-138.282
0
LINE
8
BLACK
6
CONTINUOUS
10
160.353
20
-138.282
11
159.972
21
-138.282
0
LINE
8
BLACK
6
CONTINUOUS
10
159.972
20
-138.282
11
159.782
21
-138.377
0
LINE
8
BLACK
6
CONTINUOUS
10
159.782
20
-138.377
11
159.687
21
-138.472
0
LINE
8
BLACK
6
CONTINUOUS
10
159.687
20
-138.472
11
159.592
21
-138.663
0
LINE
8
BLACK
6
CONTINUOUS
10
159.592
20
-138.663
11
159.592
21
-139.139
0
LINE
8
BLACK
6
CONTINUOUS
10
159.592
20
-139.139
11
159.687
21
-139.329
0
LINE
8
BLACK
6
CONTINUOUS
10
159.687
20
-139.329
11
159.782
21
-139.425
0
LINE
8
BLACK
6
CONTINUOUS
10
159.782
20
-139.425
11
159.972
21
-139.52
0
LINE
8
BLACK
6
CONTINUOUS
10
159.972
20
-139.52
11
160.353
21
-139.52
0
LINE
8
BLACK
6
CONTINUOUS
10
160.353
20
-139.52
11
160.544
21
-139.425
0
LINE
8
BLACK
6
CONTINUOUS
10
160.544
20
-139.425
11
160.639
21
-139.329
0
LINE
8
BLACK
6
CONTINUOUS
10
160.639
20
-139.329
11
160.734
21
-139.139
0
LINE
8
BLACK
6
CONTINUOUS
10
162.449
20
-138.948
11
162.449
21
-140.282
0
LINE
8
BLACK
6
CONTINUOUS
10
161.972
20
-138.186
11
161.496
21
-139.615
0
LINE
8
BLACK
6
CONTINUOUS
10
161.496
20
-139.615
11
162.734
21
-139.615
0
LINE
8
BLACK
6
CONTINUOUS
10
163.401
20
-138.282
11
163.401
21
-138.663
0
LINE
8
BLACK
6
CONTINUOUS
10
164.163
20
-138.282
11
164.163
21
-138.663
0
LINE
8
BLACK
6
CONTINUOUS
10
166.792
20
-141.044
11
166.696
21
-140.948
0
LINE
8
BLACK
6
CONTINUOUS
10
166.696
20
-140.948
11
166.506
21
-140.663
0
LINE
8
BLACK
6
CONTINUOUS
10
166.506
20
-140.663
11
166.411
21
-140.472
0
LINE
8
BLACK
6
CONTINUOUS
10
166.411
20
-140.472
11
166.315
21
-140.186
0
LINE
8
BLACK
6
CONTINUOUS
10
166.315
20
-140.186
11
166.22
21
-139.71
0
LINE
8
BLACK
6
CONTINUOUS
10
166.22
20
-139.71
11
166.22
21
-139.329
0
LINE
8
BLACK
6
CONTINUOUS
10
166.22
20
-139.329
11
166.315
21
-138.853
0
LINE
8
BLACK
6
CONTINUOUS
10
166.315
20
-138.853
11
166.411
21
-138.567
0
LINE
8
BLACK
6
CONTINUOUS
10
166.411
20
-138.567
11
166.506
21
-138.377
0
LINE
8
BLACK
6
CONTINUOUS
10
166.506
20
-138.377
11
166.696
21
-138.091
0
LINE
8
BLACK
6
CONTINUOUS
10
166.696
20
-138.091
11
166.792
21
-137.996
0
LINE
8
BLACK
6
CONTINUOUS
10
168.601
20
-140.282
11
167.458
21
-140.282
0
LINE
8
BLACK
6
CONTINUOUS
10
168.03
20
-140.282
11
168.03
21
-138.282
0
LINE
8
BLACK
6
CONTINUOUS
10
168.03
20
-138.282
11
167.839
21
-138.567
0
LINE
8
BLACK
6
CONTINUOUS
10
167.839
20
-138.567
11
167.649
21
-138.758
0
LINE
8
BLACK
6
CONTINUOUS
10
167.649
20
-138.758
11
167.458
21
-138.853
0
LINE
8
BLACK
6
CONTINUOUS
10
169.363
20
-138.472
11
169.458
21
-138.377
0
LINE
8
BLACK
6
CONTINUOUS
10
169.458
20
-138.377
11
169.649
21
-138.282
0
LINE
8
BLACK
6
CONTINUOUS
10
169.649
20
-138.282
11
170.125
21
-138.282
0
LINE
8
BLACK
6
CONTINUOUS
10
170.125
20
-138.282
11
170.315
21
-138.377
0
LINE
8
BLACK
6
CONTINUOUS
10
170.315
20
-138.377
11
170.411
21
-138.472
0
LINE
8
BLACK
6
CONTINUOUS
10
170.411
20
-138.472
11
170.506
21
-138.663
0
LINE
8
BLACK
6
CONTINUOUS
10
170.506
20
-138.663
11
170.506
21
-138.853
0
LINE
8
BLACK
6
CONTINUOUS
10
170.506
20
-138.853
11
170.411
21
-139.139
0
LINE
8
BLACK
6
CONTINUOUS
10
170.411
20
-139.139
11
169.268
21
-140.282
0
LINE
8
BLACK
6
CONTINUOUS
10
169.268
20
-140.282
11
170.506
21
-140.282
0
LINE
8
BLACK
6
CONTINUOUS
10
172.563
20
-140.282
11
172.563
21
-138.282
0
LINE
8
BLACK
6
CONTINUOUS
10
173.42
20
-140.282
11
173.42
21
-139.234
0
LINE
8
BLACK
6
CONTINUOUS
10
173.42
20
-139.234
11
173.325
21
-139.044
0
LINE
8
BLACK
6
CONTINUOUS
10
173.325
20
-139.044
11
173.134
21
-138.948
0
LINE
8
BLACK
6
CONTINUOUS
10
173.134
20
-138.948
11
172.849
21
-138.948
0
LINE
8
BLACK
6
CONTINUOUS
10
172.849
20
-138.948
11
172.658
21
-139.044
0
LINE
8
BLACK
6
CONTINUOUS
10
172.658
20
-139.044
11
172.563
21
-139.139
0
LINE
8
BLACK
6
CONTINUOUS
10
174.658
20
-140.282
11
174.468
21
-140.186
0
LINE
8
BLACK
6
CONTINUOUS
10
174.468
20
-140.186
11
174.372
21
-140.091
0
LINE
8
BLACK
6
CONTINUOUS
10
174.372
20
-140.091
11
174.277
21
-139.901
0
LINE
8
BLACK
6
CONTINUOUS
10
174.277
20
-139.901
11
174.277
21
-139.329
0
LINE
8
BLACK
6
CONTINUOUS
10
174.277
20
-139.329
11
174.372
21
-139.139
0
LINE
8
BLACK
6
CONTINUOUS
10
174.372
20
-139.139
11
174.468
21
-139.044
0
LINE
8
BLACK
6
CONTINUOUS
10
174.468
20
-139.044
11
174.658
21
-138.948
0
LINE
8
BLACK
6
CONTINUOUS
10
174.658
20
-138.948
11
174.944
21
-138.948
0
LINE
8
BLACK
6
CONTINUOUS
10
174.944
20
-138.948
11
175.134
21
-139.044
0
LINE
8
BLACK
6
CONTINUOUS
10
175.134
20
-139.044
11
175.23
21
-139.139
0
LINE
8
BLACK
6
CONTINUOUS
10
175.23
20
-139.139
11
175.325
21
-139.329
0
LINE
8
BLACK
6
CONTINUOUS
10
175.325
20
-139.329
11
175.325
21
-139.901
0
LINE
8
BLACK
6
CONTINUOUS
10
175.325
20
-139.901
11
175.23
21
-140.091
0
LINE
8
BLACK
6
CONTINUOUS
10
175.23
20
-140.091
11
175.134
21
-140.186
0
LINE
8
BLACK
6
CONTINUOUS
10
175.134
20
-140.186
11
174.944
21
-140.282
0
LINE
8
BLACK
6
CONTINUOUS
10
174.944
20
-140.282
11
174.658
21
-140.282
0
LINE
8
BLACK
6
CONTINUOUS
10
176.468
20
-140.282
11
176.277
21
-140.186
0
LINE
8
BLACK
6
CONTINUOUS
10
176.277
20
-140.186
11
176.182
21
-139.996
0
LINE
8
BLACK
6
CONTINUOUS
10
176.182
20
-139.996
11
176.182
21
-138.282
0
LINE
8
BLACK
6
CONTINUOUS
10
177.992
20
-140.186
11
177.801
21
-140.282
0
LINE
8
BLACK
6
CONTINUOUS
10
177.801
20
-140.282
11
177.42
21
-140.282
0
LINE
8
BLACK
6
CONTINUOUS
10
177.42
20
-140.282
11
177.23
21
-140.186
0
LINE
8
BLACK
6
CONTINUOUS
10
177.23
20
-140.186
11
177.134
21
-139.996
0
LINE
8
BLACK
6
CONTINUOUS
10
177.134
20
-139.996
11
177.134
21
-139.234
0
LINE
8
BLACK
6
CONTINUOUS
10
177.134
20
-139.234
11
177.23
21
-139.044
0
LINE
8
BLACK
6
CONTINUOUS
10
177.23
20
-139.044
11
177.42
21
-138.948
0
LINE
8
BLACK
6
CONTINUOUS
10
177.42
20
-138.948
11
177.801
21
-138.948
0
LINE
8
BLACK
6
CONTINUOUS
10
177.801
20
-138.948
11
177.992
21
-139.044
0
LINE
8
BLACK
6
CONTINUOUS
10
177.992
20
-139.044
11
178.087
21
-139.234
0
LINE
8
BLACK
6
CONTINUOUS
10
178.087
20
-139.234
11
178.087
21
-139.425
0
LINE
8
BLACK
6
CONTINUOUS
10
178.087
20
-139.425
11
177.134
21
-139.615
0
LINE
8
BLACK
6
CONTINUOUS
10
178.849
20
-140.186
11
179.039
21
-140.282
0
LINE
8
BLACK
6
CONTINUOUS
10
179.039
20
-140.282
11
179.42
21
-140.282
0
LINE
8
BLACK
6
CONTINUOUS
10
179.42
20
-140.282
11
179.611
21
-140.186
0
LINE
8
BLACK
6
CONTINUOUS
10
179.611
20
-140.186
11
179.706
21
-139.996
0
LINE
8
BLACK
6
CONTINUOUS
10
179.706
20
-139.996
11
179.706
21
-139.901
0
LINE
8
BLACK
6
CONTINUOUS
10
179.706
20
-139.901
11
179.611
21
-139.71
0
LINE
8
BLACK
6
CONTINUOUS
10
179.611
20
-139.71
11
179.42
21
-139.615
0
LINE
8
BLACK
6
CONTINUOUS
10
179.42
20
-139.615
11
179.134
21
-139.615
0
LINE
8
BLACK
6
CONTINUOUS
10
179.134
20
-139.615
11
178.944
21
-139.52
0
LINE
8
BLACK
6
CONTINUOUS
10
178.944
20
-139.52
11
178.849
21
-139.329
0
LINE
8
BLACK
6
CONTINUOUS
10
178.849
20
-139.329
11
178.849
21
-139.234
0
LINE
8
BLACK
6
CONTINUOUS
10
178.849
20
-139.234
11
178.944
21
-139.044
0
LINE
8
BLACK
6
CONTINUOUS
10
178.944
20
-139.044
11
179.134
21
-138.948
0
LINE
8
BLACK
6
CONTINUOUS
10
179.134
20
-138.948
11
179.42
21
-138.948
0
LINE
8
BLACK
6
CONTINUOUS
10
179.42
20
-138.948
11
179.611
21
-139.044
0
LINE
8
BLACK
6
CONTINUOUS
10
180.372
20
-141.044
11
180.468
21
-140.948
0
LINE
8
BLACK
6
CONTINUOUS
10
180.468
20
-140.948
11
180.658
21
-140.663
0
LINE
8
BLACK
6
CONTINUOUS
10
180.658
20
-140.663
11
180.753
21
-140.472
0
LINE
8
BLACK
6
CONTINUOUS
10
180.753
20
-140.472
11
180.849
21
-140.186
0
LINE
8
BLACK
6
CONTINUOUS
10
180.849
20
-140.186
11
180.944
21
-139.71
0
LINE
8
BLACK
6
CONTINUOUS
10
180.944
20
-139.71
11
180.944
21
-139.329
0
LINE
8
BLACK
6
CONTINUOUS
10
180.944
20
-139.329
11
180.849
21
-138.853
0
LINE
8
BLACK
6
CONTINUOUS
10
180.849
20
-138.853
11
180.753
21
-138.567
0
LINE
8
BLACK
6
CONTINUOUS
10
180.753
20
-138.567
11
180.658
21
-138.377
0
LINE
8
BLACK
6
CONTINUOUS
10
180.658
20
-138.377
11
180.468
21
-138.091
0
LINE
8
BLACK
6
CONTINUOUS
10
180.468
20
-138.091
11
180.372
21
-137.996
  0
ENDSEC
  0
EOF
