  0
SECTION
  2
HEADER
  9
$ANGBASE
  50
0.0
  9
$ANGDIR
  70
1
  9
$MEASUREMENT
  70
1
  0
ENDSEC
  0
SECTION
  2
TABLES
  0
TABLE
  2
LTYPE
  70
4
  0
LTYPE
  5
40F
  2
CONTINUOUS
  70
0
  3
Solid line
  72
65
  73
0
  40
0.0
  0
LTYPE
  5
410
  2
DASHDOT
 70
0
  3
Dash Dot ____ _ ____ _
 72
65
 73
4
 40
2.0
 49
1.25
 49
-0.25
 49
0.25
 49
-0.25
  0
LTYPE
  5
411
  2
DASHED
 70
0
  3
Dashed __ __ __ __ __
 72
65
 73
2
 40
0.75
 49
0.5
 49
-0.25
  0
LTYPE
  5
43B
  2
DOTTED
 70
0
  3
Dotted .  .  .  .
 72
65
 73
2
 40
0.2
 49
0.0
 49
-0.2
  0
ENDTAB
  0
TABLE
  2
STYLE
  70
4
  0
STYLE
  2
KICAD
  70
0
  40
0
  41
1
  42
1
  50
0
  71
0
  3
isocp.shx
  0
STYLE
  2
KICADB
  70
0
  40
0
  41
1
  42
1
  50
0
  71
0
  3
isocp.shx
  0
STYLE
  2
KICADI
  70
0
  40
0
  41
1
  42
1
  50
15
  71
0
  3
isocp.shx
  0
STYLE
  2
KICADBI
  70
0
  40
0
  41
1
  42
1
  50
15
  71
0
  3
isocp.shx
  0
ENDTAB
  0
TABLE
  2
LAYER
  70
1
  0
LAYER
  2
BLACK
  70
0
  62
7
  6
CONTINUOUS
  0
ENDTAB
  0
ENDSEC
  0
SECTION
  2
ENTITIES
0
LINE
8
BLACK
6
CONTINUOUS
10
169.644
20
-130.141
11
169.736
21
-130.141
0
ARC
8
BLACK
10
135.664
20
-133.095
40
2.95622
50
-0.000290722
51
90.0003
0
LINE
8
BLACK
6
CONTINUOUS
10
135.664
20
-130.139
11
135.572
21
-130.139
0
ARC
8
BLACK
10
171.817
20
-49.3732
40
1.27633
50
-0
51
90
0
ARC
8
BLACK
10
133.47
20
-49.3732
40
1.27633
50
90
51
180
0
LINE
8
BLACK
6
CONTINUOUS
10
132.194
20
-49.3732
11
135.572
21
-130.139
0
LINE
8
BLACK
6
CONTINUOUS
10
133.47
20
-48.0969
11
171.817
21
-48.0969
0
LINE
8
BLACK
6
CONTINUOUS
10
173.093
20
-49.3732
11
169.736
21
-130.141
0
ARC
8
BLACK
10
169.644
20
-133.097
40
2.95622
50
89.9997
51
180
0
LINE
8
BLACK
6
CONTINUOUS
10
138.621
20
-133.095
11
166.687
21
-133.097
0
LINE
8
BLACK
6
CONTINUOUS
10
136.794
20
-50.0469
11
139.494
21
-52.7469
0
LINE
8
BLACK
6
CONTINUOUS
10
139.494
20
-50.0469
11
136.794
21
-52.7469
0
LINE
8
BLACK
6
CONTINUOUS
10
137.744
20
-52.7469
11
138.544
21
-52.7469
0
ARC
8
BLACK
10
138.544
20
-51.3969
40
1.35
50
270
51
450
0
LINE
8
BLACK
6
CONTINUOUS
10
138.544
20
-50.0469
11
137.744
21
-50.0469
0
ARC
8
BLACK
10
137.744
20
-51.3969
40
1.35
50
90
51
270
0
LINE
8
BLACK
6
CONTINUOUS
10
165.794
20
-50.0469
11
168.494
21
-52.7469
0
LINE
8
BLACK
6
CONTINUOUS
10
168.494
20
-50.0469
11
165.794
21
-52.7469
0
LINE
8
BLACK
6
CONTINUOUS
10
166.744
20
-52.7469
11
167.544
21
-52.7469
0
ARC
8
BLACK
10
167.544
20
-51.3969
40
1.35
50
270
51
450
0
LINE
8
BLACK
6
CONTINUOUS
10
167.544
20
-50.0469
11
166.744
21
-50.0469
0
ARC
8
BLACK
10
166.744
20
-51.3969
40
1.35
50
90
51
270
0
LINE
8
BLACK
6
CONTINUOUS
10
134.62
20
-136.082
11
134.62
21
-134.082
0
LINE
8
BLACK
6
CONTINUOUS
10
134.62
20
-134.082
11
135.096
21
-134.082
0
LINE
8
BLACK
6
CONTINUOUS
10
135.096
20
-134.082
11
135.382
21
-134.177
0
LINE
8
BLACK
6
CONTINUOUS
10
135.382
20
-134.177
11
135.572
21
-134.367
0
LINE
8
BLACK
6
CONTINUOUS
10
135.572
20
-134.367
11
135.668
21
-134.558
0
LINE
8
BLACK
6
CONTINUOUS
10
135.668
20
-134.558
11
135.763
21
-134.939
0
LINE
8
BLACK
6
CONTINUOUS
10
135.763
20
-134.939
11
135.763
21
-135.225
0
LINE
8
BLACK
6
CONTINUOUS
10
135.763
20
-135.225
11
135.668
21
-135.605
0
LINE
8
BLACK
6
CONTINUOUS
10
135.668
20
-135.605
11
135.572
21
-135.796
0
LINE
8
BLACK
6
CONTINUOUS
10
135.572
20
-135.796
11
135.382
21
-135.986
0
LINE
8
BLACK
6
CONTINUOUS
10
135.382
20
-135.986
11
135.096
21
-136.082
0
LINE
8
BLACK
6
CONTINUOUS
10
135.096
20
-136.082
11
134.62
21
-136.082
0
LINE
8
BLACK
6
CONTINUOUS
10
136.62
20
-136.082
11
136.62
21
-134.748
0
LINE
8
BLACK
6
CONTINUOUS
10
136.62
20
-135.129
11
136.715
21
-134.939
0
LINE
8
BLACK
6
CONTINUOUS
10
136.715
20
-134.939
11
136.811
21
-134.844
0
LINE
8
BLACK
6
CONTINUOUS
10
136.811
20
-134.844
11
137.001
21
-134.748
0
LINE
8
BLACK
6
CONTINUOUS
10
137.001
20
-134.748
11
137.192
21
-134.748
0
LINE
8
BLACK
6
CONTINUOUS
10
137.858
20
-136.082
11
137.858
21
-134.748
0
LINE
8
BLACK
6
CONTINUOUS
10
137.858
20
-134.082
11
137.763
21
-134.177
0
LINE
8
BLACK
6
CONTINUOUS
10
137.763
20
-134.177
11
137.858
21
-134.272
0
LINE
8
BLACK
6
CONTINUOUS
10
137.858
20
-134.272
11
137.953
21
-134.177
0
LINE
8
BLACK
6
CONTINUOUS
10
137.953
20
-134.177
11
137.858
21
-134.082
0
LINE
8
BLACK
6
CONTINUOUS
10
137.858
20
-134.082
11
137.858
21
-134.272
0
LINE
8
BLACK
6
CONTINUOUS
10
139.096
20
-136.082
11
138.906
21
-135.986
0
LINE
8
BLACK
6
CONTINUOUS
10
138.906
20
-135.986
11
138.811
21
-135.796
0
LINE
8
BLACK
6
CONTINUOUS
10
138.811
20
-135.796
11
138.811
21
-134.082
0
LINE
8
BLACK
6
CONTINUOUS
10
140.144
20
-136.082
11
139.953
21
-135.986
0
LINE
8
BLACK
6
CONTINUOUS
10
139.953
20
-135.986
11
139.858
21
-135.796
0
LINE
8
BLACK
6
CONTINUOUS
10
139.858
20
-135.796
11
139.858
21
-134.082
0
LINE
8
BLACK
6
CONTINUOUS
10
142.106
20
-136.082
11
142.106
21
-134.082
0
LINE
8
BLACK
6
CONTINUOUS
10
142.106
20
-134.082
11
142.772
21
-135.51
0
LINE
8
BLACK
6
CONTINUOUS
10
142.772
20
-135.51
11
143.439
21
-134.082
0
LINE
8
BLACK
6
CONTINUOUS
10
143.439
20
-134.082
11
143.439
21
-136.082
0
LINE
8
BLACK
6
CONTINUOUS
10
145.249
20
-136.082
11
145.249
21
-135.034
0
LINE
8
BLACK
6
CONTINUOUS
10
145.249
20
-135.034
11
145.153
21
-134.844
0
LINE
8
BLACK
6
CONTINUOUS
10
145.153
20
-134.844
11
144.963
21
-134.748
0
LINE
8
BLACK
6
CONTINUOUS
10
144.963
20
-134.748
11
144.582
21
-134.748
0
LINE
8
BLACK
6
CONTINUOUS
10
144.582
20
-134.748
11
144.392
21
-134.844
0
LINE
8
BLACK
6
CONTINUOUS
10
145.249
20
-135.986
11
145.058
21
-136.082
0
LINE
8
BLACK
6
CONTINUOUS
10
145.058
20
-136.082
11
144.582
21
-136.082
0
LINE
8
BLACK
6
CONTINUOUS
10
144.582
20
-136.082
11
144.392
21
-135.986
0
LINE
8
BLACK
6
CONTINUOUS
10
144.392
20
-135.986
11
144.296
21
-135.796
0
LINE
8
BLACK
6
CONTINUOUS
10
144.296
20
-135.796
11
144.296
21
-135.605
0
LINE
8
BLACK
6
CONTINUOUS
10
144.296
20
-135.605
11
144.392
21
-135.415
0
LINE
8
BLACK
6
CONTINUOUS
10
144.392
20
-135.415
11
144.582
21
-135.32
0
LINE
8
BLACK
6
CONTINUOUS
10
144.582
20
-135.32
11
145.058
21
-135.32
0
LINE
8
BLACK
6
CONTINUOUS
10
145.058
20
-135.32
11
145.249
21
-135.225
0
LINE
8
BLACK
6
CONTINUOUS
10
146.201
20
-134.748
11
146.201
21
-136.748
0
LINE
8
BLACK
6
CONTINUOUS
10
146.201
20
-134.844
11
146.392
21
-134.748
0
LINE
8
BLACK
6
CONTINUOUS
10
146.392
20
-134.748
11
146.772
21
-134.748
0
LINE
8
BLACK
6
CONTINUOUS
10
146.772
20
-134.748
11
146.963
21
-134.844
0
LINE
8
BLACK
6
CONTINUOUS
10
146.963
20
-134.844
11
147.058
21
-134.939
0
LINE
8
BLACK
6
CONTINUOUS
10
147.058
20
-134.939
11
147.153
21
-135.129
0
LINE
8
BLACK
6
CONTINUOUS
10
147.153
20
-135.129
11
147.153
21
-135.701
0
LINE
8
BLACK
6
CONTINUOUS
10
147.153
20
-135.701
11
147.058
21
-135.891
0
LINE
8
BLACK
6
CONTINUOUS
10
147.058
20
-135.891
11
146.963
21
-135.986
0
LINE
8
BLACK
6
CONTINUOUS
10
146.963
20
-135.986
11
146.772
21
-136.082
0
LINE
8
BLACK
6
CONTINUOUS
10
146.772
20
-136.082
11
146.392
21
-136.082
0
LINE
8
BLACK
6
CONTINUOUS
10
146.392
20
-136.082
11
146.201
21
-135.986
0
LINE
8
BLACK
6
CONTINUOUS
10
148.011
20
-135.891
11
148.106
21
-135.986
0
LINE
8
BLACK
6
CONTINUOUS
10
148.106
20
-135.986
11
148.011
21
-136.082
0
LINE
8
BLACK
6
CONTINUOUS
10
148.011
20
-136.082
11
147.915
21
-135.986
0
LINE
8
BLACK
6
CONTINUOUS
10
147.915
20
-135.986
11
148.011
21
-135.891
0
LINE
8
BLACK
6
CONTINUOUS
10
148.011
20
-135.891
11
148.011
21
-136.082
0
LINE
8
BLACK
6
CONTINUOUS
10
148.011
20
-134.844
11
148.106
21
-134.939
0
LINE
8
BLACK
6
CONTINUOUS
10
148.106
20
-134.939
11
148.011
21
-135.034
0
LINE
8
BLACK
6
CONTINUOUS
10
148.011
20
-135.034
11
147.915
21
-134.939
0
LINE
8
BLACK
6
CONTINUOUS
10
147.915
20
-134.939
11
148.011
21
-134.844
0
LINE
8
BLACK
6
CONTINUOUS
10
148.011
20
-134.844
11
148.011
21
-135.034
0
LINE
8
BLACK
6
CONTINUOUS
10
130.144
20
-138.547
11
132.144
21
-140.547
0
LINE
8
BLACK
6
CONTINUOUS
10
132.144
20
-138.547
11
130.144
21
-140.547
0
LINE
8
BLACK
6
CONTINUOUS
10
134.525
20
-138.472
11
134.62
21
-138.377
0
LINE
8
BLACK
6
CONTINUOUS
10
134.62
20
-138.377
11
134.811
21
-138.282
0
LINE
8
BLACK
6
CONTINUOUS
10
134.811
20
-138.282
11
135.287
21
-138.282
0
LINE
8
BLACK
6
CONTINUOUS
10
135.287
20
-138.282
11
135.477
21
-138.377
0
LINE
8
BLACK
6
CONTINUOUS
10
135.477
20
-138.377
11
135.572
21
-138.472
0
LINE
8
BLACK
6
CONTINUOUS
10
135.572
20
-138.472
11
135.668
21
-138.663
0
LINE
8
BLACK
6
CONTINUOUS
10
135.668
20
-138.663
11
135.668
21
-138.853
0
LINE
8
BLACK
6
CONTINUOUS
10
135.668
20
-138.853
11
135.572
21
-139.139
0
LINE
8
BLACK
6
CONTINUOUS
10
135.572
20
-139.139
11
134.43
21
-140.282
0
LINE
8
BLACK
6
CONTINUOUS
10
134.43
20
-140.282
11
135.668
21
-140.282
0
LINE
8
BLACK
6
CONTINUOUS
10
136.525
20
-140.091
11
136.62
21
-140.186
0
LINE
8
BLACK
6
CONTINUOUS
10
136.62
20
-140.186
11
136.525
21
-140.282
0
LINE
8
BLACK
6
CONTINUOUS
10
136.525
20
-140.282
11
136.43
21
-140.186
0
LINE
8
BLACK
6
CONTINUOUS
10
136.43
20
-140.186
11
136.525
21
-140.091
0
LINE
8
BLACK
6
CONTINUOUS
10
136.525
20
-140.091
11
136.525
21
-140.282
0
LINE
8
BLACK
6
CONTINUOUS
10
137.287
20
-138.282
11
138.62
21
-138.282
0
LINE
8
BLACK
6
CONTINUOUS
10
138.62
20
-138.282
11
137.763
21
-140.282
0
LINE
8
BLACK
6
CONTINUOUS
10
139.763
20
-138.282
11
139.953
21
-138.282
0
LINE
8
BLACK
6
CONTINUOUS
10
139.953
20
-138.282
11
140.144
21
-138.377
0
LINE
8
BLACK
6
CONTINUOUS
10
140.144
20
-138.377
11
140.239
21
-138.472
0
LINE
8
BLACK
6
CONTINUOUS
10
140.239
20
-138.472
11
140.334
21
-138.663
0
LINE
8
BLACK
6
CONTINUOUS
10
140.334
20
-138.663
11
140.43
21
-139.044
0
LINE
8
BLACK
6
CONTINUOUS
10
140.43
20
-139.044
11
140.43
21
-139.52
0
LINE
8
BLACK
6
CONTINUOUS
10
140.43
20
-139.52
11
140.334
21
-139.901
0
LINE
8
BLACK
6
CONTINUOUS
10
140.334
20
-139.901
11
140.239
21
-140.091
0
LINE
8
BLACK
6
CONTINUOUS
10
140.239
20
-140.091
11
140.144
21
-140.186
0
LINE
8
BLACK
6
CONTINUOUS
10
140.144
20
-140.186
11
139.953
21
-140.282
0
LINE
8
BLACK
6
CONTINUOUS
10
139.953
20
-140.282
11
139.763
21
-140.282
0
LINE
8
BLACK
6
CONTINUOUS
10
139.763
20
-140.282
11
139.572
21
-140.186
0
LINE
8
BLACK
6
CONTINUOUS
10
139.572
20
-140.186
11
139.477
21
-140.091
0
LINE
8
BLACK
6
CONTINUOUS
10
139.477
20
-140.091
11
139.382
21
-139.901
0
LINE
8
BLACK
6
CONTINUOUS
10
139.382
20
-139.901
11
139.287
21
-139.52
0
LINE
8
BLACK
6
CONTINUOUS
10
139.287
20
-139.52
11
139.287
21
-139.044
0
LINE
8
BLACK
6
CONTINUOUS
10
139.287
20
-139.044
11
139.382
21
-138.663
0
LINE
8
BLACK
6
CONTINUOUS
10
139.382
20
-138.663
11
139.477
21
-138.472
0
LINE
8
BLACK
6
CONTINUOUS
10
139.477
20
-138.472
11
139.572
21
-138.377
0
LINE
8
BLACK
6
CONTINUOUS
10
139.572
20
-138.377
11
139.763
21
-138.282
0
LINE
8
BLACK
6
CONTINUOUS
10
141.668
20
-138.282
11
141.858
21
-138.282
0
LINE
8
BLACK
6
CONTINUOUS
10
141.858
20
-138.282
11
142.049
21
-138.377
0
LINE
8
BLACK
6
CONTINUOUS
10
142.049
20
-138.377
11
142.144
21
-138.472
0
LINE
8
BLACK
6
CONTINUOUS
10
142.144
20
-138.472
11
142.239
21
-138.663
0
LINE
8
BLACK
6
CONTINUOUS
10
142.239
20
-138.663
11
142.334
21
-139.044
0
LINE
8
BLACK
6
CONTINUOUS
10
142.334
20
-139.044
11
142.334
21
-139.52
0
LINE
8
BLACK
6
CONTINUOUS
10
142.334
20
-139.52
11
142.239
21
-139.901
0
LINE
8
BLACK
6
CONTINUOUS
10
142.239
20
-139.901
11
142.144
21
-140.091
0
LINE
8
BLACK
6
CONTINUOUS
10
142.144
20
-140.091
11
142.049
21
-140.186
0
LINE
8
BLACK
6
CONTINUOUS
10
142.049
20
-140.186
11
141.858
21
-140.282
0
LINE
8
BLACK
6
CONTINUOUS
10
141.858
20
-140.282
11
141.668
21
-140.282
0
LINE
8
BLACK
6
CONTINUOUS
10
141.668
20
-140.282
11
141.477
21
-140.186
0
LINE
8
BLACK
6
CONTINUOUS
10
141.477
20
-140.186
11
141.382
21
-140.091
0
LINE
8
BLACK
6
CONTINUOUS
10
141.382
20
-140.091
11
141.287
21
-139.901
0
LINE
8
BLACK
6
CONTINUOUS
10
141.287
20
-139.901
11
141.192
21
-139.52
0
LINE
8
BLACK
6
CONTINUOUS
10
141.192
20
-139.52
11
141.192
21
-139.044
0
LINE
8
BLACK
6
CONTINUOUS
10
141.192
20
-139.044
11
141.287
21
-138.663
0
LINE
8
BLACK
6
CONTINUOUS
10
141.287
20
-138.663
11
141.382
21
-138.472
0
LINE
8
BLACK
6
CONTINUOUS
10
141.382
20
-138.472
11
141.477
21
-138.377
0
LINE
8
BLACK
6
CONTINUOUS
10
141.477
20
-138.377
11
141.668
21
-138.282
0
LINE
8
BLACK
6
CONTINUOUS
10
143.192
20
-140.282
11
143.192
21
-138.948
0
LINE
8
BLACK
6
CONTINUOUS
10
143.192
20
-139.139
11
143.287
21
-139.044
0
LINE
8
BLACK
6
CONTINUOUS
10
143.287
20
-139.044
11
143.477
21
-138.948
0
LINE
8
BLACK
6
CONTINUOUS
10
143.477
20
-138.948
11
143.763
21
-138.948
0
LINE
8
BLACK
6
CONTINUOUS
10
143.763
20
-138.948
11
143.953
21
-139.044
0
LINE
8
BLACK
6
CONTINUOUS
10
143.953
20
-139.044
11
144.049
21
-139.234
0
LINE
8
BLACK
6
CONTINUOUS
10
144.049
20
-139.234
11
144.049
21
-140.282
0
LINE
8
BLACK
6
CONTINUOUS
10
144.049
20
-139.234
11
144.144
21
-139.044
0
LINE
8
BLACK
6
CONTINUOUS
10
144.144
20
-139.044
11
144.334
21
-138.948
0
LINE
8
BLACK
6
CONTINUOUS
10
144.334
20
-138.948
11
144.62
21
-138.948
0
LINE
8
BLACK
6
CONTINUOUS
10
144.62
20
-138.948
11
144.811
21
-139.044
0
LINE
8
BLACK
6
CONTINUOUS
10
144.811
20
-139.044
11
144.906
21
-139.234
0
LINE
8
BLACK
6
CONTINUOUS
10
144.906
20
-139.234
11
144.906
21
-140.282
0
LINE
8
BLACK
6
CONTINUOUS
10
145.858
20
-140.282
11
145.858
21
-138.948
0
LINE
8
BLACK
6
CONTINUOUS
10
145.858
20
-139.139
11
145.953
21
-139.044
0
LINE
8
BLACK
6
CONTINUOUS
10
145.953
20
-139.044
11
146.144
21
-138.948
0
LINE
8
BLACK
6
CONTINUOUS
10
146.144
20
-138.948
11
146.43
21
-138.948
0
LINE
8
BLACK
6
CONTINUOUS
10
146.43
20
-138.948
11
146.62
21
-139.044
0
LINE
8
BLACK
6
CONTINUOUS
10
146.62
20
-139.044
11
146.715
21
-139.234
0
LINE
8
BLACK
6
CONTINUOUS
10
146.715
20
-139.234
11
146.715
21
-140.282
0
LINE
8
BLACK
6
CONTINUOUS
10
146.715
20
-139.234
11
146.811
21
-139.044
0
LINE
8
BLACK
6
CONTINUOUS
10
146.811
20
-139.044
11
147.001
21
-138.948
0
LINE
8
BLACK
6
CONTINUOUS
10
147.001
20
-138.948
11
147.287
21
-138.948
0
LINE
8
BLACK
6
CONTINUOUS
10
147.287
20
-138.948
11
147.477
21
-139.044
0
LINE
8
BLACK
6
CONTINUOUS
10
147.477
20
-139.044
11
147.572
21
-139.234
0
LINE
8
BLACK
6
CONTINUOUS
10
147.572
20
-139.234
11
147.572
21
-140.282
0
LINE
8
BLACK
6
CONTINUOUS
10
151.153
20
-138.186
11
149.439
21
-140.758
0
LINE
8
BLACK
6
CONTINUOUS
10
153.401
20
-138.282
11
153.592
21
-138.282
0
LINE
8
BLACK
6
CONTINUOUS
10
153.592
20
-138.282
11
153.782
21
-138.377
0
LINE
8
BLACK
6
CONTINUOUS
10
153.782
20
-138.377
11
153.877
21
-138.472
0
LINE
8
BLACK
6
CONTINUOUS
10
153.877
20
-138.472
11
153.972
21
-138.663
0
LINE
8
BLACK
6
CONTINUOUS
10
153.972
20
-138.663
11
154.068
21
-139.044
0
LINE
8
BLACK
6
CONTINUOUS
10
154.068
20
-139.044
11
154.068
21
-139.52
0
LINE
8
BLACK
6
CONTINUOUS
10
154.068
20
-139.52
11
153.972
21
-139.901
0
LINE
8
BLACK
6
CONTINUOUS
10
153.972
20
-139.901
11
153.877
21
-140.091
0
LINE
8
BLACK
6
CONTINUOUS
10
153.877
20
-140.091
11
153.782
21
-140.186
0
LINE
8
BLACK
6
CONTINUOUS
10
153.782
20
-140.186
11
153.592
21
-140.282
0
LINE
8
BLACK
6
CONTINUOUS
10
153.592
20
-140.282
11
153.401
21
-140.282
0
LINE
8
BLACK
6
CONTINUOUS
10
153.401
20
-140.282
11
153.211
21
-140.186
0
LINE
8
BLACK
6
CONTINUOUS
10
153.211
20
-140.186
11
153.115
21
-140.091
0
LINE
8
BLACK
6
CONTINUOUS
10
153.115
20
-140.091
11
153.02
21
-139.901
0
LINE
8
BLACK
6
CONTINUOUS
10
153.02
20
-139.901
11
152.925
21
-139.52
0
LINE
8
BLACK
6
CONTINUOUS
10
152.925
20
-139.52
11
152.925
21
-139.044
0
LINE
8
BLACK
6
CONTINUOUS
10
152.925
20
-139.044
11
153.02
21
-138.663
0
LINE
8
BLACK
6
CONTINUOUS
10
153.02
20
-138.663
11
153.115
21
-138.472
0
LINE
8
BLACK
6
CONTINUOUS
10
153.115
20
-138.472
11
153.211
21
-138.377
0
LINE
8
BLACK
6
CONTINUOUS
10
153.211
20
-138.377
11
153.401
21
-138.282
0
LINE
8
BLACK
6
CONTINUOUS
10
154.925
20
-140.091
11
155.02
21
-140.186
0
LINE
8
BLACK
6
CONTINUOUS
10
155.02
20
-140.186
11
154.925
21
-140.282
0
LINE
8
BLACK
6
CONTINUOUS
10
154.925
20
-140.282
11
154.83
21
-140.186
0
LINE
8
BLACK
6
CONTINUOUS
10
154.83
20
-140.186
11
154.925
21
-140.091
0
LINE
8
BLACK
6
CONTINUOUS
10
154.925
20
-140.091
11
154.925
21
-140.282
0
LINE
8
BLACK
6
CONTINUOUS
10
156.925
20
-140.282
11
155.782
21
-140.282
0
LINE
8
BLACK
6
CONTINUOUS
10
156.353
20
-140.282
11
156.353
21
-138.282
0
LINE
8
BLACK
6
CONTINUOUS
10
156.353
20
-138.282
11
156.163
21
-138.567
0
LINE
8
BLACK
6
CONTINUOUS
10
156.163
20
-138.567
11
155.972
21
-138.758
0
LINE
8
BLACK
6
CONTINUOUS
10
155.972
20
-138.758
11
155.782
21
-138.853
0
LINE
8
BLACK
6
CONTINUOUS
10
158.163
20
-138.282
11
158.353
21
-138.282
0
LINE
8
BLACK
6
CONTINUOUS
10
158.353
20
-138.282
11
158.544
21
-138.377
0
LINE
8
BLACK
6
CONTINUOUS
10
158.544
20
-138.377
11
158.639
21
-138.472
0
LINE
8
BLACK
6
CONTINUOUS
10
158.639
20
-138.472
11
158.734
21
-138.663
0
LINE
8
BLACK
6
CONTINUOUS
10
158.734
20
-138.663
11
158.83
21
-139.044
0
LINE
8
BLACK
6
CONTINUOUS
10
158.83
20
-139.044
11
158.83
21
-139.52
0
LINE
8
BLACK
6
CONTINUOUS
10
158.83
20
-139.52
11
158.734
21
-139.901
0
LINE
8
BLACK
6
CONTINUOUS
10
158.734
20
-139.901
11
158.639
21
-140.091
0
LINE
8
BLACK
6
CONTINUOUS
10
158.639
20
-140.091
11
158.544
21
-140.186
0
LINE
8
BLACK
6
CONTINUOUS
10
158.544
20
-140.186
11
158.353
21
-140.282
0
LINE
8
BLACK
6
CONTINUOUS
10
158.353
20
-140.282
11
158.163
21
-140.282
0
LINE
8
BLACK
6
CONTINUOUS
10
158.163
20
-140.282
11
157.972
21
-140.186
0
LINE
8
BLACK
6
CONTINUOUS
10
157.972
20
-140.186
11
157.877
21
-140.091
0
LINE
8
BLACK
6
CONTINUOUS
10
157.877
20
-140.091
11
157.782
21
-139.901
0
LINE
8
BLACK
6
CONTINUOUS
10
157.782
20
-139.901
11
157.687
21
-139.52
0
LINE
8
BLACK
6
CONTINUOUS
10
157.687
20
-139.52
11
157.687
21
-139.044
0
LINE
8
BLACK
6
CONTINUOUS
10
157.687
20
-139.044
11
157.782
21
-138.663
0
LINE
8
BLACK
6
CONTINUOUS
10
157.782
20
-138.663
11
157.877
21
-138.472
0
LINE
8
BLACK
6
CONTINUOUS
10
157.877
20
-138.472
11
157.972
21
-138.377
0
LINE
8
BLACK
6
CONTINUOUS
10
157.972
20
-138.377
11
158.163
21
-138.282
0
LINE
8
BLACK
6
CONTINUOUS
10
160.544
20
-138.282
11
160.163
21
-138.282
0
LINE
8
BLACK
6
CONTINUOUS
10
160.163
20
-138.282
11
159.972
21
-138.377
0
LINE
8
BLACK
6
CONTINUOUS
10
159.972
20
-138.377
11
159.877
21
-138.472
0
LINE
8
BLACK
6
CONTINUOUS
10
159.877
20
-138.472
11
159.687
21
-138.758
0
LINE
8
BLACK
6
CONTINUOUS
10
159.687
20
-138.758
11
159.592
21
-139.139
0
LINE
8
BLACK
6
CONTINUOUS
10
159.592
20
-139.139
11
159.592
21
-139.901
0
LINE
8
BLACK
6
CONTINUOUS
10
159.592
20
-139.901
11
159.687
21
-140.091
0
LINE
8
BLACK
6
CONTINUOUS
10
159.687
20
-140.091
11
159.782
21
-140.186
0
LINE
8
BLACK
6
CONTINUOUS
10
159.782
20
-140.186
11
159.972
21
-140.282
0
LINE
8
BLACK
6
CONTINUOUS
10
159.972
20
-140.282
11
160.353
21
-140.282
0
LINE
8
BLACK
6
CONTINUOUS
10
160.353
20
-140.282
11
160.544
21
-140.186
0
LINE
8
BLACK
6
CONTINUOUS
10
160.544
20
-140.186
11
160.639
21
-140.091
0
LINE
8
BLACK
6
CONTINUOUS
10
160.639
20
-140.091
11
160.734
21
-139.901
0
LINE
8
BLACK
6
CONTINUOUS
10
160.734
20
-139.901
11
160.734
21
-139.425
0
LINE
8
BLACK
6
CONTINUOUS
10
160.734
20
-139.425
11
160.639
21
-139.234
0
LINE
8
BLACK
6
CONTINUOUS
10
160.639
20
-139.234
11
160.544
21
-139.139
0
LINE
8
BLACK
6
CONTINUOUS
10
160.544
20
-139.139
11
160.353
21
-139.044
0
LINE
8
BLACK
6
CONTINUOUS
10
160.353
20
-139.044
11
159.972
21
-139.044
0
LINE
8
BLACK
6
CONTINUOUS
10
159.972
20
-139.044
11
159.782
21
-139.139
0
LINE
8
BLACK
6
CONTINUOUS
10
159.782
20
-139.139
11
159.687
21
-139.234
0
LINE
8
BLACK
6
CONTINUOUS
10
159.687
20
-139.234
11
159.592
21
-139.425
0
LINE
8
BLACK
6
CONTINUOUS
10
161.401
20
-138.282
11
162.639
21
-138.282
0
LINE
8
BLACK
6
CONTINUOUS
10
162.639
20
-138.282
11
161.972
21
-139.044
0
LINE
8
BLACK
6
CONTINUOUS
10
161.972
20
-139.044
11
162.258
21
-139.044
0
LINE
8
BLACK
6
CONTINUOUS
10
162.258
20
-139.044
11
162.449
21
-139.139
0
LINE
8
BLACK
6
CONTINUOUS
10
162.449
20
-139.139
11
162.544
21
-139.234
0
LINE
8
BLACK
6
CONTINUOUS
10
162.544
20
-139.234
11
162.639
21
-139.425
0
LINE
8
BLACK
6
CONTINUOUS
10
162.639
20
-139.425
11
162.639
21
-139.901
0
LINE
8
BLACK
6
CONTINUOUS
10
162.639
20
-139.901
11
162.544
21
-140.091
0
LINE
8
BLACK
6
CONTINUOUS
10
162.544
20
-140.091
11
162.449
21
-140.186
0
LINE
8
BLACK
6
CONTINUOUS
10
162.449
20
-140.186
11
162.258
21
-140.282
0
LINE
8
BLACK
6
CONTINUOUS
10
162.258
20
-140.282
11
161.687
21
-140.282
0
LINE
8
BLACK
6
CONTINUOUS
10
161.687
20
-140.282
11
161.496
21
-140.186
0
LINE
8
BLACK
6
CONTINUOUS
10
161.496
20
-140.186
11
161.401
21
-140.091
0
LINE
8
BLACK
6
CONTINUOUS
10
163.401
20
-138.282
11
163.401
21
-138.663
0
LINE
8
BLACK
6
CONTINUOUS
10
164.163
20
-138.282
11
164.163
21
-138.663
0
LINE
8
BLACK
6
CONTINUOUS
10
166.792
20
-141.044
11
166.696
21
-140.948
0
LINE
8
BLACK
6
CONTINUOUS
10
166.696
20
-140.948
11
166.506
21
-140.663
0
LINE
8
BLACK
6
CONTINUOUS
10
166.506
20
-140.663
11
166.411
21
-140.472
0
LINE
8
BLACK
6
CONTINUOUS
10
166.411
20
-140.472
11
166.315
21
-140.186
0
LINE
8
BLACK
6
CONTINUOUS
10
166.315
20
-140.186
11
166.22
21
-139.71
0
LINE
8
BLACK
6
CONTINUOUS
10
166.22
20
-139.71
11
166.22
21
-139.329
0
LINE
8
BLACK
6
CONTINUOUS
10
166.22
20
-139.329
11
166.315
21
-138.853
0
LINE
8
BLACK
6
CONTINUOUS
10
166.315
20
-138.853
11
166.411
21
-138.567
0
LINE
8
BLACK
6
CONTINUOUS
10
166.411
20
-138.567
11
166.506
21
-138.377
0
LINE
8
BLACK
6
CONTINUOUS
10
166.506
20
-138.377
11
166.696
21
-138.091
0
LINE
8
BLACK
6
CONTINUOUS
10
166.696
20
-138.091
11
166.792
21
-137.996
0
LINE
8
BLACK
6
CONTINUOUS
10
167.934
20
-138.282
11
168.125
21
-138.282
0
LINE
8
BLACK
6
CONTINUOUS
10
168.125
20
-138.282
11
168.315
21
-138.377
0
LINE
8
BLACK
6
CONTINUOUS
10
168.315
20
-138.377
11
168.411
21
-138.472
0
LINE
8
BLACK
6
CONTINUOUS
10
168.411
20
-138.472
11
168.506
21
-138.663
0
LINE
8
BLACK
6
CONTINUOUS
10
168.506
20
-138.663
11
168.601
21
-139.044
0
LINE
8
BLACK
6
CONTINUOUS
10
168.601
20
-139.044
11
168.601
21
-139.52
0
LINE
8
BLACK
6
CONTINUOUS
10
168.601
20
-139.52
11
168.506
21
-139.901
0
LINE
8
BLACK
6
CONTINUOUS
10
168.506
20
-139.901
11
168.411
21
-140.091
0
LINE
8
BLACK
6
CONTINUOUS
10
168.411
20
-140.091
11
168.315
21
-140.186
0
LINE
8
BLACK
6
CONTINUOUS
10
168.315
20
-140.186
11
168.125
21
-140.282
0
LINE
8
BLACK
6
CONTINUOUS
10
168.125
20
-140.282
11
167.934
21
-140.282
0
LINE
8
BLACK
6
CONTINUOUS
10
167.934
20
-140.282
11
167.744
21
-140.186
0
LINE
8
BLACK
6
CONTINUOUS
10
167.744
20
-140.186
11
167.649
21
-140.091
0
LINE
8
BLACK
6
CONTINUOUS
10
167.649
20
-140.091
11
167.553
21
-139.901
0
LINE
8
BLACK
6
CONTINUOUS
10
167.553
20
-139.901
11
167.458
21
-139.52
0
LINE
8
BLACK
6
CONTINUOUS
10
167.458
20
-139.52
11
167.458
21
-139.044
0
LINE
8
BLACK
6
CONTINUOUS
10
167.458
20
-139.044
11
167.553
21
-138.663
0
LINE
8
BLACK
6
CONTINUOUS
10
167.553
20
-138.663
11
167.649
21
-138.472
0
LINE
8
BLACK
6
CONTINUOUS
10
167.649
20
-138.472
11
167.744
21
-138.377
0
LINE
8
BLACK
6
CONTINUOUS
10
167.744
20
-138.377
11
167.934
21
-138.282
0
LINE
8
BLACK
6
CONTINUOUS
10
170.658
20
-140.282
11
170.658
21
-138.282
0
LINE
8
BLACK
6
CONTINUOUS
10
171.515
20
-140.282
11
171.515
21
-139.234
0
LINE
8
BLACK
6
CONTINUOUS
10
171.515
20
-139.234
11
171.42
21
-139.044
0
LINE
8
BLACK
6
CONTINUOUS
10
171.42
20
-139.044
11
171.23
21
-138.948
0
LINE
8
BLACK
6
CONTINUOUS
10
171.23
20
-138.948
11
170.944
21
-138.948
0
LINE
8
BLACK
6
CONTINUOUS
10
170.944
20
-138.948
11
170.753
21
-139.044
0
LINE
8
BLACK
6
CONTINUOUS
10
170.753
20
-139.044
11
170.658
21
-139.139
0
LINE
8
BLACK
6
CONTINUOUS
10
172.753
20
-140.282
11
172.563
21
-140.186
0
LINE
8
BLACK
6
CONTINUOUS
10
172.563
20
-140.186
11
172.468
21
-140.091
0
LINE
8
BLACK
6
CONTINUOUS
10
172.468
20
-140.091
11
172.372
21
-139.901
0
LINE
8
BLACK
6
CONTINUOUS
10
172.372
20
-139.901
11
172.372
21
-139.329
0
LINE
8
BLACK
6
CONTINUOUS
10
172.372
20
-139.329
11
172.468
21
-139.139
0
LINE
8
BLACK
6
CONTINUOUS
10
172.468
20
-139.139
11
172.563
21
-139.044
0
LINE
8
BLACK
6
CONTINUOUS
10
172.563
20
-139.044
11
172.753
21
-138.948
0
LINE
8
BLACK
6
CONTINUOUS
10
172.753
20
-138.948
11
173.039
21
-138.948
0
LINE
8
BLACK
6
CONTINUOUS
10
173.039
20
-138.948
11
173.23
21
-139.044
0
LINE
8
BLACK
6
CONTINUOUS
10
173.23
20
-139.044
11
173.325
21
-139.139
0
LINE
8
BLACK
6
CONTINUOUS
10
173.325
20
-139.139
11
173.42
21
-139.329
0
LINE
8
BLACK
6
CONTINUOUS
10
173.42
20
-139.329
11
173.42
21
-139.901
0
LINE
8
BLACK
6
CONTINUOUS
10
173.42
20
-139.901
11
173.325
21
-140.091
0
LINE
8
BLACK
6
CONTINUOUS
10
173.325
20
-140.091
11
173.23
21
-140.186
0
LINE
8
BLACK
6
CONTINUOUS
10
173.23
20
-140.186
11
173.039
21
-140.282
0
LINE
8
BLACK
6
CONTINUOUS
10
173.039
20
-140.282
11
172.753
21
-140.282
0
LINE
8
BLACK
6
CONTINUOUS
10
174.563
20
-140.282
11
174.372
21
-140.186
0
LINE
8
BLACK
6
CONTINUOUS
10
174.372
20
-140.186
11
174.277
21
-139.996
0
LINE
8
BLACK
6
CONTINUOUS
10
174.277
20
-139.996
11
174.277
21
-138.282
0
LINE
8
BLACK
6
CONTINUOUS
10
176.087
20
-140.186
11
175.896
21
-140.282
0
LINE
8
BLACK
6
CONTINUOUS
10
175.896
20
-140.282
11
175.515
21
-140.282
0
LINE
8
BLACK
6
CONTINUOUS
10
175.515
20
-140.282
11
175.325
21
-140.186
0
LINE
8
BLACK
6
CONTINUOUS
10
175.325
20
-140.186
11
175.23
21
-139.996
0
LINE
8
BLACK
6
CONTINUOUS
10
175.23
20
-139.996
11
175.23
21
-139.234
0
LINE
8
BLACK
6
CONTINUOUS
10
175.23
20
-139.234
11
175.325
21
-139.044
0
LINE
8
BLACK
6
CONTINUOUS
10
175.325
20
-139.044
11
175.515
21
-138.948
0
LINE
8
BLACK
6
CONTINUOUS
10
175.515
20
-138.948
11
175.896
21
-138.948
0
LINE
8
BLACK
6
CONTINUOUS
10
175.896
20
-138.948
11
176.087
21
-139.044
0
LINE
8
BLACK
6
CONTINUOUS
10
176.087
20
-139.044
11
176.182
21
-139.234
0
LINE
8
BLACK
6
CONTINUOUS
10
176.182
20
-139.234
11
176.182
21
-139.425
0
LINE
8
BLACK
6
CONTINUOUS
10
176.182
20
-139.425
11
175.23
21
-139.615
0
LINE
8
BLACK
6
CONTINUOUS
10
176.944
20
-140.186
11
177.134
21
-140.282
0
LINE
8
BLACK
6
CONTINUOUS
10
177.134
20
-140.282
11
177.515
21
-140.282
0
LINE
8
BLACK
6
CONTINUOUS
10
177.515
20
-140.282
11
177.706
21
-140.186
0
LINE
8
BLACK
6
CONTINUOUS
10
177.706
20
-140.186
11
177.801
21
-139.996
0
LINE
8
BLACK
6
CONTINUOUS
10
177.801
20
-139.996
11
177.801
21
-139.901
0
LINE
8
BLACK
6
CONTINUOUS
10
177.801
20
-139.901
11
177.706
21
-139.71
0
LINE
8
BLACK
6
CONTINUOUS
10
177.706
20
-139.71
11
177.515
21
-139.615
0
LINE
8
BLACK
6
CONTINUOUS
10
177.515
20
-139.615
11
177.23
21
-139.615
0
LINE
8
BLACK
6
CONTINUOUS
10
177.23
20
-139.615
11
177.039
21
-139.52
0
LINE
8
BLACK
6
CONTINUOUS
10
177.039
20
-139.52
11
176.944
21
-139.329
0
LINE
8
BLACK
6
CONTINUOUS
10
176.944
20
-139.329
11
176.944
21
-139.234
0
LINE
8
BLACK
6
CONTINUOUS
10
176.944
20
-139.234
11
177.039
21
-139.044
0
LINE
8
BLACK
6
CONTINUOUS
10
177.039
20
-139.044
11
177.23
21
-138.948
0
LINE
8
BLACK
6
CONTINUOUS
10
177.23
20
-138.948
11
177.515
21
-138.948
0
LINE
8
BLACK
6
CONTINUOUS
10
177.515
20
-138.948
11
177.706
21
-139.044
0
LINE
8
BLACK
6
CONTINUOUS
10
179.858
20
-139.52
11
181.382
21
-139.52
0
LINE
8
BLACK
6
CONTINUOUS
10
180.62
20
-140.282
11
180.62
21
-138.758
0
LINE
8
BLACK
6
CONTINUOUS
10
183.439
20
-138.472
11
183.534
21
-138.377
0
LINE
8
BLACK
6
CONTINUOUS
10
183.534
20
-138.377
11
183.725
21
-138.282
0
LINE
8
BLACK
6
CONTINUOUS
10
183.725
20
-138.282
11
184.201
21
-138.282
0
LINE
8
BLACK
6
CONTINUOUS
10
184.201
20
-138.282
11
184.392
21
-138.377
0
LINE
8
BLACK
6
CONTINUOUS
10
184.392
20
-138.377
11
184.487
21
-138.472
0
LINE
8
BLACK
6
CONTINUOUS
10
184.487
20
-138.472
11
184.582
21
-138.663
0
LINE
8
BLACK
6
CONTINUOUS
10
184.582
20
-138.663
11
184.582
21
-138.853
0
LINE
8
BLACK
6
CONTINUOUS
10
184.582
20
-138.853
11
184.487
21
-139.139
0
LINE
8
BLACK
6
CONTINUOUS
10
184.487
20
-139.139
11
183.344
21
-140.282
0
LINE
8
BLACK
6
CONTINUOUS
10
183.344
20
-140.282
11
184.582
21
-140.282
0
LINE
8
BLACK
6
CONTINUOUS
10
186.544
20
-140.186
11
186.734
21
-140.282
0
LINE
8
BLACK
6
CONTINUOUS
10
186.734
20
-140.282
11
187.115
21
-140.282
0
LINE
8
BLACK
6
CONTINUOUS
10
187.115
20
-140.282
11
187.306
21
-140.186
0
LINE
8
BLACK
6
CONTINUOUS
10
187.306
20
-140.186
11
187.401
21
-139.996
0
LINE
8
BLACK
6
CONTINUOUS
10
187.401
20
-139.996
11
187.401
21
-139.901
0
LINE
8
BLACK
6
CONTINUOUS
10
187.401
20
-139.901
11
187.306
21
-139.71
0
LINE
8
BLACK
6
CONTINUOUS
10
187.306
20
-139.71
11
187.115
21
-139.615
0
LINE
8
BLACK
6
CONTINUOUS
10
187.115
20
-139.615
11
186.83
21
-139.615
0
LINE
8
BLACK
6
CONTINUOUS
10
186.83
20
-139.615
11
186.639
21
-139.52
0
LINE
8
BLACK
6
CONTINUOUS
10
186.639
20
-139.52
11
186.544
21
-139.329
0
LINE
8
BLACK
6
CONTINUOUS
10
186.544
20
-139.329
11
186.544
21
-139.234
0
LINE
8
BLACK
6
CONTINUOUS
10
186.544
20
-139.234
11
186.639
21
-139.044
0
LINE
8
BLACK
6
CONTINUOUS
10
186.639
20
-139.044
11
186.83
21
-138.948
0
LINE
8
BLACK
6
CONTINUOUS
10
186.83
20
-138.948
11
187.115
21
-138.948
0
LINE
8
BLACK
6
CONTINUOUS
10
187.115
20
-138.948
11
187.306
21
-139.044
0
LINE
8
BLACK
6
CONTINUOUS
10
188.544
20
-140.282
11
188.353
21
-140.186
0
LINE
8
BLACK
6
CONTINUOUS
10
188.353
20
-140.186
11
188.258
21
-139.996
0
LINE
8
BLACK
6
CONTINUOUS
10
188.258
20
-139.996
11
188.258
21
-138.282
0
LINE
8
BLACK
6
CONTINUOUS
10
189.592
20
-140.282
11
189.401
21
-140.186
0
LINE
8
BLACK
6
CONTINUOUS
10
189.401
20
-140.186
11
189.306
21
-140.091
0
LINE
8
BLACK
6
CONTINUOUS
10
189.306
20
-140.091
11
189.211
21
-139.901
0
LINE
8
BLACK
6
CONTINUOUS
10
189.211
20
-139.901
11
189.211
21
-139.329
0
LINE
8
BLACK
6
CONTINUOUS
10
189.211
20
-139.329
11
189.306
21
-139.139
0
LINE
8
BLACK
6
CONTINUOUS
10
189.306
20
-139.139
11
189.401
21
-139.044
0
LINE
8
BLACK
6
CONTINUOUS
10
189.401
20
-139.044
11
189.592
21
-138.948
0
LINE
8
BLACK
6
CONTINUOUS
10
189.592
20
-138.948
11
189.877
21
-138.948
0
LINE
8
BLACK
6
CONTINUOUS
10
189.877
20
-138.948
11
190.068
21
-139.044
0
LINE
8
BLACK
6
CONTINUOUS
10
190.068
20
-139.044
11
190.163
21
-139.139
0
LINE
8
BLACK
6
CONTINUOUS
10
190.163
20
-139.139
11
190.258
21
-139.329
0
LINE
8
BLACK
6
CONTINUOUS
10
190.258
20
-139.329
11
190.258
21
-139.901
0
LINE
8
BLACK
6
CONTINUOUS
10
190.258
20
-139.901
11
190.163
21
-140.091
0
LINE
8
BLACK
6
CONTINUOUS
10
190.163
20
-140.091
11
190.068
21
-140.186
0
LINE
8
BLACK
6
CONTINUOUS
10
190.068
20
-140.186
11
189.877
21
-140.282
0
LINE
8
BLACK
6
CONTINUOUS
10
189.877
20
-140.282
11
189.592
21
-140.282
0
LINE
8
BLACK
6
CONTINUOUS
10
190.83
20
-138.948
11
191.592
21
-138.948
0
LINE
8
BLACK
6
CONTINUOUS
10
191.115
20
-138.282
11
191.115
21
-139.996
0
LINE
8
BLACK
6
CONTINUOUS
10
191.115
20
-139.996
11
191.211
21
-140.186
0
LINE
8
BLACK
6
CONTINUOUS
10
191.211
20
-140.186
11
191.401
21
-140.282
0
LINE
8
BLACK
6
CONTINUOUS
10
191.401
20
-140.282
11
191.592
21
-140.282
0
LINE
8
BLACK
6
CONTINUOUS
10
192.163
20
-140.186
11
192.353
21
-140.282
0
LINE
8
BLACK
6
CONTINUOUS
10
192.353
20
-140.282
11
192.734
21
-140.282
0
LINE
8
BLACK
6
CONTINUOUS
10
192.734
20
-140.282
11
192.925
21
-140.186
0
LINE
8
BLACK
6
CONTINUOUS
10
192.925
20
-140.186
11
193.02
21
-139.996
0
LINE
8
BLACK
6
CONTINUOUS
10
193.02
20
-139.996
11
193.02
21
-139.901
0
LINE
8
BLACK
6
CONTINUOUS
10
193.02
20
-139.901
11
192.925
21
-139.71
0
LINE
8
BLACK
6
CONTINUOUS
10
192.925
20
-139.71
11
192.734
21
-139.615
0
LINE
8
BLACK
6
CONTINUOUS
10
192.734
20
-139.615
11
192.449
21
-139.615
0
LINE
8
BLACK
6
CONTINUOUS
10
192.449
20
-139.615
11
192.258
21
-139.52
0
LINE
8
BLACK
6
CONTINUOUS
10
192.258
20
-139.52
11
192.163
21
-139.329
0
LINE
8
BLACK
6
CONTINUOUS
10
192.163
20
-139.329
11
192.163
21
-139.234
0
LINE
8
BLACK
6
CONTINUOUS
10
192.163
20
-139.234
11
192.258
21
-139.044
0
LINE
8
BLACK
6
CONTINUOUS
10
192.258
20
-139.044
11
192.449
21
-138.948
0
LINE
8
BLACK
6
CONTINUOUS
10
192.449
20
-138.948
11
192.734
21
-138.948
0
LINE
8
BLACK
6
CONTINUOUS
10
192.734
20
-138.948
11
192.925
21
-139.044
0
LINE
8
BLACK
6
CONTINUOUS
10
193.687
20
-141.044
11
193.782
21
-140.948
0
LINE
8
BLACK
6
CONTINUOUS
10
193.782
20
-140.948
11
193.972
21
-140.663
0
LINE
8
BLACK
6
CONTINUOUS
10
193.972
20
-140.663
11
194.068
21
-140.472
0
LINE
8
BLACK
6
CONTINUOUS
10
194.068
20
-140.472
11
194.163
21
-140.186
0
LINE
8
BLACK
6
CONTINUOUS
10
194.163
20
-140.186
11
194.258
21
-139.71
0
LINE
8
BLACK
6
CONTINUOUS
10
194.258
20
-139.71
11
194.258
21
-139.329
0
LINE
8
BLACK
6
CONTINUOUS
10
194.258
20
-139.329
11
194.163
21
-138.853
0
LINE
8
BLACK
6
CONTINUOUS
10
194.163
20
-138.853
11
194.068
21
-138.567
0
LINE
8
BLACK
6
CONTINUOUS
10
194.068
20
-138.567
11
193.972
21
-138.377
0
LINE
8
BLACK
6
CONTINUOUS
10
193.972
20
-138.377
11
193.782
21
-138.091
0
LINE
8
BLACK
6
CONTINUOUS
10
193.782
20
-138.091
11
193.687
21
-137.996
0
LINE
8
BLACK
6
CONTINUOUS
10
196.982
20
-141.044
11
196.887
21
-140.948
0
LINE
8
BLACK
6
CONTINUOUS
10
196.887
20
-140.948
11
196.696
21
-140.663
0
LINE
8
BLACK
6
CONTINUOUS
10
196.696
20
-140.663
11
196.601
21
-140.472
0
LINE
8
BLACK
6
CONTINUOUS
10
196.601
20
-140.472
11
196.506
21
-140.186
0
LINE
8
BLACK
6
CONTINUOUS
10
196.506
20
-140.186
11
196.411
21
-139.71
0
LINE
8
BLACK
6
CONTINUOUS
10
196.411
20
-139.71
11
196.411
21
-139.329
0
LINE
8
BLACK
6
CONTINUOUS
10
196.411
20
-139.329
11
196.506
21
-138.853
0
LINE
8
BLACK
6
CONTINUOUS
10
196.506
20
-138.853
11
196.601
21
-138.567
0
LINE
8
BLACK
6
CONTINUOUS
10
196.601
20
-138.567
11
196.696
21
-138.377
0
LINE
8
BLACK
6
CONTINUOUS
10
196.696
20
-138.377
11
196.887
21
-138.091
0
LINE
8
BLACK
6
CONTINUOUS
10
196.887
20
-138.091
11
196.982
21
-137.996
0
LINE
8
BLACK
6
CONTINUOUS
10
197.744
20
-138.948
11
197.744
21
-140.282
0
LINE
8
BLACK
6
CONTINUOUS
10
197.744
20
-139.139
11
197.839
21
-139.044
0
LINE
8
BLACK
6
CONTINUOUS
10
197.839
20
-139.044
11
198.03
21
-138.948
0
LINE
8
BLACK
6
CONTINUOUS
10
198.03
20
-138.948
11
198.315
21
-138.948
0
LINE
8
BLACK
6
CONTINUOUS
10
198.315
20
-138.948
11
198.506
21
-139.044
0
LINE
8
BLACK
6
CONTINUOUS
10
198.506
20
-139.044
11
198.601
21
-139.234
0
LINE
8
BLACK
6
CONTINUOUS
10
198.601
20
-139.234
11
198.601
21
-140.282
0
LINE
8
BLACK
6
CONTINUOUS
10
199.839
20
-140.282
11
199.649
21
-140.186
0
LINE
8
BLACK
6
CONTINUOUS
10
199.649
20
-140.186
11
199.553
21
-140.091
0
LINE
8
BLACK
6
CONTINUOUS
10
199.553
20
-140.091
11
199.458
21
-139.901
0
LINE
8
BLACK
6
CONTINUOUS
10
199.458
20
-139.901
11
199.458
21
-139.329
0
LINE
8
BLACK
6
CONTINUOUS
10
199.458
20
-139.329
11
199.553
21
-139.139
0
LINE
8
BLACK
6
CONTINUOUS
10
199.553
20
-139.139
11
199.649
21
-139.044
0
LINE
8
BLACK
6
CONTINUOUS
10
199.649
20
-139.044
11
199.839
21
-138.948
0
LINE
8
BLACK
6
CONTINUOUS
10
199.839
20
-138.948
11
200.125
21
-138.948
0
LINE
8
BLACK
6
CONTINUOUS
10
200.125
20
-138.948
11
200.315
21
-139.044
0
LINE
8
BLACK
6
CONTINUOUS
10
200.315
20
-139.044
11
200.411
21
-139.139
0
LINE
8
BLACK
6
CONTINUOUS
10
200.411
20
-139.139
11
200.506
21
-139.329
0
LINE
8
BLACK
6
CONTINUOUS
10
200.506
20
-139.329
11
200.506
21
-139.901
0
LINE
8
BLACK
6
CONTINUOUS
10
200.506
20
-139.901
11
200.411
21
-140.091
0
LINE
8
BLACK
6
CONTINUOUS
10
200.411
20
-140.091
11
200.315
21
-140.186
0
LINE
8
BLACK
6
CONTINUOUS
10
200.315
20
-140.186
11
200.125
21
-140.282
0
LINE
8
BLACK
6
CONTINUOUS
10
200.125
20
-140.282
11
199.839
21
-140.282
0
LINE
8
BLACK
6
CONTINUOUS
10
201.077
20
-138.948
11
201.839
21
-138.948
0
LINE
8
BLACK
6
CONTINUOUS
10
201.363
20
-138.282
11
201.363
21
-139.996
0
LINE
8
BLACK
6
CONTINUOUS
10
201.363
20
-139.996
11
201.458
21
-140.186
0
LINE
8
BLACK
6
CONTINUOUS
10
201.458
20
-140.186
11
201.649
21
-140.282
0
LINE
8
BLACK
6
CONTINUOUS
10
201.649
20
-140.282
11
201.839
21
-140.282
0
LINE
8
BLACK
6
CONTINUOUS
10
203.706
20
-138.948
11
203.706
21
-140.948
0
LINE
8
BLACK
6
CONTINUOUS
10
203.706
20
-139.044
11
203.896
21
-138.948
0
LINE
8
BLACK
6
CONTINUOUS
10
203.896
20
-138.948
11
204.277
21
-138.948
0
LINE
8
BLACK
6
CONTINUOUS
10
204.277
20
-138.948
11
204.468
21
-139.044
0
LINE
8
BLACK
6
CONTINUOUS
10
204.468
20
-139.044
11
204.563
21
-139.139
0
LINE
8
BLACK
6
CONTINUOUS
10
204.563
20
-139.139
11
204.658
21
-139.329
0
LINE
8
BLACK
6
CONTINUOUS
10
204.658
20
-139.329
11
204.658
21
-139.901
0
LINE
8
BLACK
6
CONTINUOUS
10
204.658
20
-139.901
11
204.563
21
-140.091
0
LINE
8
BLACK
6
CONTINUOUS
10
204.563
20
-140.091
11
204.468
21
-140.186
0
LINE
8
BLACK
6
CONTINUOUS
10
204.468
20
-140.186
11
204.277
21
-140.282
0
LINE
8
BLACK
6
CONTINUOUS
10
204.277
20
-140.282
11
203.896
21
-140.282
0
LINE
8
BLACK
6
CONTINUOUS
10
203.896
20
-140.282
11
203.706
21
-140.186
0
LINE
8
BLACK
6
CONTINUOUS
10
205.801
20
-140.282
11
205.611
21
-140.186
0
LINE
8
BLACK
6
CONTINUOUS
10
205.611
20
-140.186
11
205.515
21
-139.996
0
LINE
8
BLACK
6
CONTINUOUS
10
205.515
20
-139.996
11
205.515
21
-138.282
0
LINE
8
BLACK
6
CONTINUOUS
10
207.42
20
-140.282
11
207.42
21
-139.234
0
LINE
8
BLACK
6
CONTINUOUS
10
207.42
20
-139.234
11
207.325
21
-139.044
0
LINE
8
BLACK
6
CONTINUOUS
10
207.325
20
-139.044
11
207.134
21
-138.948
0
LINE
8
BLACK
6
CONTINUOUS
10
207.134
20
-138.948
11
206.753
21
-138.948
0
LINE
8
BLACK
6
CONTINUOUS
10
206.753
20
-138.948
11
206.563
21
-139.044
0
LINE
8
BLACK
6
CONTINUOUS
10
207.42
20
-140.186
11
207.23
21
-140.282
0
LINE
8
BLACK
6
CONTINUOUS
10
207.23
20
-140.282
11
206.753
21
-140.282
0
LINE
8
BLACK
6
CONTINUOUS
10
206.753
20
-140.282
11
206.563
21
-140.186
0
LINE
8
BLACK
6
CONTINUOUS
10
206.563
20
-140.186
11
206.468
21
-139.996
0
LINE
8
BLACK
6
CONTINUOUS
10
206.468
20
-139.996
11
206.468
21
-139.805
0
LINE
8
BLACK
6
CONTINUOUS
10
206.468
20
-139.805
11
206.563
21
-139.615
0
LINE
8
BLACK
6
CONTINUOUS
10
206.563
20
-139.615
11
206.753
21
-139.52
0
LINE
8
BLACK
6
CONTINUOUS
10
206.753
20
-139.52
11
207.23
21
-139.52
0
LINE
8
BLACK
6
CONTINUOUS
10
207.23
20
-139.52
11
207.42
21
-139.425
0
LINE
8
BLACK
6
CONTINUOUS
10
208.087
20
-138.948
11
208.849
21
-138.948
0
LINE
8
BLACK
6
CONTINUOUS
10
208.372
20
-138.282
11
208.372
21
-139.996
0
LINE
8
BLACK
6
CONTINUOUS
10
208.372
20
-139.996
11
208.468
21
-140.186
0
LINE
8
BLACK
6
CONTINUOUS
10
208.468
20
-140.186
11
208.658
21
-140.282
0
LINE
8
BLACK
6
CONTINUOUS
10
208.658
20
-140.282
11
208.849
21
-140.282
0
LINE
8
BLACK
6
CONTINUOUS
10
210.277
20
-140.186
11
210.087
21
-140.282
0
LINE
8
BLACK
6
CONTINUOUS
10
210.087
20
-140.282
11
209.706
21
-140.282
0
LINE
8
BLACK
6
CONTINUOUS
10
209.706
20
-140.282
11
209.515
21
-140.186
0
LINE
8
BLACK
6
CONTINUOUS
10
209.515
20
-140.186
11
209.42
21
-139.996
0
LINE
8
BLACK
6
CONTINUOUS
10
209.42
20
-139.996
11
209.42
21
-139.234
0
LINE
8
BLACK
6
CONTINUOUS
10
209.42
20
-139.234
11
209.515
21
-139.044
0
LINE
8
BLACK
6
CONTINUOUS
10
209.515
20
-139.044
11
209.706
21
-138.948
0
LINE
8
BLACK
6
CONTINUOUS
10
209.706
20
-138.948
11
210.087
21
-138.948
0
LINE
8
BLACK
6
CONTINUOUS
10
210.087
20
-138.948
11
210.277
21
-139.044
0
LINE
8
BLACK
6
CONTINUOUS
10
210.277
20
-139.044
11
210.372
21
-139.234
0
LINE
8
BLACK
6
CONTINUOUS
10
210.372
20
-139.234
11
210.372
21
-139.425
0
LINE
8
BLACK
6
CONTINUOUS
10
210.372
20
-139.425
11
209.42
21
-139.615
0
LINE
8
BLACK
6
CONTINUOUS
10
212.087
20
-140.282
11
212.087
21
-138.282
0
LINE
8
BLACK
6
CONTINUOUS
10
212.087
20
-140.186
11
211.896
21
-140.282
0
LINE
8
BLACK
6
CONTINUOUS
10
211.896
20
-140.282
11
211.515
21
-140.282
0
LINE
8
BLACK
6
CONTINUOUS
10
211.515
20
-140.282
11
211.325
21
-140.186
0
LINE
8
BLACK
6
CONTINUOUS
10
211.325
20
-140.186
11
211.23
21
-140.091
0
LINE
8
BLACK
6
CONTINUOUS
10
211.23
20
-140.091
11
211.134
21
-139.901
0
LINE
8
BLACK
6
CONTINUOUS
10
211.134
20
-139.901
11
211.134
21
-139.329
0
LINE
8
BLACK
6
CONTINUOUS
10
211.134
20
-139.329
11
211.23
21
-139.139
0
LINE
8
BLACK
6
CONTINUOUS
10
211.23
20
-139.139
11
211.325
21
-139.044
0
LINE
8
BLACK
6
CONTINUOUS
10
211.325
20
-139.044
11
211.515
21
-138.948
0
LINE
8
BLACK
6
CONTINUOUS
10
211.515
20
-138.948
11
211.896
21
-138.948
0
LINE
8
BLACK
6
CONTINUOUS
10
211.896
20
-138.948
11
212.087
21
-139.044
0
LINE
8
BLACK
6
CONTINUOUS
10
212.849
20
-141.044
11
212.944
21
-140.948
0
LINE
8
BLACK
6
CONTINUOUS
10
212.944
20
-140.948
11
213.134
21
-140.663
0
LINE
8
BLACK
6
CONTINUOUS
10
213.134
20
-140.663
11
213.23
21
-140.472
0
LINE
8
BLACK
6
CONTINUOUS
10
213.23
20
-140.472
11
213.325
21
-140.186
0
LINE
8
BLACK
6
CONTINUOUS
10
213.325
20
-140.186
11
213.42
21
-139.71
0
LINE
8
BLACK
6
CONTINUOUS
10
213.42
20
-139.71
11
213.42
21
-139.329
0
LINE
8
BLACK
6
CONTINUOUS
10
213.42
20
-139.329
11
213.325
21
-138.853
0
LINE
8
BLACK
6
CONTINUOUS
10
213.325
20
-138.853
11
213.23
21
-138.567
0
LINE
8
BLACK
6
CONTINUOUS
10
213.23
20
-138.567
11
213.134
21
-138.377
0
LINE
8
BLACK
6
CONTINUOUS
10
213.134
20
-138.377
11
212.944
21
-138.091
0
LINE
8
BLACK
6
CONTINUOUS
10
212.944
20
-138.091
11
212.849
21
-137.996
  0
ENDSEC
  0
EOF
