  0
SECTION
  2
HEADER
  9
$ANGBASE
  50
0.0
  9
$ANGDIR
  70
1
  9
$MEASUREMENT
  70
0
  0
ENDSEC
  0
SECTION
  2
TABLES
  0
TABLE
  2
LTYPE
  70
4
  0
LTYPE
  5
40F
  2
CONTINUOUS
  70
0
  3
Solid line
  72
65
  73
0
  40
0.0
  0
LTYPE
  5
410
  2
DASHDOT
 70
0
  3
Dash Dot ____ _ ____ _
 72
65
 73
4
 40
2.0
 49
1.25
 49
-0.25
 49
0.25
 49
-0.25
  0
LTYPE
  5
411
  2
DASHED
 70
0
  3
Dashed __ __ __ __ __
 72
65
 73
2
 40
0.75
 49
0.5
 49
-0.25
  0
LTYPE
  5
43B
  2
DOTTED
 70
0
  3
Dotted .  .  .  .
 72
65
 73
2
 40
0.2
 49
0.0
 49
-0.2
  0
ENDTAB
  0
TABLE
  2
STYLE
  70
4
  0
STYLE
  2
KICAD
  70
0
  40
0
  41
1
  42
1
  50
0
  71
0
  3
isocp.shx
  0
STYLE
  2
KICADB
  70
0
  40
0
  41
1
  42
1
  50
0
  71
0
  3
isocp.shx
  0
STYLE
  2
KICADI
  70
0
  40
0
  41
1
  42
1
  50
15
  71
0
  3
isocp.shx
  0
STYLE
  2
KICADBI
  70
0
  40
0
  41
1
  42
1
  50
15
  71
0
  3
isocp.shx
  0
ENDTAB
  0
TABLE
  2
LAYER
  70
1
  0
LAYER
  2
BLACK
  70
0
  62
7
  6
CONTINUOUS
  0
ENDTAB
  0
ENDSEC
  0
SECTION
  2
ENTITIES
0
LINE
8
BLACK
6
CONTINUOUS
10
6.43768
20
-4.05639
11
6.44507
21
-4.05863
0
LINE
8
BLACK
6
CONTINUOUS
10
6.44507
20
-4.05863
11
6.45187
21
-4.06226
0
LINE
8
BLACK
6
CONTINUOUS
10
6.45187
20
-4.06226
11
6.45784
21
-4.06716
0
LINE
8
BLACK
6
CONTINUOUS
10
6.45784
20
-4.06716
11
6.46274
21
-4.07313
0
LINE
8
BLACK
6
CONTINUOUS
10
6.46274
20
-4.07313
11
6.46637
21
-4.07993
0
LINE
8
BLACK
6
CONTINUOUS
10
6.46637
20
-4.07993
11
6.46861
21
-4.08732
0
LINE
8
BLACK
6
CONTINUOUS
10
6.46861
20
-4.08732
11
6.46937
21
-4.095
0
LINE
8
BLACK
6
CONTINUOUS
10
6.46937
20
-4.095
11
6.46861
21
-4.10268
0
LINE
8
BLACK
6
CONTINUOUS
10
6.46861
20
-4.10268
11
6.46637
21
-4.11007
0
LINE
8
BLACK
6
CONTINUOUS
10
6.46637
20
-4.11007
11
6.46274
21
-4.11687
0
LINE
8
BLACK
6
CONTINUOUS
10
6.46274
20
-4.11687
11
6.45784
21
-4.12284
0
LINE
8
BLACK
6
CONTINUOUS
10
6.45784
20
-4.12284
11
6.45187
21
-4.12774
0
LINE
8
BLACK
6
CONTINUOUS
10
6.45187
20
-4.12774
11
6.44507
21
-4.13137
0
LINE
8
BLACK
6
CONTINUOUS
10
6.44507
20
-4.13137
11
6.43787
21
-4.13355
0
LINE
8
BLACK
6
CONTINUOUS
10
6.43787
20
-4.13355
11
6.43787
21
-4.25645
0
LINE
8
BLACK
6
CONTINUOUS
10
6.43787
20
-4.25645
11
6.44507
21
-4.25863
0
LINE
8
BLACK
6
CONTINUOUS
10
6.44507
20
-4.25863
11
6.45187
21
-4.26226
0
LINE
8
BLACK
6
CONTINUOUS
10
6.45187
20
-4.26226
11
6.45784
21
-4.26716
0
LINE
8
BLACK
6
CONTINUOUS
10
6.45784
20
-4.26716
11
6.46274
21
-4.27313
0
LINE
8
BLACK
6
CONTINUOUS
10
6.46274
20
-4.27313
11
6.46637
21
-4.27993
0
LINE
8
BLACK
6
CONTINUOUS
10
6.46637
20
-4.27993
11
6.46861
21
-4.28732
0
LINE
8
BLACK
6
CONTINUOUS
10
6.46861
20
-4.28732
11
6.46937
21
-4.295
0
LINE
8
BLACK
6
CONTINUOUS
10
6.46937
20
-4.295
11
6.46861
21
-4.30268
0
LINE
8
BLACK
6
CONTINUOUS
10
6.46861
20
-4.30268
11
6.46637
21
-4.31007
0
LINE
8
BLACK
6
CONTINUOUS
10
6.46637
20
-4.31007
11
6.46274
21
-4.31687
0
LINE
8
BLACK
6
CONTINUOUS
10
6.46274
20
-4.31687
11
6.45784
21
-4.32284
0
LINE
8
BLACK
6
CONTINUOUS
10
6.45784
20
-4.32284
11
6.45187
21
-4.32774
0
LINE
8
BLACK
6
CONTINUOUS
10
6.45187
20
-4.32774
11
6.44507
21
-4.33137
0
LINE
8
BLACK
6
CONTINUOUS
10
6.44507
20
-4.33137
11
6.43768
21
-4.33361
0
LINE
8
BLACK
6
CONTINUOUS
10
6.43768
20
-4.33361
11
6.43
21
-4.33437
0
LINE
8
BLACK
6
CONTINUOUS
10
6.43
20
-4.33437
11
6.42232
21
-4.33361
0
LINE
8
BLACK
6
CONTINUOUS
10
6.42232
20
-4.33361
11
6.41493
21
-4.33137
0
LINE
8
BLACK
6
CONTINUOUS
10
6.41493
20
-4.33137
11
6.40813
21
-4.32774
0
LINE
8
BLACK
6
CONTINUOUS
10
6.40813
20
-4.32774
11
6.40216
21
-4.32284
0
LINE
8
BLACK
6
CONTINUOUS
10
6.40216
20
-4.32284
11
6.39726
21
-4.31687
0
LINE
8
BLACK
6
CONTINUOUS
10
6.39726
20
-4.31687
11
6.39363
21
-4.31007
0
LINE
8
BLACK
6
CONTINUOUS
10
6.39363
20
-4.31007
11
6.39139
21
-4.30268
0
LINE
8
BLACK
6
CONTINUOUS
10
6.39139
20
-4.30268
11
6.39063
21
-4.295
0
LINE
8
BLACK
6
CONTINUOUS
10
6.39063
20
-4.295
11
6.39139
21
-4.28732
0
LINE
8
BLACK
6
CONTINUOUS
10
6.39139
20
-4.28732
11
6.39363
21
-4.27993
0
LINE
8
BLACK
6
CONTINUOUS
10
6.39363
20
-4.27993
11
6.39726
21
-4.27313
0
LINE
8
BLACK
6
CONTINUOUS
10
6.39726
20
-4.27313
11
6.40216
21
-4.26716
0
LINE
8
BLACK
6
CONTINUOUS
10
6.40216
20
-4.26716
11
6.40813
21
-4.26226
0
LINE
8
BLACK
6
CONTINUOUS
10
6.40813
20
-4.26226
11
6.41493
21
-4.25863
0
LINE
8
BLACK
6
CONTINUOUS
10
6.41493
20
-4.25863
11
6.42213
21
-4.25645
0
LINE
8
BLACK
6
CONTINUOUS
10
6.42213
20
-4.25645
11
6.42213
21
-4.13355
0
LINE
8
BLACK
6
CONTINUOUS
10
6.42213
20
-4.13355
11
6.41493
21
-4.13137
0
LINE
8
BLACK
6
CONTINUOUS
10
6.41493
20
-4.13137
11
6.40813
21
-4.12774
0
LINE
8
BLACK
6
CONTINUOUS
10
6.40813
20
-4.12774
11
6.40216
21
-4.12284
0
LINE
8
BLACK
6
CONTINUOUS
10
6.40216
20
-4.12284
11
6.39726
21
-4.11687
0
LINE
8
BLACK
6
CONTINUOUS
10
6.39726
20
-4.11687
11
6.39363
21
-4.11007
0
LINE
8
BLACK
6
CONTINUOUS
10
6.39363
20
-4.11007
11
6.39139
21
-4.10268
0
LINE
8
BLACK
6
CONTINUOUS
10
6.39139
20
-4.10268
11
6.39063
21
-4.095
0
LINE
8
BLACK
6
CONTINUOUS
10
6.39063
20
-4.095
11
6.39139
21
-4.08732
0
LINE
8
BLACK
6
CONTINUOUS
10
6.39139
20
-4.08732
11
6.39363
21
-4.07993
0
LINE
8
BLACK
6
CONTINUOUS
10
6.39363
20
-4.07993
11
6.39726
21
-4.07313
0
LINE
8
BLACK
6
CONTINUOUS
10
6.39726
20
-4.07313
11
6.40216
21
-4.06716
0
LINE
8
BLACK
6
CONTINUOUS
10
6.40216
20
-4.06716
11
6.40813
21
-4.06226
0
LINE
8
BLACK
6
CONTINUOUS
10
6.40813
20
-4.06226
11
6.41493
21
-4.05863
0
LINE
8
BLACK
6
CONTINUOUS
10
6.41493
20
-4.05863
11
6.42232
21
-4.05639
0
LINE
8
BLACK
6
CONTINUOUS
10
6.42232
20
-4.05639
11
6.43
21
-4.05563
0
LINE
8
BLACK
6
CONTINUOUS
10
6.43
20
-4.05563
11
6.43768
21
-4.05639
0
LINE
8
BLACK
6
CONTINUOUS
10
5.92629
20
-2.23242
11
5.9276
21
-2.23257
0
LINE
8
BLACK
6
CONTINUOUS
10
5.9276
20
-2.23257
11
5.92798
21
-2.23281
0
LINE
8
BLACK
6
CONTINUOUS
10
5.92798
20
-2.23281
11
5.92842
21
-2.23291
0
LINE
8
BLACK
6
CONTINUOUS
10
5.92842
20
-2.23291
11
5.92945
21
-2.23373
0
LINE
8
BLACK
6
CONTINUOUS
10
5.92945
20
-2.23373
11
5.93057
21
-2.23443
0
LINE
8
BLACK
6
CONTINUOUS
10
5.93057
20
-2.23443
11
6.01831
21
-2.32217
0
LINE
8
BLACK
6
CONTINUOUS
10
6.01831
20
-2.32217
11
6.02493
21
-2.31863
0
LINE
8
BLACK
6
CONTINUOUS
10
6.02493
20
-2.31863
11
6.03232
21
-2.31639
0
LINE
8
BLACK
6
CONTINUOUS
10
6.03232
20
-2.31639
11
6.04
21
-2.31563
0
LINE
8
BLACK
6
CONTINUOUS
10
6.04
20
-2.31563
11
6.04768
21
-2.31639
0
LINE
8
BLACK
6
CONTINUOUS
10
6.04768
20
-2.31639
11
6.05507
21
-2.31863
0
LINE
8
BLACK
6
CONTINUOUS
10
6.05507
20
-2.31863
11
6.06187
21
-2.32226
0
LINE
8
BLACK
6
CONTINUOUS
10
6.06187
20
-2.32226
11
6.06784
21
-2.32716
0
LINE
8
BLACK
6
CONTINUOUS
10
6.06784
20
-2.32716
11
6.07274
21
-2.33313
0
LINE
8
BLACK
6
CONTINUOUS
10
6.07274
20
-2.33313
11
6.07637
21
-2.33993
0
LINE
8
BLACK
6
CONTINUOUS
10
6.07637
20
-2.33993
11
6.07861
21
-2.34732
0
LINE
8
BLACK
6
CONTINUOUS
10
6.07861
20
-2.34732
11
6.07937
21
-2.355
0
LINE
8
BLACK
6
CONTINUOUS
10
6.07937
20
-2.355
11
6.07861
21
-2.36268
0
LINE
8
BLACK
6
CONTINUOUS
10
6.07861
20
-2.36268
11
6.07637
21
-2.37007
0
LINE
8
BLACK
6
CONTINUOUS
10
6.07637
20
-2.37007
11
6.07274
21
-2.37687
0
LINE
8
BLACK
6
CONTINUOUS
10
6.07274
20
-2.37687
11
6.06784
21
-2.38284
0
LINE
8
BLACK
6
CONTINUOUS
10
6.06784
20
-2.38284
11
6.06187
21
-2.38774
0
LINE
8
BLACK
6
CONTINUOUS
10
6.06187
20
-2.38774
11
6.05507
21
-2.39137
0
LINE
8
BLACK
6
CONTINUOUS
10
6.05507
20
-2.39137
11
6.04768
21
-2.39361
0
LINE
8
BLACK
6
CONTINUOUS
10
6.04768
20
-2.39361
11
6.04
21
-2.39437
0
LINE
8
BLACK
6
CONTINUOUS
10
6.04
20
-2.39437
11
6.03232
21
-2.39361
0
LINE
8
BLACK
6
CONTINUOUS
10
6.03232
20
-2.39361
11
6.02493
21
-2.39137
0
LINE
8
BLACK
6
CONTINUOUS
10
6.02493
20
-2.39137
11
6.01813
21
-2.38774
0
LINE
8
BLACK
6
CONTINUOUS
10
6.01813
20
-2.38774
11
6.01216
21
-2.38284
0
LINE
8
BLACK
6
CONTINUOUS
10
6.01216
20
-2.38284
11
6.00726
21
-2.37687
0
LINE
8
BLACK
6
CONTINUOUS
10
6.00726
20
-2.37687
11
6.00363
21
-2.37007
0
LINE
8
BLACK
6
CONTINUOUS
10
6.00363
20
-2.37007
11
6.00139
21
-2.36268
0
LINE
8
BLACK
6
CONTINUOUS
10
6.00139
20
-2.36268
11
6.00063
21
-2.355
0
LINE
8
BLACK
6
CONTINUOUS
10
6.00063
20
-2.355
11
6.00139
21
-2.34732
0
LINE
8
BLACK
6
CONTINUOUS
10
6.00139
20
-2.34732
11
6.00363
21
-2.33993
0
LINE
8
BLACK
6
CONTINUOUS
10
6.00363
20
-2.33993
11
6.00717
21
-2.33331
0
LINE
8
BLACK
6
CONTINUOUS
10
6.00717
20
-2.33331
11
5.92174
21
-2.24787
0
LINE
8
BLACK
6
CONTINUOUS
10
5.92174
20
-2.24787
11
5.57326
21
-2.24787
0
LINE
8
BLACK
6
CONTINUOUS
10
5.57326
20
-2.24787
11
5.52287
21
-2.29826
0
LINE
8
BLACK
6
CONTINUOUS
10
5.52287
20
-2.29826
11
5.52287
21
-4.11674
0
LINE
8
BLACK
6
CONTINUOUS
10
5.52287
20
-4.11674
11
5.63831
21
-4.23217
0
LINE
8
BLACK
6
CONTINUOUS
10
5.63831
20
-4.23217
11
5.64493
21
-4.22863
0
LINE
8
BLACK
6
CONTINUOUS
10
5.64493
20
-4.22863
11
5.65232
21
-4.22639
0
LINE
8
BLACK
6
CONTINUOUS
10
5.65232
20
-4.22639
11
5.66
21
-4.22563
0
LINE
8
BLACK
6
CONTINUOUS
10
5.66
20
-4.22563
11
5.66768
21
-4.22639
0
LINE
8
BLACK
6
CONTINUOUS
10
5.66768
20
-4.22639
11
5.67507
21
-4.22863
0
LINE
8
BLACK
6
CONTINUOUS
10
5.67507
20
-4.22863
11
5.68187
21
-4.23226
0
LINE
8
BLACK
6
CONTINUOUS
10
5.68187
20
-4.23226
11
5.68784
21
-4.23716
0
LINE
8
BLACK
6
CONTINUOUS
10
5.68784
20
-4.23716
11
5.69274
21
-4.24313
0
LINE
8
BLACK
6
CONTINUOUS
10
5.69274
20
-4.24313
11
5.69637
21
-4.24993
0
LINE
8
BLACK
6
CONTINUOUS
10
5.69637
20
-4.24993
11
5.69861
21
-4.25732
0
LINE
8
BLACK
6
CONTINUOUS
10
5.69861
20
-4.25732
11
5.69937
21
-4.265
0
LINE
8
BLACK
6
CONTINUOUS
10
5.69937
20
-4.265
11
5.69861
21
-4.27268
0
LINE
8
BLACK
6
CONTINUOUS
10
5.69861
20
-4.27268
11
5.69637
21
-4.28007
0
LINE
8
BLACK
6
CONTINUOUS
10
5.69637
20
-4.28007
11
5.69274
21
-4.28687
0
LINE
8
BLACK
6
CONTINUOUS
10
5.69274
20
-4.28687
11
5.68784
21
-4.29284
0
LINE
8
BLACK
6
CONTINUOUS
10
5.68784
20
-4.29284
11
5.68187
21
-4.29774
0
LINE
8
BLACK
6
CONTINUOUS
10
5.68187
20
-4.29774
11
5.67507
21
-4.30137
0
LINE
8
BLACK
6
CONTINUOUS
10
5.67507
20
-4.30137
11
5.66768
21
-4.30361
0
LINE
8
BLACK
6
CONTINUOUS
10
5.66768
20
-4.30361
11
5.66
21
-4.30437
0
LINE
8
BLACK
6
CONTINUOUS
10
5.66
20
-4.30437
11
5.65232
21
-4.30361
0
LINE
8
BLACK
6
CONTINUOUS
10
5.65232
20
-4.30361
11
5.64493
21
-4.30137
0
LINE
8
BLACK
6
CONTINUOUS
10
5.64493
20
-4.30137
11
5.63813
21
-4.29774
0
LINE
8
BLACK
6
CONTINUOUS
10
5.63813
20
-4.29774
11
5.63216
21
-4.29284
0
LINE
8
BLACK
6
CONTINUOUS
10
5.63216
20
-4.29284
11
5.62726
21
-4.28687
0
LINE
8
BLACK
6
CONTINUOUS
10
5.62726
20
-4.28687
11
5.62363
21
-4.28007
0
LINE
8
BLACK
6
CONTINUOUS
10
5.62363
20
-4.28007
11
5.62139
21
-4.27268
0
LINE
8
BLACK
6
CONTINUOUS
10
5.62139
20
-4.27268
11
5.62063
21
-4.265
0
LINE
8
BLACK
6
CONTINUOUS
10
5.62063
20
-4.265
11
5.62139
21
-4.25732
0
LINE
8
BLACK
6
CONTINUOUS
10
5.62139
20
-4.25732
11
5.62363
21
-4.24993
0
LINE
8
BLACK
6
CONTINUOUS
10
5.62363
20
-4.24993
11
5.62717
21
-4.24331
0
LINE
8
BLACK
6
CONTINUOUS
10
5.62717
20
-4.24331
11
5.50943
21
-4.12557
0
LINE
8
BLACK
6
CONTINUOUS
10
5.50943
20
-4.12557
11
5.50873
21
-4.12445
0
LINE
8
BLACK
6
CONTINUOUS
10
5.50873
20
-4.12445
11
5.50791
21
-4.12342
0
LINE
8
BLACK
6
CONTINUOUS
10
5.50791
20
-4.12342
11
5.50781
21
-4.12298
0
LINE
8
BLACK
6
CONTINUOUS
10
5.50781
20
-4.12298
11
5.50757
21
-4.1226
0
LINE
8
BLACK
6
CONTINUOUS
10
5.50757
20
-4.1226
11
5.50742
21
-4.12129
0
LINE
8
BLACK
6
CONTINUOUS
10
5.50742
20
-4.12129
11
5.50713
21
-4.12
0
LINE
8
BLACK
6
CONTINUOUS
10
5.50713
20
-4.12
11
5.50713
21
-2.295
0
LINE
8
BLACK
6
CONTINUOUS
10
5.50713
20
-2.295
11
5.50742
21
-2.29371
0
LINE
8
BLACK
6
CONTINUOUS
10
5.50742
20
-2.29371
11
5.50757
21
-2.2924
0
LINE
8
BLACK
6
CONTINUOUS
10
5.50757
20
-2.2924
11
5.50781
21
-2.29202
0
LINE
8
BLACK
6
CONTINUOUS
10
5.50781
20
-2.29202
11
5.50791
21
-2.29158
0
LINE
8
BLACK
6
CONTINUOUS
10
5.50791
20
-2.29158
11
5.50873
21
-2.29055
0
LINE
8
BLACK
6
CONTINUOUS
10
5.50873
20
-2.29055
11
5.50943
21
-2.28943
0
LINE
8
BLACK
6
CONTINUOUS
10
5.50943
20
-2.28943
11
5.56443
21
-2.23443
0
LINE
8
BLACK
6
CONTINUOUS
10
5.56443
20
-2.23443
11
5.56555
21
-2.23373
0
LINE
8
BLACK
6
CONTINUOUS
10
5.56555
20
-2.23373
11
5.56658
21
-2.23291
0
LINE
8
BLACK
6
CONTINUOUS
10
5.56658
20
-2.23291
11
5.56702
21
-2.23281
0
LINE
8
BLACK
6
CONTINUOUS
10
5.56702
20
-2.23281
11
5.5674
21
-2.23257
0
LINE
8
BLACK
6
CONTINUOUS
10
5.5674
20
-2.23257
11
5.56871
21
-2.23242
0
LINE
8
BLACK
6
CONTINUOUS
10
5.56871
20
-2.23242
11
5.57
21
-2.23213
0
LINE
8
BLACK
6
CONTINUOUS
10
5.57
20
-2.23213
11
5.925
21
-2.23213
0
LINE
8
BLACK
6
CONTINUOUS
10
5.925
20
-2.23213
11
5.92629
21
-2.23242
0
LINE
8
BLACK
6
CONTINUOUS
10
5.92861
20
-2.78639
11
5.93599
21
-2.78863
0
LINE
8
BLACK
6
CONTINUOUS
10
5.93599
20
-2.78863
11
5.9428
21
-2.79226
0
LINE
8
BLACK
6
CONTINUOUS
10
5.9428
20
-2.79226
11
5.94876
21
-2.79716
0
LINE
8
BLACK
6
CONTINUOUS
10
5.94876
20
-2.79716
11
5.95366
21
-2.80313
0
LINE
8
BLACK
6
CONTINUOUS
10
5.95366
20
-2.80313
11
5.9573
21
-2.80993
0
LINE
8
BLACK
6
CONTINUOUS
10
5.9573
20
-2.80993
11
5.95954
21
-2.81732
0
LINE
8
BLACK
6
CONTINUOUS
10
5.95954
20
-2.81732
11
5.9603
21
-2.825
0
LINE
8
BLACK
6
CONTINUOUS
10
5.9603
20
-2.825
11
5.95954
21
-2.83268
0
LINE
8
BLACK
6
CONTINUOUS
10
5.95954
20
-2.83268
11
5.9573
21
-2.84007
0
LINE
8
BLACK
6
CONTINUOUS
10
5.9573
20
-2.84007
11
5.95366
21
-2.84687
0
LINE
8
BLACK
6
CONTINUOUS
10
5.95366
20
-2.84687
11
5.94876
21
-2.85284
0
LINE
8
BLACK
6
CONTINUOUS
10
5.94876
20
-2.85284
11
5.9428
21
-2.85774
0
LINE
8
BLACK
6
CONTINUOUS
10
5.9428
20
-2.85774
11
5.93599
21
-2.86137
0
LINE
8
BLACK
6
CONTINUOUS
10
5.93599
20
-2.86137
11
5.9288
21
-2.86355
0
LINE
8
BLACK
6
CONTINUOUS
10
5.9288
20
-2.86355
11
5.9288
21
-3.21766
0
LINE
8
BLACK
6
CONTINUOUS
10
5.9288
20
-3.21766
11
6.01025
21
-3.29912
0
LINE
8
BLACK
6
CONTINUOUS
10
6.01025
20
-3.29912
11
6.01096
21
-3.30024
0
LINE
8
BLACK
6
CONTINUOUS
10
6.01096
20
-3.30024
11
6.01178
21
-3.30127
0
LINE
8
BLACK
6
CONTINUOUS
10
6.01178
20
-3.30127
11
6.01188
21
-3.3017
0
LINE
8
BLACK
6
CONTINUOUS
10
6.01188
20
-3.3017
11
6.01212
21
-3.30208
0
LINE
8
BLACK
6
CONTINUOUS
10
6.01212
20
-3.30208
11
6.01226
21
-3.3034
0
LINE
8
BLACK
6
CONTINUOUS
10
6.01226
20
-3.3034
11
6.01256
21
-3.30468
0
LINE
8
BLACK
6
CONTINUOUS
10
6.01256
20
-3.30468
11
6.01256
21
-4.17532
0
LINE
8
BLACK
6
CONTINUOUS
10
6.01256
20
-4.17532
11
6.01226
21
-4.1766
0
LINE
8
BLACK
6
CONTINUOUS
10
6.01226
20
-4.1766
11
6.01212
21
-4.17792
0
LINE
8
BLACK
6
CONTINUOUS
10
6.01212
20
-4.17792
11
6.01188
21
-4.1783
0
LINE
8
BLACK
6
CONTINUOUS
10
6.01188
20
-4.1783
11
6.01178
21
-4.17873
0
LINE
8
BLACK
6
CONTINUOUS
10
6.01178
20
-4.17873
11
6.01096
21
-4.17976
0
LINE
8
BLACK
6
CONTINUOUS
10
6.01096
20
-4.17976
11
6.01025
21
-4.18088
0
LINE
8
BLACK
6
CONTINUOUS
10
6.01025
20
-4.18088
11
6.00283
21
-4.18831
0
LINE
8
BLACK
6
CONTINUOUS
10
6.00283
20
-4.18831
11
6.00637
21
-4.19493
0
LINE
8
BLACK
6
CONTINUOUS
10
6.00637
20
-4.19493
11
6.00861
21
-4.20232
0
LINE
8
BLACK
6
CONTINUOUS
10
6.00861
20
-4.20232
11
6.00937
21
-4.21
0
LINE
8
BLACK
6
CONTINUOUS
10
6.00937
20
-4.21
11
6.00861
21
-4.21768
0
LINE
8
BLACK
6
CONTINUOUS
10
6.00861
20
-4.21768
11
6.00637
21
-4.22507
0
LINE
8
BLACK
6
CONTINUOUS
10
6.00637
20
-4.22507
11
6.00274
21
-4.23187
0
LINE
8
BLACK
6
CONTINUOUS
10
6.00274
20
-4.23187
11
5.99784
21
-4.23784
0
LINE
8
BLACK
6
CONTINUOUS
10
5.99784
20
-4.23784
11
5.99187
21
-4.24274
0
LINE
8
BLACK
6
CONTINUOUS
10
5.99187
20
-4.24274
11
5.98507
21
-4.24637
0
LINE
8
BLACK
6
CONTINUOUS
10
5.98507
20
-4.24637
11
5.97768
21
-4.24861
0
LINE
8
BLACK
6
CONTINUOUS
10
5.97768
20
-4.24861
11
5.97
21
-4.24937
0
LINE
8
BLACK
6
CONTINUOUS
10
5.97
20
-4.24937
11
5.96232
21
-4.24861
0
LINE
8
BLACK
6
CONTINUOUS
10
5.96232
20
-4.24861
11
5.95493
21
-4.24637
0
LINE
8
BLACK
6
CONTINUOUS
10
5.95493
20
-4.24637
11
5.94813
21
-4.24274
0
LINE
8
BLACK
6
CONTINUOUS
10
5.94813
20
-4.24274
11
5.94216
21
-4.23784
0
LINE
8
BLACK
6
CONTINUOUS
10
5.94216
20
-4.23784
11
5.93726
21
-4.23187
0
LINE
8
BLACK
6
CONTINUOUS
10
5.93726
20
-4.23187
11
5.93363
21
-4.22507
0
LINE
8
BLACK
6
CONTINUOUS
10
5.93363
20
-4.22507
11
5.93139
21
-4.21768
0
LINE
8
BLACK
6
CONTINUOUS
10
5.93139
20
-4.21768
11
5.93063
21
-4.21
0
LINE
8
BLACK
6
CONTINUOUS
10
5.93063
20
-4.21
11
5.93139
21
-4.20232
0
LINE
8
BLACK
6
CONTINUOUS
10
5.93139
20
-4.20232
11
5.93363
21
-4.19493
0
LINE
8
BLACK
6
CONTINUOUS
10
5.93363
20
-4.19493
11
5.93726
21
-4.18813
0
LINE
8
BLACK
6
CONTINUOUS
10
5.93726
20
-4.18813
11
5.94216
21
-4.18216
0
LINE
8
BLACK
6
CONTINUOUS
10
5.94216
20
-4.18216
11
5.94813
21
-4.17726
0
LINE
8
BLACK
6
CONTINUOUS
10
5.94813
20
-4.17726
11
5.95493
21
-4.17363
0
LINE
8
BLACK
6
CONTINUOUS
10
5.95493
20
-4.17363
11
5.96232
21
-4.17139
0
LINE
8
BLACK
6
CONTINUOUS
10
5.96232
20
-4.17139
11
5.97
21
-4.17063
0
LINE
8
BLACK
6
CONTINUOUS
10
5.97
20
-4.17063
11
5.97768
21
-4.17139
0
LINE
8
BLACK
6
CONTINUOUS
10
5.97768
20
-4.17139
11
5.98507
21
-4.17363
0
LINE
8
BLACK
6
CONTINUOUS
10
5.98507
20
-4.17363
11
5.99169
21
-4.17717
0
LINE
8
BLACK
6
CONTINUOUS
10
5.99169
20
-4.17717
11
5.99681
21
-4.17205
0
LINE
8
BLACK
6
CONTINUOUS
10
5.99681
20
-4.17205
11
5.99681
21
-3.30795
0
LINE
8
BLACK
6
CONTINUOUS
10
5.99681
20
-3.30795
11
5.91536
21
-3.22649
0
LINE
8
BLACK
6
CONTINUOUS
10
5.91536
20
-3.22649
11
5.91465
21
-3.22537
0
LINE
8
BLACK
6
CONTINUOUS
10
5.91465
20
-3.22537
11
5.91383
21
-3.22434
0
LINE
8
BLACK
6
CONTINUOUS
10
5.91383
20
-3.22434
11
5.91373
21
-3.2239
0
LINE
8
BLACK
6
CONTINUOUS
10
5.91373
20
-3.2239
11
5.91349
21
-3.22353
0
LINE
8
BLACK
6
CONTINUOUS
10
5.91349
20
-3.22353
11
5.91335
21
-3.22221
0
LINE
8
BLACK
6
CONTINUOUS
10
5.91335
20
-3.22221
11
5.91305
21
-3.22093
0
LINE
8
BLACK
6
CONTINUOUS
10
5.91305
20
-3.22093
11
5.91305
21
-2.86355
0
LINE
8
BLACK
6
CONTINUOUS
10
5.91305
20
-2.86355
11
5.90586
21
-2.86137
0
LINE
8
BLACK
6
CONTINUOUS
10
5.90586
20
-2.86137
11
5.89905
21
-2.85774
0
LINE
8
BLACK
6
CONTINUOUS
10
5.89905
20
-2.85774
11
5.89309
21
-2.85284
0
LINE
8
BLACK
6
CONTINUOUS
10
5.89309
20
-2.85284
11
5.88819
21
-2.84687
0
LINE
8
BLACK
6
CONTINUOUS
10
5.88819
20
-2.84687
11
5.88455
21
-2.84007
0
LINE
8
BLACK
6
CONTINUOUS
10
5.88455
20
-2.84007
11
5.88231
21
-2.83268
0
LINE
8
BLACK
6
CONTINUOUS
10
5.88231
20
-2.83268
11
5.88156
21
-2.825
0
LINE
8
BLACK
6
CONTINUOUS
10
5.88156
20
-2.825
11
5.88231
21
-2.81732
0
LINE
8
BLACK
6
CONTINUOUS
10
5.88231
20
-2.81732
11
5.88455
21
-2.80993
0
LINE
8
BLACK
6
CONTINUOUS
10
5.88455
20
-2.80993
11
5.88819
21
-2.80313
0
LINE
8
BLACK
6
CONTINUOUS
10
5.88819
20
-2.80313
11
5.89309
21
-2.79716
0
LINE
8
BLACK
6
CONTINUOUS
10
5.89309
20
-2.79716
11
5.89905
21
-2.79226
0
LINE
8
BLACK
6
CONTINUOUS
10
5.89905
20
-2.79226
11
5.90586
21
-2.78863
0
LINE
8
BLACK
6
CONTINUOUS
10
5.90586
20
-2.78863
11
5.91324
21
-2.78639
0
LINE
8
BLACK
6
CONTINUOUS
10
5.91324
20
-2.78639
11
5.92093
21
-2.78563
0
LINE
8
BLACK
6
CONTINUOUS
10
5.92093
20
-2.78563
11
5.92861
21
-2.78639
0
LINE
8
BLACK
6
CONTINUOUS
10
5.71768
20
-2.30639
11
5.72507
21
-2.30863
0
LINE
8
BLACK
6
CONTINUOUS
10
5.72507
20
-2.30863
11
5.73187
21
-2.31226
0
LINE
8
BLACK
6
CONTINUOUS
10
5.73187
20
-2.31226
11
5.73784
21
-2.31716
0
LINE
8
BLACK
6
CONTINUOUS
10
5.73784
20
-2.31716
11
5.74274
21
-2.32313
0
LINE
8
BLACK
6
CONTINUOUS
10
5.74274
20
-2.32313
11
5.74637
21
-2.32993
0
LINE
8
BLACK
6
CONTINUOUS
10
5.74637
20
-2.32993
11
5.74861
21
-2.33732
0
LINE
8
BLACK
6
CONTINUOUS
10
5.74861
20
-2.33732
11
5.74937
21
-2.345
0
LINE
8
BLACK
6
CONTINUOUS
10
5.74937
20
-2.345
11
5.74861
21
-2.35268
0
LINE
8
BLACK
6
CONTINUOUS
10
5.74861
20
-2.35268
11
5.74637
21
-2.36007
0
LINE
8
BLACK
6
CONTINUOUS
10
5.74637
20
-2.36007
11
5.74274
21
-2.36687
0
LINE
8
BLACK
6
CONTINUOUS
10
5.74274
20
-2.36687
11
5.73784
21
-2.37284
0
LINE
8
BLACK
6
CONTINUOUS
10
5.73784
20
-2.37284
11
5.73187
21
-2.37774
0
LINE
8
BLACK
6
CONTINUOUS
10
5.73187
20
-2.37774
11
5.72507
21
-2.38137
0
LINE
8
BLACK
6
CONTINUOUS
10
5.72507
20
-2.38137
11
5.71768
21
-2.38361
0
LINE
8
BLACK
6
CONTINUOUS
10
5.71768
20
-2.38361
11
5.71
21
-2.38437
0
LINE
8
BLACK
6
CONTINUOUS
10
5.71
20
-2.38437
11
5.70232
21
-2.38361
0
LINE
8
BLACK
6
CONTINUOUS
10
5.70232
20
-2.38361
11
5.69493
21
-2.38137
0
LINE
8
BLACK
6
CONTINUOUS
10
5.69493
20
-2.38137
11
5.68813
21
-2.37774
0
LINE
8
BLACK
6
CONTINUOUS
10
5.68813
20
-2.37774
11
5.68216
21
-2.37284
0
LINE
8
BLACK
6
CONTINUOUS
10
5.68216
20
-2.37284
11
5.67726
21
-2.36687
0
LINE
8
BLACK
6
CONTINUOUS
10
5.67726
20
-2.36687
11
5.67363
21
-2.36007
0
LINE
8
BLACK
6
CONTINUOUS
10
5.67363
20
-2.36007
11
5.67145
21
-2.35287
0
LINE
8
BLACK
6
CONTINUOUS
10
5.67145
20
-2.35287
11
5.66326
21
-2.35287
0
LINE
8
BLACK
6
CONTINUOUS
10
5.66326
20
-2.35287
11
5.60787
21
-2.40826
0
LINE
8
BLACK
6
CONTINUOUS
10
5.60787
20
-2.40826
11
5.60787
21
-2.94674
0
LINE
8
BLACK
6
CONTINUOUS
10
5.60787
20
-2.94674
11
5.73326
21
-3.07213
0
LINE
8
BLACK
6
CONTINUOUS
10
5.73326
20
-3.07213
11
5.78645
21
-3.07213
0
LINE
8
BLACK
6
CONTINUOUS
10
5.78645
20
-3.07213
11
5.78863
21
-3.06493
0
LINE
8
BLACK
6
CONTINUOUS
10
5.78863
20
-3.06493
11
5.79226
21
-3.05813
0
LINE
8
BLACK
6
CONTINUOUS
10
5.79226
20
-3.05813
11
5.79716
21
-3.05216
0
LINE
8
BLACK
6
CONTINUOUS
10
5.79716
20
-3.05216
11
5.80313
21
-3.04726
0
LINE
8
BLACK
6
CONTINUOUS
10
5.80313
20
-3.04726
11
5.80993
21
-3.04363
0
LINE
8
BLACK
6
CONTINUOUS
10
5.80993
20
-3.04363
11
5.81732
21
-3.04139
0
LINE
8
BLACK
6
CONTINUOUS
10
5.81732
20
-3.04139
11
5.825
21
-3.04063
0
LINE
8
BLACK
6
CONTINUOUS
10
5.825
20
-3.04063
11
5.83268
21
-3.04139
0
LINE
8
BLACK
6
CONTINUOUS
10
5.83268
20
-3.04139
11
5.84007
21
-3.04363
0
LINE
8
BLACK
6
CONTINUOUS
10
5.84007
20
-3.04363
11
5.84687
21
-3.04726
0
LINE
8
BLACK
6
CONTINUOUS
10
5.84687
20
-3.04726
11
5.85284
21
-3.05216
0
LINE
8
BLACK
6
CONTINUOUS
10
5.85284
20
-3.05216
11
5.85774
21
-3.05813
0
LINE
8
BLACK
6
CONTINUOUS
10
5.85774
20
-3.05813
11
5.86137
21
-3.06493
0
LINE
8
BLACK
6
CONTINUOUS
10
5.86137
20
-3.06493
11
5.86361
21
-3.07232
0
LINE
8
BLACK
6
CONTINUOUS
10
5.86361
20
-3.07232
11
5.86437
21
-3.08
0
LINE
8
BLACK
6
CONTINUOUS
10
5.86437
20
-3.08
11
5.86361
21
-3.08768
0
LINE
8
BLACK
6
CONTINUOUS
10
5.86361
20
-3.08768
11
5.86137
21
-3.09507
0
LINE
8
BLACK
6
CONTINUOUS
10
5.86137
20
-3.09507
11
5.85774
21
-3.10187
0
LINE
8
BLACK
6
CONTINUOUS
10
5.85774
20
-3.10187
11
5.85284
21
-3.10784
0
LINE
8
BLACK
6
CONTINUOUS
10
5.85284
20
-3.10784
11
5.84687
21
-3.11274
0
LINE
8
BLACK
6
CONTINUOUS
10
5.84687
20
-3.11274
11
5.84007
21
-3.11637
0
LINE
8
BLACK
6
CONTINUOUS
10
5.84007
20
-3.11637
11
5.83268
21
-3.11861
0
LINE
8
BLACK
6
CONTINUOUS
10
5.83268
20
-3.11861
11
5.825
21
-3.11937
0
LINE
8
BLACK
6
CONTINUOUS
10
5.825
20
-3.11937
11
5.81732
21
-3.11861
0
LINE
8
BLACK
6
CONTINUOUS
10
5.81732
20
-3.11861
11
5.80993
21
-3.11637
0
LINE
8
BLACK
6
CONTINUOUS
10
5.80993
20
-3.11637
11
5.80313
21
-3.11274
0
LINE
8
BLACK
6
CONTINUOUS
10
5.80313
20
-3.11274
11
5.79716
21
-3.10784
0
LINE
8
BLACK
6
CONTINUOUS
10
5.79716
20
-3.10784
11
5.79226
21
-3.10187
0
LINE
8
BLACK
6
CONTINUOUS
10
5.79226
20
-3.10187
11
5.78863
21
-3.09507
0
LINE
8
BLACK
6
CONTINUOUS
10
5.78863
20
-3.09507
11
5.78645
21
-3.08787
0
LINE
8
BLACK
6
CONTINUOUS
10
5.78645
20
-3.08787
11
5.73
21
-3.08787
0
LINE
8
BLACK
6
CONTINUOUS
10
5.73
20
-3.08787
11
5.72871
21
-3.08758
0
LINE
8
BLACK
6
CONTINUOUS
10
5.72871
20
-3.08758
11
5.7274
21
-3.08743
0
LINE
8
BLACK
6
CONTINUOUS
10
5.7274
20
-3.08743
11
5.72702
21
-3.08719
0
LINE
8
BLACK
6
CONTINUOUS
10
5.72702
20
-3.08719
11
5.72658
21
-3.08709
0
LINE
8
BLACK
6
CONTINUOUS
10
5.72658
20
-3.08709
11
5.72555
21
-3.08627
0
LINE
8
BLACK
6
CONTINUOUS
10
5.72555
20
-3.08627
11
5.72443
21
-3.08557
0
LINE
8
BLACK
6
CONTINUOUS
10
5.72443
20
-3.08557
11
5.59443
21
-2.95557
0
LINE
8
BLACK
6
CONTINUOUS
10
5.59443
20
-2.95557
11
5.59373
21
-2.95445
0
LINE
8
BLACK
6
CONTINUOUS
10
5.59373
20
-2.95445
11
5.59291
21
-2.95342
0
LINE
8
BLACK
6
CONTINUOUS
10
5.59291
20
-2.95342
11
5.59281
21
-2.95298
0
LINE
8
BLACK
6
CONTINUOUS
10
5.59281
20
-2.95298
11
5.59257
21
-2.9526
0
LINE
8
BLACK
6
CONTINUOUS
10
5.59257
20
-2.9526
11
5.59242
21
-2.95129
0
LINE
8
BLACK
6
CONTINUOUS
10
5.59242
20
-2.95129
11
5.59213
21
-2.95
0
LINE
8
BLACK
6
CONTINUOUS
10
5.59213
20
-2.95
11
5.59213
21
-2.405
0
LINE
8
BLACK
6
CONTINUOUS
10
5.59213
20
-2.405
11
5.59242
21
-2.40371
0
LINE
8
BLACK
6
CONTINUOUS
10
5.59242
20
-2.40371
11
5.59257
21
-2.4024
0
LINE
8
BLACK
6
CONTINUOUS
10
5.59257
20
-2.4024
11
5.59281
21
-2.40202
0
LINE
8
BLACK
6
CONTINUOUS
10
5.59281
20
-2.40202
11
5.59291
21
-2.40158
0
LINE
8
BLACK
6
CONTINUOUS
10
5.59291
20
-2.40158
11
5.59373
21
-2.40055
0
LINE
8
BLACK
6
CONTINUOUS
10
5.59373
20
-2.40055
11
5.59443
21
-2.39943
0
LINE
8
BLACK
6
CONTINUOUS
10
5.59443
20
-2.39943
11
5.65443
21
-2.33943
0
LINE
8
BLACK
6
CONTINUOUS
10
5.65443
20
-2.33943
11
5.65555
21
-2.33873
0
LINE
8
BLACK
6
CONTINUOUS
10
5.65555
20
-2.33873
11
5.65658
21
-2.33791
0
LINE
8
BLACK
6
CONTINUOUS
10
5.65658
20
-2.33791
11
5.65702
21
-2.33781
0
LINE
8
BLACK
6
CONTINUOUS
10
5.65702
20
-2.33781
11
5.6574
21
-2.33757
0
LINE
8
BLACK
6
CONTINUOUS
10
5.6574
20
-2.33757
11
5.65871
21
-2.33742
0
LINE
8
BLACK
6
CONTINUOUS
10
5.65871
20
-2.33742
11
5.66
21
-2.33713
0
LINE
8
BLACK
6
CONTINUOUS
10
5.66
20
-2.33713
11
5.67145
21
-2.33713
0
LINE
8
BLACK
6
CONTINUOUS
10
5.67145
20
-2.33713
11
5.67363
21
-2.32993
0
LINE
8
BLACK
6
CONTINUOUS
10
5.67363
20
-2.32993
11
5.67726
21
-2.32313
0
LINE
8
BLACK
6
CONTINUOUS
10
5.67726
20
-2.32313
11
5.68216
21
-2.31716
0
LINE
8
BLACK
6
CONTINUOUS
10
5.68216
20
-2.31716
11
5.68813
21
-2.31226
0
LINE
8
BLACK
6
CONTINUOUS
10
5.68813
20
-2.31226
11
5.69493
21
-2.30863
0
LINE
8
BLACK
6
CONTINUOUS
10
5.69493
20
-2.30863
11
5.70232
21
-2.30639
0
LINE
8
BLACK
6
CONTINUOUS
10
5.70232
20
-2.30639
11
5.71
21
-2.30563
0
LINE
8
BLACK
6
CONTINUOUS
10
5.71
20
-2.30563
11
5.71768
21
-2.30639
0
LINE
8
BLACK
6
CONTINUOUS
10
6.10305
20
-2.63176
11
6.11044
21
-2.634
0
LINE
8
BLACK
6
CONTINUOUS
10
6.11044
20
-2.634
11
6.11725
21
-2.63764
0
LINE
8
BLACK
6
CONTINUOUS
10
6.11725
20
-2.63764
11
6.12321
21
-2.64254
0
LINE
8
BLACK
6
CONTINUOUS
10
6.12321
20
-2.64254
11
6.12811
21
-2.6485
0
LINE
8
BLACK
6
CONTINUOUS
10
6.12811
20
-2.6485
11
6.13175
21
-2.65531
0
LINE
8
BLACK
6
CONTINUOUS
10
6.13175
20
-2.65531
11
6.13399
21
-2.66269
0
LINE
8
BLACK
6
CONTINUOUS
10
6.13399
20
-2.66269
11
6.13474
21
-2.67037
0
LINE
8
BLACK
6
CONTINUOUS
10
6.13474
20
-2.67037
11
6.13399
21
-2.67805
0
LINE
8
BLACK
6
CONTINUOUS
10
6.13399
20
-2.67805
11
6.13175
21
-2.68544
0
LINE
8
BLACK
6
CONTINUOUS
10
6.13175
20
-2.68544
11
6.12811
21
-2.69225
0
LINE
8
BLACK
6
CONTINUOUS
10
6.12811
20
-2.69225
11
6.12321
21
-2.69821
0
LINE
8
BLACK
6
CONTINUOUS
10
6.12321
20
-2.69821
11
6.11725
21
-2.70311
0
LINE
8
BLACK
6
CONTINUOUS
10
6.11725
20
-2.70311
11
6.11044
21
-2.70675
0
LINE
8
BLACK
6
CONTINUOUS
10
6.11044
20
-2.70675
11
6.10305
21
-2.70899
0
LINE
8
BLACK
6
CONTINUOUS
10
6.10305
20
-2.70899
11
6.09537
21
-2.70974
0
LINE
8
BLACK
6
CONTINUOUS
10
6.09537
20
-2.70974
11
6.08769
21
-2.70899
0
LINE
8
BLACK
6
CONTINUOUS
10
6.08769
20
-2.70899
11
6.08031
21
-2.70675
0
LINE
8
BLACK
6
CONTINUOUS
10
6.08031
20
-2.70675
11
6.07368
21
-2.7032
0
LINE
8
BLACK
6
CONTINUOUS
10
6.07368
20
-2.7032
11
6.05787
21
-2.71901
0
LINE
8
BLACK
6
CONTINUOUS
10
6.05787
20
-2.71901
11
6.05787
21
-3.02145
0
LINE
8
BLACK
6
CONTINUOUS
10
6.05787
20
-3.02145
11
6.06507
21
-3.02363
0
LINE
8
BLACK
6
CONTINUOUS
10
6.06507
20
-3.02363
11
6.07187
21
-3.02726
0
LINE
8
BLACK
6
CONTINUOUS
10
6.07187
20
-3.02726
11
6.07784
21
-3.03216
0
LINE
8
BLACK
6
CONTINUOUS
10
6.07784
20
-3.03216
11
6.08274
21
-3.03813
0
LINE
8
BLACK
6
CONTINUOUS
10
6.08274
20
-3.03813
11
6.08637
21
-3.04493
0
LINE
8
BLACK
6
CONTINUOUS
10
6.08637
20
-3.04493
11
6.08861
21
-3.05232
0
LINE
8
BLACK
6
CONTINUOUS
10
6.08861
20
-3.05232
11
6.08937
21
-3.06
0
LINE
8
BLACK
6
CONTINUOUS
10
6.08937
20
-3.06
11
6.08861
21
-3.06768
0
LINE
8
BLACK
6
CONTINUOUS
10
6.08861
20
-3.06768
11
6.08637
21
-3.07507
0
LINE
8
BLACK
6
CONTINUOUS
10
6.08637
20
-3.07507
11
6.08274
21
-3.08187
0
LINE
8
BLACK
6
CONTINUOUS
10
6.08274
20
-3.08187
11
6.07784
21
-3.08784
0
LINE
8
BLACK
6
CONTINUOUS
10
6.07784
20
-3.08784
11
6.07187
21
-3.09274
0
LINE
8
BLACK
6
CONTINUOUS
10
6.07187
20
-3.09274
11
6.06507
21
-3.09637
0
LINE
8
BLACK
6
CONTINUOUS
10
6.06507
20
-3.09637
11
6.05768
21
-3.09861
0
LINE
8
BLACK
6
CONTINUOUS
10
6.05768
20
-3.09861
11
6.05
21
-3.09937
0
LINE
8
BLACK
6
CONTINUOUS
10
6.05
20
-3.09937
11
6.04232
21
-3.09861
0
LINE
8
BLACK
6
CONTINUOUS
10
6.04232
20
-3.09861
11
6.03493
21
-3.09637
0
LINE
8
BLACK
6
CONTINUOUS
10
6.03493
20
-3.09637
11
6.02813
21
-3.09274
0
LINE
8
BLACK
6
CONTINUOUS
10
6.02813
20
-3.09274
11
6.02216
21
-3.08784
0
LINE
8
BLACK
6
CONTINUOUS
10
6.02216
20
-3.08784
11
6.01726
21
-3.08187
0
LINE
8
BLACK
6
CONTINUOUS
10
6.01726
20
-3.08187
11
6.01363
21
-3.07507
0
LINE
8
BLACK
6
CONTINUOUS
10
6.01363
20
-3.07507
11
6.01139
21
-3.06768
0
LINE
8
BLACK
6
CONTINUOUS
10
6.01139
20
-3.06768
11
6.01063
21
-3.06
0
LINE
8
BLACK
6
CONTINUOUS
10
6.01063
20
-3.06
11
6.01139
21
-3.05232
0
LINE
8
BLACK
6
CONTINUOUS
10
6.01139
20
-3.05232
11
6.01363
21
-3.04493
0
LINE
8
BLACK
6
CONTINUOUS
10
6.01363
20
-3.04493
11
6.01726
21
-3.03813
0
LINE
8
BLACK
6
CONTINUOUS
10
6.01726
20
-3.03813
11
6.02216
21
-3.03216
0
LINE
8
BLACK
6
CONTINUOUS
10
6.02216
20
-3.03216
11
6.02813
21
-3.02726
0
LINE
8
BLACK
6
CONTINUOUS
10
6.02813
20
-3.02726
11
6.03493
21
-3.02363
0
LINE
8
BLACK
6
CONTINUOUS
10
6.03493
20
-3.02363
11
6.04213
21
-3.02145
0
LINE
8
BLACK
6
CONTINUOUS
10
6.04213
20
-3.02145
11
6.04213
21
-2.71575
0
LINE
8
BLACK
6
CONTINUOUS
10
6.04213
20
-2.71575
11
6.04242
21
-2.71446
0
LINE
8
BLACK
6
CONTINUOUS
10
6.04242
20
-2.71446
11
6.04257
21
-2.71315
0
LINE
8
BLACK
6
CONTINUOUS
10
6.04257
20
-2.71315
11
6.04281
21
-2.71277
0
LINE
8
BLACK
6
CONTINUOUS
10
6.04281
20
-2.71277
11
6.04291
21
-2.71233
0
LINE
8
BLACK
6
CONTINUOUS
10
6.04291
20
-2.71233
11
6.04373
21
-2.7113
0
LINE
8
BLACK
6
CONTINUOUS
10
6.04373
20
-2.7113
11
6.04443
21
-2.71018
0
LINE
8
BLACK
6
CONTINUOUS
10
6.04443
20
-2.71018
11
6.06254
21
-2.69207
0
LINE
8
BLACK
6
CONTINUOUS
10
6.06254
20
-2.69207
11
6.059
21
-2.68544
0
LINE
8
BLACK
6
CONTINUOUS
10
6.059
20
-2.68544
11
6.05676
21
-2.67805
0
LINE
8
BLACK
6
CONTINUOUS
10
6.05676
20
-2.67805
11
6.056
21
-2.67037
0
LINE
8
BLACK
6
CONTINUOUS
10
6.056
20
-2.67037
11
6.05676
21
-2.66269
0
LINE
8
BLACK
6
CONTINUOUS
10
6.05676
20
-2.66269
11
6.059
21
-2.65531
0
LINE
8
BLACK
6
CONTINUOUS
10
6.059
20
-2.65531
11
6.06264
21
-2.6485
0
LINE
8
BLACK
6
CONTINUOUS
10
6.06264
20
-2.6485
11
6.06754
21
-2.64254
0
LINE
8
BLACK
6
CONTINUOUS
10
6.06754
20
-2.64254
11
6.0735
21
-2.63764
0
LINE
8
BLACK
6
CONTINUOUS
10
6.0735
20
-2.63764
11
6.08031
21
-2.634
0
LINE
8
BLACK
6
CONTINUOUS
10
6.08031
20
-2.634
11
6.08769
21
-2.63176
0
LINE
8
BLACK
6
CONTINUOUS
10
6.08769
20
-2.63176
11
6.09537
21
-2.631
0
LINE
8
BLACK
6
CONTINUOUS
10
6.09537
20
-2.631
11
6.10305
21
-2.63176
0
LINE
8
BLACK
6
CONTINUOUS
10
6.23768
20
-2.18139
11
6.24507
21
-2.18363
0
LINE
8
BLACK
6
CONTINUOUS
10
6.24507
20
-2.18363
11
6.25187
21
-2.18726
0
LINE
8
BLACK
6
CONTINUOUS
10
6.25187
20
-2.18726
11
6.25784
21
-2.19216
0
LINE
8
BLACK
6
CONTINUOUS
10
6.25784
20
-2.19216
11
6.26274
21
-2.19813
0
LINE
8
BLACK
6
CONTINUOUS
10
6.26274
20
-2.19813
11
6.26637
21
-2.20493
0
LINE
8
BLACK
6
CONTINUOUS
10
6.26637
20
-2.20493
11
6.26855
21
-2.21213
0
LINE
8
BLACK
6
CONTINUOUS
10
6.26855
20
-2.21213
11
6.3525
21
-2.21213
0
LINE
8
BLACK
6
CONTINUOUS
10
6.3525
20
-2.21213
11
6.35379
21
-2.21242
0
LINE
8
BLACK
6
CONTINUOUS
10
6.35379
20
-2.21242
11
6.3551
21
-2.21257
0
LINE
8
BLACK
6
CONTINUOUS
10
6.3551
20
-2.21257
11
6.35548
21
-2.21281
0
LINE
8
BLACK
6
CONTINUOUS
10
6.35548
20
-2.21281
11
6.35592
21
-2.21291
0
LINE
8
BLACK
6
CONTINUOUS
10
6.35592
20
-2.21291
11
6.35695
21
-2.21373
0
LINE
8
BLACK
6
CONTINUOUS
10
6.35695
20
-2.21373
11
6.35807
21
-2.21443
0
LINE
8
BLACK
6
CONTINUOUS
10
6.35807
20
-2.21443
11
6.39172
21
-2.24808
0
LINE
8
BLACK
6
CONTINUOUS
10
6.39172
20
-2.24808
11
6.39732
21
-2.24639
0
LINE
8
BLACK
6
CONTINUOUS
10
6.39732
20
-2.24639
11
6.405
21
-2.24563
0
LINE
8
BLACK
6
CONTINUOUS
10
6.405
20
-2.24563
11
6.41268
21
-2.24639
0
LINE
8
BLACK
6
CONTINUOUS
10
6.41268
20
-2.24639
11
6.42007
21
-2.24863
0
LINE
8
BLACK
6
CONTINUOUS
10
6.42007
20
-2.24863
11
6.42687
21
-2.25226
0
LINE
8
BLACK
6
CONTINUOUS
10
6.42687
20
-2.25226
11
6.43284
21
-2.25716
0
LINE
8
BLACK
6
CONTINUOUS
10
6.43284
20
-2.25716
11
6.43774
21
-2.26313
0
LINE
8
BLACK
6
CONTINUOUS
10
6.43774
20
-2.26313
11
6.44137
21
-2.26993
0
LINE
8
BLACK
6
CONTINUOUS
10
6.44137
20
-2.26993
11
6.44361
21
-2.27732
0
LINE
8
BLACK
6
CONTINUOUS
10
6.44361
20
-2.27732
11
6.44437
21
-2.285
0
LINE
8
BLACK
6
CONTINUOUS
10
6.44437
20
-2.285
11
6.44361
21
-2.29268
0
LINE
8
BLACK
6
CONTINUOUS
10
6.44361
20
-2.29268
11
6.44137
21
-2.30007
0
LINE
8
BLACK
6
CONTINUOUS
10
6.44137
20
-2.30007
11
6.43774
21
-2.30687
0
LINE
8
BLACK
6
CONTINUOUS
10
6.43774
20
-2.30687
11
6.43284
21
-2.31284
0
LINE
8
BLACK
6
CONTINUOUS
10
6.43284
20
-2.31284
11
6.42687
21
-2.31774
0
LINE
8
BLACK
6
CONTINUOUS
10
6.42687
20
-2.31774
11
6.42007
21
-2.32137
0
LINE
8
BLACK
6
CONTINUOUS
10
6.42007
20
-2.32137
11
6.41268
21
-2.32361
0
LINE
8
BLACK
6
CONTINUOUS
10
6.41268
20
-2.32361
11
6.405
21
-2.32437
0
LINE
8
BLACK
6
CONTINUOUS
10
6.405
20
-2.32437
11
6.39732
21
-2.32361
0
LINE
8
BLACK
6
CONTINUOUS
10
6.39732
20
-2.32361
11
6.38993
21
-2.32137
0
LINE
8
BLACK
6
CONTINUOUS
10
6.38993
20
-2.32137
11
6.38313
21
-2.31774
0
LINE
8
BLACK
6
CONTINUOUS
10
6.38313
20
-2.31774
11
6.37716
21
-2.31284
0
LINE
8
BLACK
6
CONTINUOUS
10
6.37716
20
-2.31284
11
6.37226
21
-2.30687
0
LINE
8
BLACK
6
CONTINUOUS
10
6.37226
20
-2.30687
11
6.36863
21
-2.30007
0
LINE
8
BLACK
6
CONTINUOUS
10
6.36863
20
-2.30007
11
6.36639
21
-2.29268
0
LINE
8
BLACK
6
CONTINUOUS
10
6.36639
20
-2.29268
11
6.36563
21
-2.285
0
LINE
8
BLACK
6
CONTINUOUS
10
6.36563
20
-2.285
11
6.36639
21
-2.27732
0
LINE
8
BLACK
6
CONTINUOUS
10
6.36639
20
-2.27732
11
6.36863
21
-2.26993
0
LINE
8
BLACK
6
CONTINUOUS
10
6.36863
20
-2.26993
11
6.37226
21
-2.26313
0
LINE
8
BLACK
6
CONTINUOUS
10
6.37226
20
-2.26313
11
6.37716
21
-2.25716
0
LINE
8
BLACK
6
CONTINUOUS
10
6.37716
20
-2.25716
11
6.37791
21
-2.25655
0
LINE
8
BLACK
6
CONTINUOUS
10
6.37791
20
-2.25655
11
6.34924
21
-2.22787
0
LINE
8
BLACK
6
CONTINUOUS
10
6.34924
20
-2.22787
11
6.26855
21
-2.22787
0
LINE
8
BLACK
6
CONTINUOUS
10
6.26855
20
-2.22787
11
6.26637
21
-2.23507
0
LINE
8
BLACK
6
CONTINUOUS
10
6.26637
20
-2.23507
11
6.26274
21
-2.24187
0
LINE
8
BLACK
6
CONTINUOUS
10
6.26274
20
-2.24187
11
6.25784
21
-2.24784
0
LINE
8
BLACK
6
CONTINUOUS
10
6.25784
20
-2.24784
11
6.25187
21
-2.25274
0
LINE
8
BLACK
6
CONTINUOUS
10
6.25187
20
-2.25274
11
6.24507
21
-2.25637
0
LINE
8
BLACK
6
CONTINUOUS
10
6.24507
20
-2.25637
11
6.23768
21
-2.25861
0
LINE
8
BLACK
6
CONTINUOUS
10
6.23768
20
-2.25861
11
6.23
21
-2.25937
0
LINE
8
BLACK
6
CONTINUOUS
10
6.23
20
-2.25937
11
6.22232
21
-2.25861
0
LINE
8
BLACK
6
CONTINUOUS
10
6.22232
20
-2.25861
11
6.21493
21
-2.25637
0
LINE
8
BLACK
6
CONTINUOUS
10
6.21493
20
-2.25637
11
6.20813
21
-2.25274
0
LINE
8
BLACK
6
CONTINUOUS
10
6.20813
20
-2.25274
11
6.20216
21
-2.24784
0
LINE
8
BLACK
6
CONTINUOUS
10
6.20216
20
-2.24784
11
6.19726
21
-2.24187
0
LINE
8
BLACK
6
CONTINUOUS
10
6.19726
20
-2.24187
11
6.19363
21
-2.23507
0
LINE
8
BLACK
6
CONTINUOUS
10
6.19363
20
-2.23507
11
6.19139
21
-2.22768
0
LINE
8
BLACK
6
CONTINUOUS
10
6.19139
20
-2.22768
11
6.19063
21
-2.22
0
LINE
8
BLACK
6
CONTINUOUS
10
6.19063
20
-2.22
11
6.19139
21
-2.21232
0
LINE
8
BLACK
6
CONTINUOUS
10
6.19139
20
-2.21232
11
6.19363
21
-2.20493
0
LINE
8
BLACK
6
CONTINUOUS
10
6.19363
20
-2.20493
11
6.19726
21
-2.19813
0
LINE
8
BLACK
6
CONTINUOUS
10
6.19726
20
-2.19813
11
6.20216
21
-2.19216
0
LINE
8
BLACK
6
CONTINUOUS
10
6.20216
20
-2.19216
11
6.20813
21
-2.18726
0
LINE
8
BLACK
6
CONTINUOUS
10
6.20813
20
-2.18726
11
6.21493
21
-2.18363
0
LINE
8
BLACK
6
CONTINUOUS
10
6.21493
20
-2.18363
11
6.22232
21
-2.18139
0
LINE
8
BLACK
6
CONTINUOUS
10
6.22232
20
-2.18139
11
6.23
21
-2.18063
0
LINE
8
BLACK
6
CONTINUOUS
10
6.23
20
-2.18063
11
6.23768
21
-2.18139
0
CIRCLE
8
BLACK
10
6.23
20
-2.22
40
0.019685
0
CIRCLE
8
BLACK
10
6.405
20
-2.285
40
0.019685
0
CIRCLE
8
BLACK
10
5.92093
20
-2.825
40
0.019685
0
CIRCLE
8
BLACK
10
5.97
20
-4.21
40
0.019685
0
CIRCLE
8
BLACK
10
5.66
20
-4.265
40
0.019685
0
CIRCLE
8
BLACK
10
6.04
20
-2.355
40
0.019685
0
CIRCLE
8
BLACK
10
6.09537
20
-2.67037
40
0.019685
0
CIRCLE
8
BLACK
10
6.43
20
-4.295
40
0.019685
0
CIRCLE
8
BLACK
10
6.05
20
-3.06
40
0.019685
0
CIRCLE
8
BLACK
10
6.43
20
-4.095
40
0.019685
0
CIRCLE
8
BLACK
10
5.825
20
-3.08
40
0.019685
0
CIRCLE
8
BLACK
10
5.71
20
-2.345
40
0.019685
0
LINE
8
BLACK
6
CONTINUOUS
10
6.76443
20
-1.89161
11
6.7726
21
-1.89225
0
LINE
8
BLACK
6
CONTINUOUS
10
6.7726
20
-1.89225
11
6.78057
21
-1.89417
0
LINE
8
BLACK
6
CONTINUOUS
10
6.78057
20
-1.89417
11
6.78814
21
-1.8973
0
LINE
8
BLACK
6
CONTINUOUS
10
6.78814
20
-1.8973
11
6.79512
21
-1.90158
0
LINE
8
BLACK
6
CONTINUOUS
10
6.79512
20
-1.90158
11
6.80135
21
-1.9069
0
LINE
8
BLACK
6
CONTINUOUS
10
6.80135
20
-1.9069
11
6.80667
21
-1.91313
0
LINE
8
BLACK
6
CONTINUOUS
10
6.80667
20
-1.91313
11
6.81096
21
-1.92012
0
LINE
8
BLACK
6
CONTINUOUS
10
6.81096
20
-1.92012
11
6.81409
21
-1.92769
0
LINE
8
BLACK
6
CONTINUOUS
10
6.81409
20
-1.92769
11
6.816
21
-1.93566
0
LINE
8
BLACK
6
CONTINUOUS
10
6.816
20
-1.93566
11
6.81665
21
-1.94383
0
LINE
8
BLACK
6
CONTINUOUS
10
6.81665
20
-1.94383
11
6.81665
21
-1.94383
0
LINE
8
BLACK
6
CONTINUOUS
10
6.81665
20
-1.94383
11
6.81663
21
-1.94387
0
LINE
8
BLACK
6
CONTINUOUS
10
6.81663
20
-1.94387
11
6.81665
21
-1.94391
0
LINE
8
BLACK
6
CONTINUOUS
10
6.81665
20
-1.94391
11
6.68447
21
-5.12373
0
LINE
8
BLACK
6
CONTINUOUS
10
6.68447
20
-5.12373
11
6.68417
21
-5.12438
0
LINE
8
BLACK
6
CONTINUOUS
10
6.68417
20
-5.12438
11
6.6839
21
-5.12504
0
LINE
8
BLACK
6
CONTINUOUS
10
6.6839
20
-5.12504
11
6.68386
21
-5.12506
0
LINE
8
BLACK
6
CONTINUOUS
10
6.68386
20
-5.12506
11
6.68384
21
-5.1251
0
LINE
8
BLACK
6
CONTINUOUS
10
6.68384
20
-5.1251
11
6.68317
21
-5.12534
0
LINE
8
BLACK
6
CONTINUOUS
10
6.68317
20
-5.12534
11
6.6825
21
-5.12562
0
LINE
8
BLACK
6
CONTINUOUS
10
6.6825
20
-5.12562
11
6.67888
21
-5.12562
0
LINE
8
BLACK
6
CONTINUOUS
10
6.67888
20
-5.12562
11
6.67888
21
-5.12562
0
LINE
8
BLACK
6
CONTINUOUS
10
6.67888
20
-5.12562
11
6.67246
21
-5.12562
0
LINE
8
BLACK
6
CONTINUOUS
10
6.67246
20
-5.12562
11
6.65969
21
-5.12706
0
LINE
8
BLACK
6
CONTINUOUS
10
6.65969
20
-5.12706
11
6.64716
21
-5.12992
0
LINE
8
BLACK
6
CONTINUOUS
10
6.64716
20
-5.12992
11
6.63503
21
-5.13416
0
LINE
8
BLACK
6
CONTINUOUS
10
6.63503
20
-5.13416
11
6.62345
21
-5.13974
0
LINE
8
BLACK
6
CONTINUOUS
10
6.62345
20
-5.13974
11
6.61257
21
-5.14657
0
LINE
8
BLACK
6
CONTINUOUS
10
6.61257
20
-5.14657
11
6.60252
21
-5.15459
0
LINE
8
BLACK
6
CONTINUOUS
10
6.60252
20
-5.15459
11
6.59343
21
-5.16367
0
LINE
8
BLACK
6
CONTINUOUS
10
6.59343
20
-5.16367
11
6.58542
21
-5.17372
0
LINE
8
BLACK
6
CONTINUOUS
10
6.58542
20
-5.17372
11
6.57858
21
-5.1846
0
LINE
8
BLACK
6
CONTINUOUS
10
6.57858
20
-5.1846
11
6.57301
21
-5.19618
0
LINE
8
BLACK
6
CONTINUOUS
10
6.57301
20
-5.19618
11
6.56876
21
-5.20831
0
LINE
8
BLACK
6
CONTINUOUS
10
6.56876
20
-5.20831
11
6.5659
21
-5.22084
0
LINE
8
BLACK
6
CONTINUOUS
10
6.5659
20
-5.22084
11
6.56446
21
-5.23361
0
LINE
8
BLACK
6
CONTINUOUS
10
6.56446
20
-5.23361
11
6.56446
21
-5.24003
0
LINE
8
BLACK
6
CONTINUOUS
10
6.56446
20
-5.24003
11
6.56446
21
-5.24003
0
LINE
8
BLACK
6
CONTINUOUS
10
6.56446
20
-5.24003
11
6.56446
21
-5.24003
0
LINE
8
BLACK
6
CONTINUOUS
10
6.56446
20
-5.24003
11
6.56446
21
-5.24004
0
LINE
8
BLACK
6
CONTINUOUS
10
6.56446
20
-5.24004
11
6.56409
21
-5.24119
0
LINE
8
BLACK
6
CONTINUOUS
10
6.56409
20
-5.24119
11
6.56394
21
-5.2413
0
LINE
8
BLACK
6
CONTINUOUS
10
6.56394
20
-5.2413
11
6.56389
21
-5.24143
0
LINE
8
BLACK
6
CONTINUOUS
10
6.56389
20
-5.24143
11
6.5636
21
-5.24154
0
LINE
8
BLACK
6
CONTINUOUS
10
6.5636
20
-5.24154
11
6.5631
21
-5.24191
0
LINE
8
BLACK
6
CONTINUOUS
10
6.5631
20
-5.24191
11
6.56273
21
-5.24191
0
LINE
8
BLACK
6
CONTINUOUS
10
6.56273
20
-5.24191
11
6.5625
21
-5.242
0
LINE
8
BLACK
6
CONTINUOUS
10
6.5625
20
-5.242
11
5.4575
21
-5.24193
0
LINE
8
BLACK
6
CONTINUOUS
10
5.4575
20
-5.24193
11
5.45727
21
-5.24184
0
LINE
8
BLACK
6
CONTINUOUS
10
5.45727
20
-5.24184
11
5.4569
21
-5.24184
0
LINE
8
BLACK
6
CONTINUOUS
10
5.4569
20
-5.24184
11
5.4564
21
-5.24148
0
LINE
8
BLACK
6
CONTINUOUS
10
5.4564
20
-5.24148
11
5.45611
21
-5.24136
0
LINE
8
BLACK
6
CONTINUOUS
10
5.45611
20
-5.24136
11
5.45606
21
-5.24123
0
LINE
8
BLACK
6
CONTINUOUS
10
5.45606
20
-5.24123
11
5.45591
21
-5.24112
0
LINE
8
BLACK
6
CONTINUOUS
10
5.45591
20
-5.24112
11
5.45554
21
-5.23997
0
LINE
8
BLACK
6
CONTINUOUS
10
5.45554
20
-5.23997
11
5.45554
21
-5.23997
0
LINE
8
BLACK
6
CONTINUOUS
10
5.45554
20
-5.23997
11
5.45554
21
-5.23997
0
LINE
8
BLACK
6
CONTINUOUS
10
5.45554
20
-5.23997
11
5.45554
21
-5.23996
0
LINE
8
BLACK
6
CONTINUOUS
10
5.45554
20
-5.23996
11
5.45554
21
-5.23354
0
LINE
8
BLACK
6
CONTINUOUS
10
5.45554
20
-5.23354
11
5.4541
21
-5.22077
0
LINE
8
BLACK
6
CONTINUOUS
10
5.4541
20
-5.22077
11
5.45124
21
-5.20824
0
LINE
8
BLACK
6
CONTINUOUS
10
5.45124
20
-5.20824
11
5.44699
21
-5.19611
0
LINE
8
BLACK
6
CONTINUOUS
10
5.44699
20
-5.19611
11
5.44142
21
-5.18453
0
LINE
8
BLACK
6
CONTINUOUS
10
5.44142
20
-5.18453
11
5.43458
21
-5.17365
0
LINE
8
BLACK
6
CONTINUOUS
10
5.43458
20
-5.17365
11
5.42657
21
-5.1636
0
LINE
8
BLACK
6
CONTINUOUS
10
5.42657
20
-5.1636
11
5.41748
21
-5.15452
0
LINE
8
BLACK
6
CONTINUOUS
10
5.41748
20
-5.15452
11
5.40743
21
-5.1465
0
LINE
8
BLACK
6
CONTINUOUS
10
5.40743
20
-5.1465
11
5.39655
21
-5.13967
0
LINE
8
BLACK
6
CONTINUOUS
10
5.39655
20
-5.13967
11
5.38497
21
-5.13409
0
LINE
8
BLACK
6
CONTINUOUS
10
5.38497
20
-5.13409
11
5.37284
21
-5.12985
0
LINE
8
BLACK
6
CONTINUOUS
10
5.37284
20
-5.12985
11
5.36031
21
-5.12699
0
LINE
8
BLACK
6
CONTINUOUS
10
5.36031
20
-5.12699
11
5.34754
21
-5.12555
0
LINE
8
BLACK
6
CONTINUOUS
10
5.34754
20
-5.12555
11
5.34112
21
-5.12555
0
LINE
8
BLACK
6
CONTINUOUS
10
5.34112
20
-5.12555
11
5.3375
21
-5.12555
0
LINE
8
BLACK
6
CONTINUOUS
10
5.3375
20
-5.12555
11
5.33683
21
-5.12527
0
LINE
8
BLACK
6
CONTINUOUS
10
5.33683
20
-5.12527
11
5.33616
21
-5.12503
0
LINE
8
BLACK
6
CONTINUOUS
10
5.33616
20
-5.12503
11
5.33614
21
-5.12499
0
LINE
8
BLACK
6
CONTINUOUS
10
5.33614
20
-5.12499
11
5.3361
21
-5.12497
0
LINE
8
BLACK
6
CONTINUOUS
10
5.3361
20
-5.12497
11
5.33583
21
-5.12431
0
LINE
8
BLACK
6
CONTINUOUS
10
5.33583
20
-5.12431
11
5.33553
21
-5.12366
0
LINE
8
BLACK
6
CONTINUOUS
10
5.33553
20
-5.12366
11
5.20252
21
-1.94391
0
LINE
8
BLACK
6
CONTINUOUS
10
5.20252
20
-1.94391
11
5.20253
21
-1.94387
0
LINE
8
BLACK
6
CONTINUOUS
10
5.20253
20
-1.94387
11
5.20252
21
-1.94383
0
LINE
8
BLACK
6
CONTINUOUS
10
5.20252
20
-1.94383
11
5.20316
21
-1.93566
0
LINE
8
BLACK
6
CONTINUOUS
10
5.20316
20
-1.93566
11
5.20507
21
-1.92769
0
LINE
8
BLACK
6
CONTINUOUS
10
5.20507
20
-1.92769
11
5.20821
21
-1.92012
0
LINE
8
BLACK
6
CONTINUOUS
10
5.20821
20
-1.92012
11
5.21249
21
-1.91313
0
LINE
8
BLACK
6
CONTINUOUS
10
5.21249
20
-1.91313
11
5.21781
21
-1.9069
0
LINE
8
BLACK
6
CONTINUOUS
10
5.21781
20
-1.9069
11
5.22404
21
-1.90158
0
LINE
8
BLACK
6
CONTINUOUS
10
5.22404
20
-1.90158
11
5.23103
21
-1.8973
0
LINE
8
BLACK
6
CONTINUOUS
10
5.23103
20
-1.8973
11
5.2386
21
-1.89417
0
LINE
8
BLACK
6
CONTINUOUS
10
5.2386
20
-1.89417
11
5.24656
21
-1.89225
0
LINE
8
BLACK
6
CONTINUOUS
10
5.24656
20
-1.89225
11
5.25473
21
-1.89161
0
LINE
8
BLACK
6
CONTINUOUS
10
5.25473
20
-1.89161
11
5.25473
21
-1.89161
0
LINE
8
BLACK
6
CONTINUOUS
10
5.25473
20
-1.89161
11
6.76443
21
-1.89161
0
LINE
8
BLACK
6
CONTINUOUS
10
5.25473
20
-1.89555
11
5.25473
21
-1.89555
0
LINE
8
BLACK
6
CONTINUOUS
10
5.25473
20
-1.89555
11
5.25093
21
-1.89555
0
LINE
8
BLACK
6
CONTINUOUS
10
5.25093
20
-1.89555
11
5.24343
21
-1.89674
0
LINE
8
BLACK
6
CONTINUOUS
10
5.24343
20
-1.89674
11
5.2362
21
-1.89908
0
LINE
8
BLACK
6
CONTINUOUS
10
5.2362
20
-1.89908
11
5.22943
21
-1.90253
0
LINE
8
BLACK
6
CONTINUOUS
10
5.22943
20
-1.90253
11
5.22328
21
-1.907
0
LINE
8
BLACK
6
CONTINUOUS
10
5.22328
20
-1.907
11
5.21791
21
-1.91237
0
LINE
8
BLACK
6
CONTINUOUS
10
5.21791
20
-1.91237
11
5.21344
21
-1.91852
0
LINE
8
BLACK
6
CONTINUOUS
10
5.21344
20
-1.91852
11
5.20999
21
-1.92529
0
LINE
8
BLACK
6
CONTINUOUS
10
5.20999
20
-1.92529
11
5.20764
21
-1.93252
0
LINE
8
BLACK
6
CONTINUOUS
10
5.20764
20
-1.93252
11
5.20645
21
-1.94003
0
LINE
8
BLACK
6
CONTINUOUS
10
5.20645
20
-1.94003
11
5.20645
21
-1.94379
0
LINE
8
BLACK
6
CONTINUOUS
10
5.20645
20
-1.94379
11
5.33938
21
-5.12161
0
LINE
8
BLACK
6
CONTINUOUS
10
5.33938
20
-5.12161
11
5.34112
21
-5.12161
0
LINE
8
BLACK
6
CONTINUOUS
10
5.34112
20
-5.12161
11
5.35349
21
-5.12226
0
LINE
8
BLACK
6
CONTINUOUS
10
5.35349
20
-5.12226
11
5.36573
21
-5.1242
0
LINE
8
BLACK
6
CONTINUOUS
10
5.36573
20
-5.1242
11
5.37769
21
-5.1274
0
LINE
8
BLACK
6
CONTINUOUS
10
5.37769
20
-5.1274
11
5.38926
21
-5.13184
0
LINE
8
BLACK
6
CONTINUOUS
10
5.38926
20
-5.13184
11
5.4003
21
-5.13747
0
LINE
8
BLACK
6
CONTINUOUS
10
5.4003
20
-5.13747
11
5.41069
21
-5.14421
0
LINE
8
BLACK
6
CONTINUOUS
10
5.41069
20
-5.14421
11
5.42031
21
-5.15201
0
LINE
8
BLACK
6
CONTINUOUS
10
5.42031
20
-5.15201
11
5.42907
21
-5.16077
0
LINE
8
BLACK
6
CONTINUOUS
10
5.42907
20
-5.16077
11
5.43687
21
-5.1704
0
LINE
8
BLACK
6
CONTINUOUS
10
5.43687
20
-5.1704
11
5.44362
21
-5.18079
0
LINE
8
BLACK
6
CONTINUOUS
10
5.44362
20
-5.18079
11
5.44924
21
-5.19183
0
LINE
8
BLACK
6
CONTINUOUS
10
5.44924
20
-5.19183
11
5.45368
21
-5.20339
0
LINE
8
BLACK
6
CONTINUOUS
10
5.45368
20
-5.20339
11
5.45689
21
-5.21536
0
LINE
8
BLACK
6
CONTINUOUS
10
5.45689
20
-5.21536
11
5.45882
21
-5.22759
0
LINE
8
BLACK
6
CONTINUOUS
10
5.45882
20
-5.22759
11
5.45937
21
-5.238
0
LINE
8
BLACK
6
CONTINUOUS
10
5.45937
20
-5.238
11
6.56063
21
-5.23807
0
LINE
8
BLACK
6
CONTINUOUS
10
6.56063
20
-5.23807
11
6.56118
21
-5.22766
0
LINE
8
BLACK
6
CONTINUOUS
10
6.56118
20
-5.22766
11
6.56311
21
-5.21543
0
LINE
8
BLACK
6
CONTINUOUS
10
6.56311
20
-5.21543
11
6.56632
21
-5.20346
0
LINE
8
BLACK
6
CONTINUOUS
10
6.56632
20
-5.20346
11
6.57076
21
-5.1919
0
LINE
8
BLACK
6
CONTINUOUS
10
6.57076
20
-5.1919
11
6.57638
21
-5.18086
0
LINE
8
BLACK
6
CONTINUOUS
10
6.57638
20
-5.18086
11
6.58313
21
-5.17047
0
LINE
8
BLACK
6
CONTINUOUS
10
6.58313
20
-5.17047
11
6.59093
21
-5.16084
0
LINE
8
BLACK
6
CONTINUOUS
10
6.59093
20
-5.16084
11
6.59969
21
-5.15208
0
LINE
8
BLACK
6
CONTINUOUS
10
6.59969
20
-5.15208
11
6.60932
21
-5.14428
0
LINE
8
BLACK
6
CONTINUOUS
10
6.60932
20
-5.14428
11
6.6197
21
-5.13754
0
LINE
8
BLACK
6
CONTINUOUS
10
6.6197
20
-5.13754
11
6.63074
21
-5.13191
0
LINE
8
BLACK
6
CONTINUOUS
10
6.63074
20
-5.13191
11
6.64231
21
-5.12747
0
LINE
8
BLACK
6
CONTINUOUS
10
6.64231
20
-5.12747
11
6.65428
21
-5.12427
0
LINE
8
BLACK
6
CONTINUOUS
10
6.65428
20
-5.12427
11
6.66651
21
-5.12233
0
LINE
8
BLACK
6
CONTINUOUS
10
6.66651
20
-5.12233
11
6.67888
21
-5.12168
0
LINE
8
BLACK
6
CONTINUOUS
10
6.67888
20
-5.12168
11
6.67888
21
-5.12168
0
LINE
8
BLACK
6
CONTINUOUS
10
6.67888
20
-5.12168
11
6.68062
21
-5.12168
0
LINE
8
BLACK
6
CONTINUOUS
10
6.68062
20
-5.12168
11
6.81271
21
-1.9438
0
LINE
8
BLACK
6
CONTINUOUS
10
6.81271
20
-1.9438
11
6.81271
21
-1.94003
0
LINE
8
BLACK
6
CONTINUOUS
10
6.81271
20
-1.94003
11
6.81152
21
-1.93252
0
LINE
8
BLACK
6
CONTINUOUS
10
6.81152
20
-1.93252
11
6.80917
21
-1.92529
0
LINE
8
BLACK
6
CONTINUOUS
10
6.80917
20
-1.92529
11
6.80572
21
-1.91852
0
LINE
8
BLACK
6
CONTINUOUS
10
6.80572
20
-1.91852
11
6.80126
21
-1.91237
0
LINE
8
BLACK
6
CONTINUOUS
10
6.80126
20
-1.91237
11
6.79588
21
-1.907
0
LINE
8
BLACK
6
CONTINUOUS
10
6.79588
20
-1.907
11
6.78973
21
-1.90253
0
LINE
8
BLACK
6
CONTINUOUS
10
6.78973
20
-1.90253
11
6.78296
21
-1.89908
0
LINE
8
BLACK
6
CONTINUOUS
10
6.78296
20
-1.89908
11
6.77573
21
-1.89674
0
LINE
8
BLACK
6
CONTINUOUS
10
6.77573
20
-1.89674
11
6.76823
21
-1.89555
0
LINE
8
BLACK
6
CONTINUOUS
10
6.76823
20
-1.89555
11
6.76443
21
-1.89555
0
LINE
8
BLACK
6
CONTINUOUS
10
6.76443
20
-1.89555
11
5.25473
21
-1.89555
0
LINE
8
BLACK
6
CONTINUOUS
10
5.25473
20
-1.89555
11
5.25473
21
-1.89555
0
LINE
8
BLACK
6
CONTINUOUS
10
5.25473
20
-1.89555
11
5.25473
21
-1.89555
  0
ENDSEC
  0
EOF
