  0
SECTION
  2
HEADER
  9
$ANGBASE
  50
0.0
  9
$ANGDIR
  70
1
  9
$MEASUREMENT
  70
0
  0
ENDSEC
  0
SECTION
  2
TABLES
  0
TABLE
  2
LTYPE
  70
4
  0
LTYPE
  5
40F
  2
CONTINUOUS
  70
0
  3
Solid line
  72
65
  73
0
  40
0.0
  0
LTYPE
  5
410
  2
DASHDOT
 70
0
  3
Dash Dot ____ _ ____ _
 72
65
 73
4
 40
2.0
 49
1.25
 49
-0.25
 49
0.25
 49
-0.25
  0
LTYPE
  5
411
  2
DASHED
 70
0
  3
Dashed __ __ __ __ __
 72
65
 73
2
 40
0.75
 49
0.5
 49
-0.25
  0
LTYPE
  5
43B
  2
DOTTED
 70
0
  3
Dotted .  .  .  .
 72
65
 73
2
 40
0.2
 49
0.0
 49
-0.2
  0
ENDTAB
  0
TABLE
  2
STYLE
  70
4
  0
STYLE
  2
KICAD
  70
0
  40
0
  41
1
  42
1
  50
0
  71
0
  3
isocp.shx
  0
STYLE
  2
KICADB
  70
0
  40
0
  41
1
  42
1
  50
0
  71
0
  3
isocp.shx
  0
STYLE
  2
KICADI
  70
0
  40
0
  41
1
  42
1
  50
15
  71
0
  3
isocp.shx
  0
STYLE
  2
KICADBI
  70
0
  40
0
  41
1
  42
1
  50
15
  71
0
  3
isocp.shx
  0
ENDTAB
  0
TABLE
  2
LAYER
  70
1
  0
LAYER
  2
BLACK
  70
0
  62
7
  6
CONTINUOUS
  0
ENDTAB
  0
ENDSEC
  0
SECTION
  2
ENTITIES
0
LINE
8
BLACK
6
CONTINUOUS
10
6.76443
20
-1.89161
11
6.7726
21
-1.89225
0
LINE
8
BLACK
6
CONTINUOUS
10
6.7726
20
-1.89225
11
6.78057
21
-1.89417
0
LINE
8
BLACK
6
CONTINUOUS
10
6.78057
20
-1.89417
11
6.78814
21
-1.8973
0
LINE
8
BLACK
6
CONTINUOUS
10
6.78814
20
-1.8973
11
6.79512
21
-1.90158
0
LINE
8
BLACK
6
CONTINUOUS
10
6.79512
20
-1.90158
11
6.80135
21
-1.9069
0
LINE
8
BLACK
6
CONTINUOUS
10
6.80135
20
-1.9069
11
6.80667
21
-1.91313
0
LINE
8
BLACK
6
CONTINUOUS
10
6.80667
20
-1.91313
11
6.81096
21
-1.92012
0
LINE
8
BLACK
6
CONTINUOUS
10
6.81096
20
-1.92012
11
6.81409
21
-1.92769
0
LINE
8
BLACK
6
CONTINUOUS
10
6.81409
20
-1.92769
11
6.816
21
-1.93566
0
LINE
8
BLACK
6
CONTINUOUS
10
6.816
20
-1.93566
11
6.81665
21
-1.94383
0
LINE
8
BLACK
6
CONTINUOUS
10
6.81665
20
-1.94383
11
6.81665
21
-1.94383
0
LINE
8
BLACK
6
CONTINUOUS
10
6.81665
20
-1.94383
11
6.81663
21
-1.94387
0
LINE
8
BLACK
6
CONTINUOUS
10
6.81663
20
-1.94387
11
6.81665
21
-1.94391
0
LINE
8
BLACK
6
CONTINUOUS
10
6.81665
20
-1.94391
11
6.68447
21
-5.12373
0
LINE
8
BLACK
6
CONTINUOUS
10
6.68447
20
-5.12373
11
6.68417
21
-5.12438
0
LINE
8
BLACK
6
CONTINUOUS
10
6.68417
20
-5.12438
11
6.6839
21
-5.12504
0
LINE
8
BLACK
6
CONTINUOUS
10
6.6839
20
-5.12504
11
6.68386
21
-5.12506
0
LINE
8
BLACK
6
CONTINUOUS
10
6.68386
20
-5.12506
11
6.68384
21
-5.1251
0
LINE
8
BLACK
6
CONTINUOUS
10
6.68384
20
-5.1251
11
6.68317
21
-5.12534
0
LINE
8
BLACK
6
CONTINUOUS
10
6.68317
20
-5.12534
11
6.6825
21
-5.12562
0
LINE
8
BLACK
6
CONTINUOUS
10
6.6825
20
-5.12562
11
6.67888
21
-5.12562
0
LINE
8
BLACK
6
CONTINUOUS
10
6.67888
20
-5.12562
11
6.67888
21
-5.12562
0
LINE
8
BLACK
6
CONTINUOUS
10
6.67888
20
-5.12562
11
6.67246
21
-5.12562
0
LINE
8
BLACK
6
CONTINUOUS
10
6.67246
20
-5.12562
11
6.65969
21
-5.12706
0
LINE
8
BLACK
6
CONTINUOUS
10
6.65969
20
-5.12706
11
6.64716
21
-5.12992
0
LINE
8
BLACK
6
CONTINUOUS
10
6.64716
20
-5.12992
11
6.63503
21
-5.13416
0
LINE
8
BLACK
6
CONTINUOUS
10
6.63503
20
-5.13416
11
6.62345
21
-5.13974
0
LINE
8
BLACK
6
CONTINUOUS
10
6.62345
20
-5.13974
11
6.61257
21
-5.14657
0
LINE
8
BLACK
6
CONTINUOUS
10
6.61257
20
-5.14657
11
6.60252
21
-5.15459
0
LINE
8
BLACK
6
CONTINUOUS
10
6.60252
20
-5.15459
11
6.59343
21
-5.16367
0
LINE
8
BLACK
6
CONTINUOUS
10
6.59343
20
-5.16367
11
6.58542
21
-5.17372
0
LINE
8
BLACK
6
CONTINUOUS
10
6.58542
20
-5.17372
11
6.57858
21
-5.1846
0
LINE
8
BLACK
6
CONTINUOUS
10
6.57858
20
-5.1846
11
6.57301
21
-5.19618
0
LINE
8
BLACK
6
CONTINUOUS
10
6.57301
20
-5.19618
11
6.56876
21
-5.20831
0
LINE
8
BLACK
6
CONTINUOUS
10
6.56876
20
-5.20831
11
6.5659
21
-5.22084
0
LINE
8
BLACK
6
CONTINUOUS
10
6.5659
20
-5.22084
11
6.56446
21
-5.23361
0
LINE
8
BLACK
6
CONTINUOUS
10
6.56446
20
-5.23361
11
6.56446
21
-5.24003
0
LINE
8
BLACK
6
CONTINUOUS
10
6.56446
20
-5.24003
11
6.56446
21
-5.24003
0
LINE
8
BLACK
6
CONTINUOUS
10
6.56446
20
-5.24003
11
6.56446
21
-5.24003
0
LINE
8
BLACK
6
CONTINUOUS
10
6.56446
20
-5.24003
11
6.56446
21
-5.24004
0
LINE
8
BLACK
6
CONTINUOUS
10
6.56446
20
-5.24004
11
6.56409
21
-5.24119
0
LINE
8
BLACK
6
CONTINUOUS
10
6.56409
20
-5.24119
11
6.56394
21
-5.2413
0
LINE
8
BLACK
6
CONTINUOUS
10
6.56394
20
-5.2413
11
6.56389
21
-5.24143
0
LINE
8
BLACK
6
CONTINUOUS
10
6.56389
20
-5.24143
11
6.5636
21
-5.24154
0
LINE
8
BLACK
6
CONTINUOUS
10
6.5636
20
-5.24154
11
6.5631
21
-5.24191
0
LINE
8
BLACK
6
CONTINUOUS
10
6.5631
20
-5.24191
11
6.56273
21
-5.24191
0
LINE
8
BLACK
6
CONTINUOUS
10
6.56273
20
-5.24191
11
6.5625
21
-5.242
0
LINE
8
BLACK
6
CONTINUOUS
10
6.5625
20
-5.242
11
5.4575
21
-5.24193
0
LINE
8
BLACK
6
CONTINUOUS
10
5.4575
20
-5.24193
11
5.45727
21
-5.24184
0
LINE
8
BLACK
6
CONTINUOUS
10
5.45727
20
-5.24184
11
5.4569
21
-5.24184
0
LINE
8
BLACK
6
CONTINUOUS
10
5.4569
20
-5.24184
11
5.4564
21
-5.24148
0
LINE
8
BLACK
6
CONTINUOUS
10
5.4564
20
-5.24148
11
5.45611
21
-5.24136
0
LINE
8
BLACK
6
CONTINUOUS
10
5.45611
20
-5.24136
11
5.45606
21
-5.24123
0
LINE
8
BLACK
6
CONTINUOUS
10
5.45606
20
-5.24123
11
5.45591
21
-5.24112
0
LINE
8
BLACK
6
CONTINUOUS
10
5.45591
20
-5.24112
11
5.45554
21
-5.23997
0
LINE
8
BLACK
6
CONTINUOUS
10
5.45554
20
-5.23997
11
5.45554
21
-5.23997
0
LINE
8
BLACK
6
CONTINUOUS
10
5.45554
20
-5.23997
11
5.45554
21
-5.23997
0
LINE
8
BLACK
6
CONTINUOUS
10
5.45554
20
-5.23997
11
5.45554
21
-5.23996
0
LINE
8
BLACK
6
CONTINUOUS
10
5.45554
20
-5.23996
11
5.45554
21
-5.23354
0
LINE
8
BLACK
6
CONTINUOUS
10
5.45554
20
-5.23354
11
5.4541
21
-5.22077
0
LINE
8
BLACK
6
CONTINUOUS
10
5.4541
20
-5.22077
11
5.45124
21
-5.20824
0
LINE
8
BLACK
6
CONTINUOUS
10
5.45124
20
-5.20824
11
5.44699
21
-5.19611
0
LINE
8
BLACK
6
CONTINUOUS
10
5.44699
20
-5.19611
11
5.44142
21
-5.18453
0
LINE
8
BLACK
6
CONTINUOUS
10
5.44142
20
-5.18453
11
5.43458
21
-5.17365
0
LINE
8
BLACK
6
CONTINUOUS
10
5.43458
20
-5.17365
11
5.42657
21
-5.1636
0
LINE
8
BLACK
6
CONTINUOUS
10
5.42657
20
-5.1636
11
5.41748
21
-5.15452
0
LINE
8
BLACK
6
CONTINUOUS
10
5.41748
20
-5.15452
11
5.40743
21
-5.1465
0
LINE
8
BLACK
6
CONTINUOUS
10
5.40743
20
-5.1465
11
5.39655
21
-5.13967
0
LINE
8
BLACK
6
CONTINUOUS
10
5.39655
20
-5.13967
11
5.38497
21
-5.13409
0
LINE
8
BLACK
6
CONTINUOUS
10
5.38497
20
-5.13409
11
5.37284
21
-5.12985
0
LINE
8
BLACK
6
CONTINUOUS
10
5.37284
20
-5.12985
11
5.36031
21
-5.12699
0
LINE
8
BLACK
6
CONTINUOUS
10
5.36031
20
-5.12699
11
5.34754
21
-5.12555
0
LINE
8
BLACK
6
CONTINUOUS
10
5.34754
20
-5.12555
11
5.34112
21
-5.12555
0
LINE
8
BLACK
6
CONTINUOUS
10
5.34112
20
-5.12555
11
5.3375
21
-5.12555
0
LINE
8
BLACK
6
CONTINUOUS
10
5.3375
20
-5.12555
11
5.33683
21
-5.12527
0
LINE
8
BLACK
6
CONTINUOUS
10
5.33683
20
-5.12527
11
5.33616
21
-5.12503
0
LINE
8
BLACK
6
CONTINUOUS
10
5.33616
20
-5.12503
11
5.33614
21
-5.12499
0
LINE
8
BLACK
6
CONTINUOUS
10
5.33614
20
-5.12499
11
5.3361
21
-5.12497
0
LINE
8
BLACK
6
CONTINUOUS
10
5.3361
20
-5.12497
11
5.33583
21
-5.12431
0
LINE
8
BLACK
6
CONTINUOUS
10
5.33583
20
-5.12431
11
5.33553
21
-5.12366
0
LINE
8
BLACK
6
CONTINUOUS
10
5.33553
20
-5.12366
11
5.20252
21
-1.94391
0
LINE
8
BLACK
6
CONTINUOUS
10
5.20252
20
-1.94391
11
5.20253
21
-1.94387
0
LINE
8
BLACK
6
CONTINUOUS
10
5.20253
20
-1.94387
11
5.20252
21
-1.94383
0
LINE
8
BLACK
6
CONTINUOUS
10
5.20252
20
-1.94383
11
5.20316
21
-1.93566
0
LINE
8
BLACK
6
CONTINUOUS
10
5.20316
20
-1.93566
11
5.20507
21
-1.92769
0
LINE
8
BLACK
6
CONTINUOUS
10
5.20507
20
-1.92769
11
5.20821
21
-1.92012
0
LINE
8
BLACK
6
CONTINUOUS
10
5.20821
20
-1.92012
11
5.21249
21
-1.91313
0
LINE
8
BLACK
6
CONTINUOUS
10
5.21249
20
-1.91313
11
5.21781
21
-1.9069
0
LINE
8
BLACK
6
CONTINUOUS
10
5.21781
20
-1.9069
11
5.22404
21
-1.90158
0
LINE
8
BLACK
6
CONTINUOUS
10
5.22404
20
-1.90158
11
5.23103
21
-1.8973
0
LINE
8
BLACK
6
CONTINUOUS
10
5.23103
20
-1.8973
11
5.2386
21
-1.89417
0
LINE
8
BLACK
6
CONTINUOUS
10
5.2386
20
-1.89417
11
5.24656
21
-1.89225
0
LINE
8
BLACK
6
CONTINUOUS
10
5.24656
20
-1.89225
11
5.25473
21
-1.89161
0
LINE
8
BLACK
6
CONTINUOUS
10
5.25473
20
-1.89161
11
5.25473
21
-1.89161
0
LINE
8
BLACK
6
CONTINUOUS
10
5.25473
20
-1.89161
11
6.76443
21
-1.89161
0
LINE
8
BLACK
6
CONTINUOUS
10
5.25473
20
-1.89555
11
5.25473
21
-1.89555
0
LINE
8
BLACK
6
CONTINUOUS
10
5.25473
20
-1.89555
11
5.25093
21
-1.89555
0
LINE
8
BLACK
6
CONTINUOUS
10
5.25093
20
-1.89555
11
5.24343
21
-1.89674
0
LINE
8
BLACK
6
CONTINUOUS
10
5.24343
20
-1.89674
11
5.2362
21
-1.89908
0
LINE
8
BLACK
6
CONTINUOUS
10
5.2362
20
-1.89908
11
5.22943
21
-1.90253
0
LINE
8
BLACK
6
CONTINUOUS
10
5.22943
20
-1.90253
11
5.22328
21
-1.907
0
LINE
8
BLACK
6
CONTINUOUS
10
5.22328
20
-1.907
11
5.21791
21
-1.91237
0
LINE
8
BLACK
6
CONTINUOUS
10
5.21791
20
-1.91237
11
5.21344
21
-1.91852
0
LINE
8
BLACK
6
CONTINUOUS
10
5.21344
20
-1.91852
11
5.20999
21
-1.92529
0
LINE
8
BLACK
6
CONTINUOUS
10
5.20999
20
-1.92529
11
5.20764
21
-1.93252
0
LINE
8
BLACK
6
CONTINUOUS
10
5.20764
20
-1.93252
11
5.20645
21
-1.94003
0
LINE
8
BLACK
6
CONTINUOUS
10
5.20645
20
-1.94003
11
5.20645
21
-1.94379
0
LINE
8
BLACK
6
CONTINUOUS
10
5.20645
20
-1.94379
11
5.33938
21
-5.12161
0
LINE
8
BLACK
6
CONTINUOUS
10
5.33938
20
-5.12161
11
5.34112
21
-5.12161
0
LINE
8
BLACK
6
CONTINUOUS
10
5.34112
20
-5.12161
11
5.35349
21
-5.12226
0
LINE
8
BLACK
6
CONTINUOUS
10
5.35349
20
-5.12226
11
5.36573
21
-5.1242
0
LINE
8
BLACK
6
CONTINUOUS
10
5.36573
20
-5.1242
11
5.37769
21
-5.1274
0
LINE
8
BLACK
6
CONTINUOUS
10
5.37769
20
-5.1274
11
5.38926
21
-5.13184
0
LINE
8
BLACK
6
CONTINUOUS
10
5.38926
20
-5.13184
11
5.4003
21
-5.13747
0
LINE
8
BLACK
6
CONTINUOUS
10
5.4003
20
-5.13747
11
5.41069
21
-5.14421
0
LINE
8
BLACK
6
CONTINUOUS
10
5.41069
20
-5.14421
11
5.42031
21
-5.15201
0
LINE
8
BLACK
6
CONTINUOUS
10
5.42031
20
-5.15201
11
5.42907
21
-5.16077
0
LINE
8
BLACK
6
CONTINUOUS
10
5.42907
20
-5.16077
11
5.43687
21
-5.1704
0
LINE
8
BLACK
6
CONTINUOUS
10
5.43687
20
-5.1704
11
5.44362
21
-5.18079
0
LINE
8
BLACK
6
CONTINUOUS
10
5.44362
20
-5.18079
11
5.44924
21
-5.19183
0
LINE
8
BLACK
6
CONTINUOUS
10
5.44924
20
-5.19183
11
5.45368
21
-5.20339
0
LINE
8
BLACK
6
CONTINUOUS
10
5.45368
20
-5.20339
11
5.45689
21
-5.21536
0
LINE
8
BLACK
6
CONTINUOUS
10
5.45689
20
-5.21536
11
5.45882
21
-5.22759
0
LINE
8
BLACK
6
CONTINUOUS
10
5.45882
20
-5.22759
11
5.45937
21
-5.238
0
LINE
8
BLACK
6
CONTINUOUS
10
5.45937
20
-5.238
11
6.56063
21
-5.23807
0
LINE
8
BLACK
6
CONTINUOUS
10
6.56063
20
-5.23807
11
6.56118
21
-5.22766
0
LINE
8
BLACK
6
CONTINUOUS
10
6.56118
20
-5.22766
11
6.56311
21
-5.21543
0
LINE
8
BLACK
6
CONTINUOUS
10
6.56311
20
-5.21543
11
6.56632
21
-5.20346
0
LINE
8
BLACK
6
CONTINUOUS
10
6.56632
20
-5.20346
11
6.57076
21
-5.1919
0
LINE
8
BLACK
6
CONTINUOUS
10
6.57076
20
-5.1919
11
6.57638
21
-5.18086
0
LINE
8
BLACK
6
CONTINUOUS
10
6.57638
20
-5.18086
11
6.58313
21
-5.17047
0
LINE
8
BLACK
6
CONTINUOUS
10
6.58313
20
-5.17047
11
6.59093
21
-5.16084
0
LINE
8
BLACK
6
CONTINUOUS
10
6.59093
20
-5.16084
11
6.59969
21
-5.15208
0
LINE
8
BLACK
6
CONTINUOUS
10
6.59969
20
-5.15208
11
6.60932
21
-5.14428
0
LINE
8
BLACK
6
CONTINUOUS
10
6.60932
20
-5.14428
11
6.6197
21
-5.13754
0
LINE
8
BLACK
6
CONTINUOUS
10
6.6197
20
-5.13754
11
6.63074
21
-5.13191
0
LINE
8
BLACK
6
CONTINUOUS
10
6.63074
20
-5.13191
11
6.64231
21
-5.12747
0
LINE
8
BLACK
6
CONTINUOUS
10
6.64231
20
-5.12747
11
6.65428
21
-5.12427
0
LINE
8
BLACK
6
CONTINUOUS
10
6.65428
20
-5.12427
11
6.66651
21
-5.12233
0
LINE
8
BLACK
6
CONTINUOUS
10
6.66651
20
-5.12233
11
6.67888
21
-5.12168
0
LINE
8
BLACK
6
CONTINUOUS
10
6.67888
20
-5.12168
11
6.67888
21
-5.12168
0
LINE
8
BLACK
6
CONTINUOUS
10
6.67888
20
-5.12168
11
6.68062
21
-5.12168
0
LINE
8
BLACK
6
CONTINUOUS
10
6.68062
20
-5.12168
11
6.81271
21
-1.9438
0
LINE
8
BLACK
6
CONTINUOUS
10
6.81271
20
-1.9438
11
6.81271
21
-1.94003
0
LINE
8
BLACK
6
CONTINUOUS
10
6.81271
20
-1.94003
11
6.81152
21
-1.93252
0
LINE
8
BLACK
6
CONTINUOUS
10
6.81152
20
-1.93252
11
6.80917
21
-1.92529
0
LINE
8
BLACK
6
CONTINUOUS
10
6.80917
20
-1.92529
11
6.80572
21
-1.91852
0
LINE
8
BLACK
6
CONTINUOUS
10
6.80572
20
-1.91852
11
6.80126
21
-1.91237
0
LINE
8
BLACK
6
CONTINUOUS
10
6.80126
20
-1.91237
11
6.79588
21
-1.907
0
LINE
8
BLACK
6
CONTINUOUS
10
6.79588
20
-1.907
11
6.78973
21
-1.90253
0
LINE
8
BLACK
6
CONTINUOUS
10
6.78973
20
-1.90253
11
6.78296
21
-1.89908
0
LINE
8
BLACK
6
CONTINUOUS
10
6.78296
20
-1.89908
11
6.77573
21
-1.89674
0
LINE
8
BLACK
6
CONTINUOUS
10
6.77573
20
-1.89674
11
6.76823
21
-1.89555
0
LINE
8
BLACK
6
CONTINUOUS
10
6.76823
20
-1.89555
11
6.76443
21
-1.89555
0
LINE
8
BLACK
6
CONTINUOUS
10
6.76443
20
-1.89555
11
5.25473
21
-1.89555
0
LINE
8
BLACK
6
CONTINUOUS
10
5.25473
20
-1.89555
11
5.25473
21
-1.89555
0
LINE
8
BLACK
6
CONTINUOUS
10
5.25473
20
-1.89555
11
5.25473
21
-1.89555
  0
ENDSEC
  0
EOF
