%TF.GenerationSoftware,KiCad,Pcbnew,(7.0.0)*%
%TF.CreationDate,2023-03-18T07:41:40+03:00*%
%TF.ProjectId,StudioMic,53747564-696f-44d6-9963-2e6b69636164,1*%
%TF.SameCoordinates,Original*%
%TF.FileFunction,Copper,L2,Bot*%
%TF.FilePolarity,Positive*%
%FSLAX46Y46*%
G04 Gerber Fmt 4.6, Leading zero omitted, Abs format (unit mm)*
G04 Created by KiCad (PCBNEW (7.0.0)) date 2023-03-18 07:41:40*
%MOMM*%
%LPD*%
G01*
G04 APERTURE LIST*
%TA.AperFunction,ViaPad*%
%ADD10C,2.000000*%
%TD*%
%TA.AperFunction,Conductor*%
%ADD11C,0.400000*%
%TD*%
G04 APERTURE END LIST*
D10*
%TO.N,HT*%
X158242000Y-56388000D03*
X162687000Y-58039000D03*
%TO.N,Net-(C1-Pad2)*%
X150391500Y-71755000D03*
X151638000Y-106934000D03*
%TO.N,Net-(U1A--)*%
X143764000Y-108331000D03*
X153416000Y-59817000D03*
%TO.N,+12V*%
X154822500Y-67827500D03*
X163322000Y-109093000D03*
X153670000Y-77724000D03*
X163322000Y-104013000D03*
%TO.N,GNDREF*%
X147955000Y-78232000D03*
X145034000Y-59563000D03*
%TD*%
D11*
%TO.N,+12V*%
X153670000Y-68980000D02*
X154822500Y-67827500D01*
X153670000Y-77724000D02*
X153670000Y-68980000D01*
%TO.N,Net-(U1A--)*%
X140081000Y-104648000D02*
X143764000Y-108331000D01*
X140081000Y-58293000D02*
X140081000Y-104648000D01*
X150495000Y-56896000D02*
X141478000Y-56896000D01*
X153416000Y-59817000D02*
X150495000Y-56896000D01*
X141478000Y-56896000D02*
X140081000Y-58293000D01*
%TO.N,Net-(C1-Pad2)*%
X150391500Y-81811500D02*
X150391500Y-71755000D01*
X152518990Y-83938990D02*
X150391500Y-81811500D01*
X152518990Y-106053010D02*
X152518990Y-83938990D01*
X151638000Y-106934000D02*
X152518990Y-106053010D01*
%TO.N,+12V*%
X163322000Y-104013000D02*
X163322000Y-109093000D01*
%TO.N,GNDREF*%
X145542000Y-78232000D02*
X147955000Y-78232000D01*
X142240000Y-74930000D02*
X145542000Y-78232000D01*
X143764000Y-59563000D02*
X142240000Y-61087000D01*
X145034000Y-59563000D02*
X143764000Y-59563000D01*
X142240000Y-61087000D02*
X142240000Y-74930000D01*
%TO.N,HT*%
X162687000Y-57721500D02*
X162687000Y-58039000D01*
X161353500Y-56388000D02*
X162687000Y-57721500D01*
X158242000Y-56388000D02*
X161353500Y-56388000D01*
%TD*%
M02*
