%TF.GenerationSoftware,KiCad,Pcbnew,(7.0.0)*%
%TF.CreationDate,2023-03-18T07:41:42+03:00*%
%TF.ProjectId,StudioMic,53747564-696f-44d6-9963-2e6b69636164,1*%
%TF.SameCoordinates,Original*%
%TF.FileFunction,Drillmap*%
%TF.FilePolarity,Positive*%
%FSLAX45Y45*%
G04 Gerber Fmt 4.5, Leading zero omitted, Abs format (unit mm)*
G04 Created by KiCad (PCBNEW (7.0.0)) date 2023-03-18 07:41:42*
%MOMM*%
%LPD*%
G01*
G04 APERTURE LIST*
%ADD10C,0.100000*%
%ADD11C,0.200000*%
G04 APERTURE END LIST*
D10*
X16964362Y-13014065D02*
X16973562Y-13014065D01*
X13862062Y-13309511D02*
G75*
G03*
X13566438Y-13013888I-295622J2D01*
G01*
X13566438Y-13013888D02*
X13557238Y-13013888D01*
X17309284Y-4937321D02*
G75*
G03*
X17181650Y-4809688I-127633J0D01*
G01*
X13347022Y-4809688D02*
G75*
G03*
X13219389Y-4937321I0J-127633D01*
G01*
X13219389Y-4937321D02*
X13557238Y-13013888D01*
X13347022Y-4809688D02*
X17181650Y-4809688D01*
X17309284Y-4937321D02*
X16973562Y-13014065D01*
X16964362Y-13014068D02*
G75*
G03*
X16668738Y-13309688I-2J-295622D01*
G01*
X13862061Y-13309511D02*
X16668738Y-13309688D01*
D11*
D10*
X14326400Y-10783100D02*
X14426400Y-10883100D01*
X14426400Y-10783100D02*
X14326400Y-10883100D01*
X14453400Y-5906300D02*
X14553400Y-6006300D01*
X14553400Y-5906300D02*
X14453400Y-6006300D01*
X14745500Y-7773200D02*
X14845500Y-7873200D01*
X14845500Y-7773200D02*
X14745500Y-7873200D01*
X14989150Y-7125500D02*
X15089150Y-7225500D01*
X15089150Y-7125500D02*
X14989150Y-7225500D01*
X15113800Y-10643400D02*
X15213800Y-10743400D01*
X15213800Y-10643400D02*
X15113800Y-10743400D01*
X15291600Y-5931700D02*
X15391600Y-6031700D01*
X15391600Y-5931700D02*
X15291600Y-6031700D01*
X15317000Y-7722400D02*
X15417000Y-7822400D01*
X15417000Y-7722400D02*
X15317000Y-7822400D01*
X15432250Y-6732750D02*
X15532250Y-6832750D01*
X15532250Y-6732750D02*
X15432250Y-6832750D01*
X15774200Y-5588800D02*
X15874200Y-5688800D01*
X15874200Y-5588800D02*
X15774200Y-5688800D01*
X16218700Y-5753900D02*
X16318700Y-5853900D01*
X16318700Y-5753900D02*
X16218700Y-5853900D01*
X16282200Y-10351300D02*
X16382200Y-10451300D01*
X16382200Y-10351300D02*
X16282200Y-10451300D01*
X16282200Y-10859300D02*
X16382200Y-10959300D01*
X16382200Y-10859300D02*
X16282200Y-10959300D01*
D11*
X13462008Y-13608164D02*
X13462008Y-13408164D01*
X13462008Y-13408164D02*
X13509627Y-13408164D01*
X13509627Y-13408164D02*
X13538199Y-13417688D01*
X13538199Y-13417688D02*
X13557246Y-13436736D01*
X13557246Y-13436736D02*
X13566770Y-13455784D01*
X13566770Y-13455784D02*
X13576294Y-13493879D01*
X13576294Y-13493879D02*
X13576294Y-13522450D01*
X13576294Y-13522450D02*
X13566770Y-13560545D01*
X13566770Y-13560545D02*
X13557246Y-13579593D01*
X13557246Y-13579593D02*
X13538199Y-13598641D01*
X13538199Y-13598641D02*
X13509627Y-13608164D01*
X13509627Y-13608164D02*
X13462008Y-13608164D01*
X13662008Y-13608164D02*
X13662008Y-13474831D01*
X13662008Y-13512926D02*
X13671532Y-13493879D01*
X13671532Y-13493879D02*
X13681056Y-13484355D01*
X13681056Y-13484355D02*
X13700103Y-13474831D01*
X13700103Y-13474831D02*
X13719151Y-13474831D01*
X13785818Y-13608164D02*
X13785818Y-13474831D01*
X13785818Y-13408164D02*
X13776294Y-13417688D01*
X13776294Y-13417688D02*
X13785818Y-13427212D01*
X13785818Y-13427212D02*
X13795341Y-13417688D01*
X13795341Y-13417688D02*
X13785818Y-13408164D01*
X13785818Y-13408164D02*
X13785818Y-13427212D01*
X13909627Y-13608164D02*
X13890579Y-13598641D01*
X13890579Y-13598641D02*
X13881056Y-13579593D01*
X13881056Y-13579593D02*
X13881056Y-13408164D01*
X14014389Y-13608164D02*
X13995341Y-13598641D01*
X13995341Y-13598641D02*
X13985818Y-13579593D01*
X13985818Y-13579593D02*
X13985818Y-13408164D01*
X14210579Y-13608164D02*
X14210579Y-13408164D01*
X14210579Y-13408164D02*
X14277246Y-13551022D01*
X14277246Y-13551022D02*
X14343913Y-13408164D01*
X14343913Y-13408164D02*
X14343913Y-13608164D01*
X14524865Y-13608164D02*
X14524865Y-13503403D01*
X14524865Y-13503403D02*
X14515341Y-13484355D01*
X14515341Y-13484355D02*
X14496294Y-13474831D01*
X14496294Y-13474831D02*
X14458198Y-13474831D01*
X14458198Y-13474831D02*
X14439151Y-13484355D01*
X14524865Y-13598641D02*
X14505818Y-13608164D01*
X14505818Y-13608164D02*
X14458198Y-13608164D01*
X14458198Y-13608164D02*
X14439151Y-13598641D01*
X14439151Y-13598641D02*
X14429627Y-13579593D01*
X14429627Y-13579593D02*
X14429627Y-13560545D01*
X14429627Y-13560545D02*
X14439151Y-13541498D01*
X14439151Y-13541498D02*
X14458198Y-13531974D01*
X14458198Y-13531974D02*
X14505818Y-13531974D01*
X14505818Y-13531974D02*
X14524865Y-13522450D01*
X14620103Y-13474831D02*
X14620103Y-13674831D01*
X14620103Y-13484355D02*
X14639151Y-13474831D01*
X14639151Y-13474831D02*
X14677246Y-13474831D01*
X14677246Y-13474831D02*
X14696294Y-13484355D01*
X14696294Y-13484355D02*
X14705818Y-13493879D01*
X14705818Y-13493879D02*
X14715341Y-13512926D01*
X14715341Y-13512926D02*
X14715341Y-13570069D01*
X14715341Y-13570069D02*
X14705818Y-13589117D01*
X14705818Y-13589117D02*
X14696294Y-13598641D01*
X14696294Y-13598641D02*
X14677246Y-13608164D01*
X14677246Y-13608164D02*
X14639151Y-13608164D01*
X14639151Y-13608164D02*
X14620103Y-13598641D01*
X14801056Y-13589117D02*
X14810579Y-13598641D01*
X14810579Y-13598641D02*
X14801056Y-13608164D01*
X14801056Y-13608164D02*
X14791532Y-13598641D01*
X14791532Y-13598641D02*
X14801056Y-13589117D01*
X14801056Y-13589117D02*
X14801056Y-13608164D01*
X14801056Y-13484355D02*
X14810579Y-13493879D01*
X14810579Y-13493879D02*
X14801056Y-13503403D01*
X14801056Y-13503403D02*
X14791532Y-13493879D01*
X14791532Y-13493879D02*
X14801056Y-13484355D01*
X14801056Y-13484355D02*
X14801056Y-13503403D01*
D10*
X13114389Y-13904688D02*
X13214389Y-14004688D01*
X13214389Y-13904688D02*
X13114389Y-14004688D01*
D11*
X13566770Y-14028164D02*
X13452484Y-14028164D01*
X13509627Y-14028164D02*
X13509627Y-13828164D01*
X13509627Y-13828164D02*
X13490579Y-13856736D01*
X13490579Y-13856736D02*
X13471532Y-13875784D01*
X13471532Y-13875784D02*
X13452484Y-13885307D01*
X13652484Y-14009117D02*
X13662008Y-14018641D01*
X13662008Y-14018641D02*
X13652484Y-14028164D01*
X13652484Y-14028164D02*
X13642960Y-14018641D01*
X13642960Y-14018641D02*
X13652484Y-14009117D01*
X13652484Y-14009117D02*
X13652484Y-14028164D01*
X13785818Y-13828164D02*
X13804865Y-13828164D01*
X13804865Y-13828164D02*
X13823913Y-13837688D01*
X13823913Y-13837688D02*
X13833437Y-13847212D01*
X13833437Y-13847212D02*
X13842960Y-13866260D01*
X13842960Y-13866260D02*
X13852484Y-13904355D01*
X13852484Y-13904355D02*
X13852484Y-13951974D01*
X13852484Y-13951974D02*
X13842960Y-13990069D01*
X13842960Y-13990069D02*
X13833437Y-14009117D01*
X13833437Y-14009117D02*
X13823913Y-14018641D01*
X13823913Y-14018641D02*
X13804865Y-14028164D01*
X13804865Y-14028164D02*
X13785818Y-14028164D01*
X13785818Y-14028164D02*
X13766770Y-14018641D01*
X13766770Y-14018641D02*
X13757246Y-14009117D01*
X13757246Y-14009117D02*
X13747722Y-13990069D01*
X13747722Y-13990069D02*
X13738199Y-13951974D01*
X13738199Y-13951974D02*
X13738199Y-13904355D01*
X13738199Y-13904355D02*
X13747722Y-13866260D01*
X13747722Y-13866260D02*
X13757246Y-13847212D01*
X13757246Y-13847212D02*
X13766770Y-13837688D01*
X13766770Y-13837688D02*
X13785818Y-13828164D01*
X13976294Y-13828164D02*
X13995341Y-13828164D01*
X13995341Y-13828164D02*
X14014389Y-13837688D01*
X14014389Y-13837688D02*
X14023913Y-13847212D01*
X14023913Y-13847212D02*
X14033437Y-13866260D01*
X14033437Y-13866260D02*
X14042960Y-13904355D01*
X14042960Y-13904355D02*
X14042960Y-13951974D01*
X14042960Y-13951974D02*
X14033437Y-13990069D01*
X14033437Y-13990069D02*
X14023913Y-14009117D01*
X14023913Y-14009117D02*
X14014389Y-14018641D01*
X14014389Y-14018641D02*
X13995341Y-14028164D01*
X13995341Y-14028164D02*
X13976294Y-14028164D01*
X13976294Y-14028164D02*
X13957246Y-14018641D01*
X13957246Y-14018641D02*
X13947722Y-14009117D01*
X13947722Y-14009117D02*
X13938199Y-13990069D01*
X13938199Y-13990069D02*
X13928675Y-13951974D01*
X13928675Y-13951974D02*
X13928675Y-13904355D01*
X13928675Y-13904355D02*
X13938199Y-13866260D01*
X13938199Y-13866260D02*
X13947722Y-13847212D01*
X13947722Y-13847212D02*
X13957246Y-13837688D01*
X13957246Y-13837688D02*
X13976294Y-13828164D01*
X14166770Y-13828164D02*
X14185818Y-13828164D01*
X14185818Y-13828164D02*
X14204865Y-13837688D01*
X14204865Y-13837688D02*
X14214389Y-13847212D01*
X14214389Y-13847212D02*
X14223913Y-13866260D01*
X14223913Y-13866260D02*
X14233437Y-13904355D01*
X14233437Y-13904355D02*
X14233437Y-13951974D01*
X14233437Y-13951974D02*
X14223913Y-13990069D01*
X14223913Y-13990069D02*
X14214389Y-14009117D01*
X14214389Y-14009117D02*
X14204865Y-14018641D01*
X14204865Y-14018641D02*
X14185818Y-14028164D01*
X14185818Y-14028164D02*
X14166770Y-14028164D01*
X14166770Y-14028164D02*
X14147722Y-14018641D01*
X14147722Y-14018641D02*
X14138199Y-14009117D01*
X14138199Y-14009117D02*
X14128675Y-13990069D01*
X14128675Y-13990069D02*
X14119151Y-13951974D01*
X14119151Y-13951974D02*
X14119151Y-13904355D01*
X14119151Y-13904355D02*
X14128675Y-13866260D01*
X14128675Y-13866260D02*
X14138199Y-13847212D01*
X14138199Y-13847212D02*
X14147722Y-13837688D01*
X14147722Y-13837688D02*
X14166770Y-13828164D01*
X14319151Y-14028164D02*
X14319151Y-13894831D01*
X14319151Y-13913879D02*
X14328675Y-13904355D01*
X14328675Y-13904355D02*
X14347722Y-13894831D01*
X14347722Y-13894831D02*
X14376294Y-13894831D01*
X14376294Y-13894831D02*
X14395341Y-13904355D01*
X14395341Y-13904355D02*
X14404865Y-13923403D01*
X14404865Y-13923403D02*
X14404865Y-14028164D01*
X14404865Y-13923403D02*
X14414389Y-13904355D01*
X14414389Y-13904355D02*
X14433437Y-13894831D01*
X14433437Y-13894831D02*
X14462008Y-13894831D01*
X14462008Y-13894831D02*
X14481056Y-13904355D01*
X14481056Y-13904355D02*
X14490580Y-13923403D01*
X14490580Y-13923403D02*
X14490580Y-14028164D01*
X14585818Y-14028164D02*
X14585818Y-13894831D01*
X14585818Y-13913879D02*
X14595341Y-13904355D01*
X14595341Y-13904355D02*
X14614389Y-13894831D01*
X14614389Y-13894831D02*
X14642961Y-13894831D01*
X14642961Y-13894831D02*
X14662008Y-13904355D01*
X14662008Y-13904355D02*
X14671532Y-13923403D01*
X14671532Y-13923403D02*
X14671532Y-14028164D01*
X14671532Y-13923403D02*
X14681056Y-13904355D01*
X14681056Y-13904355D02*
X14700103Y-13894831D01*
X14700103Y-13894831D02*
X14728675Y-13894831D01*
X14728675Y-13894831D02*
X14747722Y-13904355D01*
X14747722Y-13904355D02*
X14757246Y-13923403D01*
X14757246Y-13923403D02*
X14757246Y-14028164D01*
X15115341Y-13818641D02*
X14943913Y-14075784D01*
X15340103Y-13828164D02*
X15359151Y-13828164D01*
X15359151Y-13828164D02*
X15378199Y-13837688D01*
X15378199Y-13837688D02*
X15387722Y-13847212D01*
X15387722Y-13847212D02*
X15397246Y-13866260D01*
X15397246Y-13866260D02*
X15406770Y-13904355D01*
X15406770Y-13904355D02*
X15406770Y-13951974D01*
X15406770Y-13951974D02*
X15397246Y-13990069D01*
X15397246Y-13990069D02*
X15387722Y-14009117D01*
X15387722Y-14009117D02*
X15378199Y-14018641D01*
X15378199Y-14018641D02*
X15359151Y-14028164D01*
X15359151Y-14028164D02*
X15340103Y-14028164D01*
X15340103Y-14028164D02*
X15321056Y-14018641D01*
X15321056Y-14018641D02*
X15311532Y-14009117D01*
X15311532Y-14009117D02*
X15302008Y-13990069D01*
X15302008Y-13990069D02*
X15292484Y-13951974D01*
X15292484Y-13951974D02*
X15292484Y-13904355D01*
X15292484Y-13904355D02*
X15302008Y-13866260D01*
X15302008Y-13866260D02*
X15311532Y-13847212D01*
X15311532Y-13847212D02*
X15321056Y-13837688D01*
X15321056Y-13837688D02*
X15340103Y-13828164D01*
X15492484Y-14009117D02*
X15502008Y-14018641D01*
X15502008Y-14018641D02*
X15492484Y-14028164D01*
X15492484Y-14028164D02*
X15482961Y-14018641D01*
X15482961Y-14018641D02*
X15492484Y-14009117D01*
X15492484Y-14009117D02*
X15492484Y-14028164D01*
X15625818Y-13828164D02*
X15644865Y-13828164D01*
X15644865Y-13828164D02*
X15663913Y-13837688D01*
X15663913Y-13837688D02*
X15673437Y-13847212D01*
X15673437Y-13847212D02*
X15682961Y-13866260D01*
X15682961Y-13866260D02*
X15692484Y-13904355D01*
X15692484Y-13904355D02*
X15692484Y-13951974D01*
X15692484Y-13951974D02*
X15682961Y-13990069D01*
X15682961Y-13990069D02*
X15673437Y-14009117D01*
X15673437Y-14009117D02*
X15663913Y-14018641D01*
X15663913Y-14018641D02*
X15644865Y-14028164D01*
X15644865Y-14028164D02*
X15625818Y-14028164D01*
X15625818Y-14028164D02*
X15606770Y-14018641D01*
X15606770Y-14018641D02*
X15597246Y-14009117D01*
X15597246Y-14009117D02*
X15587722Y-13990069D01*
X15587722Y-13990069D02*
X15578199Y-13951974D01*
X15578199Y-13951974D02*
X15578199Y-13904355D01*
X15578199Y-13904355D02*
X15587722Y-13866260D01*
X15587722Y-13866260D02*
X15597246Y-13847212D01*
X15597246Y-13847212D02*
X15606770Y-13837688D01*
X15606770Y-13837688D02*
X15625818Y-13828164D01*
X15759151Y-13828164D02*
X15882961Y-13828164D01*
X15882961Y-13828164D02*
X15816294Y-13904355D01*
X15816294Y-13904355D02*
X15844865Y-13904355D01*
X15844865Y-13904355D02*
X15863913Y-13913879D01*
X15863913Y-13913879D02*
X15873437Y-13923403D01*
X15873437Y-13923403D02*
X15882961Y-13942450D01*
X15882961Y-13942450D02*
X15882961Y-13990069D01*
X15882961Y-13990069D02*
X15873437Y-14009117D01*
X15873437Y-14009117D02*
X15863913Y-14018641D01*
X15863913Y-14018641D02*
X15844865Y-14028164D01*
X15844865Y-14028164D02*
X15787722Y-14028164D01*
X15787722Y-14028164D02*
X15768675Y-14018641D01*
X15768675Y-14018641D02*
X15759151Y-14009117D01*
X15978199Y-14028164D02*
X16016294Y-14028164D01*
X16016294Y-14028164D02*
X16035342Y-14018641D01*
X16035342Y-14018641D02*
X16044865Y-14009117D01*
X16044865Y-14009117D02*
X16063913Y-13980545D01*
X16063913Y-13980545D02*
X16073437Y-13942450D01*
X16073437Y-13942450D02*
X16073437Y-13866260D01*
X16073437Y-13866260D02*
X16063913Y-13847212D01*
X16063913Y-13847212D02*
X16054389Y-13837688D01*
X16054389Y-13837688D02*
X16035342Y-13828164D01*
X16035342Y-13828164D02*
X15997246Y-13828164D01*
X15997246Y-13828164D02*
X15978199Y-13837688D01*
X15978199Y-13837688D02*
X15968675Y-13847212D01*
X15968675Y-13847212D02*
X15959151Y-13866260D01*
X15959151Y-13866260D02*
X15959151Y-13913879D01*
X15959151Y-13913879D02*
X15968675Y-13932926D01*
X15968675Y-13932926D02*
X15978199Y-13942450D01*
X15978199Y-13942450D02*
X15997246Y-13951974D01*
X15997246Y-13951974D02*
X16035342Y-13951974D01*
X16035342Y-13951974D02*
X16054389Y-13942450D01*
X16054389Y-13942450D02*
X16063913Y-13932926D01*
X16063913Y-13932926D02*
X16073437Y-13913879D01*
X16244865Y-13894831D02*
X16244865Y-14028164D01*
X16197246Y-13818641D02*
X16149627Y-13961498D01*
X16149627Y-13961498D02*
X16273437Y-13961498D01*
X16340103Y-13828164D02*
X16340103Y-13866260D01*
X16416294Y-13828164D02*
X16416294Y-13866260D01*
X16679151Y-14104355D02*
X16669627Y-14094831D01*
X16669627Y-14094831D02*
X16650580Y-14066260D01*
X16650580Y-14066260D02*
X16641056Y-14047212D01*
X16641056Y-14047212D02*
X16631532Y-14018641D01*
X16631532Y-14018641D02*
X16622008Y-13971022D01*
X16622008Y-13971022D02*
X16622008Y-13932926D01*
X16622008Y-13932926D02*
X16631532Y-13885307D01*
X16631532Y-13885307D02*
X16641056Y-13856736D01*
X16641056Y-13856736D02*
X16650580Y-13837688D01*
X16650580Y-13837688D02*
X16669627Y-13809117D01*
X16669627Y-13809117D02*
X16679151Y-13799593D01*
X16860104Y-14028164D02*
X16745818Y-14028164D01*
X16802961Y-14028164D02*
X16802961Y-13828164D01*
X16802961Y-13828164D02*
X16783913Y-13856736D01*
X16783913Y-13856736D02*
X16764865Y-13875784D01*
X16764865Y-13875784D02*
X16745818Y-13885307D01*
X16936294Y-13847212D02*
X16945818Y-13837688D01*
X16945818Y-13837688D02*
X16964865Y-13828164D01*
X16964865Y-13828164D02*
X17012485Y-13828164D01*
X17012485Y-13828164D02*
X17031532Y-13837688D01*
X17031532Y-13837688D02*
X17041056Y-13847212D01*
X17041056Y-13847212D02*
X17050580Y-13866260D01*
X17050580Y-13866260D02*
X17050580Y-13885307D01*
X17050580Y-13885307D02*
X17041056Y-13913879D01*
X17041056Y-13913879D02*
X16926770Y-14028164D01*
X16926770Y-14028164D02*
X17050580Y-14028164D01*
X17256294Y-14028164D02*
X17256294Y-13828164D01*
X17342008Y-14028164D02*
X17342008Y-13923403D01*
X17342008Y-13923403D02*
X17332485Y-13904355D01*
X17332485Y-13904355D02*
X17313437Y-13894831D01*
X17313437Y-13894831D02*
X17284865Y-13894831D01*
X17284865Y-13894831D02*
X17265818Y-13904355D01*
X17265818Y-13904355D02*
X17256294Y-13913879D01*
X17465818Y-14028164D02*
X17446770Y-14018641D01*
X17446770Y-14018641D02*
X17437246Y-14009117D01*
X17437246Y-14009117D02*
X17427723Y-13990069D01*
X17427723Y-13990069D02*
X17427723Y-13932926D01*
X17427723Y-13932926D02*
X17437246Y-13913879D01*
X17437246Y-13913879D02*
X17446770Y-13904355D01*
X17446770Y-13904355D02*
X17465818Y-13894831D01*
X17465818Y-13894831D02*
X17494389Y-13894831D01*
X17494389Y-13894831D02*
X17513437Y-13904355D01*
X17513437Y-13904355D02*
X17522961Y-13913879D01*
X17522961Y-13913879D02*
X17532485Y-13932926D01*
X17532485Y-13932926D02*
X17532485Y-13990069D01*
X17532485Y-13990069D02*
X17522961Y-14009117D01*
X17522961Y-14009117D02*
X17513437Y-14018641D01*
X17513437Y-14018641D02*
X17494389Y-14028164D01*
X17494389Y-14028164D02*
X17465818Y-14028164D01*
X17646770Y-14028164D02*
X17627723Y-14018641D01*
X17627723Y-14018641D02*
X17618199Y-13999593D01*
X17618199Y-13999593D02*
X17618199Y-13828164D01*
X17799151Y-14018641D02*
X17780104Y-14028164D01*
X17780104Y-14028164D02*
X17742008Y-14028164D01*
X17742008Y-14028164D02*
X17722961Y-14018641D01*
X17722961Y-14018641D02*
X17713437Y-13999593D01*
X17713437Y-13999593D02*
X17713437Y-13923403D01*
X17713437Y-13923403D02*
X17722961Y-13904355D01*
X17722961Y-13904355D02*
X17742008Y-13894831D01*
X17742008Y-13894831D02*
X17780104Y-13894831D01*
X17780104Y-13894831D02*
X17799151Y-13904355D01*
X17799151Y-13904355D02*
X17808675Y-13923403D01*
X17808675Y-13923403D02*
X17808675Y-13942450D01*
X17808675Y-13942450D02*
X17713437Y-13961498D01*
X17884866Y-14018641D02*
X17903913Y-14028164D01*
X17903913Y-14028164D02*
X17942008Y-14028164D01*
X17942008Y-14028164D02*
X17961056Y-14018641D01*
X17961056Y-14018641D02*
X17970580Y-13999593D01*
X17970580Y-13999593D02*
X17970580Y-13990069D01*
X17970580Y-13990069D02*
X17961056Y-13971022D01*
X17961056Y-13971022D02*
X17942008Y-13961498D01*
X17942008Y-13961498D02*
X17913437Y-13961498D01*
X17913437Y-13961498D02*
X17894389Y-13951974D01*
X17894389Y-13951974D02*
X17884866Y-13932926D01*
X17884866Y-13932926D02*
X17884866Y-13923403D01*
X17884866Y-13923403D02*
X17894389Y-13904355D01*
X17894389Y-13904355D02*
X17913437Y-13894831D01*
X17913437Y-13894831D02*
X17942008Y-13894831D01*
X17942008Y-13894831D02*
X17961056Y-13904355D01*
X18037247Y-14104355D02*
X18046770Y-14094831D01*
X18046770Y-14094831D02*
X18065818Y-14066260D01*
X18065818Y-14066260D02*
X18075342Y-14047212D01*
X18075342Y-14047212D02*
X18084866Y-14018641D01*
X18084866Y-14018641D02*
X18094389Y-13971022D01*
X18094389Y-13971022D02*
X18094389Y-13932926D01*
X18094389Y-13932926D02*
X18084866Y-13885307D01*
X18084866Y-13885307D02*
X18075342Y-13856736D01*
X18075342Y-13856736D02*
X18065818Y-13837688D01*
X18065818Y-13837688D02*
X18046770Y-13809117D01*
X18046770Y-13809117D02*
X18037247Y-13799593D01*
M02*
