%TF.GenerationSoftware,KiCad,Pcbnew,(7.0.0)*%
%TF.CreationDate,2023-03-18T07:41:40+03:00*%
%TF.ProjectId,StudioMic,53747564-696f-44d6-9963-2e6b69636164,1*%
%TF.SameCoordinates,Original*%
%TF.FileFunction,Legend,Top*%
%TF.FilePolarity,Positive*%
%FSLAX46Y46*%
G04 Gerber Fmt 4.6, Leading zero omitted, Abs format (unit mm)*
G04 Created by KiCad (PCBNEW (7.0.0)) date 2023-03-18 07:41:40*
%MOMM*%
%LPD*%
G01*
G04 APERTURE LIST*
%ADD10C,0.150000*%
%ADD11C,0.329000*%
%ADD12C,0.120000*%
G04 APERTURE END LIST*
D10*
X151257000Y-54737000D02*
X151257000Y-55245000D01*
X139827000Y-56388000D02*
X140208000Y-56388000D01*
X139827000Y-58166000D02*
X139827000Y-56388000D01*
D11*
X156120500Y-75946000D02*
G75*
G03*
X156120500Y-75946000I-164500J0D01*
G01*
D10*
X145542000Y-74676000D02*
X135128000Y-74676000D01*
X135128000Y-55499000D02*
X137160000Y-55499000D01*
X169409936Y-51396884D02*
G75*
G03*
X169409936Y-51396884I-2265936J0D01*
G01*
X140397552Y-51396884D02*
G75*
G03*
X140397552Y-51396884I-2253937J0D01*
G01*
X161036000Y-82061000D02*
X161036000Y-80156000D01*
X167132000Y-62122000D02*
X167132000Y-62757000D01*
X145542000Y-65913000D02*
X145542000Y-74676000D01*
X167386000Y-63519000D02*
X166116000Y-63519000D01*
X167386000Y-64535000D02*
X165989000Y-64535000D01*
X161036000Y-80156000D02*
X160825174Y-80366826D01*
X161036000Y-80156000D02*
X161246826Y-80366826D01*
X167513000Y-61741000D02*
X167132000Y-62122000D01*
X165354000Y-66186000D02*
X164846000Y-66694000D01*
X166624000Y-63265000D02*
X164211000Y-63265000D01*
X143510000Y-65913000D02*
X145542000Y-65913000D01*
X165989000Y-64535000D02*
X165354000Y-65170000D01*
X143510000Y-72644000D02*
X137160000Y-72644000D01*
X135128000Y-74676000D02*
X135128000Y-55499000D01*
X143510000Y-72644000D02*
X143510000Y-65913000D01*
D11*
X152056500Y-60452000D02*
G75*
G03*
X152056500Y-60452000I-164500J0D01*
G01*
D10*
X167132000Y-62757000D02*
X166624000Y-63265000D01*
X166116000Y-63519000D02*
X165100000Y-64535000D01*
X137160000Y-72644000D02*
X137160000Y-55499000D01*
X165354000Y-65170000D02*
X165354000Y-66186000D01*
X161036000Y-82442000D02*
X161036000Y-82061000D01*
X136445523Y-76490380D02*
X136112190Y-76014190D01*
X135874095Y-76490380D02*
X135874095Y-75490380D01*
X135874095Y-75490380D02*
X136255047Y-75490380D01*
X136255047Y-75490380D02*
X136350285Y-75538000D01*
X136350285Y-75538000D02*
X136397904Y-75585619D01*
X136397904Y-75585619D02*
X136445523Y-75680857D01*
X136445523Y-75680857D02*
X136445523Y-75823714D01*
X136445523Y-75823714D02*
X136397904Y-75918952D01*
X136397904Y-75918952D02*
X136350285Y-75966571D01*
X136350285Y-75966571D02*
X136255047Y-76014190D01*
X136255047Y-76014190D02*
X135874095Y-76014190D01*
X137397904Y-76490380D02*
X136826476Y-76490380D01*
X137112190Y-76490380D02*
X137112190Y-75490380D01*
X137112190Y-75490380D02*
X137016952Y-75633238D01*
X137016952Y-75633238D02*
X136921714Y-75728476D01*
X136921714Y-75728476D02*
X136826476Y-75776095D01*
X138016952Y-75490380D02*
X138112190Y-75490380D01*
X138112190Y-75490380D02*
X138207428Y-75538000D01*
X138207428Y-75538000D02*
X138255047Y-75585619D01*
X138255047Y-75585619D02*
X138302666Y-75680857D01*
X138302666Y-75680857D02*
X138350285Y-75871333D01*
X138350285Y-75871333D02*
X138350285Y-76109428D01*
X138350285Y-76109428D02*
X138302666Y-76299904D01*
X138302666Y-76299904D02*
X138255047Y-76395142D01*
X138255047Y-76395142D02*
X138207428Y-76442761D01*
X138207428Y-76442761D02*
X138112190Y-76490380D01*
X138112190Y-76490380D02*
X138016952Y-76490380D01*
X138016952Y-76490380D02*
X137921714Y-76442761D01*
X137921714Y-76442761D02*
X137874095Y-76395142D01*
X137874095Y-76395142D02*
X137826476Y-76299904D01*
X137826476Y-76299904D02*
X137778857Y-76109428D01*
X137778857Y-76109428D02*
X137778857Y-75871333D01*
X137778857Y-75871333D02*
X137826476Y-75680857D01*
X137826476Y-75680857D02*
X137874095Y-75585619D01*
X137874095Y-75585619D02*
X137921714Y-75538000D01*
X137921714Y-75538000D02*
X138016952Y-75490380D01*
X139302666Y-76490380D02*
X138731238Y-76490380D01*
X139016952Y-76490380D02*
X139016952Y-75490380D01*
X139016952Y-75490380D02*
X138921714Y-75633238D01*
X138921714Y-75633238D02*
X138826476Y-75728476D01*
X138826476Y-75728476D02*
X138731238Y-75776095D01*
X139731238Y-76109428D02*
X140493143Y-76109428D01*
X141540761Y-76490380D02*
X141207428Y-76014190D01*
X140969333Y-76490380D02*
X140969333Y-75490380D01*
X140969333Y-75490380D02*
X141350285Y-75490380D01*
X141350285Y-75490380D02*
X141445523Y-75538000D01*
X141445523Y-75538000D02*
X141493142Y-75585619D01*
X141493142Y-75585619D02*
X141540761Y-75680857D01*
X141540761Y-75680857D02*
X141540761Y-75823714D01*
X141540761Y-75823714D02*
X141493142Y-75918952D01*
X141493142Y-75918952D02*
X141445523Y-75966571D01*
X141445523Y-75966571D02*
X141350285Y-76014190D01*
X141350285Y-76014190D02*
X140969333Y-76014190D01*
X142493142Y-76490380D02*
X141921714Y-76490380D01*
X142207428Y-76490380D02*
X142207428Y-75490380D01*
X142207428Y-75490380D02*
X142112190Y-75633238D01*
X142112190Y-75633238D02*
X142016952Y-75728476D01*
X142016952Y-75728476D02*
X141921714Y-75776095D01*
X143445523Y-76490380D02*
X142874095Y-76490380D01*
X143159809Y-76490380D02*
X143159809Y-75490380D01*
X143159809Y-75490380D02*
X143064571Y-75633238D01*
X143064571Y-75633238D02*
X142969333Y-75728476D01*
X142969333Y-75728476D02*
X142874095Y-75776095D01*
X144064571Y-75490380D02*
X144159809Y-75490380D01*
X144159809Y-75490380D02*
X144255047Y-75538000D01*
X144255047Y-75538000D02*
X144302666Y-75585619D01*
X144302666Y-75585619D02*
X144350285Y-75680857D01*
X144350285Y-75680857D02*
X144397904Y-75871333D01*
X144397904Y-75871333D02*
X144397904Y-76109428D01*
X144397904Y-76109428D02*
X144350285Y-76299904D01*
X144350285Y-76299904D02*
X144302666Y-76395142D01*
X144302666Y-76395142D02*
X144255047Y-76442761D01*
X144255047Y-76442761D02*
X144159809Y-76490380D01*
X144159809Y-76490380D02*
X144064571Y-76490380D01*
X144064571Y-76490380D02*
X143969333Y-76442761D01*
X143969333Y-76442761D02*
X143921714Y-76395142D01*
X143921714Y-76395142D02*
X143874095Y-76299904D01*
X143874095Y-76299904D02*
X143826476Y-76109428D01*
X143826476Y-76109428D02*
X143826476Y-75871333D01*
X143826476Y-75871333D02*
X143874095Y-75680857D01*
X143874095Y-75680857D02*
X143921714Y-75585619D01*
X143921714Y-75585619D02*
X143969333Y-75538000D01*
X143969333Y-75538000D02*
X144064571Y-75490380D01*
%TO.C,C12*%
X163187742Y-84238057D02*
X163235361Y-84285676D01*
X163235361Y-84285676D02*
X163282980Y-84428533D01*
X163282980Y-84428533D02*
X163282980Y-84523771D01*
X163282980Y-84523771D02*
X163235361Y-84666628D01*
X163235361Y-84666628D02*
X163140123Y-84761866D01*
X163140123Y-84761866D02*
X163044885Y-84809485D01*
X163044885Y-84809485D02*
X162854409Y-84857104D01*
X162854409Y-84857104D02*
X162711552Y-84857104D01*
X162711552Y-84857104D02*
X162521076Y-84809485D01*
X162521076Y-84809485D02*
X162425838Y-84761866D01*
X162425838Y-84761866D02*
X162330600Y-84666628D01*
X162330600Y-84666628D02*
X162282980Y-84523771D01*
X162282980Y-84523771D02*
X162282980Y-84428533D01*
X162282980Y-84428533D02*
X162330600Y-84285676D01*
X162330600Y-84285676D02*
X162378219Y-84238057D01*
X163282980Y-83285676D02*
X163282980Y-83857104D01*
X163282980Y-83571390D02*
X162282980Y-83571390D01*
X162282980Y-83571390D02*
X162425838Y-83666628D01*
X162425838Y-83666628D02*
X162521076Y-83761866D01*
X162521076Y-83761866D02*
X162568695Y-83857104D01*
X162378219Y-82904723D02*
X162330600Y-82857104D01*
X162330600Y-82857104D02*
X162282980Y-82761866D01*
X162282980Y-82761866D02*
X162282980Y-82523771D01*
X162282980Y-82523771D02*
X162330600Y-82428533D01*
X162330600Y-82428533D02*
X162378219Y-82380914D01*
X162378219Y-82380914D02*
X162473457Y-82333295D01*
X162473457Y-82333295D02*
X162568695Y-82333295D01*
X162568695Y-82333295D02*
X162711552Y-82380914D01*
X162711552Y-82380914D02*
X163282980Y-82952342D01*
X163282980Y-82952342D02*
X163282980Y-82333295D01*
%TO.C,C8*%
X142962333Y-63010142D02*
X142914714Y-63057761D01*
X142914714Y-63057761D02*
X142771857Y-63105380D01*
X142771857Y-63105380D02*
X142676619Y-63105380D01*
X142676619Y-63105380D02*
X142533762Y-63057761D01*
X142533762Y-63057761D02*
X142438524Y-62962523D01*
X142438524Y-62962523D02*
X142390905Y-62867285D01*
X142390905Y-62867285D02*
X142343286Y-62676809D01*
X142343286Y-62676809D02*
X142343286Y-62533952D01*
X142343286Y-62533952D02*
X142390905Y-62343476D01*
X142390905Y-62343476D02*
X142438524Y-62248238D01*
X142438524Y-62248238D02*
X142533762Y-62153000D01*
X142533762Y-62153000D02*
X142676619Y-62105380D01*
X142676619Y-62105380D02*
X142771857Y-62105380D01*
X142771857Y-62105380D02*
X142914714Y-62153000D01*
X142914714Y-62153000D02*
X142962333Y-62200619D01*
X143533762Y-62533952D02*
X143438524Y-62486333D01*
X143438524Y-62486333D02*
X143390905Y-62438714D01*
X143390905Y-62438714D02*
X143343286Y-62343476D01*
X143343286Y-62343476D02*
X143343286Y-62295857D01*
X143343286Y-62295857D02*
X143390905Y-62200619D01*
X143390905Y-62200619D02*
X143438524Y-62153000D01*
X143438524Y-62153000D02*
X143533762Y-62105380D01*
X143533762Y-62105380D02*
X143724238Y-62105380D01*
X143724238Y-62105380D02*
X143819476Y-62153000D01*
X143819476Y-62153000D02*
X143867095Y-62200619D01*
X143867095Y-62200619D02*
X143914714Y-62295857D01*
X143914714Y-62295857D02*
X143914714Y-62343476D01*
X143914714Y-62343476D02*
X143867095Y-62438714D01*
X143867095Y-62438714D02*
X143819476Y-62486333D01*
X143819476Y-62486333D02*
X143724238Y-62533952D01*
X143724238Y-62533952D02*
X143533762Y-62533952D01*
X143533762Y-62533952D02*
X143438524Y-62581571D01*
X143438524Y-62581571D02*
X143390905Y-62629190D01*
X143390905Y-62629190D02*
X143343286Y-62724428D01*
X143343286Y-62724428D02*
X143343286Y-62914904D01*
X143343286Y-62914904D02*
X143390905Y-63010142D01*
X143390905Y-63010142D02*
X143438524Y-63057761D01*
X143438524Y-63057761D02*
X143533762Y-63105380D01*
X143533762Y-63105380D02*
X143724238Y-63105380D01*
X143724238Y-63105380D02*
X143819476Y-63057761D01*
X143819476Y-63057761D02*
X143867095Y-63010142D01*
X143867095Y-63010142D02*
X143914714Y-62914904D01*
X143914714Y-62914904D02*
X143914714Y-62724428D01*
X143914714Y-62724428D02*
X143867095Y-62629190D01*
X143867095Y-62629190D02*
X143819476Y-62581571D01*
X143819476Y-62581571D02*
X143724238Y-62533952D01*
%TO.C,C16*%
X156583142Y-67963142D02*
X156535523Y-68010761D01*
X156535523Y-68010761D02*
X156392666Y-68058380D01*
X156392666Y-68058380D02*
X156297428Y-68058380D01*
X156297428Y-68058380D02*
X156154571Y-68010761D01*
X156154571Y-68010761D02*
X156059333Y-67915523D01*
X156059333Y-67915523D02*
X156011714Y-67820285D01*
X156011714Y-67820285D02*
X155964095Y-67629809D01*
X155964095Y-67629809D02*
X155964095Y-67486952D01*
X155964095Y-67486952D02*
X156011714Y-67296476D01*
X156011714Y-67296476D02*
X156059333Y-67201238D01*
X156059333Y-67201238D02*
X156154571Y-67106000D01*
X156154571Y-67106000D02*
X156297428Y-67058380D01*
X156297428Y-67058380D02*
X156392666Y-67058380D01*
X156392666Y-67058380D02*
X156535523Y-67106000D01*
X156535523Y-67106000D02*
X156583142Y-67153619D01*
X157535523Y-68058380D02*
X156964095Y-68058380D01*
X157249809Y-68058380D02*
X157249809Y-67058380D01*
X157249809Y-67058380D02*
X157154571Y-67201238D01*
X157154571Y-67201238D02*
X157059333Y-67296476D01*
X157059333Y-67296476D02*
X156964095Y-67344095D01*
X158392666Y-67058380D02*
X158202190Y-67058380D01*
X158202190Y-67058380D02*
X158106952Y-67106000D01*
X158106952Y-67106000D02*
X158059333Y-67153619D01*
X158059333Y-67153619D02*
X157964095Y-67296476D01*
X157964095Y-67296476D02*
X157916476Y-67486952D01*
X157916476Y-67486952D02*
X157916476Y-67867904D01*
X157916476Y-67867904D02*
X157964095Y-67963142D01*
X157964095Y-67963142D02*
X158011714Y-68010761D01*
X158011714Y-68010761D02*
X158106952Y-68058380D01*
X158106952Y-68058380D02*
X158297428Y-68058380D01*
X158297428Y-68058380D02*
X158392666Y-68010761D01*
X158392666Y-68010761D02*
X158440285Y-67963142D01*
X158440285Y-67963142D02*
X158487904Y-67867904D01*
X158487904Y-67867904D02*
X158487904Y-67629809D01*
X158487904Y-67629809D02*
X158440285Y-67534571D01*
X158440285Y-67534571D02*
X158392666Y-67486952D01*
X158392666Y-67486952D02*
X158297428Y-67439333D01*
X158297428Y-67439333D02*
X158106952Y-67439333D01*
X158106952Y-67439333D02*
X158011714Y-67486952D01*
X158011714Y-67486952D02*
X157964095Y-67534571D01*
X157964095Y-67534571D02*
X157916476Y-67629809D01*
%TO.C,U2*%
X154559095Y-74170380D02*
X154559095Y-74979904D01*
X154559095Y-74979904D02*
X154606714Y-75075142D01*
X154606714Y-75075142D02*
X154654333Y-75122761D01*
X154654333Y-75122761D02*
X154749571Y-75170380D01*
X154749571Y-75170380D02*
X154940047Y-75170380D01*
X154940047Y-75170380D02*
X155035285Y-75122761D01*
X155035285Y-75122761D02*
X155082904Y-75075142D01*
X155082904Y-75075142D02*
X155130523Y-74979904D01*
X155130523Y-74979904D02*
X155130523Y-74170380D01*
X155559095Y-74265619D02*
X155606714Y-74218000D01*
X155606714Y-74218000D02*
X155701952Y-74170380D01*
X155701952Y-74170380D02*
X155940047Y-74170380D01*
X155940047Y-74170380D02*
X156035285Y-74218000D01*
X156035285Y-74218000D02*
X156082904Y-74265619D01*
X156082904Y-74265619D02*
X156130523Y-74360857D01*
X156130523Y-74360857D02*
X156130523Y-74456095D01*
X156130523Y-74456095D02*
X156082904Y-74598952D01*
X156082904Y-74598952D02*
X155511476Y-75170380D01*
X155511476Y-75170380D02*
X156130523Y-75170380D01*
%TO.C,D1*%
X161059905Y-95871380D02*
X161059905Y-94871380D01*
X161059905Y-94871380D02*
X161298000Y-94871380D01*
X161298000Y-94871380D02*
X161440857Y-94919000D01*
X161440857Y-94919000D02*
X161536095Y-95014238D01*
X161536095Y-95014238D02*
X161583714Y-95109476D01*
X161583714Y-95109476D02*
X161631333Y-95299952D01*
X161631333Y-95299952D02*
X161631333Y-95442809D01*
X161631333Y-95442809D02*
X161583714Y-95633285D01*
X161583714Y-95633285D02*
X161536095Y-95728523D01*
X161536095Y-95728523D02*
X161440857Y-95823761D01*
X161440857Y-95823761D02*
X161298000Y-95871380D01*
X161298000Y-95871380D02*
X161059905Y-95871380D01*
X162583714Y-95871380D02*
X162012286Y-95871380D01*
X162298000Y-95871380D02*
X162298000Y-94871380D01*
X162298000Y-94871380D02*
X162202762Y-95014238D01*
X162202762Y-95014238D02*
X162107524Y-95109476D01*
X162107524Y-95109476D02*
X162012286Y-95157095D01*
%TO.C,R12*%
X153789142Y-61581380D02*
X153455809Y-61105190D01*
X153217714Y-61581380D02*
X153217714Y-60581380D01*
X153217714Y-60581380D02*
X153598666Y-60581380D01*
X153598666Y-60581380D02*
X153693904Y-60629000D01*
X153693904Y-60629000D02*
X153741523Y-60676619D01*
X153741523Y-60676619D02*
X153789142Y-60771857D01*
X153789142Y-60771857D02*
X153789142Y-60914714D01*
X153789142Y-60914714D02*
X153741523Y-61009952D01*
X153741523Y-61009952D02*
X153693904Y-61057571D01*
X153693904Y-61057571D02*
X153598666Y-61105190D01*
X153598666Y-61105190D02*
X153217714Y-61105190D01*
X154741523Y-61581380D02*
X154170095Y-61581380D01*
X154455809Y-61581380D02*
X154455809Y-60581380D01*
X154455809Y-60581380D02*
X154360571Y-60724238D01*
X154360571Y-60724238D02*
X154265333Y-60819476D01*
X154265333Y-60819476D02*
X154170095Y-60867095D01*
X155122476Y-60676619D02*
X155170095Y-60629000D01*
X155170095Y-60629000D02*
X155265333Y-60581380D01*
X155265333Y-60581380D02*
X155503428Y-60581380D01*
X155503428Y-60581380D02*
X155598666Y-60629000D01*
X155598666Y-60629000D02*
X155646285Y-60676619D01*
X155646285Y-60676619D02*
X155693904Y-60771857D01*
X155693904Y-60771857D02*
X155693904Y-60867095D01*
X155693904Y-60867095D02*
X155646285Y-61009952D01*
X155646285Y-61009952D02*
X155074857Y-61581380D01*
X155074857Y-61581380D02*
X155693904Y-61581380D01*
%TO.C,R5*%
X152567333Y-82173380D02*
X152234000Y-81697190D01*
X151995905Y-82173380D02*
X151995905Y-81173380D01*
X151995905Y-81173380D02*
X152376857Y-81173380D01*
X152376857Y-81173380D02*
X152472095Y-81221000D01*
X152472095Y-81221000D02*
X152519714Y-81268619D01*
X152519714Y-81268619D02*
X152567333Y-81363857D01*
X152567333Y-81363857D02*
X152567333Y-81506714D01*
X152567333Y-81506714D02*
X152519714Y-81601952D01*
X152519714Y-81601952D02*
X152472095Y-81649571D01*
X152472095Y-81649571D02*
X152376857Y-81697190D01*
X152376857Y-81697190D02*
X151995905Y-81697190D01*
X153472095Y-81173380D02*
X152995905Y-81173380D01*
X152995905Y-81173380D02*
X152948286Y-81649571D01*
X152948286Y-81649571D02*
X152995905Y-81601952D01*
X152995905Y-81601952D02*
X153091143Y-81554333D01*
X153091143Y-81554333D02*
X153329238Y-81554333D01*
X153329238Y-81554333D02*
X153424476Y-81601952D01*
X153424476Y-81601952D02*
X153472095Y-81649571D01*
X153472095Y-81649571D02*
X153519714Y-81744809D01*
X153519714Y-81744809D02*
X153519714Y-81982904D01*
X153519714Y-81982904D02*
X153472095Y-82078142D01*
X153472095Y-82078142D02*
X153424476Y-82125761D01*
X153424476Y-82125761D02*
X153329238Y-82173380D01*
X153329238Y-82173380D02*
X153091143Y-82173380D01*
X153091143Y-82173380D02*
X152995905Y-82125761D01*
X152995905Y-82125761D02*
X152948286Y-82078142D01*
%TO.C,R10*%
X160189942Y-59498580D02*
X159856609Y-59022390D01*
X159618514Y-59498580D02*
X159618514Y-58498580D01*
X159618514Y-58498580D02*
X159999466Y-58498580D01*
X159999466Y-58498580D02*
X160094704Y-58546200D01*
X160094704Y-58546200D02*
X160142323Y-58593819D01*
X160142323Y-58593819D02*
X160189942Y-58689057D01*
X160189942Y-58689057D02*
X160189942Y-58831914D01*
X160189942Y-58831914D02*
X160142323Y-58927152D01*
X160142323Y-58927152D02*
X160094704Y-58974771D01*
X160094704Y-58974771D02*
X159999466Y-59022390D01*
X159999466Y-59022390D02*
X159618514Y-59022390D01*
X161142323Y-59498580D02*
X160570895Y-59498580D01*
X160856609Y-59498580D02*
X160856609Y-58498580D01*
X160856609Y-58498580D02*
X160761371Y-58641438D01*
X160761371Y-58641438D02*
X160666133Y-58736676D01*
X160666133Y-58736676D02*
X160570895Y-58784295D01*
X161761371Y-58498580D02*
X161856609Y-58498580D01*
X161856609Y-58498580D02*
X161951847Y-58546200D01*
X161951847Y-58546200D02*
X161999466Y-58593819D01*
X161999466Y-58593819D02*
X162047085Y-58689057D01*
X162047085Y-58689057D02*
X162094704Y-58879533D01*
X162094704Y-58879533D02*
X162094704Y-59117628D01*
X162094704Y-59117628D02*
X162047085Y-59308104D01*
X162047085Y-59308104D02*
X161999466Y-59403342D01*
X161999466Y-59403342D02*
X161951847Y-59450961D01*
X161951847Y-59450961D02*
X161856609Y-59498580D01*
X161856609Y-59498580D02*
X161761371Y-59498580D01*
X161761371Y-59498580D02*
X161666133Y-59450961D01*
X161666133Y-59450961D02*
X161618514Y-59403342D01*
X161618514Y-59403342D02*
X161570895Y-59308104D01*
X161570895Y-59308104D02*
X161523276Y-59117628D01*
X161523276Y-59117628D02*
X161523276Y-58879533D01*
X161523276Y-58879533D02*
X161570895Y-58689057D01*
X161570895Y-58689057D02*
X161618514Y-58593819D01*
X161618514Y-58593819D02*
X161666133Y-58546200D01*
X161666133Y-58546200D02*
X161761371Y-58498580D01*
%TO.C,D8*%
X154836905Y-65014180D02*
X154836905Y-64014180D01*
X154836905Y-64014180D02*
X155075000Y-64014180D01*
X155075000Y-64014180D02*
X155217857Y-64061800D01*
X155217857Y-64061800D02*
X155313095Y-64157038D01*
X155313095Y-64157038D02*
X155360714Y-64252276D01*
X155360714Y-64252276D02*
X155408333Y-64442752D01*
X155408333Y-64442752D02*
X155408333Y-64585609D01*
X155408333Y-64585609D02*
X155360714Y-64776085D01*
X155360714Y-64776085D02*
X155313095Y-64871323D01*
X155313095Y-64871323D02*
X155217857Y-64966561D01*
X155217857Y-64966561D02*
X155075000Y-65014180D01*
X155075000Y-65014180D02*
X154836905Y-65014180D01*
X155979762Y-64442752D02*
X155884524Y-64395133D01*
X155884524Y-64395133D02*
X155836905Y-64347514D01*
X155836905Y-64347514D02*
X155789286Y-64252276D01*
X155789286Y-64252276D02*
X155789286Y-64204657D01*
X155789286Y-64204657D02*
X155836905Y-64109419D01*
X155836905Y-64109419D02*
X155884524Y-64061800D01*
X155884524Y-64061800D02*
X155979762Y-64014180D01*
X155979762Y-64014180D02*
X156170238Y-64014180D01*
X156170238Y-64014180D02*
X156265476Y-64061800D01*
X156265476Y-64061800D02*
X156313095Y-64109419D01*
X156313095Y-64109419D02*
X156360714Y-64204657D01*
X156360714Y-64204657D02*
X156360714Y-64252276D01*
X156360714Y-64252276D02*
X156313095Y-64347514D01*
X156313095Y-64347514D02*
X156265476Y-64395133D01*
X156265476Y-64395133D02*
X156170238Y-64442752D01*
X156170238Y-64442752D02*
X155979762Y-64442752D01*
X155979762Y-64442752D02*
X155884524Y-64490371D01*
X155884524Y-64490371D02*
X155836905Y-64537990D01*
X155836905Y-64537990D02*
X155789286Y-64633228D01*
X155789286Y-64633228D02*
X155789286Y-64823704D01*
X155789286Y-64823704D02*
X155836905Y-64918942D01*
X155836905Y-64918942D02*
X155884524Y-64966561D01*
X155884524Y-64966561D02*
X155979762Y-65014180D01*
X155979762Y-65014180D02*
X156170238Y-65014180D01*
X156170238Y-65014180D02*
X156265476Y-64966561D01*
X156265476Y-64966561D02*
X156313095Y-64918942D01*
X156313095Y-64918942D02*
X156360714Y-64823704D01*
X156360714Y-64823704D02*
X156360714Y-64633228D01*
X156360714Y-64633228D02*
X156313095Y-64537990D01*
X156313095Y-64537990D02*
X156265476Y-64490371D01*
X156265476Y-64490371D02*
X156170238Y-64442752D01*
%TO.C,C3*%
X166838333Y-101745142D02*
X166790714Y-101792761D01*
X166790714Y-101792761D02*
X166647857Y-101840380D01*
X166647857Y-101840380D02*
X166552619Y-101840380D01*
X166552619Y-101840380D02*
X166409762Y-101792761D01*
X166409762Y-101792761D02*
X166314524Y-101697523D01*
X166314524Y-101697523D02*
X166266905Y-101602285D01*
X166266905Y-101602285D02*
X166219286Y-101411809D01*
X166219286Y-101411809D02*
X166219286Y-101268952D01*
X166219286Y-101268952D02*
X166266905Y-101078476D01*
X166266905Y-101078476D02*
X166314524Y-100983238D01*
X166314524Y-100983238D02*
X166409762Y-100888000D01*
X166409762Y-100888000D02*
X166552619Y-100840380D01*
X166552619Y-100840380D02*
X166647857Y-100840380D01*
X166647857Y-100840380D02*
X166790714Y-100888000D01*
X166790714Y-100888000D02*
X166838333Y-100935619D01*
X167171667Y-100840380D02*
X167790714Y-100840380D01*
X167790714Y-100840380D02*
X167457381Y-101221333D01*
X167457381Y-101221333D02*
X167600238Y-101221333D01*
X167600238Y-101221333D02*
X167695476Y-101268952D01*
X167695476Y-101268952D02*
X167743095Y-101316571D01*
X167743095Y-101316571D02*
X167790714Y-101411809D01*
X167790714Y-101411809D02*
X167790714Y-101649904D01*
X167790714Y-101649904D02*
X167743095Y-101745142D01*
X167743095Y-101745142D02*
X167695476Y-101792761D01*
X167695476Y-101792761D02*
X167600238Y-101840380D01*
X167600238Y-101840380D02*
X167314524Y-101840380D01*
X167314524Y-101840380D02*
X167219286Y-101792761D01*
X167219286Y-101792761D02*
X167171667Y-101745142D01*
%TO.C,R2*%
X154265333Y-120763380D02*
X153932000Y-120287190D01*
X153693905Y-120763380D02*
X153693905Y-119763380D01*
X153693905Y-119763380D02*
X154074857Y-119763380D01*
X154074857Y-119763380D02*
X154170095Y-119811000D01*
X154170095Y-119811000D02*
X154217714Y-119858619D01*
X154217714Y-119858619D02*
X154265333Y-119953857D01*
X154265333Y-119953857D02*
X154265333Y-120096714D01*
X154265333Y-120096714D02*
X154217714Y-120191952D01*
X154217714Y-120191952D02*
X154170095Y-120239571D01*
X154170095Y-120239571D02*
X154074857Y-120287190D01*
X154074857Y-120287190D02*
X153693905Y-120287190D01*
X154646286Y-119858619D02*
X154693905Y-119811000D01*
X154693905Y-119811000D02*
X154789143Y-119763380D01*
X154789143Y-119763380D02*
X155027238Y-119763380D01*
X155027238Y-119763380D02*
X155122476Y-119811000D01*
X155122476Y-119811000D02*
X155170095Y-119858619D01*
X155170095Y-119858619D02*
X155217714Y-119953857D01*
X155217714Y-119953857D02*
X155217714Y-120049095D01*
X155217714Y-120049095D02*
X155170095Y-120191952D01*
X155170095Y-120191952D02*
X154598667Y-120763380D01*
X154598667Y-120763380D02*
X155217714Y-120763380D01*
%TO.C,R6*%
X150304833Y-78491380D02*
X149971500Y-78015190D01*
X149733405Y-78491380D02*
X149733405Y-77491380D01*
X149733405Y-77491380D02*
X150114357Y-77491380D01*
X150114357Y-77491380D02*
X150209595Y-77539000D01*
X150209595Y-77539000D02*
X150257214Y-77586619D01*
X150257214Y-77586619D02*
X150304833Y-77681857D01*
X150304833Y-77681857D02*
X150304833Y-77824714D01*
X150304833Y-77824714D02*
X150257214Y-77919952D01*
X150257214Y-77919952D02*
X150209595Y-77967571D01*
X150209595Y-77967571D02*
X150114357Y-78015190D01*
X150114357Y-78015190D02*
X149733405Y-78015190D01*
X151161976Y-77491380D02*
X150971500Y-77491380D01*
X150971500Y-77491380D02*
X150876262Y-77539000D01*
X150876262Y-77539000D02*
X150828643Y-77586619D01*
X150828643Y-77586619D02*
X150733405Y-77729476D01*
X150733405Y-77729476D02*
X150685786Y-77919952D01*
X150685786Y-77919952D02*
X150685786Y-78300904D01*
X150685786Y-78300904D02*
X150733405Y-78396142D01*
X150733405Y-78396142D02*
X150781024Y-78443761D01*
X150781024Y-78443761D02*
X150876262Y-78491380D01*
X150876262Y-78491380D02*
X151066738Y-78491380D01*
X151066738Y-78491380D02*
X151161976Y-78443761D01*
X151161976Y-78443761D02*
X151209595Y-78396142D01*
X151209595Y-78396142D02*
X151257214Y-78300904D01*
X151257214Y-78300904D02*
X151257214Y-78062809D01*
X151257214Y-78062809D02*
X151209595Y-77967571D01*
X151209595Y-77967571D02*
X151161976Y-77919952D01*
X151161976Y-77919952D02*
X151066738Y-77872333D01*
X151066738Y-77872333D02*
X150876262Y-77872333D01*
X150876262Y-77872333D02*
X150781024Y-77919952D01*
X150781024Y-77919952D02*
X150733405Y-77967571D01*
X150733405Y-77967571D02*
X150685786Y-78062809D01*
%TO.C,C15*%
X168013142Y-64680142D02*
X167965523Y-64727761D01*
X167965523Y-64727761D02*
X167822666Y-64775380D01*
X167822666Y-64775380D02*
X167727428Y-64775380D01*
X167727428Y-64775380D02*
X167584571Y-64727761D01*
X167584571Y-64727761D02*
X167489333Y-64632523D01*
X167489333Y-64632523D02*
X167441714Y-64537285D01*
X167441714Y-64537285D02*
X167394095Y-64346809D01*
X167394095Y-64346809D02*
X167394095Y-64203952D01*
X167394095Y-64203952D02*
X167441714Y-64013476D01*
X167441714Y-64013476D02*
X167489333Y-63918238D01*
X167489333Y-63918238D02*
X167584571Y-63823000D01*
X167584571Y-63823000D02*
X167727428Y-63775380D01*
X167727428Y-63775380D02*
X167822666Y-63775380D01*
X167822666Y-63775380D02*
X167965523Y-63823000D01*
X167965523Y-63823000D02*
X168013142Y-63870619D01*
X168965523Y-64775380D02*
X168394095Y-64775380D01*
X168679809Y-64775380D02*
X168679809Y-63775380D01*
X168679809Y-63775380D02*
X168584571Y-63918238D01*
X168584571Y-63918238D02*
X168489333Y-64013476D01*
X168489333Y-64013476D02*
X168394095Y-64061095D01*
X169870285Y-63775380D02*
X169394095Y-63775380D01*
X169394095Y-63775380D02*
X169346476Y-64251571D01*
X169346476Y-64251571D02*
X169394095Y-64203952D01*
X169394095Y-64203952D02*
X169489333Y-64156333D01*
X169489333Y-64156333D02*
X169727428Y-64156333D01*
X169727428Y-64156333D02*
X169822666Y-64203952D01*
X169822666Y-64203952D02*
X169870285Y-64251571D01*
X169870285Y-64251571D02*
X169917904Y-64346809D01*
X169917904Y-64346809D02*
X169917904Y-64584904D01*
X169917904Y-64584904D02*
X169870285Y-64680142D01*
X169870285Y-64680142D02*
X169822666Y-64727761D01*
X169822666Y-64727761D02*
X169727428Y-64775380D01*
X169727428Y-64775380D02*
X169489333Y-64775380D01*
X169489333Y-64775380D02*
X169394095Y-64727761D01*
X169394095Y-64727761D02*
X169346476Y-64680142D01*
%TO.C,C11*%
X161816142Y-84227857D02*
X161863761Y-84275476D01*
X161863761Y-84275476D02*
X161911380Y-84418333D01*
X161911380Y-84418333D02*
X161911380Y-84513571D01*
X161911380Y-84513571D02*
X161863761Y-84656428D01*
X161863761Y-84656428D02*
X161768523Y-84751666D01*
X161768523Y-84751666D02*
X161673285Y-84799285D01*
X161673285Y-84799285D02*
X161482809Y-84846904D01*
X161482809Y-84846904D02*
X161339952Y-84846904D01*
X161339952Y-84846904D02*
X161149476Y-84799285D01*
X161149476Y-84799285D02*
X161054238Y-84751666D01*
X161054238Y-84751666D02*
X160959000Y-84656428D01*
X160959000Y-84656428D02*
X160911380Y-84513571D01*
X160911380Y-84513571D02*
X160911380Y-84418333D01*
X160911380Y-84418333D02*
X160959000Y-84275476D01*
X160959000Y-84275476D02*
X161006619Y-84227857D01*
X161911380Y-83275476D02*
X161911380Y-83846904D01*
X161911380Y-83561190D02*
X160911380Y-83561190D01*
X160911380Y-83561190D02*
X161054238Y-83656428D01*
X161054238Y-83656428D02*
X161149476Y-83751666D01*
X161149476Y-83751666D02*
X161197095Y-83846904D01*
X161911380Y-82323095D02*
X161911380Y-82894523D01*
X161911380Y-82608809D02*
X160911380Y-82608809D01*
X160911380Y-82608809D02*
X161054238Y-82704047D01*
X161054238Y-82704047D02*
X161149476Y-82799285D01*
X161149476Y-82799285D02*
X161197095Y-82894523D01*
%TO.C,C17*%
X168140142Y-62013142D02*
X168092523Y-62060761D01*
X168092523Y-62060761D02*
X167949666Y-62108380D01*
X167949666Y-62108380D02*
X167854428Y-62108380D01*
X167854428Y-62108380D02*
X167711571Y-62060761D01*
X167711571Y-62060761D02*
X167616333Y-61965523D01*
X167616333Y-61965523D02*
X167568714Y-61870285D01*
X167568714Y-61870285D02*
X167521095Y-61679809D01*
X167521095Y-61679809D02*
X167521095Y-61536952D01*
X167521095Y-61536952D02*
X167568714Y-61346476D01*
X167568714Y-61346476D02*
X167616333Y-61251238D01*
X167616333Y-61251238D02*
X167711571Y-61156000D01*
X167711571Y-61156000D02*
X167854428Y-61108380D01*
X167854428Y-61108380D02*
X167949666Y-61108380D01*
X167949666Y-61108380D02*
X168092523Y-61156000D01*
X168092523Y-61156000D02*
X168140142Y-61203619D01*
X169092523Y-62108380D02*
X168521095Y-62108380D01*
X168806809Y-62108380D02*
X168806809Y-61108380D01*
X168806809Y-61108380D02*
X168711571Y-61251238D01*
X168711571Y-61251238D02*
X168616333Y-61346476D01*
X168616333Y-61346476D02*
X168521095Y-61394095D01*
X169425857Y-61108380D02*
X170092523Y-61108380D01*
X170092523Y-61108380D02*
X169663952Y-62108380D01*
%TO.C,D3*%
X165250905Y-83190380D02*
X165250905Y-82190380D01*
X165250905Y-82190380D02*
X165489000Y-82190380D01*
X165489000Y-82190380D02*
X165631857Y-82238000D01*
X165631857Y-82238000D02*
X165727095Y-82333238D01*
X165727095Y-82333238D02*
X165774714Y-82428476D01*
X165774714Y-82428476D02*
X165822333Y-82618952D01*
X165822333Y-82618952D02*
X165822333Y-82761809D01*
X165822333Y-82761809D02*
X165774714Y-82952285D01*
X165774714Y-82952285D02*
X165727095Y-83047523D01*
X165727095Y-83047523D02*
X165631857Y-83142761D01*
X165631857Y-83142761D02*
X165489000Y-83190380D01*
X165489000Y-83190380D02*
X165250905Y-83190380D01*
X166155667Y-82190380D02*
X166774714Y-82190380D01*
X166774714Y-82190380D02*
X166441381Y-82571333D01*
X166441381Y-82571333D02*
X166584238Y-82571333D01*
X166584238Y-82571333D02*
X166679476Y-82618952D01*
X166679476Y-82618952D02*
X166727095Y-82666571D01*
X166727095Y-82666571D02*
X166774714Y-82761809D01*
X166774714Y-82761809D02*
X166774714Y-82999904D01*
X166774714Y-82999904D02*
X166727095Y-83095142D01*
X166727095Y-83095142D02*
X166679476Y-83142761D01*
X166679476Y-83142761D02*
X166584238Y-83190380D01*
X166584238Y-83190380D02*
X166298524Y-83190380D01*
X166298524Y-83190380D02*
X166203286Y-83142761D01*
X166203286Y-83142761D02*
X166155667Y-83095142D01*
%TO.C,R9*%
X158837333Y-61092380D02*
X158504000Y-60616190D01*
X158265905Y-61092380D02*
X158265905Y-60092380D01*
X158265905Y-60092380D02*
X158646857Y-60092380D01*
X158646857Y-60092380D02*
X158742095Y-60140000D01*
X158742095Y-60140000D02*
X158789714Y-60187619D01*
X158789714Y-60187619D02*
X158837333Y-60282857D01*
X158837333Y-60282857D02*
X158837333Y-60425714D01*
X158837333Y-60425714D02*
X158789714Y-60520952D01*
X158789714Y-60520952D02*
X158742095Y-60568571D01*
X158742095Y-60568571D02*
X158646857Y-60616190D01*
X158646857Y-60616190D02*
X158265905Y-60616190D01*
X159313524Y-61092380D02*
X159504000Y-61092380D01*
X159504000Y-61092380D02*
X159599238Y-61044761D01*
X159599238Y-61044761D02*
X159646857Y-60997142D01*
X159646857Y-60997142D02*
X159742095Y-60854285D01*
X159742095Y-60854285D02*
X159789714Y-60663809D01*
X159789714Y-60663809D02*
X159789714Y-60282857D01*
X159789714Y-60282857D02*
X159742095Y-60187619D01*
X159742095Y-60187619D02*
X159694476Y-60140000D01*
X159694476Y-60140000D02*
X159599238Y-60092380D01*
X159599238Y-60092380D02*
X159408762Y-60092380D01*
X159408762Y-60092380D02*
X159313524Y-60140000D01*
X159313524Y-60140000D02*
X159265905Y-60187619D01*
X159265905Y-60187619D02*
X159218286Y-60282857D01*
X159218286Y-60282857D02*
X159218286Y-60520952D01*
X159218286Y-60520952D02*
X159265905Y-60616190D01*
X159265905Y-60616190D02*
X159313524Y-60663809D01*
X159313524Y-60663809D02*
X159408762Y-60711428D01*
X159408762Y-60711428D02*
X159599238Y-60711428D01*
X159599238Y-60711428D02*
X159694476Y-60663809D01*
X159694476Y-60663809D02*
X159742095Y-60616190D01*
X159742095Y-60616190D02*
X159789714Y-60520952D01*
%TO.C,R3*%
X164933333Y-118604380D02*
X164600000Y-118128190D01*
X164361905Y-118604380D02*
X164361905Y-117604380D01*
X164361905Y-117604380D02*
X164742857Y-117604380D01*
X164742857Y-117604380D02*
X164838095Y-117652000D01*
X164838095Y-117652000D02*
X164885714Y-117699619D01*
X164885714Y-117699619D02*
X164933333Y-117794857D01*
X164933333Y-117794857D02*
X164933333Y-117937714D01*
X164933333Y-117937714D02*
X164885714Y-118032952D01*
X164885714Y-118032952D02*
X164838095Y-118080571D01*
X164838095Y-118080571D02*
X164742857Y-118128190D01*
X164742857Y-118128190D02*
X164361905Y-118128190D01*
X165266667Y-117604380D02*
X165885714Y-117604380D01*
X165885714Y-117604380D02*
X165552381Y-117985333D01*
X165552381Y-117985333D02*
X165695238Y-117985333D01*
X165695238Y-117985333D02*
X165790476Y-118032952D01*
X165790476Y-118032952D02*
X165838095Y-118080571D01*
X165838095Y-118080571D02*
X165885714Y-118175809D01*
X165885714Y-118175809D02*
X165885714Y-118413904D01*
X165885714Y-118413904D02*
X165838095Y-118509142D01*
X165838095Y-118509142D02*
X165790476Y-118556761D01*
X165790476Y-118556761D02*
X165695238Y-118604380D01*
X165695238Y-118604380D02*
X165409524Y-118604380D01*
X165409524Y-118604380D02*
X165314286Y-118556761D01*
X165314286Y-118556761D02*
X165266667Y-118509142D01*
%TO.C,R11*%
X147312142Y-71360380D02*
X146978809Y-70884190D01*
X146740714Y-71360380D02*
X146740714Y-70360380D01*
X146740714Y-70360380D02*
X147121666Y-70360380D01*
X147121666Y-70360380D02*
X147216904Y-70408000D01*
X147216904Y-70408000D02*
X147264523Y-70455619D01*
X147264523Y-70455619D02*
X147312142Y-70550857D01*
X147312142Y-70550857D02*
X147312142Y-70693714D01*
X147312142Y-70693714D02*
X147264523Y-70788952D01*
X147264523Y-70788952D02*
X147216904Y-70836571D01*
X147216904Y-70836571D02*
X147121666Y-70884190D01*
X147121666Y-70884190D02*
X146740714Y-70884190D01*
X148264523Y-71360380D02*
X147693095Y-71360380D01*
X147978809Y-71360380D02*
X147978809Y-70360380D01*
X147978809Y-70360380D02*
X147883571Y-70503238D01*
X147883571Y-70503238D02*
X147788333Y-70598476D01*
X147788333Y-70598476D02*
X147693095Y-70646095D01*
X149216904Y-71360380D02*
X148645476Y-71360380D01*
X148931190Y-71360380D02*
X148931190Y-70360380D01*
X148931190Y-70360380D02*
X148835952Y-70503238D01*
X148835952Y-70503238D02*
X148740714Y-70598476D01*
X148740714Y-70598476D02*
X148645476Y-70646095D01*
%TO.C,R7*%
X147915333Y-73138380D02*
X147582000Y-72662190D01*
X147343905Y-73138380D02*
X147343905Y-72138380D01*
X147343905Y-72138380D02*
X147724857Y-72138380D01*
X147724857Y-72138380D02*
X147820095Y-72186000D01*
X147820095Y-72186000D02*
X147867714Y-72233619D01*
X147867714Y-72233619D02*
X147915333Y-72328857D01*
X147915333Y-72328857D02*
X147915333Y-72471714D01*
X147915333Y-72471714D02*
X147867714Y-72566952D01*
X147867714Y-72566952D02*
X147820095Y-72614571D01*
X147820095Y-72614571D02*
X147724857Y-72662190D01*
X147724857Y-72662190D02*
X147343905Y-72662190D01*
X148248667Y-72138380D02*
X148915333Y-72138380D01*
X148915333Y-72138380D02*
X148486762Y-73138380D01*
%TO.C,C10*%
X153789142Y-73551142D02*
X153741523Y-73598761D01*
X153741523Y-73598761D02*
X153598666Y-73646380D01*
X153598666Y-73646380D02*
X153503428Y-73646380D01*
X153503428Y-73646380D02*
X153360571Y-73598761D01*
X153360571Y-73598761D02*
X153265333Y-73503523D01*
X153265333Y-73503523D02*
X153217714Y-73408285D01*
X153217714Y-73408285D02*
X153170095Y-73217809D01*
X153170095Y-73217809D02*
X153170095Y-73074952D01*
X153170095Y-73074952D02*
X153217714Y-72884476D01*
X153217714Y-72884476D02*
X153265333Y-72789238D01*
X153265333Y-72789238D02*
X153360571Y-72694000D01*
X153360571Y-72694000D02*
X153503428Y-72646380D01*
X153503428Y-72646380D02*
X153598666Y-72646380D01*
X153598666Y-72646380D02*
X153741523Y-72694000D01*
X153741523Y-72694000D02*
X153789142Y-72741619D01*
X154741523Y-73646380D02*
X154170095Y-73646380D01*
X154455809Y-73646380D02*
X154455809Y-72646380D01*
X154455809Y-72646380D02*
X154360571Y-72789238D01*
X154360571Y-72789238D02*
X154265333Y-72884476D01*
X154265333Y-72884476D02*
X154170095Y-72932095D01*
X155360571Y-72646380D02*
X155455809Y-72646380D01*
X155455809Y-72646380D02*
X155551047Y-72694000D01*
X155551047Y-72694000D02*
X155598666Y-72741619D01*
X155598666Y-72741619D02*
X155646285Y-72836857D01*
X155646285Y-72836857D02*
X155693904Y-73027333D01*
X155693904Y-73027333D02*
X155693904Y-73265428D01*
X155693904Y-73265428D02*
X155646285Y-73455904D01*
X155646285Y-73455904D02*
X155598666Y-73551142D01*
X155598666Y-73551142D02*
X155551047Y-73598761D01*
X155551047Y-73598761D02*
X155455809Y-73646380D01*
X155455809Y-73646380D02*
X155360571Y-73646380D01*
X155360571Y-73646380D02*
X155265333Y-73598761D01*
X155265333Y-73598761D02*
X155217714Y-73551142D01*
X155217714Y-73551142D02*
X155170095Y-73455904D01*
X155170095Y-73455904D02*
X155122476Y-73265428D01*
X155122476Y-73265428D02*
X155122476Y-73027333D01*
X155122476Y-73027333D02*
X155170095Y-72836857D01*
X155170095Y-72836857D02*
X155217714Y-72741619D01*
X155217714Y-72741619D02*
X155265333Y-72694000D01*
X155265333Y-72694000D02*
X155360571Y-72646380D01*
%TO.C,R4*%
X164933333Y-120890380D02*
X164600000Y-120414190D01*
X164361905Y-120890380D02*
X164361905Y-119890380D01*
X164361905Y-119890380D02*
X164742857Y-119890380D01*
X164742857Y-119890380D02*
X164838095Y-119938000D01*
X164838095Y-119938000D02*
X164885714Y-119985619D01*
X164885714Y-119985619D02*
X164933333Y-120080857D01*
X164933333Y-120080857D02*
X164933333Y-120223714D01*
X164933333Y-120223714D02*
X164885714Y-120318952D01*
X164885714Y-120318952D02*
X164838095Y-120366571D01*
X164838095Y-120366571D02*
X164742857Y-120414190D01*
X164742857Y-120414190D02*
X164361905Y-120414190D01*
X165790476Y-120223714D02*
X165790476Y-120890380D01*
X165552381Y-119842761D02*
X165314286Y-120557047D01*
X165314286Y-120557047D02*
X165933333Y-120557047D01*
%TO.C,C1*%
X162416833Y-112413142D02*
X162369214Y-112460761D01*
X162369214Y-112460761D02*
X162226357Y-112508380D01*
X162226357Y-112508380D02*
X162131119Y-112508380D01*
X162131119Y-112508380D02*
X161988262Y-112460761D01*
X161988262Y-112460761D02*
X161893024Y-112365523D01*
X161893024Y-112365523D02*
X161845405Y-112270285D01*
X161845405Y-112270285D02*
X161797786Y-112079809D01*
X161797786Y-112079809D02*
X161797786Y-111936952D01*
X161797786Y-111936952D02*
X161845405Y-111746476D01*
X161845405Y-111746476D02*
X161893024Y-111651238D01*
X161893024Y-111651238D02*
X161988262Y-111556000D01*
X161988262Y-111556000D02*
X162131119Y-111508380D01*
X162131119Y-111508380D02*
X162226357Y-111508380D01*
X162226357Y-111508380D02*
X162369214Y-111556000D01*
X162369214Y-111556000D02*
X162416833Y-111603619D01*
X163369214Y-112508380D02*
X162797786Y-112508380D01*
X163083500Y-112508380D02*
X163083500Y-111508380D01*
X163083500Y-111508380D02*
X162988262Y-111651238D01*
X162988262Y-111651238D02*
X162893024Y-111746476D01*
X162893024Y-111746476D02*
X162797786Y-111794095D01*
%TO.C,C13*%
X164457742Y-84238057D02*
X164505361Y-84285676D01*
X164505361Y-84285676D02*
X164552980Y-84428533D01*
X164552980Y-84428533D02*
X164552980Y-84523771D01*
X164552980Y-84523771D02*
X164505361Y-84666628D01*
X164505361Y-84666628D02*
X164410123Y-84761866D01*
X164410123Y-84761866D02*
X164314885Y-84809485D01*
X164314885Y-84809485D02*
X164124409Y-84857104D01*
X164124409Y-84857104D02*
X163981552Y-84857104D01*
X163981552Y-84857104D02*
X163791076Y-84809485D01*
X163791076Y-84809485D02*
X163695838Y-84761866D01*
X163695838Y-84761866D02*
X163600600Y-84666628D01*
X163600600Y-84666628D02*
X163552980Y-84523771D01*
X163552980Y-84523771D02*
X163552980Y-84428533D01*
X163552980Y-84428533D02*
X163600600Y-84285676D01*
X163600600Y-84285676D02*
X163648219Y-84238057D01*
X164552980Y-83285676D02*
X164552980Y-83857104D01*
X164552980Y-83571390D02*
X163552980Y-83571390D01*
X163552980Y-83571390D02*
X163695838Y-83666628D01*
X163695838Y-83666628D02*
X163791076Y-83761866D01*
X163791076Y-83761866D02*
X163838695Y-83857104D01*
X163552980Y-82952342D02*
X163552980Y-82333295D01*
X163552980Y-82333295D02*
X163933933Y-82666628D01*
X163933933Y-82666628D02*
X163933933Y-82523771D01*
X163933933Y-82523771D02*
X163981552Y-82428533D01*
X163981552Y-82428533D02*
X164029171Y-82380914D01*
X164029171Y-82380914D02*
X164124409Y-82333295D01*
X164124409Y-82333295D02*
X164362504Y-82333295D01*
X164362504Y-82333295D02*
X164457742Y-82380914D01*
X164457742Y-82380914D02*
X164505361Y-82428533D01*
X164505361Y-82428533D02*
X164552980Y-82523771D01*
X164552980Y-82523771D02*
X164552980Y-82809485D01*
X164552980Y-82809485D02*
X164505361Y-82904723D01*
X164505361Y-82904723D02*
X164457742Y-82952342D01*
%TO.C,C19*%
X145965942Y-58692142D02*
X145918323Y-58739761D01*
X145918323Y-58739761D02*
X145775466Y-58787380D01*
X145775466Y-58787380D02*
X145680228Y-58787380D01*
X145680228Y-58787380D02*
X145537371Y-58739761D01*
X145537371Y-58739761D02*
X145442133Y-58644523D01*
X145442133Y-58644523D02*
X145394514Y-58549285D01*
X145394514Y-58549285D02*
X145346895Y-58358809D01*
X145346895Y-58358809D02*
X145346895Y-58215952D01*
X145346895Y-58215952D02*
X145394514Y-58025476D01*
X145394514Y-58025476D02*
X145442133Y-57930238D01*
X145442133Y-57930238D02*
X145537371Y-57835000D01*
X145537371Y-57835000D02*
X145680228Y-57787380D01*
X145680228Y-57787380D02*
X145775466Y-57787380D01*
X145775466Y-57787380D02*
X145918323Y-57835000D01*
X145918323Y-57835000D02*
X145965942Y-57882619D01*
X146918323Y-58787380D02*
X146346895Y-58787380D01*
X146632609Y-58787380D02*
X146632609Y-57787380D01*
X146632609Y-57787380D02*
X146537371Y-57930238D01*
X146537371Y-57930238D02*
X146442133Y-58025476D01*
X146442133Y-58025476D02*
X146346895Y-58073095D01*
X147394514Y-58787380D02*
X147584990Y-58787380D01*
X147584990Y-58787380D02*
X147680228Y-58739761D01*
X147680228Y-58739761D02*
X147727847Y-58692142D01*
X147727847Y-58692142D02*
X147823085Y-58549285D01*
X147823085Y-58549285D02*
X147870704Y-58358809D01*
X147870704Y-58358809D02*
X147870704Y-57977857D01*
X147870704Y-57977857D02*
X147823085Y-57882619D01*
X147823085Y-57882619D02*
X147775466Y-57835000D01*
X147775466Y-57835000D02*
X147680228Y-57787380D01*
X147680228Y-57787380D02*
X147489752Y-57787380D01*
X147489752Y-57787380D02*
X147394514Y-57835000D01*
X147394514Y-57835000D02*
X147346895Y-57882619D01*
X147346895Y-57882619D02*
X147299276Y-57977857D01*
X147299276Y-57977857D02*
X147299276Y-58215952D01*
X147299276Y-58215952D02*
X147346895Y-58311190D01*
X147346895Y-58311190D02*
X147394514Y-58358809D01*
X147394514Y-58358809D02*
X147489752Y-58406428D01*
X147489752Y-58406428D02*
X147680228Y-58406428D01*
X147680228Y-58406428D02*
X147775466Y-58358809D01*
X147775466Y-58358809D02*
X147823085Y-58311190D01*
X147823085Y-58311190D02*
X147870704Y-58215952D01*
%TO.C,C7*%
X144359333Y-89045142D02*
X144311714Y-89092761D01*
X144311714Y-89092761D02*
X144168857Y-89140380D01*
X144168857Y-89140380D02*
X144073619Y-89140380D01*
X144073619Y-89140380D02*
X143930762Y-89092761D01*
X143930762Y-89092761D02*
X143835524Y-88997523D01*
X143835524Y-88997523D02*
X143787905Y-88902285D01*
X143787905Y-88902285D02*
X143740286Y-88711809D01*
X143740286Y-88711809D02*
X143740286Y-88568952D01*
X143740286Y-88568952D02*
X143787905Y-88378476D01*
X143787905Y-88378476D02*
X143835524Y-88283238D01*
X143835524Y-88283238D02*
X143930762Y-88188000D01*
X143930762Y-88188000D02*
X144073619Y-88140380D01*
X144073619Y-88140380D02*
X144168857Y-88140380D01*
X144168857Y-88140380D02*
X144311714Y-88188000D01*
X144311714Y-88188000D02*
X144359333Y-88235619D01*
X144692667Y-88140380D02*
X145359333Y-88140380D01*
X145359333Y-88140380D02*
X144930762Y-89140380D01*
%TO.C,R1*%
X159599333Y-120763380D02*
X159266000Y-120287190D01*
X159027905Y-120763380D02*
X159027905Y-119763380D01*
X159027905Y-119763380D02*
X159408857Y-119763380D01*
X159408857Y-119763380D02*
X159504095Y-119811000D01*
X159504095Y-119811000D02*
X159551714Y-119858619D01*
X159551714Y-119858619D02*
X159599333Y-119953857D01*
X159599333Y-119953857D02*
X159599333Y-120096714D01*
X159599333Y-120096714D02*
X159551714Y-120191952D01*
X159551714Y-120191952D02*
X159504095Y-120239571D01*
X159504095Y-120239571D02*
X159408857Y-120287190D01*
X159408857Y-120287190D02*
X159027905Y-120287190D01*
X160551714Y-120763380D02*
X159980286Y-120763380D01*
X160266000Y-120763380D02*
X160266000Y-119763380D01*
X160266000Y-119763380D02*
X160170762Y-119906238D01*
X160170762Y-119906238D02*
X160075524Y-120001476D01*
X160075524Y-120001476D02*
X159980286Y-120049095D01*
%TO.C,D7*%
X167536905Y-63505380D02*
X167536905Y-62505380D01*
X167536905Y-62505380D02*
X167775000Y-62505380D01*
X167775000Y-62505380D02*
X167917857Y-62553000D01*
X167917857Y-62553000D02*
X168013095Y-62648238D01*
X168013095Y-62648238D02*
X168060714Y-62743476D01*
X168060714Y-62743476D02*
X168108333Y-62933952D01*
X168108333Y-62933952D02*
X168108333Y-63076809D01*
X168108333Y-63076809D02*
X168060714Y-63267285D01*
X168060714Y-63267285D02*
X168013095Y-63362523D01*
X168013095Y-63362523D02*
X167917857Y-63457761D01*
X167917857Y-63457761D02*
X167775000Y-63505380D01*
X167775000Y-63505380D02*
X167536905Y-63505380D01*
X168441667Y-62505380D02*
X169108333Y-62505380D01*
X169108333Y-62505380D02*
X168679762Y-63505380D01*
%TO.C,C9*%
X155789333Y-80936142D02*
X155741714Y-80983761D01*
X155741714Y-80983761D02*
X155598857Y-81031380D01*
X155598857Y-81031380D02*
X155503619Y-81031380D01*
X155503619Y-81031380D02*
X155360762Y-80983761D01*
X155360762Y-80983761D02*
X155265524Y-80888523D01*
X155265524Y-80888523D02*
X155217905Y-80793285D01*
X155217905Y-80793285D02*
X155170286Y-80602809D01*
X155170286Y-80602809D02*
X155170286Y-80459952D01*
X155170286Y-80459952D02*
X155217905Y-80269476D01*
X155217905Y-80269476D02*
X155265524Y-80174238D01*
X155265524Y-80174238D02*
X155360762Y-80079000D01*
X155360762Y-80079000D02*
X155503619Y-80031380D01*
X155503619Y-80031380D02*
X155598857Y-80031380D01*
X155598857Y-80031380D02*
X155741714Y-80079000D01*
X155741714Y-80079000D02*
X155789333Y-80126619D01*
X156265524Y-81031380D02*
X156456000Y-81031380D01*
X156456000Y-81031380D02*
X156551238Y-80983761D01*
X156551238Y-80983761D02*
X156598857Y-80936142D01*
X156598857Y-80936142D02*
X156694095Y-80793285D01*
X156694095Y-80793285D02*
X156741714Y-80602809D01*
X156741714Y-80602809D02*
X156741714Y-80221857D01*
X156741714Y-80221857D02*
X156694095Y-80126619D01*
X156694095Y-80126619D02*
X156646476Y-80079000D01*
X156646476Y-80079000D02*
X156551238Y-80031380D01*
X156551238Y-80031380D02*
X156360762Y-80031380D01*
X156360762Y-80031380D02*
X156265524Y-80079000D01*
X156265524Y-80079000D02*
X156217905Y-80126619D01*
X156217905Y-80126619D02*
X156170286Y-80221857D01*
X156170286Y-80221857D02*
X156170286Y-80459952D01*
X156170286Y-80459952D02*
X156217905Y-80555190D01*
X156217905Y-80555190D02*
X156265524Y-80602809D01*
X156265524Y-80602809D02*
X156360762Y-80650428D01*
X156360762Y-80650428D02*
X156551238Y-80650428D01*
X156551238Y-80650428D02*
X156646476Y-80602809D01*
X156646476Y-80602809D02*
X156694095Y-80555190D01*
X156694095Y-80555190D02*
X156741714Y-80459952D01*
%TO.C,D2*%
X157861405Y-84151380D02*
X157861405Y-83151380D01*
X157861405Y-83151380D02*
X158099500Y-83151380D01*
X158099500Y-83151380D02*
X158242357Y-83199000D01*
X158242357Y-83199000D02*
X158337595Y-83294238D01*
X158337595Y-83294238D02*
X158385214Y-83389476D01*
X158385214Y-83389476D02*
X158432833Y-83579952D01*
X158432833Y-83579952D02*
X158432833Y-83722809D01*
X158432833Y-83722809D02*
X158385214Y-83913285D01*
X158385214Y-83913285D02*
X158337595Y-84008523D01*
X158337595Y-84008523D02*
X158242357Y-84103761D01*
X158242357Y-84103761D02*
X158099500Y-84151380D01*
X158099500Y-84151380D02*
X157861405Y-84151380D01*
X158813786Y-83246619D02*
X158861405Y-83199000D01*
X158861405Y-83199000D02*
X158956643Y-83151380D01*
X158956643Y-83151380D02*
X159194738Y-83151380D01*
X159194738Y-83151380D02*
X159289976Y-83199000D01*
X159289976Y-83199000D02*
X159337595Y-83246619D01*
X159337595Y-83246619D02*
X159385214Y-83341857D01*
X159385214Y-83341857D02*
X159385214Y-83437095D01*
X159385214Y-83437095D02*
X159337595Y-83579952D01*
X159337595Y-83579952D02*
X158766167Y-84151380D01*
X158766167Y-84151380D02*
X159385214Y-84151380D01*
%TO.C,R13*%
X154932142Y-58533380D02*
X154598809Y-58057190D01*
X154360714Y-58533380D02*
X154360714Y-57533380D01*
X154360714Y-57533380D02*
X154741666Y-57533380D01*
X154741666Y-57533380D02*
X154836904Y-57581000D01*
X154836904Y-57581000D02*
X154884523Y-57628619D01*
X154884523Y-57628619D02*
X154932142Y-57723857D01*
X154932142Y-57723857D02*
X154932142Y-57866714D01*
X154932142Y-57866714D02*
X154884523Y-57961952D01*
X154884523Y-57961952D02*
X154836904Y-58009571D01*
X154836904Y-58009571D02*
X154741666Y-58057190D01*
X154741666Y-58057190D02*
X154360714Y-58057190D01*
X155884523Y-58533380D02*
X155313095Y-58533380D01*
X155598809Y-58533380D02*
X155598809Y-57533380D01*
X155598809Y-57533380D02*
X155503571Y-57676238D01*
X155503571Y-57676238D02*
X155408333Y-57771476D01*
X155408333Y-57771476D02*
X155313095Y-57819095D01*
X156217857Y-57533380D02*
X156836904Y-57533380D01*
X156836904Y-57533380D02*
X156503571Y-57914333D01*
X156503571Y-57914333D02*
X156646428Y-57914333D01*
X156646428Y-57914333D02*
X156741666Y-57961952D01*
X156741666Y-57961952D02*
X156789285Y-58009571D01*
X156789285Y-58009571D02*
X156836904Y-58104809D01*
X156836904Y-58104809D02*
X156836904Y-58342904D01*
X156836904Y-58342904D02*
X156789285Y-58438142D01*
X156789285Y-58438142D02*
X156741666Y-58485761D01*
X156741666Y-58485761D02*
X156646428Y-58533380D01*
X156646428Y-58533380D02*
X156360714Y-58533380D01*
X156360714Y-58533380D02*
X156265476Y-58485761D01*
X156265476Y-58485761D02*
X156217857Y-58438142D01*
%TO.C,R8*%
X154646333Y-77075380D02*
X154313000Y-76599190D01*
X154074905Y-77075380D02*
X154074905Y-76075380D01*
X154074905Y-76075380D02*
X154455857Y-76075380D01*
X154455857Y-76075380D02*
X154551095Y-76123000D01*
X154551095Y-76123000D02*
X154598714Y-76170619D01*
X154598714Y-76170619D02*
X154646333Y-76265857D01*
X154646333Y-76265857D02*
X154646333Y-76408714D01*
X154646333Y-76408714D02*
X154598714Y-76503952D01*
X154598714Y-76503952D02*
X154551095Y-76551571D01*
X154551095Y-76551571D02*
X154455857Y-76599190D01*
X154455857Y-76599190D02*
X154074905Y-76599190D01*
X155217762Y-76503952D02*
X155122524Y-76456333D01*
X155122524Y-76456333D02*
X155074905Y-76408714D01*
X155074905Y-76408714D02*
X155027286Y-76313476D01*
X155027286Y-76313476D02*
X155027286Y-76265857D01*
X155027286Y-76265857D02*
X155074905Y-76170619D01*
X155074905Y-76170619D02*
X155122524Y-76123000D01*
X155122524Y-76123000D02*
X155217762Y-76075380D01*
X155217762Y-76075380D02*
X155408238Y-76075380D01*
X155408238Y-76075380D02*
X155503476Y-76123000D01*
X155503476Y-76123000D02*
X155551095Y-76170619D01*
X155551095Y-76170619D02*
X155598714Y-76265857D01*
X155598714Y-76265857D02*
X155598714Y-76313476D01*
X155598714Y-76313476D02*
X155551095Y-76408714D01*
X155551095Y-76408714D02*
X155503476Y-76456333D01*
X155503476Y-76456333D02*
X155408238Y-76503952D01*
X155408238Y-76503952D02*
X155217762Y-76503952D01*
X155217762Y-76503952D02*
X155122524Y-76551571D01*
X155122524Y-76551571D02*
X155074905Y-76599190D01*
X155074905Y-76599190D02*
X155027286Y-76694428D01*
X155027286Y-76694428D02*
X155027286Y-76884904D01*
X155027286Y-76884904D02*
X155074905Y-76980142D01*
X155074905Y-76980142D02*
X155122524Y-77027761D01*
X155122524Y-77027761D02*
X155217762Y-77075380D01*
X155217762Y-77075380D02*
X155408238Y-77075380D01*
X155408238Y-77075380D02*
X155503476Y-77027761D01*
X155503476Y-77027761D02*
X155551095Y-76980142D01*
X155551095Y-76980142D02*
X155598714Y-76884904D01*
X155598714Y-76884904D02*
X155598714Y-76694428D01*
X155598714Y-76694428D02*
X155551095Y-76599190D01*
X155551095Y-76599190D02*
X155503476Y-76551571D01*
X155503476Y-76551571D02*
X155408238Y-76503952D01*
%TO.C,D4*%
X167409905Y-80269380D02*
X167409905Y-79269380D01*
X167409905Y-79269380D02*
X167648000Y-79269380D01*
X167648000Y-79269380D02*
X167790857Y-79317000D01*
X167790857Y-79317000D02*
X167886095Y-79412238D01*
X167886095Y-79412238D02*
X167933714Y-79507476D01*
X167933714Y-79507476D02*
X167981333Y-79697952D01*
X167981333Y-79697952D02*
X167981333Y-79840809D01*
X167981333Y-79840809D02*
X167933714Y-80031285D01*
X167933714Y-80031285D02*
X167886095Y-80126523D01*
X167886095Y-80126523D02*
X167790857Y-80221761D01*
X167790857Y-80221761D02*
X167648000Y-80269380D01*
X167648000Y-80269380D02*
X167409905Y-80269380D01*
X168838476Y-79602714D02*
X168838476Y-80269380D01*
X168600381Y-79221761D02*
X168362286Y-79936047D01*
X168362286Y-79936047D02*
X168981333Y-79936047D01*
%TO.C,C18*%
X165600142Y-59473142D02*
X165552523Y-59520761D01*
X165552523Y-59520761D02*
X165409666Y-59568380D01*
X165409666Y-59568380D02*
X165314428Y-59568380D01*
X165314428Y-59568380D02*
X165171571Y-59520761D01*
X165171571Y-59520761D02*
X165076333Y-59425523D01*
X165076333Y-59425523D02*
X165028714Y-59330285D01*
X165028714Y-59330285D02*
X164981095Y-59139809D01*
X164981095Y-59139809D02*
X164981095Y-58996952D01*
X164981095Y-58996952D02*
X165028714Y-58806476D01*
X165028714Y-58806476D02*
X165076333Y-58711238D01*
X165076333Y-58711238D02*
X165171571Y-58616000D01*
X165171571Y-58616000D02*
X165314428Y-58568380D01*
X165314428Y-58568380D02*
X165409666Y-58568380D01*
X165409666Y-58568380D02*
X165552523Y-58616000D01*
X165552523Y-58616000D02*
X165600142Y-58663619D01*
X166552523Y-59568380D02*
X165981095Y-59568380D01*
X166266809Y-59568380D02*
X166266809Y-58568380D01*
X166266809Y-58568380D02*
X166171571Y-58711238D01*
X166171571Y-58711238D02*
X166076333Y-58806476D01*
X166076333Y-58806476D02*
X165981095Y-58854095D01*
X167123952Y-58996952D02*
X167028714Y-58949333D01*
X167028714Y-58949333D02*
X166981095Y-58901714D01*
X166981095Y-58901714D02*
X166933476Y-58806476D01*
X166933476Y-58806476D02*
X166933476Y-58758857D01*
X166933476Y-58758857D02*
X166981095Y-58663619D01*
X166981095Y-58663619D02*
X167028714Y-58616000D01*
X167028714Y-58616000D02*
X167123952Y-58568380D01*
X167123952Y-58568380D02*
X167314428Y-58568380D01*
X167314428Y-58568380D02*
X167409666Y-58616000D01*
X167409666Y-58616000D02*
X167457285Y-58663619D01*
X167457285Y-58663619D02*
X167504904Y-58758857D01*
X167504904Y-58758857D02*
X167504904Y-58806476D01*
X167504904Y-58806476D02*
X167457285Y-58901714D01*
X167457285Y-58901714D02*
X167409666Y-58949333D01*
X167409666Y-58949333D02*
X167314428Y-58996952D01*
X167314428Y-58996952D02*
X167123952Y-58996952D01*
X167123952Y-58996952D02*
X167028714Y-59044571D01*
X167028714Y-59044571D02*
X166981095Y-59092190D01*
X166981095Y-59092190D02*
X166933476Y-59187428D01*
X166933476Y-59187428D02*
X166933476Y-59377904D01*
X166933476Y-59377904D02*
X166981095Y-59473142D01*
X166981095Y-59473142D02*
X167028714Y-59520761D01*
X167028714Y-59520761D02*
X167123952Y-59568380D01*
X167123952Y-59568380D02*
X167314428Y-59568380D01*
X167314428Y-59568380D02*
X167409666Y-59520761D01*
X167409666Y-59520761D02*
X167457285Y-59473142D01*
X167457285Y-59473142D02*
X167504904Y-59377904D01*
X167504904Y-59377904D02*
X167504904Y-59187428D01*
X167504904Y-59187428D02*
X167457285Y-59092190D01*
X167457285Y-59092190D02*
X167409666Y-59044571D01*
X167409666Y-59044571D02*
X167314428Y-58996952D01*
%TO.C,D6*%
X168116905Y-67442380D02*
X168116905Y-66442380D01*
X168116905Y-66442380D02*
X168355000Y-66442380D01*
X168355000Y-66442380D02*
X168497857Y-66490000D01*
X168497857Y-66490000D02*
X168593095Y-66585238D01*
X168593095Y-66585238D02*
X168640714Y-66680476D01*
X168640714Y-66680476D02*
X168688333Y-66870952D01*
X168688333Y-66870952D02*
X168688333Y-67013809D01*
X168688333Y-67013809D02*
X168640714Y-67204285D01*
X168640714Y-67204285D02*
X168593095Y-67299523D01*
X168593095Y-67299523D02*
X168497857Y-67394761D01*
X168497857Y-67394761D02*
X168355000Y-67442380D01*
X168355000Y-67442380D02*
X168116905Y-67442380D01*
X169545476Y-66442380D02*
X169355000Y-66442380D01*
X169355000Y-66442380D02*
X169259762Y-66490000D01*
X169259762Y-66490000D02*
X169212143Y-66537619D01*
X169212143Y-66537619D02*
X169116905Y-66680476D01*
X169116905Y-66680476D02*
X169069286Y-66870952D01*
X169069286Y-66870952D02*
X169069286Y-67251904D01*
X169069286Y-67251904D02*
X169116905Y-67347142D01*
X169116905Y-67347142D02*
X169164524Y-67394761D01*
X169164524Y-67394761D02*
X169259762Y-67442380D01*
X169259762Y-67442380D02*
X169450238Y-67442380D01*
X169450238Y-67442380D02*
X169545476Y-67394761D01*
X169545476Y-67394761D02*
X169593095Y-67347142D01*
X169593095Y-67347142D02*
X169640714Y-67251904D01*
X169640714Y-67251904D02*
X169640714Y-67013809D01*
X169640714Y-67013809D02*
X169593095Y-66918571D01*
X169593095Y-66918571D02*
X169545476Y-66870952D01*
X169545476Y-66870952D02*
X169450238Y-66823333D01*
X169450238Y-66823333D02*
X169259762Y-66823333D01*
X169259762Y-66823333D02*
X169164524Y-66870952D01*
X169164524Y-66870952D02*
X169116905Y-66918571D01*
X169116905Y-66918571D02*
X169069286Y-67013809D01*
%TO.C,C4*%
X163917333Y-92728142D02*
X163869714Y-92775761D01*
X163869714Y-92775761D02*
X163726857Y-92823380D01*
X163726857Y-92823380D02*
X163631619Y-92823380D01*
X163631619Y-92823380D02*
X163488762Y-92775761D01*
X163488762Y-92775761D02*
X163393524Y-92680523D01*
X163393524Y-92680523D02*
X163345905Y-92585285D01*
X163345905Y-92585285D02*
X163298286Y-92394809D01*
X163298286Y-92394809D02*
X163298286Y-92251952D01*
X163298286Y-92251952D02*
X163345905Y-92061476D01*
X163345905Y-92061476D02*
X163393524Y-91966238D01*
X163393524Y-91966238D02*
X163488762Y-91871000D01*
X163488762Y-91871000D02*
X163631619Y-91823380D01*
X163631619Y-91823380D02*
X163726857Y-91823380D01*
X163726857Y-91823380D02*
X163869714Y-91871000D01*
X163869714Y-91871000D02*
X163917333Y-91918619D01*
X164774476Y-92156714D02*
X164774476Y-92823380D01*
X164536381Y-91775761D02*
X164298286Y-92490047D01*
X164298286Y-92490047D02*
X164917333Y-92490047D01*
%TO.C,C14*%
X168394142Y-71411142D02*
X168346523Y-71458761D01*
X168346523Y-71458761D02*
X168203666Y-71506380D01*
X168203666Y-71506380D02*
X168108428Y-71506380D01*
X168108428Y-71506380D02*
X167965571Y-71458761D01*
X167965571Y-71458761D02*
X167870333Y-71363523D01*
X167870333Y-71363523D02*
X167822714Y-71268285D01*
X167822714Y-71268285D02*
X167775095Y-71077809D01*
X167775095Y-71077809D02*
X167775095Y-70934952D01*
X167775095Y-70934952D02*
X167822714Y-70744476D01*
X167822714Y-70744476D02*
X167870333Y-70649238D01*
X167870333Y-70649238D02*
X167965571Y-70554000D01*
X167965571Y-70554000D02*
X168108428Y-70506380D01*
X168108428Y-70506380D02*
X168203666Y-70506380D01*
X168203666Y-70506380D02*
X168346523Y-70554000D01*
X168346523Y-70554000D02*
X168394142Y-70601619D01*
X169346523Y-71506380D02*
X168775095Y-71506380D01*
X169060809Y-71506380D02*
X169060809Y-70506380D01*
X169060809Y-70506380D02*
X168965571Y-70649238D01*
X168965571Y-70649238D02*
X168870333Y-70744476D01*
X168870333Y-70744476D02*
X168775095Y-70792095D01*
X170203666Y-70839714D02*
X170203666Y-71506380D01*
X169965571Y-70458761D02*
X169727476Y-71173047D01*
X169727476Y-71173047D02*
X170346523Y-71173047D01*
%TO.C,D5*%
X167788605Y-75351980D02*
X167788605Y-74351980D01*
X167788605Y-74351980D02*
X168026700Y-74351980D01*
X168026700Y-74351980D02*
X168169557Y-74399600D01*
X168169557Y-74399600D02*
X168264795Y-74494838D01*
X168264795Y-74494838D02*
X168312414Y-74590076D01*
X168312414Y-74590076D02*
X168360033Y-74780552D01*
X168360033Y-74780552D02*
X168360033Y-74923409D01*
X168360033Y-74923409D02*
X168312414Y-75113885D01*
X168312414Y-75113885D02*
X168264795Y-75209123D01*
X168264795Y-75209123D02*
X168169557Y-75304361D01*
X168169557Y-75304361D02*
X168026700Y-75351980D01*
X168026700Y-75351980D02*
X167788605Y-75351980D01*
X169264795Y-74351980D02*
X168788605Y-74351980D01*
X168788605Y-74351980D02*
X168740986Y-74828171D01*
X168740986Y-74828171D02*
X168788605Y-74780552D01*
X168788605Y-74780552D02*
X168883843Y-74732933D01*
X168883843Y-74732933D02*
X169121938Y-74732933D01*
X169121938Y-74732933D02*
X169217176Y-74780552D01*
X169217176Y-74780552D02*
X169264795Y-74828171D01*
X169264795Y-74828171D02*
X169312414Y-74923409D01*
X169312414Y-74923409D02*
X169312414Y-75161504D01*
X169312414Y-75161504D02*
X169264795Y-75256742D01*
X169264795Y-75256742D02*
X169217176Y-75304361D01*
X169217176Y-75304361D02*
X169121938Y-75351980D01*
X169121938Y-75351980D02*
X168883843Y-75351980D01*
X168883843Y-75351980D02*
X168788605Y-75304361D01*
X168788605Y-75304361D02*
X168740986Y-75256742D01*
%TO.C,C6*%
X147661333Y-81298142D02*
X147613714Y-81345761D01*
X147613714Y-81345761D02*
X147470857Y-81393380D01*
X147470857Y-81393380D02*
X147375619Y-81393380D01*
X147375619Y-81393380D02*
X147232762Y-81345761D01*
X147232762Y-81345761D02*
X147137524Y-81250523D01*
X147137524Y-81250523D02*
X147089905Y-81155285D01*
X147089905Y-81155285D02*
X147042286Y-80964809D01*
X147042286Y-80964809D02*
X147042286Y-80821952D01*
X147042286Y-80821952D02*
X147089905Y-80631476D01*
X147089905Y-80631476D02*
X147137524Y-80536238D01*
X147137524Y-80536238D02*
X147232762Y-80441000D01*
X147232762Y-80441000D02*
X147375619Y-80393380D01*
X147375619Y-80393380D02*
X147470857Y-80393380D01*
X147470857Y-80393380D02*
X147613714Y-80441000D01*
X147613714Y-80441000D02*
X147661333Y-80488619D01*
X148518476Y-80393380D02*
X148328000Y-80393380D01*
X148328000Y-80393380D02*
X148232762Y-80441000D01*
X148232762Y-80441000D02*
X148185143Y-80488619D01*
X148185143Y-80488619D02*
X148089905Y-80631476D01*
X148089905Y-80631476D02*
X148042286Y-80821952D01*
X148042286Y-80821952D02*
X148042286Y-81202904D01*
X148042286Y-81202904D02*
X148089905Y-81298142D01*
X148089905Y-81298142D02*
X148137524Y-81345761D01*
X148137524Y-81345761D02*
X148232762Y-81393380D01*
X148232762Y-81393380D02*
X148423238Y-81393380D01*
X148423238Y-81393380D02*
X148518476Y-81345761D01*
X148518476Y-81345761D02*
X148566095Y-81298142D01*
X148566095Y-81298142D02*
X148613714Y-81202904D01*
X148613714Y-81202904D02*
X148613714Y-80964809D01*
X148613714Y-80964809D02*
X148566095Y-80869571D01*
X148566095Y-80869571D02*
X148518476Y-80821952D01*
X148518476Y-80821952D02*
X148423238Y-80774333D01*
X148423238Y-80774333D02*
X148232762Y-80774333D01*
X148232762Y-80774333D02*
X148137524Y-80821952D01*
X148137524Y-80821952D02*
X148089905Y-80869571D01*
X148089905Y-80869571D02*
X148042286Y-80964809D01*
%TO.C,C2*%
X141692333Y-114953142D02*
X141644714Y-115000761D01*
X141644714Y-115000761D02*
X141501857Y-115048380D01*
X141501857Y-115048380D02*
X141406619Y-115048380D01*
X141406619Y-115048380D02*
X141263762Y-115000761D01*
X141263762Y-115000761D02*
X141168524Y-114905523D01*
X141168524Y-114905523D02*
X141120905Y-114810285D01*
X141120905Y-114810285D02*
X141073286Y-114619809D01*
X141073286Y-114619809D02*
X141073286Y-114476952D01*
X141073286Y-114476952D02*
X141120905Y-114286476D01*
X141120905Y-114286476D02*
X141168524Y-114191238D01*
X141168524Y-114191238D02*
X141263762Y-114096000D01*
X141263762Y-114096000D02*
X141406619Y-114048380D01*
X141406619Y-114048380D02*
X141501857Y-114048380D01*
X141501857Y-114048380D02*
X141644714Y-114096000D01*
X141644714Y-114096000D02*
X141692333Y-114143619D01*
X142073286Y-114143619D02*
X142120905Y-114096000D01*
X142120905Y-114096000D02*
X142216143Y-114048380D01*
X142216143Y-114048380D02*
X142454238Y-114048380D01*
X142454238Y-114048380D02*
X142549476Y-114096000D01*
X142549476Y-114096000D02*
X142597095Y-114143619D01*
X142597095Y-114143619D02*
X142644714Y-114238857D01*
X142644714Y-114238857D02*
X142644714Y-114334095D01*
X142644714Y-114334095D02*
X142597095Y-114476952D01*
X142597095Y-114476952D02*
X142025667Y-115048380D01*
X142025667Y-115048380D02*
X142644714Y-115048380D01*
%TO.C,C5*%
X143089333Y-106046142D02*
X143041714Y-106093761D01*
X143041714Y-106093761D02*
X142898857Y-106141380D01*
X142898857Y-106141380D02*
X142803619Y-106141380D01*
X142803619Y-106141380D02*
X142660762Y-106093761D01*
X142660762Y-106093761D02*
X142565524Y-105998523D01*
X142565524Y-105998523D02*
X142517905Y-105903285D01*
X142517905Y-105903285D02*
X142470286Y-105712809D01*
X142470286Y-105712809D02*
X142470286Y-105569952D01*
X142470286Y-105569952D02*
X142517905Y-105379476D01*
X142517905Y-105379476D02*
X142565524Y-105284238D01*
X142565524Y-105284238D02*
X142660762Y-105189000D01*
X142660762Y-105189000D02*
X142803619Y-105141380D01*
X142803619Y-105141380D02*
X142898857Y-105141380D01*
X142898857Y-105141380D02*
X143041714Y-105189000D01*
X143041714Y-105189000D02*
X143089333Y-105236619D01*
X143994095Y-105141380D02*
X143517905Y-105141380D01*
X143517905Y-105141380D02*
X143470286Y-105617571D01*
X143470286Y-105617571D02*
X143517905Y-105569952D01*
X143517905Y-105569952D02*
X143613143Y-105522333D01*
X143613143Y-105522333D02*
X143851238Y-105522333D01*
X143851238Y-105522333D02*
X143946476Y-105569952D01*
X143946476Y-105569952D02*
X143994095Y-105617571D01*
X143994095Y-105617571D02*
X144041714Y-105712809D01*
X144041714Y-105712809D02*
X144041714Y-105950904D01*
X144041714Y-105950904D02*
X143994095Y-106046142D01*
X143994095Y-106046142D02*
X143946476Y-106093761D01*
X143946476Y-106093761D02*
X143851238Y-106141380D01*
X143851238Y-106141380D02*
X143613143Y-106141380D01*
X143613143Y-106141380D02*
X143517905Y-106093761D01*
X143517905Y-106093761D02*
X143470286Y-106046142D01*
%TO.C,U1*%
X152146095Y-65680380D02*
X152146095Y-66489904D01*
X152146095Y-66489904D02*
X152193714Y-66585142D01*
X152193714Y-66585142D02*
X152241333Y-66632761D01*
X152241333Y-66632761D02*
X152336571Y-66680380D01*
X152336571Y-66680380D02*
X152527047Y-66680380D01*
X152527047Y-66680380D02*
X152622285Y-66632761D01*
X152622285Y-66632761D02*
X152669904Y-66585142D01*
X152669904Y-66585142D02*
X152717523Y-66489904D01*
X152717523Y-66489904D02*
X152717523Y-65680380D01*
X153717523Y-66680380D02*
X153146095Y-66680380D01*
X153431809Y-66680380D02*
X153431809Y-65680380D01*
X153431809Y-65680380D02*
X153336571Y-65823238D01*
X153336571Y-65823238D02*
X153241333Y-65918476D01*
X153241333Y-65918476D02*
X153146095Y-65966095D01*
%TO.C,kibuzzard-64153C31*%
G36*
X150275131Y-53505100D02*
G01*
X150313231Y-53599556D01*
X150272750Y-53693219D01*
X150174325Y-53734494D01*
X150079075Y-53692425D01*
X150041769Y-53599556D01*
X150078281Y-53505894D01*
X150175913Y-53463031D01*
X150275131Y-53505100D01*
G37*
G36*
X153804144Y-53503512D02*
G01*
X153840656Y-53597175D01*
X153802556Y-53689250D01*
X153706513Y-53731319D01*
X153608088Y-53690044D01*
X153567606Y-53597175D01*
X153605706Y-53502719D01*
X153705719Y-53459856D01*
X153804144Y-53503512D01*
G37*
G36*
X149312313Y-53512244D02*
G01*
X149349619Y-53608288D01*
X149310725Y-53702744D01*
X149213094Y-53745606D01*
X149113081Y-53703537D01*
X149071806Y-53609081D01*
X149110700Y-53512244D01*
X149212300Y-53467794D01*
X149312313Y-53512244D01*
G37*
G36*
X152868313Y-53512244D02*
G01*
X152905619Y-53608288D01*
X152866725Y-53702744D01*
X152769094Y-53745606D01*
X152669081Y-53703537D01*
X152627806Y-53609081D01*
X152666700Y-53512244D01*
X152768300Y-53467794D01*
X152868313Y-53512244D01*
G37*
G36*
X147841692Y-53165573D02*
G01*
X147939125Y-53230462D01*
X148006395Y-53327498D01*
X148028819Y-53445569D01*
X148005800Y-53563242D01*
X147936744Y-53659087D01*
X147839113Y-53722786D01*
X147730369Y-53744019D01*
X147576381Y-53744019D01*
X147576381Y-53143944D01*
X147728781Y-53143944D01*
X147841692Y-53165573D01*
G37*
G36*
X153708894Y-54719273D02*
G01*
X153068338Y-54719273D01*
X151786431Y-54719273D01*
X151381619Y-54719273D01*
X149900481Y-54719273D01*
X149512338Y-54719273D01*
X148551106Y-54719273D01*
X147725606Y-54719273D01*
X147295394Y-54719273D01*
X147163102Y-54719273D01*
X147052806Y-54713854D01*
X146943572Y-54697651D01*
X146836453Y-54670819D01*
X146732479Y-54633617D01*
X146632652Y-54586402D01*
X146537934Y-54529630D01*
X146449237Y-54463848D01*
X146367414Y-54389688D01*
X146293254Y-54307866D01*
X146253013Y-54253606D01*
X149763956Y-54253606D01*
X149766338Y-54307581D01*
X149780625Y-54347269D01*
X149821900Y-54379019D01*
X149900481Y-54388544D01*
X149978269Y-54379019D01*
X150018750Y-54346475D01*
X150033038Y-54305994D01*
X150035419Y-54252019D01*
X150035419Y-53931344D01*
X150112016Y-53986113D01*
X150224331Y-54004369D01*
X150309439Y-53990787D01*
X150391195Y-53950041D01*
X150464101Y-53886894D01*
X150687881Y-53886894D01*
X150690263Y-53942456D01*
X150703756Y-53983731D01*
X150745428Y-54015878D01*
X150825994Y-54026594D01*
X150907353Y-54016275D01*
X150948231Y-53985319D01*
X150963313Y-53943250D01*
X150965694Y-53888481D01*
X150965694Y-53580506D01*
X151014906Y-53503512D01*
X151114125Y-53469381D01*
X151206994Y-53505894D01*
X151243506Y-53607494D01*
X151243506Y-53885306D01*
X151245888Y-53942456D01*
X151260969Y-53985319D01*
X151303038Y-54016275D01*
X151381619Y-54026594D01*
X151462978Y-54016275D01*
X151503856Y-53985319D01*
X151518938Y-53943250D01*
X151519456Y-53931344D01*
X151648319Y-53931344D01*
X151676894Y-53999606D01*
X151786431Y-54026594D01*
X151867394Y-54016275D01*
X151910256Y-53985319D01*
X151925338Y-53943250D01*
X151927719Y-53888481D01*
X151927719Y-53606700D01*
X152349994Y-53606700D01*
X152363047Y-53712798D01*
X152402205Y-53809900D01*
X152467469Y-53898006D01*
X152547990Y-53967680D01*
X152632922Y-54009484D01*
X152722263Y-54023419D01*
X152839936Y-54002384D01*
X152918319Y-53939281D01*
X152952450Y-54001987D01*
X153068338Y-54023419D01*
X153138783Y-54013100D01*
X153177081Y-53982144D01*
X153190575Y-53940075D01*
X153192956Y-53885306D01*
X153192956Y-53596381D01*
X153296144Y-53596381D01*
X153308932Y-53699833D01*
X153347297Y-53794290D01*
X153411238Y-53879750D01*
X153489819Y-53947219D01*
X153572104Y-53987700D01*
X153658094Y-54001194D01*
X153771997Y-53981350D01*
X153850181Y-53921819D01*
X153850181Y-53969444D01*
X153812081Y-54083744D01*
X153713656Y-54131369D01*
X153627931Y-54116684D01*
X153548556Y-54072631D01*
X153502519Y-54053581D01*
X153463625Y-54066281D01*
X153416794Y-54112319D01*
X153369169Y-54221856D01*
X153396553Y-54272259D01*
X153478706Y-54328219D01*
X153591022Y-54372272D01*
X153708894Y-54386956D01*
X153811199Y-54374521D01*
X153906449Y-54337215D01*
X153994644Y-54275038D01*
X154065199Y-54192576D01*
X154107533Y-54094415D01*
X154121644Y-53980556D01*
X154121644Y-53886894D01*
X154248644Y-53886894D01*
X154251025Y-53942456D01*
X154264519Y-53983731D01*
X154306191Y-54015878D01*
X154386756Y-54026594D01*
X154467719Y-54016275D01*
X154510581Y-53985319D01*
X154525663Y-53943250D01*
X154528044Y-53888481D01*
X154528044Y-53607494D01*
X154551856Y-53503909D01*
X154623294Y-53469381D01*
X154697113Y-53503909D01*
X154721719Y-53607494D01*
X154721719Y-53885306D01*
X154724100Y-53940075D01*
X154737594Y-53982144D01*
X154779266Y-54015481D01*
X154859831Y-54026594D01*
X154941588Y-54015878D01*
X154983656Y-53983731D01*
X154998738Y-53942456D01*
X155001119Y-53886894D01*
X155001119Y-53609081D01*
X155020963Y-53505894D01*
X155096369Y-53469381D01*
X155170188Y-53503909D01*
X155194794Y-53607494D01*
X155194794Y-53885306D01*
X155197175Y-53940075D01*
X155210669Y-53982144D01*
X155252341Y-54015481D01*
X155332906Y-54026594D01*
X155414266Y-54015878D01*
X155455144Y-53983731D01*
X155470225Y-53941663D01*
X155472606Y-53886894D01*
X155472606Y-53609081D01*
X155463081Y-53472997D01*
X155434506Y-53365312D01*
X155386881Y-53286025D01*
X155290838Y-53212802D01*
X155174156Y-53188394D01*
X155063031Y-53219350D01*
X154984450Y-53276500D01*
X154942381Y-53326506D01*
X154880292Y-53249777D01*
X154799859Y-53203740D01*
X154701081Y-53188394D01*
X154603847Y-53216572D01*
X154521694Y-53301106D01*
X154494706Y-53218556D01*
X154378819Y-53189981D01*
X154306191Y-53200697D01*
X154266106Y-53232844D01*
X154251025Y-53273325D01*
X154248644Y-53328094D01*
X154248644Y-53886894D01*
X154121644Y-53886894D01*
X154121644Y-53323331D01*
X154119263Y-53269356D01*
X154104975Y-53228875D01*
X154064494Y-53196331D01*
X153974006Y-53186806D01*
X153884313Y-53209825D01*
X153851769Y-53277294D01*
X153825575Y-53246337D01*
X153764456Y-53209825D01*
X153666031Y-53189981D01*
X153576426Y-53203563D01*
X153491759Y-53244309D01*
X153412031Y-53312219D01*
X153347649Y-53398120D01*
X153309020Y-53492841D01*
X153296144Y-53596381D01*
X153192956Y-53596381D01*
X153192956Y-53329681D01*
X153190575Y-53274912D01*
X153176288Y-53232844D01*
X153134219Y-53199506D01*
X153042144Y-53189981D01*
X152952847Y-53212206D01*
X152916731Y-53278881D01*
X152888156Y-53246337D01*
X152826244Y-53210619D01*
X152727819Y-53191569D01*
X152636185Y-53205415D01*
X152549666Y-53246955D01*
X152468263Y-53316187D01*
X152402558Y-53403853D01*
X152363135Y-53500690D01*
X152349994Y-53606700D01*
X151927719Y-53606700D01*
X151927719Y-53555106D01*
X151965025Y-53482081D01*
X152045194Y-53451919D01*
X152114250Y-53464619D01*
X152169019Y-53477319D01*
X152256331Y-53416994D01*
X152286494Y-53305869D01*
X152266650Y-53232050D01*
X152216644Y-53199506D01*
X152161081Y-53186012D01*
X152098375Y-53182044D01*
X152011856Y-53209031D01*
X151947563Y-53251894D01*
X151924544Y-53278881D01*
X151907081Y-53226494D01*
X151865409Y-53199109D01*
X151788019Y-53189981D01*
X151706263Y-53200697D01*
X151664194Y-53232844D01*
X151650700Y-53273325D01*
X151648319Y-53328094D01*
X151648319Y-53885306D01*
X151648319Y-53931344D01*
X151519456Y-53931344D01*
X151521319Y-53888481D01*
X151521319Y-53609081D01*
X151509589Y-53498662D01*
X151474399Y-53400237D01*
X151415750Y-53313806D01*
X151339462Y-53246778D01*
X151251356Y-53206562D01*
X151151431Y-53193156D01*
X151051816Y-53217366D01*
X150965694Y-53289994D01*
X150965694Y-52939156D01*
X150963313Y-52884387D01*
X150948231Y-52842319D01*
X150907750Y-52810172D01*
X150827581Y-52799456D01*
X150745825Y-52810172D01*
X150703756Y-52842319D01*
X150690263Y-52882800D01*
X150687881Y-52937569D01*
X150687881Y-53886894D01*
X150464101Y-53886894D01*
X150469600Y-53882131D01*
X150533541Y-53796230D01*
X150571906Y-53701509D01*
X150584694Y-53597969D01*
X150571817Y-53494428D01*
X150533188Y-53399708D01*
X150468806Y-53313806D01*
X150390049Y-53245897D01*
X150308292Y-53205151D01*
X150223538Y-53191569D01*
X150111420Y-53212206D01*
X150033831Y-53274119D01*
X149999700Y-53211412D01*
X149886194Y-53189981D01*
X149817534Y-53200697D01*
X149779831Y-53232844D01*
X149766338Y-53272531D01*
X149763956Y-53326506D01*
X149763956Y-54253606D01*
X146253013Y-54253606D01*
X146227472Y-54219168D01*
X146170700Y-54124450D01*
X146123486Y-54024623D01*
X146086283Y-53920649D01*
X146077032Y-53883719D01*
X147295394Y-53883719D01*
X147314444Y-53985319D01*
X147356513Y-54015084D01*
X147435094Y-54025006D01*
X147725606Y-54025006D01*
X147842536Y-54014191D01*
X147950436Y-53981747D01*
X148049308Y-53927673D01*
X148097703Y-53886894D01*
X148412994Y-53886894D01*
X148415375Y-53942456D01*
X148428869Y-53983731D01*
X148470541Y-54015878D01*
X148551106Y-54026594D01*
X148632466Y-54016275D01*
X148673344Y-53985319D01*
X148688425Y-53943250D01*
X148690806Y-53888481D01*
X148690806Y-53606700D01*
X148793994Y-53606700D01*
X148807047Y-53712798D01*
X148846205Y-53809900D01*
X148911469Y-53898006D01*
X148991990Y-53967680D01*
X149076922Y-54009484D01*
X149166263Y-54023419D01*
X149283936Y-54002384D01*
X149362319Y-53939281D01*
X149396450Y-54001987D01*
X149512338Y-54023419D01*
X149582783Y-54013100D01*
X149621081Y-53982144D01*
X149634575Y-53940075D01*
X149636956Y-53885306D01*
X149636956Y-53329681D01*
X149634575Y-53274912D01*
X149620288Y-53232844D01*
X149578219Y-53199506D01*
X149486144Y-53189981D01*
X149396847Y-53212206D01*
X149360731Y-53278881D01*
X149332156Y-53246337D01*
X149270244Y-53210619D01*
X149171819Y-53191569D01*
X149080185Y-53205415D01*
X148993666Y-53246955D01*
X148912263Y-53316187D01*
X148846558Y-53403853D01*
X148807135Y-53500690D01*
X148793994Y-53606700D01*
X148690806Y-53606700D01*
X148690806Y-53332856D01*
X148689219Y-53286819D01*
X148660644Y-53218556D01*
X148552694Y-53191569D01*
X148551900Y-53191669D01*
X148470938Y-53201887D01*
X148428869Y-53232844D01*
X148415375Y-53274912D01*
X148412994Y-53329681D01*
X148412994Y-53886894D01*
X148097703Y-53886894D01*
X148139150Y-53851969D01*
X148213812Y-53761134D01*
X148267142Y-53661667D01*
X148299140Y-53553568D01*
X148309806Y-53436837D01*
X148298892Y-53320553D01*
X148266150Y-53213794D01*
X148211580Y-53116559D01*
X148135181Y-53028850D01*
X148044396Y-52956271D01*
X148009139Y-52937569D01*
X148412994Y-52937569D01*
X148415375Y-52992337D01*
X148429663Y-53034406D01*
X148471731Y-53067744D01*
X148551900Y-53077269D01*
X148632069Y-53067744D01*
X148674138Y-53035200D01*
X148688425Y-52993925D01*
X148690806Y-52939156D01*
X148688425Y-52884387D01*
X148673344Y-52842319D01*
X148632863Y-52810172D01*
X148552694Y-52799456D01*
X148470938Y-52810172D01*
X148428869Y-52842319D01*
X148415375Y-52882800D01*
X148412994Y-52937569D01*
X148009139Y-52937569D01*
X147946666Y-52904430D01*
X147841990Y-52873325D01*
X147730369Y-52862956D01*
X147436681Y-52861369D01*
X147354925Y-52872084D01*
X147312856Y-52904231D01*
X147297775Y-52945506D01*
X147295394Y-53001069D01*
X147295394Y-53883719D01*
X146077032Y-53883719D01*
X146059451Y-53813530D01*
X146043248Y-53704296D01*
X146037829Y-53594000D01*
X146043248Y-53483704D01*
X146059451Y-53374470D01*
X146086283Y-53267351D01*
X146123486Y-53163377D01*
X146170700Y-53063550D01*
X146227472Y-52968832D01*
X146293254Y-52880134D01*
X146367414Y-52798312D01*
X146449237Y-52724152D01*
X146537934Y-52658370D01*
X146632652Y-52601598D01*
X146732479Y-52554383D01*
X146836453Y-52517181D01*
X146943572Y-52490349D01*
X147052806Y-52474146D01*
X147163102Y-52468727D01*
X147295394Y-52468727D01*
X155472606Y-52468727D01*
X155604898Y-52468727D01*
X155715194Y-52474146D01*
X155824428Y-52490349D01*
X155931547Y-52517181D01*
X156035521Y-52554383D01*
X156135348Y-52601598D01*
X156230066Y-52658370D01*
X156318763Y-52724152D01*
X156400586Y-52798312D01*
X156474746Y-52880134D01*
X156540528Y-52968832D01*
X156597300Y-53063550D01*
X156644514Y-53163377D01*
X156681717Y-53267351D01*
X156708549Y-53374470D01*
X156724752Y-53483704D01*
X156730171Y-53594000D01*
X156724752Y-53704296D01*
X156708549Y-53813530D01*
X156681717Y-53920649D01*
X156644514Y-54024623D01*
X156597300Y-54124450D01*
X156540528Y-54219168D01*
X156474746Y-54307866D01*
X156400586Y-54389688D01*
X156318763Y-54463848D01*
X156230066Y-54529630D01*
X156135348Y-54586402D01*
X156035521Y-54633617D01*
X155931547Y-54670819D01*
X155824428Y-54697651D01*
X155715194Y-54713854D01*
X155604898Y-54719273D01*
X155472606Y-54719273D01*
X155332906Y-54719273D01*
X153708894Y-54719273D01*
G37*
%TO.C,kibuzzard-64153C1C*%
G36*
X139916694Y-59551094D02*
G01*
X139916694Y-59751119D01*
X139827000Y-59700319D01*
X139784931Y-59597925D01*
X139807156Y-59518550D01*
X139865894Y-59490769D01*
X139916694Y-59551094D01*
G37*
G36*
X140054806Y-62615763D02*
G01*
X140096081Y-62714188D01*
X140054013Y-62809438D01*
X139961144Y-62846744D01*
X139867481Y-62810231D01*
X139824619Y-62712600D01*
X139866687Y-62613381D01*
X139961144Y-62575281D01*
X140054806Y-62615763D01*
G37*
G36*
X140064331Y-61188600D02*
G01*
X140107194Y-61286231D01*
X140065125Y-61386244D01*
X139970669Y-61427519D01*
X139873831Y-61388625D01*
X139829381Y-61287025D01*
X139873831Y-61187013D01*
X139969875Y-61149706D01*
X140064331Y-61188600D01*
G37*
G36*
X140064331Y-65249425D02*
G01*
X140107194Y-65347056D01*
X140065125Y-65447069D01*
X139970669Y-65488344D01*
X139873831Y-65449450D01*
X139829381Y-65347850D01*
X139873831Y-65247838D01*
X139969875Y-65210531D01*
X140064331Y-65249425D01*
G37*
G36*
X140078619Y-66151522D02*
G01*
X140105606Y-66226531D01*
X140105606Y-66486881D01*
X139503944Y-66486881D01*
X139503944Y-66264631D01*
X139519819Y-66186050D01*
X139575381Y-66159856D01*
X139632531Y-66164619D01*
X139665869Y-66240819D01*
X139688094Y-66338450D01*
X139779375Y-66367819D01*
X139870656Y-66339244D01*
X139892881Y-66253519D01*
X139905581Y-66164619D01*
X139937331Y-66135250D01*
X139997656Y-66126519D01*
X140078619Y-66151522D01*
G37*
G36*
X141080860Y-59595544D02*
G01*
X141080860Y-60292456D01*
X141080860Y-60986988D01*
X141080860Y-61870431D01*
X141080860Y-62988031D01*
X141080860Y-63356331D01*
X141080860Y-64388206D01*
X141080860Y-65047813D01*
X141080860Y-66210656D01*
X141080860Y-66767869D01*
X141080860Y-66900160D01*
X141075434Y-67010612D01*
X141059208Y-67120000D01*
X141032338Y-67227271D01*
X140995083Y-67331391D01*
X140947802Y-67431359D01*
X140890950Y-67526211D01*
X140825075Y-67615033D01*
X140750811Y-67696971D01*
X140668873Y-67771235D01*
X140580050Y-67837111D01*
X140485198Y-67893963D01*
X140385231Y-67941244D01*
X140281110Y-67978499D01*
X140173840Y-68005369D01*
X140064452Y-68021595D01*
X139954000Y-68027021D01*
X139843548Y-68021595D01*
X139734160Y-68005369D01*
X139626890Y-67978499D01*
X139522769Y-67941244D01*
X139422802Y-67893963D01*
X139327950Y-67837111D01*
X139239127Y-67771235D01*
X139157189Y-67696971D01*
X139082925Y-67615033D01*
X139017050Y-67526211D01*
X138960198Y-67431359D01*
X138912917Y-67331391D01*
X138875662Y-67227271D01*
X138848792Y-67120000D01*
X138832566Y-67010612D01*
X138827140Y-66900160D01*
X138827140Y-66767869D01*
X138827140Y-66626581D01*
X139222956Y-66626581D01*
X139233672Y-66708338D01*
X139265819Y-66750406D01*
X139307094Y-66765488D01*
X139362656Y-66767869D01*
X140243719Y-66767869D01*
X140326269Y-66758344D01*
X140371512Y-66716275D01*
X140386594Y-66628169D01*
X140386594Y-66210656D01*
X140374688Y-66115142D01*
X140338969Y-66029681D01*
X140279438Y-65954275D01*
X140202267Y-65895273D01*
X140113632Y-65859025D01*
X140013531Y-65845531D01*
X139924455Y-65855938D01*
X139841376Y-65887159D01*
X139764294Y-65939194D01*
X139672616Y-65893950D01*
X139572206Y-65878869D01*
X139480484Y-65890334D01*
X139397934Y-65924730D01*
X139324556Y-65982056D01*
X139268112Y-66052965D01*
X139234245Y-66134456D01*
X139222956Y-66226531D01*
X139222956Y-66626581D01*
X138827140Y-66626581D01*
X138827140Y-65074006D01*
X139551569Y-65074006D01*
X139573794Y-65163303D01*
X139640469Y-65199419D01*
X139607925Y-65227994D01*
X139572206Y-65289906D01*
X139553156Y-65388331D01*
X139567003Y-65479965D01*
X139608542Y-65566484D01*
X139677775Y-65647888D01*
X139765440Y-65713592D01*
X139862278Y-65753015D01*
X139968288Y-65766156D01*
X140074385Y-65753103D01*
X140171488Y-65713945D01*
X140259594Y-65648681D01*
X140329267Y-65568160D01*
X140371072Y-65483228D01*
X140385006Y-65393888D01*
X140363972Y-65276214D01*
X140300869Y-65197831D01*
X140363575Y-65163700D01*
X140385006Y-65047813D01*
X140374688Y-64977367D01*
X140343731Y-64939069D01*
X140301663Y-64925575D01*
X140246894Y-64923194D01*
X139691269Y-64923194D01*
X139636500Y-64925575D01*
X139594431Y-64939863D01*
X139561094Y-64981931D01*
X139551569Y-65074006D01*
X138827140Y-65074006D01*
X138827140Y-64391381D01*
X139542044Y-64391381D01*
X139553685Y-64488924D01*
X139588610Y-64582587D01*
X139646819Y-64672369D01*
X139705755Y-64731503D01*
X139780963Y-64778731D01*
X139869069Y-64809688D01*
X139966700Y-64820006D01*
X140064728Y-64809688D01*
X140154025Y-64778731D01*
X140230423Y-64731503D01*
X140289756Y-64672369D01*
X140348847Y-64580117D01*
X140384301Y-64485397D01*
X140396119Y-64388206D01*
X140380244Y-64266763D01*
X140332619Y-64165956D01*
X140278247Y-64100472D01*
X140219906Y-64078644D01*
X140137356Y-64115156D01*
X140074253Y-64178259D01*
X140053219Y-64231044D01*
X140082587Y-64301688D01*
X140111956Y-64395350D01*
X140074650Y-64489806D01*
X139969875Y-64534256D01*
X139864306Y-64488219D01*
X139826206Y-64389000D01*
X139853194Y-64307244D01*
X139888119Y-64221519D01*
X139866291Y-64167941D01*
X139800806Y-64111981D01*
X139709525Y-64078644D01*
X139637294Y-64119919D01*
X139607131Y-64164369D01*
X139591256Y-64189769D01*
X139558712Y-64273906D01*
X139542044Y-64391381D01*
X138827140Y-64391381D01*
X138827140Y-63835756D01*
X139157869Y-63835756D01*
X139168584Y-63917513D01*
X139200731Y-63959581D01*
X139242800Y-63973075D01*
X139297569Y-63975456D01*
X140248481Y-63975456D01*
X140303250Y-63973075D01*
X140345319Y-63959581D01*
X140377466Y-63917909D01*
X140388181Y-63837344D01*
X140377863Y-63755984D01*
X140346906Y-63715106D01*
X140304837Y-63700025D01*
X140250069Y-63697644D01*
X140127831Y-63697644D01*
X140170495Y-63648828D01*
X140234988Y-63581756D01*
X140299083Y-63515478D01*
X140340556Y-63469044D01*
X140351669Y-63453169D01*
X140397706Y-63356331D01*
X140331031Y-63261081D01*
X140227844Y-63211869D01*
X140194506Y-63222188D01*
X140143706Y-63272194D01*
X139969081Y-63483331D01*
X139835731Y-63326169D01*
X139750006Y-63267431D01*
X139649200Y-63319025D01*
X139584906Y-63410306D01*
X139627769Y-63505556D01*
X139640469Y-63524606D01*
X139721431Y-63611125D01*
X139802394Y-63697644D01*
X139299156Y-63697644D01*
X139254706Y-63699231D01*
X139184856Y-63727806D01*
X139157869Y-63835756D01*
X138827140Y-63835756D01*
X138827140Y-63002319D01*
X139551569Y-63002319D01*
X139562284Y-63070978D01*
X139594431Y-63108681D01*
X139634119Y-63122175D01*
X139688094Y-63124556D01*
X140615194Y-63124556D01*
X140669169Y-63122175D01*
X140708856Y-63107888D01*
X140740606Y-63066613D01*
X140750131Y-62988031D01*
X140740606Y-62910244D01*
X140708063Y-62869763D01*
X140667581Y-62855475D01*
X140613606Y-62853094D01*
X140292931Y-62853094D01*
X140347700Y-62776497D01*
X140365956Y-62664181D01*
X140352374Y-62579074D01*
X140311628Y-62497317D01*
X140243719Y-62418913D01*
X140157817Y-62354972D01*
X140063097Y-62316607D01*
X139959556Y-62303819D01*
X139856016Y-62316695D01*
X139761295Y-62355324D01*
X139675394Y-62419706D01*
X139607484Y-62498464D01*
X139566738Y-62580220D01*
X139553156Y-62664975D01*
X139573794Y-62777092D01*
X139635706Y-62854681D01*
X139573000Y-62888813D01*
X139551569Y-63002319D01*
X138827140Y-63002319D01*
X138827140Y-62060931D01*
X139157869Y-62060931D01*
X139168584Y-62142688D01*
X139200731Y-62184756D01*
X139242800Y-62198250D01*
X139297569Y-62200631D01*
X140053219Y-62200631D01*
X140200062Y-62189519D01*
X140300869Y-62156181D01*
X140353653Y-62098238D01*
X140381831Y-61997431D01*
X140388975Y-61870431D01*
X140372306Y-61800581D01*
X140330634Y-61776769D01*
X140250069Y-61768831D01*
X140137356Y-61800581D01*
X140123863Y-61827569D01*
X140121481Y-61871225D01*
X140106400Y-61913294D01*
X140034169Y-61922819D01*
X139299156Y-61922819D01*
X139243594Y-61925200D01*
X139200731Y-61940281D01*
X139168584Y-61982350D01*
X139157869Y-62060931D01*
X138827140Y-62060931D01*
X138827140Y-61013181D01*
X139551569Y-61013181D01*
X139573794Y-61102478D01*
X139640469Y-61138594D01*
X139607925Y-61167169D01*
X139572206Y-61229081D01*
X139553156Y-61327506D01*
X139567003Y-61419140D01*
X139608542Y-61505659D01*
X139677775Y-61587063D01*
X139765440Y-61652767D01*
X139862278Y-61692190D01*
X139968288Y-61705331D01*
X140074385Y-61692278D01*
X140171488Y-61653120D01*
X140259594Y-61587856D01*
X140329267Y-61507335D01*
X140371072Y-61422403D01*
X140385006Y-61333063D01*
X140363972Y-61215389D01*
X140300869Y-61137006D01*
X140363575Y-61102875D01*
X140385006Y-60986988D01*
X140374688Y-60916542D01*
X140343731Y-60878244D01*
X140301663Y-60864750D01*
X140246894Y-60862369D01*
X139691269Y-60862369D01*
X139636500Y-60864750D01*
X139594431Y-60879038D01*
X139561094Y-60921106D01*
X139551569Y-61013181D01*
X138827140Y-61013181D01*
X138827140Y-60489306D01*
X139265819Y-60489306D01*
X139275741Y-60570666D01*
X139305506Y-60611544D01*
X139343606Y-60626625D01*
X139397581Y-60629006D01*
X139561094Y-60629006D01*
X139554744Y-60681394D01*
X139575381Y-60744894D01*
X139617450Y-60767119D01*
X139711906Y-60775056D01*
X139803981Y-60752038D01*
X139830969Y-60694094D01*
X139826206Y-60629006D01*
X140061156Y-60629006D01*
X140168224Y-60619481D01*
X140252362Y-60590906D01*
X140313569Y-60543281D01*
X140355020Y-60477312D01*
X140379891Y-60393703D01*
X140388181Y-60292456D01*
X140385800Y-60239275D01*
X140372306Y-60197206D01*
X140330634Y-60163869D01*
X140250069Y-60152756D01*
X140143706Y-60189269D01*
X140128625Y-60231338D01*
X140126244Y-60288488D01*
X140107194Y-60339288D01*
X140045281Y-60352781D01*
X139826206Y-60352781D01*
X139832556Y-60249594D01*
X139830175Y-60194825D01*
X139816681Y-60152756D01*
X139775009Y-60120609D01*
X139694444Y-60109894D01*
X139613084Y-60120213D01*
X139572206Y-60151169D01*
X139557125Y-60193238D01*
X139554744Y-60247213D01*
X139561094Y-60352781D01*
X139405519Y-60352781D01*
X139324556Y-60360719D01*
X139280503Y-60403184D01*
X139265819Y-60489306D01*
X138827140Y-60489306D01*
X138827140Y-59593956D01*
X139534106Y-59593956D01*
X139547424Y-59715929D01*
X139587376Y-59823615D01*
X139653963Y-59917013D01*
X139742774Y-59988891D01*
X139849401Y-60032018D01*
X139973844Y-60046394D01*
X140076326Y-60035281D01*
X140172105Y-60001944D01*
X140261181Y-59946381D01*
X140321308Y-59885461D01*
X140368337Y-59804300D01*
X140398698Y-59706470D01*
X140408819Y-59595544D01*
X140399988Y-59447609D01*
X140373497Y-59341941D01*
X140329345Y-59278540D01*
X140267531Y-59257406D01*
X140194506Y-59278044D01*
X140123069Y-59365356D01*
X140140531Y-59428856D01*
X140146881Y-59446319D01*
X140161169Y-59508628D01*
X140165931Y-59590781D01*
X140135769Y-59695556D01*
X140061156Y-59747944D01*
X140061156Y-59371706D01*
X140014325Y-59264550D01*
X139954794Y-59228236D01*
X139869863Y-59216131D01*
X139776002Y-59229625D01*
X139689681Y-59270106D01*
X139621617Y-59329042D01*
X139573000Y-59402663D01*
X139543830Y-59490967D01*
X139534106Y-59593956D01*
X138827140Y-59593956D01*
X138827140Y-59216131D01*
X138827140Y-59083840D01*
X138832566Y-58973388D01*
X138848792Y-58864000D01*
X138875662Y-58756729D01*
X138912917Y-58652609D01*
X138960198Y-58552641D01*
X139017050Y-58457789D01*
X139082925Y-58368967D01*
X139157189Y-58287029D01*
X139239127Y-58212765D01*
X139327950Y-58146889D01*
X139422802Y-58090037D01*
X139522769Y-58042756D01*
X139626890Y-58005501D01*
X139734160Y-57978631D01*
X139843548Y-57962405D01*
X139954000Y-57956979D01*
X140064452Y-57962405D01*
X140173840Y-57978631D01*
X140281110Y-58005501D01*
X140385231Y-58042756D01*
X140485198Y-58090037D01*
X140580050Y-58146889D01*
X140668873Y-58212765D01*
X140750811Y-58287029D01*
X140825075Y-58368967D01*
X140890950Y-58457789D01*
X140947802Y-58552641D01*
X140995083Y-58652609D01*
X141032338Y-58756729D01*
X141059208Y-58864000D01*
X141075434Y-58973388D01*
X141080860Y-59083840D01*
X141080860Y-59216131D01*
X141080860Y-59595544D01*
G37*
D12*
%TO.C,C12*%
X161547500Y-78142148D02*
X161547500Y-78664652D01*
X163017500Y-78142148D02*
X163017500Y-78664652D01*
%TO.C,C8*%
X144352000Y-62476748D02*
X144352000Y-62999252D01*
X145822000Y-62476748D02*
X145822000Y-62999252D01*
%TO.C,kibuzzard-6409565D*%
G36*
X139187321Y-81952902D02*
G01*
X139864125Y-81952902D01*
X139870475Y-82029697D01*
X139889525Y-82109271D01*
X139930800Y-82216427D01*
X139964137Y-82271196D01*
X140003825Y-82321202D01*
X140059387Y-82342633D01*
X140148287Y-82307708D01*
X140214962Y-82252543D01*
X140237187Y-82201346D01*
X140205437Y-82125146D01*
X140184800Y-82096571D01*
X140159400Y-82033864D01*
X140146700Y-81940996D01*
X140164162Y-81838205D01*
X140216550Y-81739383D01*
X140316562Y-81658421D01*
X140384229Y-81634608D01*
X140460231Y-81626671D01*
X140536233Y-81634608D01*
X140603900Y-81658421D01*
X140702325Y-81737796D01*
X140755903Y-81838602D01*
X140773762Y-81940996D01*
X140760268Y-82041008D01*
X140719787Y-82118796D01*
X140684862Y-82199758D01*
X140706294Y-82252146D01*
X140770587Y-82310883D01*
X140858694Y-82344221D01*
X140934100Y-82302946D01*
X140962675Y-82258496D01*
X140984900Y-82220396D01*
X141031731Y-82103714D01*
X141048995Y-82027316D01*
X141054750Y-81952108D01*
X141045225Y-81847510D01*
X141016650Y-81743264D01*
X140969025Y-81639371D01*
X140919217Y-81561385D01*
X140858694Y-81492527D01*
X140784081Y-81433988D01*
X140692006Y-81386958D01*
X140585445Y-81356002D01*
X140467375Y-81345683D01*
X140348114Y-81356200D01*
X140237981Y-81387752D01*
X140141937Y-81435575D01*
X140064943Y-81494908D01*
X140002634Y-81564163D01*
X139950644Y-81641752D01*
X139910559Y-81722318D01*
X139883968Y-81800502D01*
X139869086Y-81877099D01*
X139864125Y-81952902D01*
X139187321Y-81952902D01*
X139187321Y-81345683D01*
X139187321Y-81213392D01*
X139187321Y-80537275D01*
X141441041Y-81213392D01*
X141441041Y-81345683D01*
X141441041Y-101940321D01*
X141441041Y-102072612D01*
X141441041Y-102748729D01*
X139187321Y-102072612D01*
X139187321Y-101940321D01*
X139187321Y-101440258D01*
X139880000Y-101440258D01*
X139890318Y-101521221D01*
X139921275Y-101564083D01*
X139963344Y-101579165D01*
X140018112Y-101581546D01*
X140351487Y-101581546D01*
X140424512Y-101618852D01*
X140454675Y-101699021D01*
X140441975Y-101768077D01*
X140429275Y-101822846D01*
X140489600Y-101910158D01*
X140600725Y-101940321D01*
X140674544Y-101920477D01*
X140707087Y-101870471D01*
X140720581Y-101814908D01*
X140724550Y-101752202D01*
X140697562Y-101665683D01*
X140654700Y-101601389D01*
X140627712Y-101578371D01*
X140680100Y-101560908D01*
X140707484Y-101519236D01*
X140716612Y-101441846D01*
X140705897Y-101360090D01*
X140673750Y-101318021D01*
X140633268Y-101304527D01*
X140578500Y-101302146D01*
X140021287Y-101302146D01*
X139975250Y-101302146D01*
X139906987Y-101330721D01*
X139880000Y-101440258D01*
X139187321Y-101440258D01*
X139187321Y-100819546D01*
X139859362Y-100819546D01*
X139868193Y-100967481D01*
X139894684Y-101073149D01*
X139938836Y-101136550D01*
X140000650Y-101157683D01*
X140073675Y-101137046D01*
X140145112Y-101049733D01*
X140127650Y-100986233D01*
X140121300Y-100968771D01*
X140107012Y-100906461D01*
X140102250Y-100824308D01*
X140132412Y-100719533D01*
X140207025Y-100667146D01*
X140207025Y-101043383D01*
X140253856Y-101150540D01*
X140313387Y-101186854D01*
X140398318Y-101198958D01*
X140492179Y-101185465D01*
X140578500Y-101144983D01*
X140646564Y-101086047D01*
X140695181Y-101012427D01*
X140724351Y-100924122D01*
X140734075Y-100821133D01*
X140720757Y-100699160D01*
X140680805Y-100591475D01*
X140614218Y-100498077D01*
X140525407Y-100426199D01*
X140418780Y-100383071D01*
X140294337Y-100368696D01*
X140191855Y-100379808D01*
X140096076Y-100413146D01*
X140007000Y-100468708D01*
X139946873Y-100529629D01*
X139899844Y-100610790D01*
X139869483Y-100708619D01*
X139859362Y-100819546D01*
X139187321Y-100819546D01*
X139187321Y-99922608D01*
X139878412Y-99922608D01*
X139887937Y-100002777D01*
X139926831Y-100048815D01*
X140016525Y-100063896D01*
X140441975Y-100063896D01*
X140435625Y-100165496D01*
X140454675Y-100262333D01*
X140496744Y-100294877D01*
X140575325Y-100305196D01*
X140654700Y-100295671D01*
X140699944Y-100253999D01*
X140715025Y-100167083D01*
X140705500Y-100063896D01*
X140792812Y-100063896D01*
X140832500Y-100122633D01*
X140832500Y-100167083D01*
X140861075Y-100236933D01*
X140970612Y-100263921D01*
X141051972Y-100253205D01*
X141092850Y-100221058D01*
X141107931Y-100178990D01*
X141110312Y-100124221D01*
X141099288Y-100022797D01*
X141066215Y-99938660D01*
X141011094Y-99871808D01*
X140906120Y-99806324D01*
X140789637Y-99784496D01*
X140705500Y-99784496D01*
X140705500Y-99732108D01*
X140672956Y-99661861D01*
X140575325Y-99638446D01*
X140459437Y-99668608D01*
X140440387Y-99727346D01*
X140440387Y-99784496D01*
X140019700Y-99784496D01*
X139964137Y-99786877D01*
X139922068Y-99801958D01*
X139888731Y-99844027D01*
X139878412Y-99922608D01*
X139187321Y-99922608D01*
X139187321Y-99411433D01*
X139880000Y-99411433D01*
X139890318Y-99492793D01*
X139921275Y-99533671D01*
X139963344Y-99548752D01*
X140018112Y-99551133D01*
X140573737Y-99551133D01*
X140619775Y-99549546D01*
X140688037Y-99520971D01*
X140715025Y-99413021D01*
X140714925Y-99412227D01*
X140829325Y-99412227D01*
X140838850Y-99492396D01*
X140871394Y-99534465D01*
X140912669Y-99548752D01*
X140967437Y-99551133D01*
X141022206Y-99548752D01*
X141064275Y-99533671D01*
X141096422Y-99493189D01*
X141107137Y-99413021D01*
X141096422Y-99331265D01*
X141064275Y-99289196D01*
X141023794Y-99275702D01*
X140969025Y-99273321D01*
X140914256Y-99275702D01*
X140872187Y-99289989D01*
X140838850Y-99332058D01*
X140829325Y-99412227D01*
X140714925Y-99412227D01*
X140704706Y-99331265D01*
X140673750Y-99289196D01*
X140631681Y-99275702D01*
X140576912Y-99273321D01*
X140019700Y-99273321D01*
X139964137Y-99275702D01*
X139922862Y-99289196D01*
X139890715Y-99330868D01*
X139880000Y-99411433D01*
X139187321Y-99411433D01*
X139187321Y-99084408D01*
X139879206Y-99084408D01*
X139895875Y-99154258D01*
X139937547Y-99178071D01*
X140018112Y-99186008D01*
X140130825Y-99154258D01*
X140144318Y-99127271D01*
X140146700Y-99083614D01*
X140161781Y-99041546D01*
X140234012Y-99032021D01*
X140969025Y-99032021D01*
X141024587Y-99029640D01*
X141067450Y-99014558D01*
X141099597Y-98972490D01*
X141110312Y-98893908D01*
X141099597Y-98812152D01*
X141067450Y-98770083D01*
X141025381Y-98756589D01*
X140970612Y-98754208D01*
X140214962Y-98754208D01*
X140068119Y-98765321D01*
X139967312Y-98798658D01*
X139914528Y-98856602D01*
X139886350Y-98957408D01*
X139879206Y-99084408D01*
X139187321Y-99084408D01*
X139187321Y-97966808D01*
X139518050Y-97966808D01*
X139527575Y-98044596D01*
X139560118Y-98085077D01*
X139600600Y-98099364D01*
X139654575Y-98101746D01*
X139975250Y-98101746D01*
X139920481Y-98178343D01*
X139902225Y-98290658D01*
X139915807Y-98375766D01*
X139956553Y-98457522D01*
X140024462Y-98535927D01*
X140110364Y-98599868D01*
X140205084Y-98638233D01*
X140308625Y-98651021D01*
X140412165Y-98638144D01*
X140506886Y-98599515D01*
X140592787Y-98535133D01*
X140660697Y-98456376D01*
X140701443Y-98374619D01*
X140715025Y-98289864D01*
X140694387Y-98177747D01*
X140632475Y-98100158D01*
X140695181Y-98066027D01*
X140716612Y-97952521D01*
X140705897Y-97883861D01*
X140673750Y-97846158D01*
X140634062Y-97832664D01*
X140580087Y-97830283D01*
X139652987Y-97830283D01*
X139599012Y-97832664D01*
X139559325Y-97846952D01*
X139527575Y-97888227D01*
X139518050Y-97966808D01*
X139187321Y-97966808D01*
X139187321Y-97563583D01*
X139187321Y-97090508D01*
X139880000Y-97090508D01*
X139890715Y-97172264D01*
X139922862Y-97214333D01*
X139964137Y-97229414D01*
X140019700Y-97231796D01*
X140297512Y-97231796D01*
X140400700Y-97251639D01*
X140437212Y-97327046D01*
X140402684Y-97400864D01*
X140299100Y-97425471D01*
X140021287Y-97425471D01*
X139966518Y-97427852D01*
X139924450Y-97441346D01*
X139891112Y-97483018D01*
X139880000Y-97563583D01*
X139890715Y-97644943D01*
X139922862Y-97685821D01*
X139964931Y-97700902D01*
X140019700Y-97703283D01*
X140297512Y-97703283D01*
X140433596Y-97693758D01*
X140541282Y-97665183D01*
X140620569Y-97617558D01*
X140693792Y-97521514D01*
X140718200Y-97404833D01*
X140687244Y-97293708D01*
X140630094Y-97215127D01*
X140580087Y-97173058D01*
X140656816Y-97110969D01*
X140702854Y-97030536D01*
X140718200Y-96931758D01*
X140690022Y-96834524D01*
X140605487Y-96752371D01*
X140688037Y-96725383D01*
X140716612Y-96609496D01*
X140705897Y-96536868D01*
X140673750Y-96496783D01*
X140633268Y-96481702D01*
X140578500Y-96479321D01*
X140019700Y-96479321D01*
X139964137Y-96481702D01*
X139922862Y-96495196D01*
X139890715Y-96536868D01*
X139880000Y-96617433D01*
X139890318Y-96698396D01*
X139921275Y-96741258D01*
X139963344Y-96756339D01*
X140018112Y-96758721D01*
X140299100Y-96758721D01*
X140402684Y-96782533D01*
X140437212Y-96853971D01*
X140402684Y-96927789D01*
X140299100Y-96952396D01*
X140021287Y-96952396D01*
X139966518Y-96954777D01*
X139924450Y-96968271D01*
X139891112Y-97009943D01*
X139880000Y-97090508D01*
X139187321Y-97090508D01*
X139187321Y-96227702D01*
X139187321Y-95881627D01*
X139883175Y-95881627D01*
X139904209Y-95999300D01*
X139967312Y-96077683D01*
X139904606Y-96111814D01*
X139883175Y-96227702D01*
X139893493Y-96298147D01*
X139924450Y-96336446D01*
X139966518Y-96349939D01*
X140021287Y-96352321D01*
X140576912Y-96352321D01*
X140631681Y-96349939D01*
X140673750Y-96335652D01*
X140707087Y-96293583D01*
X140716612Y-96201508D01*
X140694387Y-96112211D01*
X140627712Y-96076096D01*
X140660256Y-96047521D01*
X140695975Y-95985608D01*
X140715025Y-95887183D01*
X140701178Y-95795549D01*
X140659639Y-95709030D01*
X140590406Y-95627627D01*
X140502741Y-95561922D01*
X140405903Y-95522499D01*
X140299893Y-95509358D01*
X140193796Y-95522411D01*
X140096693Y-95561569D01*
X140008587Y-95626833D01*
X139938914Y-95707355D01*
X139897109Y-95792286D01*
X139883175Y-95881627D01*
X139187321Y-95881627D01*
X139187321Y-95050571D01*
X139859362Y-95050571D01*
X139868193Y-95198506D01*
X139894684Y-95304174D01*
X139938836Y-95367575D01*
X140000650Y-95388708D01*
X140073675Y-95368071D01*
X140145112Y-95280758D01*
X140127650Y-95217258D01*
X140121300Y-95199796D01*
X140107012Y-95137486D01*
X140102250Y-95055333D01*
X140132412Y-94950558D01*
X140207025Y-94898171D01*
X140207025Y-95274408D01*
X140253856Y-95381564D01*
X140313387Y-95417879D01*
X140398318Y-95429983D01*
X140492179Y-95416489D01*
X140578500Y-95376008D01*
X140646564Y-95317072D01*
X140695181Y-95243452D01*
X140724351Y-95155147D01*
X140734075Y-95052158D01*
X140720757Y-94930185D01*
X140680805Y-94822500D01*
X140614218Y-94729102D01*
X140525407Y-94657224D01*
X140418780Y-94614096D01*
X140294337Y-94599721D01*
X140191855Y-94610833D01*
X140096076Y-94644171D01*
X140007000Y-94699733D01*
X139946873Y-94760654D01*
X139899844Y-94841814D01*
X139869483Y-94939644D01*
X139859362Y-95050571D01*
X139187321Y-95050571D01*
X139187321Y-94036158D01*
X139880000Y-94036158D01*
X139890318Y-94117121D01*
X139921275Y-94159983D01*
X139963344Y-94175064D01*
X140018112Y-94177446D01*
X140351487Y-94177446D01*
X140424512Y-94214752D01*
X140454675Y-94294921D01*
X140441975Y-94363977D01*
X140429275Y-94418746D01*
X140489600Y-94506058D01*
X140600725Y-94536221D01*
X140674544Y-94516377D01*
X140707087Y-94466371D01*
X140720581Y-94410808D01*
X140724550Y-94348102D01*
X140697562Y-94261583D01*
X140654700Y-94197289D01*
X140627712Y-94174271D01*
X140680100Y-94156808D01*
X140707484Y-94115136D01*
X140716612Y-94037746D01*
X140705897Y-93955989D01*
X140673750Y-93913921D01*
X140633268Y-93900427D01*
X140578500Y-93898046D01*
X140021287Y-93898046D01*
X139975250Y-93898046D01*
X139906987Y-93926621D01*
X139880000Y-94036158D01*
X139187321Y-94036158D01*
X139187321Y-93110646D01*
X139518050Y-93110646D01*
X139527575Y-93188433D01*
X139560118Y-93228914D01*
X139600600Y-93243202D01*
X139654575Y-93245583D01*
X139975250Y-93245583D01*
X139920481Y-93322180D01*
X139902225Y-93434496D01*
X139915807Y-93519603D01*
X139956553Y-93601360D01*
X140024462Y-93679764D01*
X140110364Y-93743705D01*
X140205084Y-93782070D01*
X140308625Y-93794858D01*
X140412165Y-93781982D01*
X140506886Y-93743353D01*
X140592787Y-93678971D01*
X140660697Y-93600213D01*
X140701443Y-93518457D01*
X140715025Y-93433702D01*
X140694387Y-93321585D01*
X140632475Y-93243996D01*
X140695181Y-93209864D01*
X140716612Y-93096358D01*
X140705897Y-93027699D01*
X140673750Y-92989996D01*
X140634062Y-92976502D01*
X140580087Y-92974121D01*
X139652987Y-92974121D01*
X139599012Y-92976502D01*
X139559325Y-92990789D01*
X139527575Y-93032064D01*
X139518050Y-93110646D01*
X139187321Y-93110646D01*
X139187321Y-92159733D01*
X139872062Y-92159733D01*
X139887937Y-92281177D01*
X139935562Y-92381983D01*
X139989934Y-92447468D01*
X140048275Y-92469296D01*
X140130825Y-92432783D01*
X140193928Y-92369680D01*
X140214962Y-92316896D01*
X140185594Y-92246252D01*
X140156225Y-92152589D01*
X140193531Y-92058133D01*
X140298306Y-92013683D01*
X140403875Y-92059721D01*
X140441975Y-92158939D01*
X140414987Y-92240696D01*
X140380062Y-92326421D01*
X140401890Y-92379999D01*
X140467375Y-92435958D01*
X140558656Y-92469296D01*
X140630887Y-92428021D01*
X140661050Y-92383571D01*
X140676925Y-92358171D01*
X140709469Y-92274033D01*
X140726137Y-92156558D01*
X140714496Y-92059015D01*
X140679571Y-91965353D01*
X140621362Y-91875571D01*
X140562426Y-91816436D01*
X140487218Y-91769208D01*
X140399112Y-91738252D01*
X140301481Y-91727933D01*
X140203453Y-91738252D01*
X140114156Y-91769208D01*
X140037758Y-91816436D01*
X139978425Y-91875571D01*
X139919334Y-91967822D01*
X139883880Y-92062543D01*
X139872062Y-92159733D01*
X139187321Y-92159733D01*
X139187321Y-91485046D01*
X139880000Y-91485046D01*
X139890318Y-91566405D01*
X139921275Y-91607283D01*
X139963344Y-91622364D01*
X140018112Y-91624746D01*
X140573737Y-91624746D01*
X140619775Y-91623158D01*
X140688037Y-91594583D01*
X140715025Y-91486633D01*
X140714925Y-91485839D01*
X140829325Y-91485839D01*
X140838850Y-91566008D01*
X140871394Y-91608077D01*
X140912669Y-91622364D01*
X140967437Y-91624746D01*
X141022206Y-91622364D01*
X141064275Y-91607283D01*
X141096422Y-91566802D01*
X141107137Y-91486633D01*
X141096422Y-91404877D01*
X141064275Y-91362808D01*
X141023794Y-91349314D01*
X140969025Y-91346933D01*
X140914256Y-91349314D01*
X140872187Y-91363602D01*
X140838850Y-91405671D01*
X140829325Y-91485839D01*
X140714925Y-91485839D01*
X140704706Y-91404877D01*
X140673750Y-91362808D01*
X140631681Y-91349314D01*
X140576912Y-91346933D01*
X140019700Y-91346933D01*
X139964137Y-91349314D01*
X139922862Y-91362808D01*
X139890715Y-91404480D01*
X139880000Y-91485046D01*
X139187321Y-91485046D01*
X139187321Y-91080233D01*
X139187321Y-90607158D01*
X139880000Y-90607158D01*
X139890715Y-90688914D01*
X139922862Y-90730983D01*
X139964137Y-90746064D01*
X140019700Y-90748446D01*
X140297512Y-90748446D01*
X140400700Y-90768289D01*
X140437212Y-90843696D01*
X140402684Y-90917514D01*
X140299100Y-90942121D01*
X140021287Y-90942121D01*
X139966518Y-90944502D01*
X139924450Y-90957996D01*
X139891112Y-90999668D01*
X139880000Y-91080233D01*
X139890715Y-91161593D01*
X139922862Y-91202471D01*
X139964931Y-91217552D01*
X140019700Y-91219933D01*
X140297512Y-91219933D01*
X140433596Y-91210408D01*
X140541282Y-91181833D01*
X140620569Y-91134208D01*
X140693792Y-91038164D01*
X140718200Y-90921483D01*
X140687244Y-90810358D01*
X140630094Y-90731777D01*
X140580087Y-90689708D01*
X140656816Y-90627619D01*
X140702854Y-90547186D01*
X140718200Y-90448408D01*
X140690022Y-90351174D01*
X140605487Y-90269021D01*
X140688037Y-90242033D01*
X140716612Y-90126146D01*
X140705897Y-90053518D01*
X140673750Y-90013433D01*
X140633268Y-89998352D01*
X140578500Y-89995971D01*
X140019700Y-89995971D01*
X139964137Y-89998352D01*
X139922862Y-90011846D01*
X139890715Y-90053518D01*
X139880000Y-90134083D01*
X139890318Y-90215046D01*
X139921275Y-90257908D01*
X139963344Y-90272989D01*
X140018112Y-90275371D01*
X140299100Y-90275371D01*
X140402684Y-90299183D01*
X140437212Y-90370621D01*
X140402684Y-90444439D01*
X140299100Y-90469046D01*
X140021287Y-90469046D01*
X139966518Y-90471427D01*
X139924450Y-90484921D01*
X139891112Y-90526593D01*
X139880000Y-90607158D01*
X139187321Y-90607158D01*
X139187321Y-89006958D01*
X139880000Y-89006958D01*
X139890318Y-89087921D01*
X139921275Y-89130783D01*
X139963344Y-89145864D01*
X140018112Y-89148246D01*
X140351487Y-89148246D01*
X140424512Y-89185552D01*
X140454675Y-89265721D01*
X140441975Y-89334777D01*
X140429275Y-89389546D01*
X140489600Y-89476858D01*
X140600725Y-89507021D01*
X140674544Y-89487177D01*
X140707087Y-89437171D01*
X140720581Y-89381608D01*
X140724550Y-89318902D01*
X140697562Y-89232383D01*
X140654700Y-89168089D01*
X140627712Y-89145071D01*
X140680100Y-89127608D01*
X140707484Y-89085936D01*
X140716612Y-89008546D01*
X140705897Y-88926789D01*
X140673750Y-88884721D01*
X140633268Y-88871227D01*
X140578500Y-88868846D01*
X140021287Y-88868846D01*
X139975250Y-88868846D01*
X139906987Y-88897421D01*
X139880000Y-89006958D01*
X139187321Y-89006958D01*
X139187321Y-88386246D01*
X139859362Y-88386246D01*
X139868193Y-88534181D01*
X139894684Y-88639849D01*
X139938836Y-88703250D01*
X140000650Y-88724383D01*
X140073675Y-88703746D01*
X140145112Y-88616433D01*
X140127650Y-88552933D01*
X140121300Y-88535471D01*
X140107012Y-88473161D01*
X140102250Y-88391008D01*
X140132412Y-88286233D01*
X140207025Y-88233846D01*
X140207025Y-88610083D01*
X140253856Y-88717239D01*
X140313387Y-88753554D01*
X140398318Y-88765658D01*
X140492179Y-88752164D01*
X140578500Y-88711683D01*
X140646564Y-88652747D01*
X140695181Y-88579127D01*
X140724351Y-88490822D01*
X140734075Y-88387833D01*
X140720757Y-88265860D01*
X140680805Y-88158175D01*
X140614218Y-88064777D01*
X140525407Y-87992899D01*
X140418780Y-87949771D01*
X140294337Y-87935396D01*
X140191855Y-87946508D01*
X140096076Y-87979846D01*
X140007000Y-88035408D01*
X139946873Y-88096329D01*
X139899844Y-88177489D01*
X139869483Y-88275319D01*
X139859362Y-88386246D01*
X139187321Y-88386246D01*
X139187321Y-87483752D01*
X139865712Y-87483752D01*
X139871180Y-87580149D01*
X139887584Y-87665080D01*
X139914925Y-87738546D01*
X140001443Y-87825064D01*
X140065539Y-87848282D01*
X140141937Y-87856021D01*
X140217542Y-87848282D01*
X140279256Y-87825064D01*
X140356250Y-87748071D01*
X140395937Y-87648058D01*
X140416575Y-87544871D01*
X140439197Y-87463908D01*
X140478487Y-87436921D01*
X140513412Y-87530583D01*
X140489600Y-87642502D01*
X140465787Y-87713146D01*
X140521350Y-87784583D01*
X140615012Y-87819508D01*
X140678512Y-87763946D01*
X140718994Y-87646471D01*
X140732487Y-87532171D01*
X140722454Y-87408155D01*
X140692355Y-87311699D01*
X140642190Y-87242801D01*
X140571959Y-87201463D01*
X140481662Y-87187683D01*
X140403279Y-87195224D01*
X140336406Y-87217846D01*
X140246712Y-87294046D01*
X140197897Y-87392868D01*
X140172100Y-87492483D01*
X140153844Y-87572255D01*
X140127650Y-87598846D01*
X140099075Y-87574636D01*
X140089550Y-87502008D01*
X140128443Y-87381358D01*
X140167337Y-87275789D01*
X140140350Y-87219433D01*
X140066928Y-87174189D01*
X140014937Y-87159108D01*
X139954612Y-87189271D01*
X139905223Y-87284785D01*
X139875590Y-87382946D01*
X139865712Y-87483752D01*
X139187321Y-87483752D01*
X139187321Y-86916221D01*
X139187321Y-86359008D01*
X139881587Y-86359008D01*
X139892303Y-86440368D01*
X139924450Y-86481246D01*
X139964931Y-86496327D01*
X140019700Y-86498708D01*
X140300687Y-86498708D01*
X140400700Y-86537602D01*
X140438800Y-86639202D01*
X140402287Y-86739214D01*
X140300687Y-86776521D01*
X140021287Y-86776521D01*
X139940325Y-86786046D01*
X139896272Y-86827321D01*
X139881587Y-86916221D01*
X139892303Y-86997977D01*
X139924450Y-87040046D01*
X139964931Y-87053539D01*
X140019700Y-87055921D01*
X140299100Y-87055921D01*
X140409607Y-87044191D01*
X140508297Y-87009001D01*
X140595168Y-86950352D01*
X140662637Y-86874064D01*
X140703118Y-86785958D01*
X140716612Y-86686033D01*
X140680100Y-86566971D01*
X140646762Y-86524108D01*
X140615012Y-86495533D01*
X140680100Y-86479658D01*
X140707484Y-86438780D01*
X140716612Y-86360596D01*
X140706690Y-86280030D01*
X140676925Y-86238358D01*
X140636444Y-86223277D01*
X140583262Y-86220896D01*
X140021287Y-86220896D01*
X139966518Y-86223277D01*
X139924450Y-86236771D01*
X139892303Y-86278443D01*
X139881587Y-86359008D01*
X139187321Y-86359008D01*
X139187321Y-85738296D01*
X139859362Y-85738296D01*
X139868193Y-85886231D01*
X139894684Y-85991899D01*
X139938836Y-86055300D01*
X140000650Y-86076433D01*
X140073675Y-86055796D01*
X140145112Y-85968483D01*
X140127650Y-85904983D01*
X140121300Y-85887521D01*
X140107012Y-85825211D01*
X140102250Y-85743058D01*
X140132412Y-85638283D01*
X140207025Y-85585896D01*
X140207025Y-85962133D01*
X140253856Y-86069289D01*
X140313387Y-86105604D01*
X140398318Y-86117708D01*
X140492179Y-86104214D01*
X140578500Y-86063733D01*
X140646564Y-86004797D01*
X140695181Y-85931177D01*
X140724351Y-85842872D01*
X140734075Y-85739883D01*
X140720757Y-85617910D01*
X140680805Y-85510225D01*
X140614218Y-85416827D01*
X140525407Y-85344949D01*
X140418780Y-85301821D01*
X140294337Y-85287446D01*
X140191855Y-85298558D01*
X140096076Y-85331896D01*
X140007000Y-85387458D01*
X139946873Y-85448379D01*
X139899844Y-85529539D01*
X139869483Y-85627369D01*
X139859362Y-85738296D01*
X139187321Y-85738296D01*
X139187321Y-85032652D01*
X139881587Y-85032652D01*
X139892303Y-85121354D01*
X139924450Y-85166796D01*
X139964931Y-85181877D01*
X140019700Y-85184258D01*
X140967437Y-85184258D01*
X141022206Y-85181877D01*
X141064275Y-85167589D01*
X141097612Y-85125521D01*
X141107137Y-85045352D01*
X141097612Y-84965183D01*
X141065069Y-84923114D01*
X141023794Y-84908827D01*
X140969025Y-84906446D01*
X140635650Y-84906446D01*
X140695181Y-84828261D01*
X140715025Y-84723883D01*
X140701090Y-84632249D01*
X140659286Y-84545730D01*
X140589612Y-84464327D01*
X140501506Y-84398622D01*
X140404404Y-84359199D01*
X140298306Y-84346058D01*
X140192296Y-84359111D01*
X140095459Y-84398269D01*
X140007793Y-84463533D01*
X139938561Y-84544672D01*
X139897021Y-84631455D01*
X139883175Y-84723883D01*
X139902225Y-84829849D01*
X139959375Y-84909621D01*
X139901034Y-84946729D01*
X139881587Y-85032652D01*
X139187321Y-85032652D01*
X139187321Y-84095233D01*
X139187321Y-83538021D01*
X139881587Y-83538021D01*
X139892303Y-83619380D01*
X139924450Y-83660258D01*
X139964931Y-83675339D01*
X140019700Y-83677721D01*
X140300687Y-83677721D01*
X140400700Y-83716614D01*
X140438800Y-83818214D01*
X140402287Y-83918227D01*
X140300687Y-83955533D01*
X140021287Y-83955533D01*
X139940325Y-83965058D01*
X139896272Y-84006333D01*
X139881587Y-84095233D01*
X139892303Y-84176989D01*
X139924450Y-84219058D01*
X139964931Y-84232552D01*
X140019700Y-84234933D01*
X140299100Y-84234933D01*
X140409607Y-84223203D01*
X140508297Y-84188014D01*
X140595168Y-84129364D01*
X140662637Y-84053076D01*
X140703118Y-83964970D01*
X140716612Y-83865046D01*
X140680100Y-83745983D01*
X140646762Y-83703121D01*
X140615012Y-83674546D01*
X140680100Y-83658671D01*
X140707484Y-83617793D01*
X140716612Y-83539608D01*
X140706690Y-83459043D01*
X140676925Y-83417371D01*
X140636444Y-83402289D01*
X140583262Y-83399908D01*
X140021287Y-83399908D01*
X139966518Y-83402289D01*
X139924450Y-83415783D01*
X139892303Y-83457455D01*
X139881587Y-83538021D01*
X139187321Y-83538021D01*
X139187321Y-82860158D01*
X139865712Y-82860158D01*
X139877817Y-82963147D01*
X139914131Y-83062564D01*
X139976043Y-83152854D01*
X140064943Y-83228458D01*
X140174679Y-83279655D01*
X140299100Y-83296721D01*
X140418603Y-83282080D01*
X140523114Y-83238160D01*
X140612631Y-83164958D01*
X140680982Y-83072707D01*
X140721992Y-82971636D01*
X140735662Y-82861746D01*
X140721904Y-82751679D01*
X140680629Y-82650079D01*
X140611837Y-82556946D01*
X140521879Y-82482862D01*
X140417104Y-82438412D01*
X140297512Y-82423596D01*
X140177061Y-82440463D01*
X140069706Y-82491064D01*
X139981203Y-82566272D01*
X139917306Y-82656958D01*
X139878611Y-82756971D01*
X139865712Y-82860158D01*
X139187321Y-82860158D01*
X139187321Y-81952902D01*
G37*
G36*
X140367561Y-82716886D02*
G01*
X140416575Y-82753796D01*
X140456262Y-82860158D01*
X140418162Y-82966521D01*
X140370140Y-83003430D01*
X140302275Y-83015733D01*
X140234012Y-83002636D01*
X140184800Y-82963346D01*
X140145112Y-82858571D01*
X140184006Y-82755383D01*
X140232425Y-82717283D01*
X140299893Y-82704583D01*
X140367561Y-82716886D01*
G37*
G36*
X140400700Y-98144608D02*
G01*
X140443562Y-98242239D01*
X140401494Y-98341458D01*
X140307037Y-98379558D01*
X140213375Y-98339077D01*
X140172100Y-98240652D01*
X140214168Y-98145402D01*
X140307037Y-98108096D01*
X140400700Y-98144608D01*
G37*
G36*
X140394350Y-95826064D02*
G01*
X140438800Y-95927664D01*
X140394350Y-96027677D01*
X140298306Y-96064983D01*
X140203850Y-96026089D01*
X140160987Y-95928458D01*
X140203056Y-95828446D01*
X140297512Y-95787171D01*
X140394350Y-95826064D01*
G37*
G36*
X140400700Y-93288446D02*
G01*
X140443562Y-93386077D01*
X140401494Y-93485296D01*
X140307037Y-93523396D01*
X140213375Y-93482914D01*
X140172100Y-93384489D01*
X140214168Y-93289239D01*
X140307037Y-93251933D01*
X140400700Y-93288446D01*
G37*
G36*
X140393556Y-84661971D02*
G01*
X140437212Y-84763571D01*
X140392762Y-84864377D01*
X140296719Y-84901683D01*
X140202262Y-84862789D01*
X140159400Y-84765158D01*
X140202262Y-84665146D01*
X140297512Y-84623871D01*
X140393556Y-84661971D01*
G37*
G36*
X140441181Y-100714771D02*
G01*
X140483250Y-100817165D01*
X140461025Y-100896539D01*
X140402287Y-100924321D01*
X140351487Y-100863996D01*
X140351487Y-100663971D01*
X140441181Y-100714771D01*
G37*
G36*
X140441181Y-94945796D02*
G01*
X140483250Y-95048189D01*
X140461025Y-95127564D01*
X140402287Y-95155346D01*
X140351487Y-95095021D01*
X140351487Y-94894996D01*
X140441181Y-94945796D01*
G37*
G36*
X140441181Y-88281471D02*
G01*
X140483250Y-88383864D01*
X140461025Y-88463239D01*
X140402287Y-88491021D01*
X140351487Y-88430696D01*
X140351487Y-88230671D01*
X140441181Y-88281471D01*
G37*
G36*
X140441181Y-85633521D02*
G01*
X140483250Y-85735914D01*
X140461025Y-85815289D01*
X140402287Y-85843071D01*
X140351487Y-85782746D01*
X140351487Y-85582721D01*
X140441181Y-85633521D01*
G37*
%TO.C,C16*%
X160120000Y-67082252D02*
X160120000Y-66559748D01*
X158650000Y-67082252D02*
X158650000Y-66559748D01*
%TO.C,U2*%
X165371300Y-72419200D02*
X165371300Y-70469200D01*
X165371300Y-72419200D02*
X165371300Y-74369200D01*
X156501300Y-72419200D02*
X156501300Y-70469200D01*
X156501300Y-72419200D02*
X156501300Y-75869200D01*
%TO.C,D1*%
X162781000Y-92666000D02*
X162781000Y-85256000D01*
X160561000Y-85256000D02*
X160561000Y-92666000D01*
X162781000Y-85256000D02*
X160561000Y-85256000D01*
%TO.C,R12*%
X153873500Y-63473064D02*
X153873500Y-63018936D01*
X152403500Y-63473064D02*
X152403500Y-63018936D01*
%TO.C,R5*%
X152961064Y-79421000D02*
X152506936Y-79421000D01*
X152961064Y-80891000D02*
X152506936Y-80891000D01*
%TO.C,R10*%
X162661964Y-59863000D02*
X162207836Y-59863000D01*
X162661964Y-61333000D02*
X162207836Y-61333000D01*
%TO.C,kibuzzard-640955D5*%
G36*
X152202356Y-126779867D02*
G01*
X152070065Y-126779867D01*
X151979608Y-126775423D01*
X151890022Y-126762134D01*
X151802171Y-126740128D01*
X151716899Y-126709618D01*
X151635028Y-126670896D01*
X151557347Y-126624336D01*
X151484604Y-126570386D01*
X151417499Y-126509565D01*
X151356679Y-126442460D01*
X151302729Y-126369717D01*
X151264696Y-126306262D01*
X152202356Y-126306262D01*
X152243631Y-126406275D01*
X152342056Y-126449137D01*
X152962769Y-126449137D01*
X153061194Y-126430088D01*
X153095325Y-126388812D01*
X153105644Y-126308644D01*
X153096119Y-126227681D01*
X153058812Y-126181644D01*
X152965944Y-126166562D01*
X152675431Y-126166562D01*
X152675431Y-126158625D01*
X152715119Y-126142750D01*
X152813544Y-126089172D01*
X152924669Y-126001463D01*
X152976262Y-125944313D01*
X153019919Y-125871287D01*
X153049684Y-125787944D01*
X153059606Y-125699838D01*
X153046377Y-125590741D01*
X153006690Y-125489935D01*
X152940544Y-125397419D01*
X152853143Y-125323776D01*
X152749691Y-125279591D01*
X152630187Y-125264862D01*
X152510772Y-125279415D01*
X152407585Y-125323071D01*
X152320625Y-125395831D01*
X152254920Y-125486936D01*
X152215497Y-125585626D01*
X152202356Y-125691900D01*
X152210294Y-125772862D01*
X152253553Y-125818106D01*
X152342056Y-125833188D01*
X152423019Y-125823663D01*
X152465881Y-125795088D01*
X152480962Y-125755400D01*
X152483344Y-125703012D01*
X152483344Y-125693488D01*
X152489694Y-125656975D01*
X152531762Y-125583156D01*
X152619869Y-125545850D01*
X152699244Y-125560137D01*
X152741312Y-125591094D01*
X152765919Y-125633956D01*
X152777031Y-125674437D01*
X152762148Y-125743891D01*
X152717500Y-125809375D01*
X152651817Y-125869502D01*
X152573831Y-125922881D01*
X152489694Y-125973284D01*
X152405556Y-126024481D01*
X152327570Y-126081234D01*
X152261887Y-126148306D01*
X152217239Y-126223911D01*
X152202356Y-126306262D01*
X151264696Y-126306262D01*
X151256169Y-126292036D01*
X151217447Y-126210166D01*
X151186936Y-126124894D01*
X151164931Y-126037042D01*
X151151642Y-125947457D01*
X151147198Y-125857000D01*
X151151642Y-125766543D01*
X151164931Y-125676958D01*
X151186936Y-125589106D01*
X151217447Y-125503834D01*
X151256169Y-125421964D01*
X151302729Y-125344283D01*
X151356679Y-125271540D01*
X151417499Y-125204435D01*
X151484604Y-125143614D01*
X151557347Y-125089664D01*
X151635028Y-125043104D01*
X151716899Y-125004382D01*
X151802171Y-124973872D01*
X151890022Y-124951866D01*
X151979608Y-124938577D01*
X152070065Y-124934133D01*
X152202356Y-124934133D01*
X153105644Y-124934133D01*
X153237935Y-124934133D01*
X153328392Y-124938577D01*
X153417978Y-124951866D01*
X153505829Y-124973872D01*
X153591101Y-125004382D01*
X153672972Y-125043104D01*
X153750653Y-125089664D01*
X153823396Y-125143614D01*
X153890501Y-125204435D01*
X153951321Y-125271540D01*
X154005271Y-125344283D01*
X154051831Y-125421964D01*
X154090553Y-125503834D01*
X154121064Y-125589106D01*
X154143069Y-125676958D01*
X154156358Y-125766543D01*
X154160802Y-125857000D01*
X154156358Y-125947457D01*
X154143069Y-126037042D01*
X154121064Y-126124894D01*
X154090553Y-126210166D01*
X154051831Y-126292036D01*
X154005271Y-126369717D01*
X153951321Y-126442460D01*
X153890501Y-126509565D01*
X153823396Y-126570386D01*
X153750653Y-126624336D01*
X153672972Y-126670896D01*
X153591101Y-126709618D01*
X153505829Y-126740128D01*
X153417978Y-126762134D01*
X153328392Y-126775423D01*
X153237935Y-126779867D01*
X153105644Y-126779867D01*
X152962769Y-126779867D01*
X152202356Y-126779867D01*
G37*
%TO.C,D8*%
X156503000Y-62636800D02*
X156503000Y-65896800D01*
X158203000Y-62636800D02*
X158203000Y-65896800D01*
X158203000Y-62636800D02*
X156503000Y-62636800D01*
%TO.C,C3*%
X155111500Y-97240000D02*
X155111500Y-100090000D01*
X155111500Y-105960000D02*
X155111500Y-103110000D01*
X162767063Y-97240000D02*
X155111500Y-97240000D01*
X162767063Y-105960000D02*
X155111500Y-105960000D01*
X163831500Y-98304437D02*
X162767063Y-97240000D01*
X163831500Y-98304437D02*
X163831500Y-100090000D01*
X163831500Y-104895563D02*
X162767063Y-105960000D01*
X163831500Y-104895563D02*
X163831500Y-103110000D01*
X164571500Y-104610000D02*
X164571500Y-103610000D01*
X165071500Y-104110000D02*
X164071500Y-104110000D01*
%TO.C,R2*%
X151895500Y-120145436D02*
X151895500Y-120599564D01*
X153365500Y-120145436D02*
X153365500Y-120599564D01*
%TO.C,R6*%
X150244436Y-77081000D02*
X150698564Y-77081000D01*
X150244436Y-75611000D02*
X150698564Y-75611000D01*
%TO.C,kibuzzard-64095693*%
G36*
X138050588Y-86021862D02*
G01*
X138092656Y-86124256D01*
X138070431Y-86203631D01*
X138011694Y-86231413D01*
X137960894Y-86171088D01*
X137960894Y-85971063D01*
X138050588Y-86021862D01*
G37*
G36*
X138010106Y-81740375D02*
G01*
X138052969Y-81838006D01*
X138010900Y-81937225D01*
X137916444Y-81975325D01*
X137822781Y-81934844D01*
X137781506Y-81836419D01*
X137823575Y-81741169D01*
X137916444Y-81703862D01*
X138010106Y-81740375D01*
G37*
G36*
X136796727Y-80950594D02*
G01*
X137475119Y-80950594D01*
X137480587Y-81046990D01*
X137496991Y-81131922D01*
X137524331Y-81205387D01*
X137610850Y-81291906D01*
X137674945Y-81315123D01*
X137751344Y-81322862D01*
X137826948Y-81315123D01*
X137888663Y-81291906D01*
X137965656Y-81214912D01*
X138005344Y-81114900D01*
X138025981Y-81011712D01*
X138048603Y-80930750D01*
X138087894Y-80903762D01*
X138122819Y-80997425D01*
X138099006Y-81109344D01*
X138075194Y-81179987D01*
X138130756Y-81251425D01*
X138224419Y-81286350D01*
X138287919Y-81230787D01*
X138328400Y-81113312D01*
X138341894Y-80999012D01*
X138331861Y-80874997D01*
X138301762Y-80778540D01*
X138251597Y-80709643D01*
X138181366Y-80668304D01*
X138091069Y-80654525D01*
X138012686Y-80662066D01*
X137945812Y-80684687D01*
X137856119Y-80760887D01*
X137807303Y-80859709D01*
X137781506Y-80959325D01*
X137763250Y-81039097D01*
X137737056Y-81065687D01*
X137708481Y-81041478D01*
X137698956Y-80968850D01*
X137737850Y-80848200D01*
X137776744Y-80742631D01*
X137749756Y-80686275D01*
X137676334Y-80641031D01*
X137624344Y-80625950D01*
X137564019Y-80656112D01*
X137514630Y-80751627D01*
X137484997Y-80849787D01*
X137475119Y-80950594D01*
X136796727Y-80950594D01*
X136796727Y-80625950D01*
X136796727Y-80493658D01*
X136796727Y-79818495D01*
X139047273Y-80493658D01*
X139047273Y-80625950D01*
X139047273Y-86506050D01*
X139047273Y-86638342D01*
X139047273Y-87313505D01*
X136796727Y-86638342D01*
X136796727Y-86506050D01*
X136796727Y-86126638D01*
X137468769Y-86126638D01*
X137477599Y-86274573D01*
X137504091Y-86380241D01*
X137548243Y-86443641D01*
X137610056Y-86464775D01*
X137683081Y-86444138D01*
X137754519Y-86356825D01*
X137737056Y-86293325D01*
X137730706Y-86275863D01*
X137716419Y-86213553D01*
X137711656Y-86131400D01*
X137741819Y-86026625D01*
X137816431Y-85974238D01*
X137816431Y-86350475D01*
X137863263Y-86457631D01*
X137922794Y-86493945D01*
X138007725Y-86506050D01*
X138101586Y-86492556D01*
X138187906Y-86452075D01*
X138255970Y-86393139D01*
X138304588Y-86319519D01*
X138333758Y-86231214D01*
X138343481Y-86128225D01*
X138330164Y-86006252D01*
X138290212Y-85898567D01*
X138223625Y-85805169D01*
X138134813Y-85733290D01*
X138028186Y-85690163D01*
X137903744Y-85675787D01*
X137801262Y-85686900D01*
X137705483Y-85720237D01*
X137616406Y-85775800D01*
X137556280Y-85836720D01*
X137509250Y-85917881D01*
X137478889Y-86015711D01*
X137468769Y-86126638D01*
X136796727Y-86126638D01*
X136796727Y-85112225D01*
X137489406Y-85112225D01*
X137499725Y-85193188D01*
X137530681Y-85236050D01*
X137572750Y-85251131D01*
X137627519Y-85253512D01*
X137960894Y-85253512D01*
X138033919Y-85290819D01*
X138064081Y-85370987D01*
X138051381Y-85440044D01*
X138038681Y-85494812D01*
X138099006Y-85582125D01*
X138210131Y-85612288D01*
X138283950Y-85592444D01*
X138316494Y-85542437D01*
X138329988Y-85486875D01*
X138333956Y-85424169D01*
X138306969Y-85337650D01*
X138264106Y-85273356D01*
X138237119Y-85250337D01*
X138289506Y-85232875D01*
X138316891Y-85191203D01*
X138326019Y-85113813D01*
X138315303Y-85032056D01*
X138283156Y-84989988D01*
X138242675Y-84976494D01*
X138187906Y-84974112D01*
X137630694Y-84974112D01*
X137584656Y-84974112D01*
X137516394Y-85002687D01*
X137489406Y-85112225D01*
X136796727Y-85112225D01*
X136796727Y-84732019D01*
X137487819Y-84732019D01*
X137499328Y-84810005D01*
X137533856Y-84851875D01*
X137577513Y-84868544D01*
X137633869Y-84870925D01*
X137640219Y-84870925D01*
X137751344Y-84843937D01*
X137776347Y-84792542D01*
X137784681Y-84711381D01*
X137772775Y-84633395D01*
X137737056Y-84591525D01*
X137694194Y-84576444D01*
X137638631Y-84574062D01*
X137632281Y-84574062D01*
X137517981Y-84605019D01*
X137495359Y-84652247D01*
X137487819Y-84732019D01*
X136796727Y-84732019D01*
X136796727Y-84328000D01*
X137489406Y-84328000D01*
X137491788Y-84381181D01*
X137505281Y-84423250D01*
X137546953Y-84456587D01*
X137627519Y-84467700D01*
X137733881Y-84431187D01*
X137748963Y-84389119D01*
X137751344Y-84331969D01*
X137770394Y-84281169D01*
X137832306Y-84267675D01*
X138051381Y-84267675D01*
X138045031Y-84370862D01*
X138047413Y-84425631D01*
X138060906Y-84467700D01*
X138102578Y-84499847D01*
X138183144Y-84510562D01*
X138264503Y-84500244D01*
X138305381Y-84469287D01*
X138320463Y-84427219D01*
X138322844Y-84373244D01*
X138316494Y-84267675D01*
X138472069Y-84267675D01*
X138553031Y-84259737D01*
X138597084Y-84217272D01*
X138611769Y-84131150D01*
X138601847Y-84049791D01*
X138572081Y-84008912D01*
X138533981Y-83993831D01*
X138480006Y-83991450D01*
X138316494Y-83991450D01*
X138322844Y-83939062D01*
X138302206Y-83875562D01*
X138260138Y-83853337D01*
X138165681Y-83845400D01*
X138073606Y-83868419D01*
X138046619Y-83926362D01*
X138051381Y-83991450D01*
X137816431Y-83991450D01*
X137709363Y-84000975D01*
X137625226Y-84029550D01*
X137564019Y-84077175D01*
X137522567Y-84143144D01*
X137497697Y-84226753D01*
X137489406Y-84328000D01*
X136796727Y-84328000D01*
X136796727Y-83618387D01*
X137489406Y-83618387D01*
X137499725Y-83699747D01*
X137530681Y-83740625D01*
X137572750Y-83755706D01*
X137627519Y-83758087D01*
X138183144Y-83758087D01*
X138229181Y-83756500D01*
X138297444Y-83727925D01*
X138324431Y-83619975D01*
X138324331Y-83619181D01*
X138438731Y-83619181D01*
X138448256Y-83699350D01*
X138480800Y-83741419D01*
X138522075Y-83755706D01*
X138576844Y-83758087D01*
X138631613Y-83755706D01*
X138673681Y-83740625D01*
X138705828Y-83700144D01*
X138716544Y-83619975D01*
X138705828Y-83538219D01*
X138673681Y-83496150D01*
X138633200Y-83482656D01*
X138578431Y-83480275D01*
X138523663Y-83482656D01*
X138481594Y-83496944D01*
X138448256Y-83539012D01*
X138438731Y-83619181D01*
X138324331Y-83619181D01*
X138314113Y-83538219D01*
X138283156Y-83496150D01*
X138241088Y-83482656D01*
X138186319Y-83480275D01*
X137629106Y-83480275D01*
X137573544Y-83482656D01*
X137532269Y-83496150D01*
X137500122Y-83537822D01*
X137489406Y-83618387D01*
X136796727Y-83618387D01*
X136796727Y-82892900D01*
X137489406Y-82892900D01*
X137499725Y-82973862D01*
X137530681Y-83016725D01*
X137572750Y-83031806D01*
X137627519Y-83034187D01*
X137960894Y-83034187D01*
X138033919Y-83071494D01*
X138064081Y-83151662D01*
X138051381Y-83220719D01*
X138038681Y-83275487D01*
X138099006Y-83362800D01*
X138210131Y-83392962D01*
X138283950Y-83373119D01*
X138316494Y-83323112D01*
X138329988Y-83267550D01*
X138333956Y-83204844D01*
X138306969Y-83118325D01*
X138264106Y-83054031D01*
X138237119Y-83031012D01*
X138289506Y-83013550D01*
X138316891Y-82971878D01*
X138326019Y-82894487D01*
X138315303Y-82812731D01*
X138283156Y-82770662D01*
X138242675Y-82757169D01*
X138187906Y-82754787D01*
X137630694Y-82754787D01*
X137584656Y-82754787D01*
X137516394Y-82783362D01*
X137489406Y-82892900D01*
X136796727Y-82892900D01*
X136796727Y-82488087D01*
X137489406Y-82488087D01*
X137499725Y-82569447D01*
X137530681Y-82610325D01*
X137572750Y-82625406D01*
X137627519Y-82627787D01*
X138183144Y-82627787D01*
X138229181Y-82626200D01*
X138297444Y-82597625D01*
X138324431Y-82489675D01*
X138324331Y-82488881D01*
X138438731Y-82488881D01*
X138448256Y-82569050D01*
X138480800Y-82611119D01*
X138522075Y-82625406D01*
X138576844Y-82627787D01*
X138631613Y-82625406D01*
X138673681Y-82610325D01*
X138705828Y-82569844D01*
X138716544Y-82489675D01*
X138705828Y-82407919D01*
X138673681Y-82365850D01*
X138633200Y-82352356D01*
X138578431Y-82349975D01*
X138523663Y-82352356D01*
X138481594Y-82366644D01*
X138448256Y-82408712D01*
X138438731Y-82488881D01*
X138324331Y-82488881D01*
X138314113Y-82407919D01*
X138283156Y-82365850D01*
X138241088Y-82352356D01*
X138186319Y-82349975D01*
X137629106Y-82349975D01*
X137573544Y-82352356D01*
X137532269Y-82365850D01*
X137500122Y-82407522D01*
X137489406Y-82488087D01*
X136796727Y-82488087D01*
X136796727Y-81562575D01*
X137127456Y-81562575D01*
X137136981Y-81640362D01*
X137169525Y-81680844D01*
X137210006Y-81695131D01*
X137263981Y-81697512D01*
X137584656Y-81697512D01*
X137529887Y-81774109D01*
X137511631Y-81886425D01*
X137525213Y-81971533D01*
X137565959Y-82053289D01*
X137633869Y-82131694D01*
X137719770Y-82195635D01*
X137814491Y-82233999D01*
X137918031Y-82246787D01*
X138021572Y-82233911D01*
X138116292Y-82195282D01*
X138202194Y-82130900D01*
X138270103Y-82052142D01*
X138310849Y-81970386D01*
X138324431Y-81885631D01*
X138303794Y-81773514D01*
X138241881Y-81695925D01*
X138304588Y-81661794D01*
X138326019Y-81548287D01*
X138315303Y-81479628D01*
X138283156Y-81441925D01*
X138243469Y-81428431D01*
X138189494Y-81426050D01*
X137262394Y-81426050D01*
X137208419Y-81428431D01*
X137168731Y-81442719D01*
X137136981Y-81483994D01*
X137127456Y-81562575D01*
X136796727Y-81562575D01*
X136796727Y-80950594D01*
G37*
%TO.C,C15*%
X163187748Y-68191000D02*
X163710252Y-68191000D01*
X163187748Y-66721000D02*
X163710252Y-66721000D01*
%TO.C,C11*%
X159515500Y-78142148D02*
X159515500Y-78664652D01*
X160985500Y-78142148D02*
X160985500Y-78664652D01*
%TO.C,C17*%
X162721552Y-61895000D02*
X162199048Y-61895000D01*
X162721552Y-63365000D02*
X162199048Y-63365000D01*
%TO.C,D3*%
X165079900Y-80296600D02*
X161819900Y-80296600D01*
X165079900Y-81996600D02*
X161819900Y-81996600D01*
X165079900Y-81996600D02*
X165079900Y-80296600D01*
%TO.C,R9*%
X158931300Y-62768736D02*
X158931300Y-63222864D01*
X160401300Y-62768736D02*
X160401300Y-63222864D01*
%TO.C,R3*%
X162182436Y-118845000D02*
X162636564Y-118845000D01*
X162182436Y-117375000D02*
X162636564Y-117375000D01*
%TO.C,R11*%
X149251936Y-70096000D02*
X149706064Y-70096000D01*
X149251936Y-68626000D02*
X149706064Y-68626000D01*
%TO.C,R101*%
X135409000Y-57049936D02*
X135409000Y-57504064D01*
X136879000Y-57049936D02*
X136879000Y-57504064D01*
%TO.C,R102*%
X135409000Y-60502436D02*
X135409000Y-60956564D01*
X136879000Y-60502436D02*
X136879000Y-60956564D01*
%TO.C,R105*%
X135409000Y-70765936D02*
X135409000Y-71220064D01*
X136879000Y-70765936D02*
X136879000Y-71220064D01*
%TO.C,R7*%
X148442936Y-75049000D02*
X148897064Y-75049000D01*
X148442936Y-73579000D02*
X148897064Y-73579000D01*
%TO.C,C10*%
X156083300Y-71131052D02*
X156083300Y-70608548D01*
X154613300Y-71131052D02*
X154613300Y-70608548D01*
%TO.C,R4*%
X162182436Y-121131000D02*
X162636564Y-121131000D01*
X162182436Y-119661000D02*
X162636564Y-119661000D01*
%TO.C,C1*%
X161459000Y-107908000D02*
X158609000Y-107908000D01*
X152739000Y-107908000D02*
X155589000Y-107908000D01*
X161459000Y-115563563D02*
X161459000Y-107908000D01*
X152739000Y-115563563D02*
X152739000Y-107908000D01*
X160394563Y-116628000D02*
X161459000Y-115563563D01*
X160394563Y-116628000D02*
X158609000Y-116628000D01*
X153803437Y-116628000D02*
X152739000Y-115563563D01*
X153803437Y-116628000D02*
X155589000Y-116628000D01*
X154089000Y-117368000D02*
X155089000Y-117368000D01*
X154589000Y-117868000D02*
X154589000Y-116868000D01*
%TO.C,J1*%
X146534500Y-122351800D02*
X158726500Y-122351800D01*
X158726500Y-122351800D02*
X158726500Y-124561600D01*
X158726500Y-124561600D02*
X146534500Y-124561600D01*
X146534500Y-124561600D02*
X146534500Y-122351800D01*
%TO.C,C13*%
X163554100Y-78152348D02*
X163554100Y-78674852D01*
X165024100Y-78152348D02*
X165024100Y-78674852D01*
%TO.C,C19*%
X149471748Y-59663000D02*
X149994252Y-59663000D01*
X149471748Y-58193000D02*
X149994252Y-58193000D01*
%TO.C,C7*%
X156125000Y-93006000D02*
X156125000Y-90156000D01*
X156125000Y-84286000D02*
X156125000Y-87136000D01*
X148469437Y-93006000D02*
X156125000Y-93006000D01*
X148469437Y-84286000D02*
X156125000Y-84286000D01*
X147405000Y-91941563D02*
X148469437Y-93006000D01*
X147405000Y-91941563D02*
X147405000Y-90156000D01*
X147405000Y-85350437D02*
X148469437Y-84286000D01*
X147405000Y-85350437D02*
X147405000Y-87136000D01*
X146665000Y-85636000D02*
X146665000Y-86636000D01*
X146165000Y-86136000D02*
X147165000Y-86136000D01*
%TO.C,R107*%
X140107936Y-74395000D02*
X140562064Y-74395000D01*
X140107936Y-72925000D02*
X140562064Y-72925000D01*
%TO.C,R1*%
X157229500Y-120145436D02*
X157229500Y-120599564D01*
X158699500Y-120145436D02*
X158699500Y-120599564D01*
%TO.C,D7*%
X161058000Y-65766000D02*
X164318000Y-65766000D01*
X161058000Y-64066000D02*
X164318000Y-64066000D01*
X161058000Y-64066000D02*
X161058000Y-65766000D01*
%TO.C,kibuzzard-640955F0*%
G36*
X147604163Y-126852892D02*
G01*
X146904075Y-126852892D01*
X146318288Y-126852892D01*
X146185996Y-126852892D01*
X146088381Y-126848096D01*
X145991707Y-126833756D01*
X145896904Y-126810009D01*
X145804885Y-126777084D01*
X145716536Y-126735298D01*
X145632708Y-126685054D01*
X145554209Y-126626835D01*
X145481794Y-126561202D01*
X145416161Y-126488787D01*
X145357942Y-126410288D01*
X145307698Y-126326460D01*
X145265912Y-126238111D01*
X145232987Y-126146092D01*
X145209240Y-126051289D01*
X145194900Y-125954614D01*
X145190104Y-125857000D01*
X145190962Y-125839537D01*
X146318288Y-125839537D01*
X146329202Y-125961130D01*
X146361944Y-126073495D01*
X146416514Y-126176633D01*
X146492913Y-126270544D01*
X146584095Y-126348679D01*
X146683016Y-126404489D01*
X146789676Y-126437975D01*
X146904075Y-126449137D01*
X147029091Y-126440505D01*
X147132455Y-126415800D01*
X147435888Y-126415800D01*
X147454144Y-126456281D01*
X147524788Y-126498350D01*
X147604163Y-126522163D01*
X147647819Y-126510256D01*
X147671631Y-126485650D01*
X147691475Y-126445963D01*
X148078823Y-125641100D01*
X148270913Y-125641100D01*
X148320919Y-125739525D01*
X148416963Y-125795088D01*
X148528088Y-125745875D01*
X148548725Y-125726825D01*
X148548725Y-126293562D01*
X148551106Y-126351506D01*
X148566188Y-126395163D01*
X148608653Y-126426119D01*
X148688425Y-126436437D01*
X148770181Y-126425722D01*
X148812250Y-126393575D01*
X148827331Y-126351506D01*
X148829713Y-126296738D01*
X148829713Y-125412500D01*
X148821775Y-125328362D01*
X148799550Y-125294231D01*
X148758275Y-125275975D01*
X148682869Y-125268037D01*
X148593175Y-125309312D01*
X148588413Y-125312487D01*
X148328063Y-125547438D01*
X148270913Y-125641100D01*
X148078823Y-125641100D01*
X148201063Y-125387100D01*
X148223288Y-125307725D01*
X148201856Y-125260497D01*
X148137563Y-125217237D01*
X148057394Y-125191837D01*
X148020088Y-125198187D01*
X147966113Y-125268037D01*
X147454938Y-126336425D01*
X147435888Y-126415800D01*
X147132455Y-126415800D01*
X147137438Y-126414609D01*
X147229116Y-126371449D01*
X147304125Y-126311025D01*
X147348575Y-126214187D01*
X147348575Y-125864937D01*
X147332700Y-125776037D01*
X147227925Y-125731587D01*
X146948525Y-125731587D01*
X146872325Y-125745875D01*
X146846131Y-125780800D01*
X146838988Y-125848269D01*
X146845338Y-125914944D01*
X146872325Y-125952250D01*
X146942175Y-125964950D01*
X147067588Y-125964950D01*
X147067588Y-126137988D01*
X146993372Y-126159419D01*
X146910425Y-126166562D01*
X146796125Y-126142552D01*
X146694525Y-126070519D01*
X146641608Y-126001903D01*
X146609858Y-125924116D01*
X146599275Y-125837156D01*
X146622691Y-125712934D01*
X146692938Y-125614906D01*
X146793347Y-125551208D01*
X146907250Y-125529975D01*
X146992975Y-125540889D01*
X147066000Y-125573631D01*
X147162838Y-125617287D01*
X147216416Y-125596253D01*
X147275550Y-125533150D01*
X147312063Y-125443456D01*
X147269200Y-125372812D01*
X147155782Y-125304021D01*
X147037778Y-125262746D01*
X146915188Y-125248987D01*
X146798506Y-125259554D01*
X146689763Y-125291255D01*
X146588956Y-125344089D01*
X146496088Y-125418056D01*
X146418300Y-125507800D01*
X146362738Y-125607961D01*
X146329400Y-125718540D01*
X146318288Y-125839537D01*
X145190962Y-125839537D01*
X145194900Y-125759386D01*
X145209240Y-125662711D01*
X145232987Y-125567908D01*
X145265912Y-125475889D01*
X145307698Y-125387540D01*
X145357942Y-125303712D01*
X145416161Y-125225213D01*
X145481794Y-125152798D01*
X145554209Y-125087165D01*
X145632708Y-125028946D01*
X145716536Y-124978702D01*
X145804885Y-124936916D01*
X145896904Y-124903991D01*
X145991707Y-124880244D01*
X146088381Y-124865904D01*
X146185996Y-124861108D01*
X146318288Y-124861108D01*
X148829713Y-124861108D01*
X148962004Y-124861108D01*
X149059619Y-124865904D01*
X149156293Y-124880244D01*
X149251096Y-124903991D01*
X149343115Y-124936916D01*
X149431464Y-124978702D01*
X149515292Y-125028946D01*
X149593791Y-125087165D01*
X149666206Y-125152798D01*
X149731839Y-125225213D01*
X149790058Y-125303712D01*
X149840302Y-125387540D01*
X149882088Y-125475889D01*
X149915013Y-125567908D01*
X149938760Y-125662711D01*
X149953100Y-125759386D01*
X149957896Y-125857000D01*
X149953100Y-125954614D01*
X149938760Y-126051289D01*
X149915013Y-126146092D01*
X149882088Y-126238111D01*
X149840302Y-126326460D01*
X149790058Y-126410288D01*
X149731839Y-126488787D01*
X149666206Y-126561202D01*
X149593791Y-126626835D01*
X149515292Y-126685054D01*
X149431464Y-126735298D01*
X149343115Y-126777084D01*
X149251096Y-126810009D01*
X149156293Y-126833756D01*
X149059619Y-126848096D01*
X148962004Y-126852892D01*
X148829713Y-126852892D01*
X148688425Y-126852892D01*
X147604163Y-126852892D01*
G37*
%TO.C,C9*%
X157692352Y-78313600D02*
X157169848Y-78313600D01*
X157692352Y-79783600D02*
X157169848Y-79783600D01*
%TO.C,D2*%
X160609500Y-81084000D02*
X157349500Y-81084000D01*
X160609500Y-82784000D02*
X157349500Y-82784000D01*
X160609500Y-82784000D02*
X160609500Y-81084000D01*
%TO.C,R13*%
X154786064Y-57123000D02*
X154331936Y-57123000D01*
X154786064Y-55653000D02*
X154331936Y-55653000D01*
%TO.C,R8*%
X157683564Y-76357800D02*
X157229436Y-76357800D01*
X157683564Y-77827800D02*
X157229436Y-77827800D01*
%TO.C,R103*%
X135409000Y-63907936D02*
X135409000Y-64362064D01*
X136879000Y-63907936D02*
X136879000Y-64362064D01*
%TO.C,D4*%
X165445700Y-77902200D02*
X165445700Y-81162200D01*
X167145700Y-77902200D02*
X167145700Y-81162200D01*
X167145700Y-77902200D02*
X165445700Y-77902200D01*
%TO.C,MK1*%
X140208000Y-55295800D02*
X152400000Y-55295800D01*
X152400000Y-55295800D02*
X152400000Y-57505600D01*
X152400000Y-57505600D02*
X140208000Y-57505600D01*
X140208000Y-57505600D02*
X140208000Y-55295800D01*
%TO.C,C18*%
X166343000Y-61748252D02*
X166343000Y-61225748D01*
X164873000Y-61748252D02*
X164873000Y-61225748D01*
%TO.C,R104*%
X135409000Y-67336936D02*
X135409000Y-67791064D01*
X136879000Y-67336936D02*
X136879000Y-67791064D01*
%TO.C,R108*%
X143536936Y-74395000D02*
X143991064Y-74395000D01*
X143536936Y-72925000D02*
X143991064Y-72925000D01*
%TO.C,D6*%
X166155000Y-65065000D02*
X166155000Y-68325000D01*
X167855000Y-65065000D02*
X167855000Y-68325000D01*
X167855000Y-65065000D02*
X166155000Y-65065000D01*
%TO.C,R109*%
X145261000Y-71220064D02*
X145261000Y-70765936D01*
X143791000Y-71220064D02*
X143791000Y-70765936D01*
%TO.C,C4*%
X164819000Y-90050252D02*
X164819000Y-89527748D01*
X163349000Y-90050252D02*
X163349000Y-89527748D01*
%TO.C,R106*%
X136655436Y-74395000D02*
X137109564Y-74395000D01*
X136655436Y-72925000D02*
X137109564Y-72925000D01*
%TO.C,C14*%
X165814700Y-70684748D02*
X165814700Y-71207252D01*
X167284700Y-70684748D02*
X167284700Y-71207252D01*
%TO.C,D5*%
X165826700Y-72974600D02*
X165826700Y-76234600D01*
X167526700Y-72974600D02*
X167526700Y-76234600D01*
X167526700Y-72974600D02*
X165826700Y-72974600D01*
%TO.C,C6*%
X150548000Y-81179252D02*
X150548000Y-80656748D01*
X149078000Y-81179252D02*
X149078000Y-80656748D01*
%TO.C,C2*%
X151807000Y-110321000D02*
X148957000Y-110321000D01*
X143087000Y-110321000D02*
X145937000Y-110321000D01*
X151807000Y-117976563D02*
X151807000Y-110321000D01*
X143087000Y-117976563D02*
X143087000Y-110321000D01*
X150742563Y-119041000D02*
X151807000Y-117976563D01*
X150742563Y-119041000D02*
X148957000Y-119041000D01*
X144151437Y-119041000D02*
X143087000Y-117976563D01*
X144151437Y-119041000D02*
X145937000Y-119041000D01*
X144437000Y-119781000D02*
X145437000Y-119781000D01*
X144937000Y-120281000D02*
X144937000Y-119281000D01*
%TO.C,C5*%
X143087000Y-104563000D02*
X145937000Y-104563000D01*
X151807000Y-104563000D02*
X148957000Y-104563000D01*
X143087000Y-96907437D02*
X143087000Y-104563000D01*
X151807000Y-96907437D02*
X151807000Y-104563000D01*
X144151437Y-95843000D02*
X143087000Y-96907437D01*
X144151437Y-95843000D02*
X145937000Y-95843000D01*
X150742563Y-95843000D02*
X151807000Y-96907437D01*
X150742563Y-95843000D02*
X148957000Y-95843000D01*
X150457000Y-95103000D02*
X149457000Y-95103000D01*
X149957000Y-94603000D02*
X149957000Y-95603000D01*
%TO.C,kibuzzard-640955DC*%
G36*
X157164088Y-126788598D02*
G01*
X157031796Y-126788598D01*
X156940483Y-126784112D01*
X156850050Y-126770698D01*
X156761367Y-126748484D01*
X156675289Y-126717684D01*
X156592644Y-126678596D01*
X156514228Y-126631595D01*
X156440796Y-126577135D01*
X156373057Y-126515739D01*
X156311661Y-126447999D01*
X156257200Y-126374568D01*
X156210200Y-126296152D01*
X156171112Y-126213507D01*
X156140312Y-126127429D01*
X156131226Y-126091156D01*
X157164088Y-126091156D01*
X157181550Y-126176881D01*
X157184725Y-126192756D01*
X157202188Y-126234031D01*
X157241478Y-126297134D01*
X157286325Y-126346744D01*
X157378047Y-126408480D01*
X157483881Y-126445522D01*
X157603825Y-126457869D01*
X157724651Y-126445610D01*
X157831014Y-126408833D01*
X157922913Y-126347537D01*
X157993468Y-126267369D01*
X158035801Y-126173971D01*
X158049913Y-126067344D01*
X158036816Y-125986381D01*
X157997525Y-125914944D01*
X157947519Y-125863350D01*
X157900688Y-125829219D01*
X157900688Y-125818106D01*
X157969479Y-125768276D01*
X158010754Y-125701337D01*
X158024513Y-125617287D01*
X158011989Y-125527770D01*
X157974418Y-125444426D01*
X157911800Y-125367256D01*
X157827486Y-125305520D01*
X157724828Y-125268478D01*
X157603825Y-125256131D01*
X157525045Y-125261687D01*
X157453806Y-125278356D01*
X157349031Y-125327569D01*
X157283150Y-125390275D01*
X157248225Y-125440281D01*
X157211713Y-125548231D01*
X157231556Y-125604984D01*
X157291088Y-125654594D01*
X157378400Y-125683169D01*
X157438725Y-125663325D01*
X157483175Y-125603794D01*
X157492700Y-125584744D01*
X157533975Y-125546644D01*
X157623669Y-125527594D01*
X157711775Y-125557756D01*
X157743525Y-125621256D01*
X157713363Y-125667691D01*
X157622875Y-125683169D01*
X157540325Y-125691106D01*
X157496272Y-125734366D01*
X157481588Y-125822869D01*
X157492303Y-125904228D01*
X157524450Y-125945106D01*
X157565725Y-125960981D01*
X157637956Y-125964156D01*
X157730031Y-125996700D01*
X157768925Y-126072106D01*
X157729238Y-126149100D01*
X157678438Y-126174698D01*
X157605413Y-126183231D01*
X157538738Y-126173706D01*
X157451425Y-126097506D01*
X157403800Y-126014956D01*
X157319663Y-125999081D01*
X157202981Y-126022100D01*
X157164088Y-126091156D01*
X156131226Y-126091156D01*
X156118098Y-126038746D01*
X156104684Y-125948313D01*
X156100198Y-125857000D01*
X156104684Y-125765687D01*
X156118098Y-125675254D01*
X156140312Y-125586571D01*
X156171112Y-125500493D01*
X156210200Y-125417848D01*
X156257200Y-125339432D01*
X156311661Y-125266001D01*
X156373057Y-125198261D01*
X156440796Y-125136865D01*
X156514228Y-125082405D01*
X156592644Y-125035404D01*
X156675289Y-124996316D01*
X156761367Y-124965516D01*
X156850050Y-124943302D01*
X156940483Y-124929888D01*
X157031796Y-124925402D01*
X157164088Y-124925402D01*
X158049913Y-124925402D01*
X158182204Y-124925402D01*
X158273517Y-124929888D01*
X158363950Y-124943302D01*
X158452633Y-124965516D01*
X158538711Y-124996316D01*
X158621356Y-125035404D01*
X158699772Y-125082405D01*
X158773204Y-125136865D01*
X158840943Y-125198261D01*
X158902339Y-125266001D01*
X158956800Y-125339432D01*
X159003800Y-125417848D01*
X159042888Y-125500493D01*
X159073688Y-125586571D01*
X159095902Y-125675254D01*
X159109316Y-125765687D01*
X159113802Y-125857000D01*
X159109316Y-125948313D01*
X159095902Y-126038746D01*
X159073688Y-126127429D01*
X159042888Y-126213507D01*
X159003800Y-126296152D01*
X158956800Y-126374568D01*
X158902339Y-126447999D01*
X158840943Y-126515739D01*
X158773204Y-126577135D01*
X158699772Y-126631595D01*
X158621356Y-126678596D01*
X158538711Y-126717684D01*
X158452633Y-126748484D01*
X158363950Y-126770698D01*
X158273517Y-126784112D01*
X158182204Y-126788598D01*
X158049913Y-126788598D01*
X157603825Y-126788598D01*
X157164088Y-126788598D01*
G37*
%TO.C,R110*%
X145261000Y-67791064D02*
X145261000Y-67336936D01*
X143791000Y-67791064D02*
X143791000Y-67336936D01*
%TO.C,U1*%
X146768500Y-64535000D02*
X146768500Y-66485000D01*
X146768500Y-64535000D02*
X146768500Y-62585000D01*
X151888500Y-64535000D02*
X151888500Y-66485000D01*
X151888500Y-64535000D02*
X151888500Y-61085000D01*
%TD*%
M02*
