%TF.GenerationSoftware,KiCad,Pcbnew,(7.0.0)*%
%TF.CreationDate,2023-03-18T07:41:40+03:00*%
%TF.ProjectId,StudioMic,53747564-696f-44d6-9963-2e6b69636164,1*%
%TF.SameCoordinates,Original*%
%TF.FileFunction,Paste,Top*%
%TF.FilePolarity,Positive*%
%FSLAX46Y46*%
G04 Gerber Fmt 4.6, Leading zero omitted, Abs format (unit mm)*
G04 Created by KiCad (PCBNEW (7.0.0)) date 2023-03-18 07:41:40*
%MOMM*%
%LPD*%
G01*
G04 APERTURE LIST*
G04 Aperture macros list*
%AMRoundRect*
0 Rectangle with rounded corners*
0 $1 Rounding radius*
0 $2 $3 $4 $5 $6 $7 $8 $9 X,Y pos of 4 corners*
0 Add a 4 corners polygon primitive as box body*
4,1,4,$2,$3,$4,$5,$6,$7,$8,$9,$2,$3,0*
0 Add four circle primitives for the rounded corners*
1,1,$1+$1,$2,$3*
1,1,$1+$1,$4,$5*
1,1,$1+$1,$6,$7*
1,1,$1+$1,$8,$9*
0 Add four rect primitives between the rounded corners*
20,1,$1+$1,$2,$3,$4,$5,0*
20,1,$1+$1,$4,$5,$6,$7,0*
20,1,$1+$1,$6,$7,$8,$9,0*
20,1,$1+$1,$8,$9,$2,$3,0*%
G04 Aperture macros list end*
%ADD10RoundRect,0.250000X-0.475000X0.250000X-0.475000X-0.250000X0.475000X-0.250000X0.475000X0.250000X0*%
%ADD11RoundRect,0.250000X0.475000X-0.250000X0.475000X0.250000X-0.475000X0.250000X-0.475000X-0.250000X0*%
%ADD12RoundRect,0.150000X0.150000X-0.825000X0.150000X0.825000X-0.150000X0.825000X-0.150000X-0.825000X0*%
%ADD13RoundRect,0.250000X-0.600000X1.400000X-0.600000X-1.400000X0.600000X-1.400000X0.600000X1.400000X0*%
%ADD14RoundRect,0.250000X0.450000X-0.262500X0.450000X0.262500X-0.450000X0.262500X-0.450000X-0.262500X0*%
%ADD15RoundRect,0.250000X0.262500X0.450000X-0.262500X0.450000X-0.262500X-0.450000X0.262500X-0.450000X0*%
%ADD16RoundRect,0.250000X-0.250000X0.250000X-0.250000X-0.250000X0.250000X-0.250000X0.250000X0.250000X0*%
%ADD17RoundRect,0.250000X1.950000X1.000000X-1.950000X1.000000X-1.950000X-1.000000X1.950000X-1.000000X0*%
%ADD18RoundRect,0.250000X-0.450000X0.262500X-0.450000X-0.262500X0.450000X-0.262500X0.450000X0.262500X0*%
%ADD19RoundRect,0.250000X-0.262500X-0.450000X0.262500X-0.450000X0.262500X0.450000X-0.262500X0.450000X0*%
%ADD20RoundRect,0.250000X-0.250000X-0.475000X0.250000X-0.475000X0.250000X0.475000X-0.250000X0.475000X0*%
%ADD21RoundRect,0.250000X0.250000X0.475000X-0.250000X0.475000X-0.250000X-0.475000X0.250000X-0.475000X0*%
%ADD22RoundRect,0.250000X0.250000X0.250000X-0.250000X0.250000X-0.250000X-0.250000X0.250000X-0.250000X0*%
%ADD23RoundRect,0.250000X1.000000X-1.950000X1.000000X1.950000X-1.000000X1.950000X-1.000000X-1.950000X0*%
%ADD24RoundRect,0.500000X-0.500000X-0.500000X0.500000X-0.500000X0.500000X0.500000X-0.500000X0.500000X0*%
%ADD25RoundRect,0.250000X-1.950000X-1.000000X1.950000X-1.000000X1.950000X1.000000X-1.950000X1.000000X0*%
%ADD26RoundRect,0.250000X-0.250000X-0.250000X0.250000X-0.250000X0.250000X0.250000X-0.250000X0.250000X0*%
%ADD27RoundRect,0.250000X-1.000000X1.950000X-1.000000X-1.950000X1.000000X-1.950000X1.000000X1.950000X0*%
%ADD28RoundRect,0.150000X-0.150000X0.825000X-0.150000X-0.825000X0.150000X-0.825000X0.150000X0.825000X0*%
G04 APERTURE END LIST*
D10*
%TO.C,C12*%
X162282500Y-79353400D03*
X162282500Y-77453400D03*
%TD*%
%TO.C,C8*%
X145087000Y-63688000D03*
X145087000Y-61788000D03*
%TD*%
D11*
%TO.C,C16*%
X159385000Y-65871000D03*
X159385000Y-67771000D03*
%TD*%
D12*
%TO.C,U2*%
X157126300Y-69944200D03*
X158396300Y-69944200D03*
X159666300Y-69944200D03*
X160936300Y-69944200D03*
X162206300Y-69944200D03*
X163476300Y-69944200D03*
X164746300Y-69944200D03*
X164746300Y-74894200D03*
X163476300Y-74894200D03*
X162206300Y-74894200D03*
X160936300Y-74894200D03*
X159666300Y-74894200D03*
X158396300Y-74894200D03*
X157126300Y-74894200D03*
%TD*%
D13*
%TO.C,D1*%
X161671000Y-92666000D03*
X161671000Y-87166000D03*
%TD*%
D14*
%TO.C,R12*%
X153138500Y-62333500D03*
X153138500Y-64158500D03*
%TD*%
D15*
%TO.C,R5*%
X151821500Y-80156000D03*
X153646500Y-80156000D03*
%TD*%
%TO.C,R10*%
X161522400Y-60598000D03*
X163347400Y-60598000D03*
%TD*%
D16*
%TO.C,D8*%
X157353000Y-65896800D03*
X157353000Y-63396800D03*
%TD*%
D17*
%TO.C,C3*%
X155771500Y-101600000D03*
X163171500Y-101600000D03*
%TD*%
D18*
%TO.C,R2*%
X152630500Y-121285000D03*
X152630500Y-119460000D03*
%TD*%
D19*
%TO.C,R6*%
X151384000Y-76346000D03*
X149559000Y-76346000D03*
%TD*%
D20*
%TO.C,C15*%
X164399000Y-67456000D03*
X162499000Y-67456000D03*
%TD*%
D10*
%TO.C,C11*%
X160250500Y-79353400D03*
X160250500Y-77453400D03*
%TD*%
D21*
%TO.C,C17*%
X161510300Y-62630000D03*
X163410300Y-62630000D03*
%TD*%
D22*
%TO.C,D3*%
X161819900Y-81146600D03*
X164319900Y-81146600D03*
%TD*%
D18*
%TO.C,R9*%
X159666300Y-63908300D03*
X159666300Y-62083300D03*
%TD*%
D19*
%TO.C,R3*%
X163322000Y-118110000D03*
X161497000Y-118110000D03*
%TD*%
%TO.C,R11*%
X150391500Y-69361000D03*
X148566500Y-69361000D03*
%TD*%
D18*
%TO.C,R101*%
X136144000Y-58189500D03*
X136144000Y-56364500D03*
%TD*%
%TO.C,R102*%
X136144000Y-61642000D03*
X136144000Y-59817000D03*
%TD*%
%TO.C,R105*%
X136144000Y-71905500D03*
X136144000Y-70080500D03*
%TD*%
D19*
%TO.C,R7*%
X149582500Y-74314000D03*
X147757500Y-74314000D03*
%TD*%
D11*
%TO.C,C10*%
X155348300Y-69919800D03*
X155348300Y-71819800D03*
%TD*%
D19*
%TO.C,R4*%
X163322000Y-120396000D03*
X161497000Y-120396000D03*
%TD*%
D23*
%TO.C,C1*%
X157099000Y-108568000D03*
X157099000Y-115968000D03*
%TD*%
D24*
%TO.C,J1*%
X157630500Y-123444000D03*
X152630500Y-123444000D03*
X147630500Y-123444000D03*
%TD*%
D10*
%TO.C,C13*%
X164289100Y-79363600D03*
X164289100Y-77463600D03*
%TD*%
D20*
%TO.C,C19*%
X150683000Y-58928000D03*
X148783000Y-58928000D03*
%TD*%
D25*
%TO.C,C7*%
X155465000Y-88646000D03*
X148065000Y-88646000D03*
%TD*%
D19*
%TO.C,R107*%
X141247500Y-73660000D03*
X139422500Y-73660000D03*
%TD*%
D18*
%TO.C,R1*%
X157964500Y-121285000D03*
X157964500Y-119460000D03*
%TD*%
D26*
%TO.C,D7*%
X164318000Y-64916000D03*
X161818000Y-64916000D03*
%TD*%
D21*
%TO.C,C9*%
X156481100Y-79048600D03*
X158381100Y-79048600D03*
%TD*%
D22*
%TO.C,D2*%
X157349500Y-81934000D03*
X159849500Y-81934000D03*
%TD*%
D15*
%TO.C,R13*%
X155471500Y-56388000D03*
X153646500Y-56388000D03*
%TD*%
%TO.C,R8*%
X156544000Y-77092800D03*
X158369000Y-77092800D03*
%TD*%
D18*
%TO.C,R103*%
X136144000Y-65047500D03*
X136144000Y-63222500D03*
%TD*%
D16*
%TO.C,D4*%
X166295700Y-81162200D03*
X166295700Y-78662200D03*
%TD*%
D24*
%TO.C,MK1*%
X151304000Y-56388000D03*
X141304000Y-56388000D03*
%TD*%
D11*
%TO.C,C18*%
X165608000Y-60537000D03*
X165608000Y-62437000D03*
%TD*%
D18*
%TO.C,R104*%
X136144000Y-68476500D03*
X136144000Y-66651500D03*
%TD*%
D19*
%TO.C,R108*%
X144676500Y-73660000D03*
X142851500Y-73660000D03*
%TD*%
D16*
%TO.C,D6*%
X167005000Y-68325000D03*
X167005000Y-65825000D03*
%TD*%
D14*
%TO.C,R109*%
X144526000Y-70080500D03*
X144526000Y-71905500D03*
%TD*%
D11*
%TO.C,C4*%
X164084000Y-88839000D03*
X164084000Y-90739000D03*
%TD*%
D19*
%TO.C,R106*%
X137795000Y-73660000D03*
X135970000Y-73660000D03*
%TD*%
D10*
%TO.C,C14*%
X166549700Y-71896000D03*
X166549700Y-69996000D03*
%TD*%
D16*
%TO.C,D5*%
X166676700Y-76234600D03*
X166676700Y-73734600D03*
%TD*%
D11*
%TO.C,C6*%
X149813000Y-79968000D03*
X149813000Y-81868000D03*
%TD*%
D23*
%TO.C,C2*%
X147447000Y-110981000D03*
X147447000Y-118381000D03*
%TD*%
D27*
%TO.C,C5*%
X147447000Y-103903000D03*
X147447000Y-96503000D03*
%TD*%
D14*
%TO.C,R110*%
X144526000Y-66651500D03*
X144526000Y-68476500D03*
%TD*%
D28*
%TO.C,U1*%
X151233500Y-67010000D03*
X149963500Y-67010000D03*
X148693500Y-67010000D03*
X147423500Y-67010000D03*
X147423500Y-62060000D03*
X148693500Y-62060000D03*
X149963500Y-62060000D03*
X151233500Y-62060000D03*
%TD*%
M02*
