%TF.GenerationSoftware,KiCad,Pcbnew,(7.0.0)*%
%TF.CreationDate,2023-03-18T07:41:42+03:00*%
%TF.ProjectId,StudioMic,53747564-696f-44d6-9963-2e6b69636164,1*%
%TF.SameCoordinates,Original*%
%TF.FileFunction,Drillmap*%
%TF.FilePolarity,Positive*%
%FSLAX45Y45*%
G04 Gerber Fmt 4.5, Leading zero omitted, Abs format (unit mm)*
G04 Created by KiCad (PCBNEW (7.0.0)) date 2023-03-18 07:41:42*
%MOMM*%
%LPD*%
G01*
G04 APERTURE LIST*
%ADD10C,0.100000*%
%ADD11C,0.200000*%
%ADD12C,0.270000*%
G04 APERTURE END LIST*
D10*
X16964362Y-13014065D02*
X16973562Y-13014065D01*
X13862062Y-13309511D02*
G75*
G03*
X13566438Y-13013888I-295622J2D01*
G01*
X13566438Y-13013888D02*
X13557238Y-13013888D01*
X17309284Y-4937321D02*
G75*
G03*
X17181650Y-4809688I-127633J0D01*
G01*
X13347022Y-4809688D02*
G75*
G03*
X13219389Y-4937321I0J-127633D01*
G01*
X13219389Y-4937321D02*
X13557238Y-13013888D01*
X13347022Y-4809688D02*
X17181650Y-4809688D01*
X17309284Y-4937321D02*
X16973562Y-13014065D01*
X16964362Y-13014068D02*
G75*
G03*
X16668738Y-13309688I-2J-295622D01*
G01*
X13862061Y-13309511D02*
X16668738Y-13309688D01*
D11*
D12*
X13679361Y-5004688D02*
X13949361Y-5274688D01*
X13949361Y-5004688D02*
X13679361Y-5274688D01*
D11*
X13774361Y-5274688D02*
X13854361Y-5274688D01*
X13854361Y-5274688D02*
G75*
G03*
X13854361Y-5004688I0J135000D01*
G01*
X13854361Y-5004688D02*
X13774361Y-5004688D01*
X13774361Y-5004688D02*
G75*
G03*
X13774361Y-5274688I0J-135000D01*
G01*
D12*
X16579361Y-5004688D02*
X16849362Y-5274688D01*
X16849362Y-5004688D02*
X16579361Y-5274688D01*
D11*
X16674361Y-5274688D02*
X16754361Y-5274688D01*
X16754361Y-5274688D02*
G75*
G03*
X16754361Y-5004688I0J135000D01*
G01*
X16754361Y-5004688D02*
X16674361Y-5004688D01*
X16674361Y-5004688D02*
G75*
G03*
X16674361Y-5274688I0J-135000D01*
G01*
X13462008Y-13608164D02*
X13462008Y-13408164D01*
X13462008Y-13408164D02*
X13509627Y-13408164D01*
X13509627Y-13408164D02*
X13538199Y-13417688D01*
X13538199Y-13417688D02*
X13557246Y-13436736D01*
X13557246Y-13436736D02*
X13566770Y-13455784D01*
X13566770Y-13455784D02*
X13576294Y-13493879D01*
X13576294Y-13493879D02*
X13576294Y-13522450D01*
X13576294Y-13522450D02*
X13566770Y-13560545D01*
X13566770Y-13560545D02*
X13557246Y-13579593D01*
X13557246Y-13579593D02*
X13538199Y-13598641D01*
X13538199Y-13598641D02*
X13509627Y-13608164D01*
X13509627Y-13608164D02*
X13462008Y-13608164D01*
X13662008Y-13608164D02*
X13662008Y-13474831D01*
X13662008Y-13512926D02*
X13671532Y-13493879D01*
X13671532Y-13493879D02*
X13681056Y-13484355D01*
X13681056Y-13484355D02*
X13700103Y-13474831D01*
X13700103Y-13474831D02*
X13719151Y-13474831D01*
X13785818Y-13608164D02*
X13785818Y-13474831D01*
X13785818Y-13408164D02*
X13776294Y-13417688D01*
X13776294Y-13417688D02*
X13785818Y-13427212D01*
X13785818Y-13427212D02*
X13795341Y-13417688D01*
X13795341Y-13417688D02*
X13785818Y-13408164D01*
X13785818Y-13408164D02*
X13785818Y-13427212D01*
X13909627Y-13608164D02*
X13890579Y-13598641D01*
X13890579Y-13598641D02*
X13881056Y-13579593D01*
X13881056Y-13579593D02*
X13881056Y-13408164D01*
X14014389Y-13608164D02*
X13995341Y-13598641D01*
X13995341Y-13598641D02*
X13985818Y-13579593D01*
X13985818Y-13579593D02*
X13985818Y-13408164D01*
X14210579Y-13608164D02*
X14210579Y-13408164D01*
X14210579Y-13408164D02*
X14277246Y-13551022D01*
X14277246Y-13551022D02*
X14343913Y-13408164D01*
X14343913Y-13408164D02*
X14343913Y-13608164D01*
X14524865Y-13608164D02*
X14524865Y-13503403D01*
X14524865Y-13503403D02*
X14515341Y-13484355D01*
X14515341Y-13484355D02*
X14496294Y-13474831D01*
X14496294Y-13474831D02*
X14458198Y-13474831D01*
X14458198Y-13474831D02*
X14439151Y-13484355D01*
X14524865Y-13598641D02*
X14505818Y-13608164D01*
X14505818Y-13608164D02*
X14458198Y-13608164D01*
X14458198Y-13608164D02*
X14439151Y-13598641D01*
X14439151Y-13598641D02*
X14429627Y-13579593D01*
X14429627Y-13579593D02*
X14429627Y-13560545D01*
X14429627Y-13560545D02*
X14439151Y-13541498D01*
X14439151Y-13541498D02*
X14458198Y-13531974D01*
X14458198Y-13531974D02*
X14505818Y-13531974D01*
X14505818Y-13531974D02*
X14524865Y-13522450D01*
X14620103Y-13474831D02*
X14620103Y-13674831D01*
X14620103Y-13484355D02*
X14639151Y-13474831D01*
X14639151Y-13474831D02*
X14677246Y-13474831D01*
X14677246Y-13474831D02*
X14696294Y-13484355D01*
X14696294Y-13484355D02*
X14705818Y-13493879D01*
X14705818Y-13493879D02*
X14715341Y-13512926D01*
X14715341Y-13512926D02*
X14715341Y-13570069D01*
X14715341Y-13570069D02*
X14705818Y-13589117D01*
X14705818Y-13589117D02*
X14696294Y-13598641D01*
X14696294Y-13598641D02*
X14677246Y-13608164D01*
X14677246Y-13608164D02*
X14639151Y-13608164D01*
X14639151Y-13608164D02*
X14620103Y-13598641D01*
X14801056Y-13589117D02*
X14810579Y-13598641D01*
X14810579Y-13598641D02*
X14801056Y-13608164D01*
X14801056Y-13608164D02*
X14791532Y-13598641D01*
X14791532Y-13598641D02*
X14801056Y-13589117D01*
X14801056Y-13589117D02*
X14801056Y-13608164D01*
X14801056Y-13484355D02*
X14810579Y-13493879D01*
X14810579Y-13493879D02*
X14801056Y-13503403D01*
X14801056Y-13503403D02*
X14791532Y-13493879D01*
X14791532Y-13493879D02*
X14801056Y-13484355D01*
X14801056Y-13484355D02*
X14801056Y-13503403D01*
X13014389Y-13854688D02*
X13214389Y-14054688D01*
X13214389Y-13854688D02*
X13014389Y-14054688D01*
X13452484Y-13847212D02*
X13462008Y-13837688D01*
X13462008Y-13837688D02*
X13481056Y-13828164D01*
X13481056Y-13828164D02*
X13528675Y-13828164D01*
X13528675Y-13828164D02*
X13547722Y-13837688D01*
X13547722Y-13837688D02*
X13557246Y-13847212D01*
X13557246Y-13847212D02*
X13566770Y-13866260D01*
X13566770Y-13866260D02*
X13566770Y-13885307D01*
X13566770Y-13885307D02*
X13557246Y-13913879D01*
X13557246Y-13913879D02*
X13442960Y-14028164D01*
X13442960Y-14028164D02*
X13566770Y-14028164D01*
X13652484Y-14009117D02*
X13662008Y-14018641D01*
X13662008Y-14018641D02*
X13652484Y-14028164D01*
X13652484Y-14028164D02*
X13642960Y-14018641D01*
X13642960Y-14018641D02*
X13652484Y-14009117D01*
X13652484Y-14009117D02*
X13652484Y-14028164D01*
X13728675Y-13828164D02*
X13862008Y-13828164D01*
X13862008Y-13828164D02*
X13776294Y-14028164D01*
X13976294Y-13828164D02*
X13995341Y-13828164D01*
X13995341Y-13828164D02*
X14014389Y-13837688D01*
X14014389Y-13837688D02*
X14023913Y-13847212D01*
X14023913Y-13847212D02*
X14033437Y-13866260D01*
X14033437Y-13866260D02*
X14042960Y-13904355D01*
X14042960Y-13904355D02*
X14042960Y-13951974D01*
X14042960Y-13951974D02*
X14033437Y-13990069D01*
X14033437Y-13990069D02*
X14023913Y-14009117D01*
X14023913Y-14009117D02*
X14014389Y-14018641D01*
X14014389Y-14018641D02*
X13995341Y-14028164D01*
X13995341Y-14028164D02*
X13976294Y-14028164D01*
X13976294Y-14028164D02*
X13957246Y-14018641D01*
X13957246Y-14018641D02*
X13947722Y-14009117D01*
X13947722Y-14009117D02*
X13938199Y-13990069D01*
X13938199Y-13990069D02*
X13928675Y-13951974D01*
X13928675Y-13951974D02*
X13928675Y-13904355D01*
X13928675Y-13904355D02*
X13938199Y-13866260D01*
X13938199Y-13866260D02*
X13947722Y-13847212D01*
X13947722Y-13847212D02*
X13957246Y-13837688D01*
X13957246Y-13837688D02*
X13976294Y-13828164D01*
X14166770Y-13828164D02*
X14185818Y-13828164D01*
X14185818Y-13828164D02*
X14204865Y-13837688D01*
X14204865Y-13837688D02*
X14214389Y-13847212D01*
X14214389Y-13847212D02*
X14223913Y-13866260D01*
X14223913Y-13866260D02*
X14233437Y-13904355D01*
X14233437Y-13904355D02*
X14233437Y-13951974D01*
X14233437Y-13951974D02*
X14223913Y-13990069D01*
X14223913Y-13990069D02*
X14214389Y-14009117D01*
X14214389Y-14009117D02*
X14204865Y-14018641D01*
X14204865Y-14018641D02*
X14185818Y-14028164D01*
X14185818Y-14028164D02*
X14166770Y-14028164D01*
X14166770Y-14028164D02*
X14147722Y-14018641D01*
X14147722Y-14018641D02*
X14138199Y-14009117D01*
X14138199Y-14009117D02*
X14128675Y-13990069D01*
X14128675Y-13990069D02*
X14119151Y-13951974D01*
X14119151Y-13951974D02*
X14119151Y-13904355D01*
X14119151Y-13904355D02*
X14128675Y-13866260D01*
X14128675Y-13866260D02*
X14138199Y-13847212D01*
X14138199Y-13847212D02*
X14147722Y-13837688D01*
X14147722Y-13837688D02*
X14166770Y-13828164D01*
X14319151Y-14028164D02*
X14319151Y-13894831D01*
X14319151Y-13913879D02*
X14328675Y-13904355D01*
X14328675Y-13904355D02*
X14347722Y-13894831D01*
X14347722Y-13894831D02*
X14376294Y-13894831D01*
X14376294Y-13894831D02*
X14395341Y-13904355D01*
X14395341Y-13904355D02*
X14404865Y-13923403D01*
X14404865Y-13923403D02*
X14404865Y-14028164D01*
X14404865Y-13923403D02*
X14414389Y-13904355D01*
X14414389Y-13904355D02*
X14433437Y-13894831D01*
X14433437Y-13894831D02*
X14462008Y-13894831D01*
X14462008Y-13894831D02*
X14481056Y-13904355D01*
X14481056Y-13904355D02*
X14490580Y-13923403D01*
X14490580Y-13923403D02*
X14490580Y-14028164D01*
X14585818Y-14028164D02*
X14585818Y-13894831D01*
X14585818Y-13913879D02*
X14595341Y-13904355D01*
X14595341Y-13904355D02*
X14614389Y-13894831D01*
X14614389Y-13894831D02*
X14642961Y-13894831D01*
X14642961Y-13894831D02*
X14662008Y-13904355D01*
X14662008Y-13904355D02*
X14671532Y-13923403D01*
X14671532Y-13923403D02*
X14671532Y-14028164D01*
X14671532Y-13923403D02*
X14681056Y-13904355D01*
X14681056Y-13904355D02*
X14700103Y-13894831D01*
X14700103Y-13894831D02*
X14728675Y-13894831D01*
X14728675Y-13894831D02*
X14747722Y-13904355D01*
X14747722Y-13904355D02*
X14757246Y-13923403D01*
X14757246Y-13923403D02*
X14757246Y-14028164D01*
X15115341Y-13818641D02*
X14943913Y-14075784D01*
X15340103Y-13828164D02*
X15359151Y-13828164D01*
X15359151Y-13828164D02*
X15378199Y-13837688D01*
X15378199Y-13837688D02*
X15387722Y-13847212D01*
X15387722Y-13847212D02*
X15397246Y-13866260D01*
X15397246Y-13866260D02*
X15406770Y-13904355D01*
X15406770Y-13904355D02*
X15406770Y-13951974D01*
X15406770Y-13951974D02*
X15397246Y-13990069D01*
X15397246Y-13990069D02*
X15387722Y-14009117D01*
X15387722Y-14009117D02*
X15378199Y-14018641D01*
X15378199Y-14018641D02*
X15359151Y-14028164D01*
X15359151Y-14028164D02*
X15340103Y-14028164D01*
X15340103Y-14028164D02*
X15321056Y-14018641D01*
X15321056Y-14018641D02*
X15311532Y-14009117D01*
X15311532Y-14009117D02*
X15302008Y-13990069D01*
X15302008Y-13990069D02*
X15292484Y-13951974D01*
X15292484Y-13951974D02*
X15292484Y-13904355D01*
X15292484Y-13904355D02*
X15302008Y-13866260D01*
X15302008Y-13866260D02*
X15311532Y-13847212D01*
X15311532Y-13847212D02*
X15321056Y-13837688D01*
X15321056Y-13837688D02*
X15340103Y-13828164D01*
X15492484Y-14009117D02*
X15502008Y-14018641D01*
X15502008Y-14018641D02*
X15492484Y-14028164D01*
X15492484Y-14028164D02*
X15482961Y-14018641D01*
X15482961Y-14018641D02*
X15492484Y-14009117D01*
X15492484Y-14009117D02*
X15492484Y-14028164D01*
X15692484Y-14028164D02*
X15578199Y-14028164D01*
X15635341Y-14028164D02*
X15635341Y-13828164D01*
X15635341Y-13828164D02*
X15616294Y-13856736D01*
X15616294Y-13856736D02*
X15597246Y-13875784D01*
X15597246Y-13875784D02*
X15578199Y-13885307D01*
X15816294Y-13828164D02*
X15835342Y-13828164D01*
X15835342Y-13828164D02*
X15854389Y-13837688D01*
X15854389Y-13837688D02*
X15863913Y-13847212D01*
X15863913Y-13847212D02*
X15873437Y-13866260D01*
X15873437Y-13866260D02*
X15882961Y-13904355D01*
X15882961Y-13904355D02*
X15882961Y-13951974D01*
X15882961Y-13951974D02*
X15873437Y-13990069D01*
X15873437Y-13990069D02*
X15863913Y-14009117D01*
X15863913Y-14009117D02*
X15854389Y-14018641D01*
X15854389Y-14018641D02*
X15835342Y-14028164D01*
X15835342Y-14028164D02*
X15816294Y-14028164D01*
X15816294Y-14028164D02*
X15797246Y-14018641D01*
X15797246Y-14018641D02*
X15787722Y-14009117D01*
X15787722Y-14009117D02*
X15778199Y-13990069D01*
X15778199Y-13990069D02*
X15768675Y-13951974D01*
X15768675Y-13951974D02*
X15768675Y-13904355D01*
X15768675Y-13904355D02*
X15778199Y-13866260D01*
X15778199Y-13866260D02*
X15787722Y-13847212D01*
X15787722Y-13847212D02*
X15797246Y-13837688D01*
X15797246Y-13837688D02*
X15816294Y-13828164D01*
X16054389Y-13828164D02*
X16016294Y-13828164D01*
X16016294Y-13828164D02*
X15997246Y-13837688D01*
X15997246Y-13837688D02*
X15987722Y-13847212D01*
X15987722Y-13847212D02*
X15968675Y-13875784D01*
X15968675Y-13875784D02*
X15959151Y-13913879D01*
X15959151Y-13913879D02*
X15959151Y-13990069D01*
X15959151Y-13990069D02*
X15968675Y-14009117D01*
X15968675Y-14009117D02*
X15978199Y-14018641D01*
X15978199Y-14018641D02*
X15997246Y-14028164D01*
X15997246Y-14028164D02*
X16035342Y-14028164D01*
X16035342Y-14028164D02*
X16054389Y-14018641D01*
X16054389Y-14018641D02*
X16063913Y-14009117D01*
X16063913Y-14009117D02*
X16073437Y-13990069D01*
X16073437Y-13990069D02*
X16073437Y-13942450D01*
X16073437Y-13942450D02*
X16063913Y-13923403D01*
X16063913Y-13923403D02*
X16054389Y-13913879D01*
X16054389Y-13913879D02*
X16035342Y-13904355D01*
X16035342Y-13904355D02*
X15997246Y-13904355D01*
X15997246Y-13904355D02*
X15978199Y-13913879D01*
X15978199Y-13913879D02*
X15968675Y-13923403D01*
X15968675Y-13923403D02*
X15959151Y-13942450D01*
X16140103Y-13828164D02*
X16263913Y-13828164D01*
X16263913Y-13828164D02*
X16197246Y-13904355D01*
X16197246Y-13904355D02*
X16225818Y-13904355D01*
X16225818Y-13904355D02*
X16244865Y-13913879D01*
X16244865Y-13913879D02*
X16254389Y-13923403D01*
X16254389Y-13923403D02*
X16263913Y-13942450D01*
X16263913Y-13942450D02*
X16263913Y-13990069D01*
X16263913Y-13990069D02*
X16254389Y-14009117D01*
X16254389Y-14009117D02*
X16244865Y-14018641D01*
X16244865Y-14018641D02*
X16225818Y-14028164D01*
X16225818Y-14028164D02*
X16168675Y-14028164D01*
X16168675Y-14028164D02*
X16149627Y-14018641D01*
X16149627Y-14018641D02*
X16140103Y-14009117D01*
X16340103Y-13828164D02*
X16340103Y-13866260D01*
X16416294Y-13828164D02*
X16416294Y-13866260D01*
X16679151Y-14104355D02*
X16669627Y-14094831D01*
X16669627Y-14094831D02*
X16650580Y-14066260D01*
X16650580Y-14066260D02*
X16641056Y-14047212D01*
X16641056Y-14047212D02*
X16631532Y-14018641D01*
X16631532Y-14018641D02*
X16622008Y-13971022D01*
X16622008Y-13971022D02*
X16622008Y-13932926D01*
X16622008Y-13932926D02*
X16631532Y-13885307D01*
X16631532Y-13885307D02*
X16641056Y-13856736D01*
X16641056Y-13856736D02*
X16650580Y-13837688D01*
X16650580Y-13837688D02*
X16669627Y-13809117D01*
X16669627Y-13809117D02*
X16679151Y-13799593D01*
X16793437Y-13828164D02*
X16812485Y-13828164D01*
X16812485Y-13828164D02*
X16831532Y-13837688D01*
X16831532Y-13837688D02*
X16841056Y-13847212D01*
X16841056Y-13847212D02*
X16850580Y-13866260D01*
X16850580Y-13866260D02*
X16860104Y-13904355D01*
X16860104Y-13904355D02*
X16860104Y-13951974D01*
X16860104Y-13951974D02*
X16850580Y-13990069D01*
X16850580Y-13990069D02*
X16841056Y-14009117D01*
X16841056Y-14009117D02*
X16831532Y-14018641D01*
X16831532Y-14018641D02*
X16812485Y-14028164D01*
X16812485Y-14028164D02*
X16793437Y-14028164D01*
X16793437Y-14028164D02*
X16774389Y-14018641D01*
X16774389Y-14018641D02*
X16764865Y-14009117D01*
X16764865Y-14009117D02*
X16755342Y-13990069D01*
X16755342Y-13990069D02*
X16745818Y-13951974D01*
X16745818Y-13951974D02*
X16745818Y-13904355D01*
X16745818Y-13904355D02*
X16755342Y-13866260D01*
X16755342Y-13866260D02*
X16764865Y-13847212D01*
X16764865Y-13847212D02*
X16774389Y-13837688D01*
X16774389Y-13837688D02*
X16793437Y-13828164D01*
X17065818Y-14028164D02*
X17065818Y-13828164D01*
X17151532Y-14028164D02*
X17151532Y-13923403D01*
X17151532Y-13923403D02*
X17142008Y-13904355D01*
X17142008Y-13904355D02*
X17122961Y-13894831D01*
X17122961Y-13894831D02*
X17094389Y-13894831D01*
X17094389Y-13894831D02*
X17075342Y-13904355D01*
X17075342Y-13904355D02*
X17065818Y-13913879D01*
X17275342Y-14028164D02*
X17256294Y-14018641D01*
X17256294Y-14018641D02*
X17246770Y-14009117D01*
X17246770Y-14009117D02*
X17237246Y-13990069D01*
X17237246Y-13990069D02*
X17237246Y-13932926D01*
X17237246Y-13932926D02*
X17246770Y-13913879D01*
X17246770Y-13913879D02*
X17256294Y-13904355D01*
X17256294Y-13904355D02*
X17275342Y-13894831D01*
X17275342Y-13894831D02*
X17303913Y-13894831D01*
X17303913Y-13894831D02*
X17322961Y-13904355D01*
X17322961Y-13904355D02*
X17332485Y-13913879D01*
X17332485Y-13913879D02*
X17342008Y-13932926D01*
X17342008Y-13932926D02*
X17342008Y-13990069D01*
X17342008Y-13990069D02*
X17332485Y-14009117D01*
X17332485Y-14009117D02*
X17322961Y-14018641D01*
X17322961Y-14018641D02*
X17303913Y-14028164D01*
X17303913Y-14028164D02*
X17275342Y-14028164D01*
X17456294Y-14028164D02*
X17437246Y-14018641D01*
X17437246Y-14018641D02*
X17427723Y-13999593D01*
X17427723Y-13999593D02*
X17427723Y-13828164D01*
X17608675Y-14018641D02*
X17589627Y-14028164D01*
X17589627Y-14028164D02*
X17551532Y-14028164D01*
X17551532Y-14028164D02*
X17532485Y-14018641D01*
X17532485Y-14018641D02*
X17522961Y-13999593D01*
X17522961Y-13999593D02*
X17522961Y-13923403D01*
X17522961Y-13923403D02*
X17532485Y-13904355D01*
X17532485Y-13904355D02*
X17551532Y-13894831D01*
X17551532Y-13894831D02*
X17589627Y-13894831D01*
X17589627Y-13894831D02*
X17608675Y-13904355D01*
X17608675Y-13904355D02*
X17618199Y-13923403D01*
X17618199Y-13923403D02*
X17618199Y-13942450D01*
X17618199Y-13942450D02*
X17522961Y-13961498D01*
X17694389Y-14018641D02*
X17713437Y-14028164D01*
X17713437Y-14028164D02*
X17751532Y-14028164D01*
X17751532Y-14028164D02*
X17770580Y-14018641D01*
X17770580Y-14018641D02*
X17780104Y-13999593D01*
X17780104Y-13999593D02*
X17780104Y-13990069D01*
X17780104Y-13990069D02*
X17770580Y-13971022D01*
X17770580Y-13971022D02*
X17751532Y-13961498D01*
X17751532Y-13961498D02*
X17722961Y-13961498D01*
X17722961Y-13961498D02*
X17703913Y-13951974D01*
X17703913Y-13951974D02*
X17694389Y-13932926D01*
X17694389Y-13932926D02*
X17694389Y-13923403D01*
X17694389Y-13923403D02*
X17703913Y-13904355D01*
X17703913Y-13904355D02*
X17722961Y-13894831D01*
X17722961Y-13894831D02*
X17751532Y-13894831D01*
X17751532Y-13894831D02*
X17770580Y-13904355D01*
X17985818Y-13951974D02*
X18138199Y-13951974D01*
X18062008Y-14028164D02*
X18062008Y-13875784D01*
X18343913Y-13847212D02*
X18353437Y-13837688D01*
X18353437Y-13837688D02*
X18372485Y-13828164D01*
X18372485Y-13828164D02*
X18420104Y-13828164D01*
X18420104Y-13828164D02*
X18439151Y-13837688D01*
X18439151Y-13837688D02*
X18448675Y-13847212D01*
X18448675Y-13847212D02*
X18458199Y-13866260D01*
X18458199Y-13866260D02*
X18458199Y-13885307D01*
X18458199Y-13885307D02*
X18448675Y-13913879D01*
X18448675Y-13913879D02*
X18334389Y-14028164D01*
X18334389Y-14028164D02*
X18458199Y-14028164D01*
X18654389Y-14018641D02*
X18673437Y-14028164D01*
X18673437Y-14028164D02*
X18711532Y-14028164D01*
X18711532Y-14028164D02*
X18730580Y-14018641D01*
X18730580Y-14018641D02*
X18740104Y-13999593D01*
X18740104Y-13999593D02*
X18740104Y-13990069D01*
X18740104Y-13990069D02*
X18730580Y-13971022D01*
X18730580Y-13971022D02*
X18711532Y-13961498D01*
X18711532Y-13961498D02*
X18682961Y-13961498D01*
X18682961Y-13961498D02*
X18663913Y-13951974D01*
X18663913Y-13951974D02*
X18654389Y-13932926D01*
X18654389Y-13932926D02*
X18654389Y-13923403D01*
X18654389Y-13923403D02*
X18663913Y-13904355D01*
X18663913Y-13904355D02*
X18682961Y-13894831D01*
X18682961Y-13894831D02*
X18711532Y-13894831D01*
X18711532Y-13894831D02*
X18730580Y-13904355D01*
X18854389Y-14028164D02*
X18835342Y-14018641D01*
X18835342Y-14018641D02*
X18825818Y-13999593D01*
X18825818Y-13999593D02*
X18825818Y-13828164D01*
X18959151Y-14028164D02*
X18940104Y-14018641D01*
X18940104Y-14018641D02*
X18930580Y-14009117D01*
X18930580Y-14009117D02*
X18921056Y-13990069D01*
X18921056Y-13990069D02*
X18921056Y-13932926D01*
X18921056Y-13932926D02*
X18930580Y-13913879D01*
X18930580Y-13913879D02*
X18940104Y-13904355D01*
X18940104Y-13904355D02*
X18959151Y-13894831D01*
X18959151Y-13894831D02*
X18987723Y-13894831D01*
X18987723Y-13894831D02*
X19006770Y-13904355D01*
X19006770Y-13904355D02*
X19016294Y-13913879D01*
X19016294Y-13913879D02*
X19025818Y-13932926D01*
X19025818Y-13932926D02*
X19025818Y-13990069D01*
X19025818Y-13990069D02*
X19016294Y-14009117D01*
X19016294Y-14009117D02*
X19006770Y-14018641D01*
X19006770Y-14018641D02*
X18987723Y-14028164D01*
X18987723Y-14028164D02*
X18959151Y-14028164D01*
X19082961Y-13894831D02*
X19159151Y-13894831D01*
X19111532Y-13828164D02*
X19111532Y-13999593D01*
X19111532Y-13999593D02*
X19121056Y-14018641D01*
X19121056Y-14018641D02*
X19140104Y-14028164D01*
X19140104Y-14028164D02*
X19159151Y-14028164D01*
X19216294Y-14018641D02*
X19235342Y-14028164D01*
X19235342Y-14028164D02*
X19273437Y-14028164D01*
X19273437Y-14028164D02*
X19292485Y-14018641D01*
X19292485Y-14018641D02*
X19302008Y-13999593D01*
X19302008Y-13999593D02*
X19302008Y-13990069D01*
X19302008Y-13990069D02*
X19292485Y-13971022D01*
X19292485Y-13971022D02*
X19273437Y-13961498D01*
X19273437Y-13961498D02*
X19244866Y-13961498D01*
X19244866Y-13961498D02*
X19225818Y-13951974D01*
X19225818Y-13951974D02*
X19216294Y-13932926D01*
X19216294Y-13932926D02*
X19216294Y-13923403D01*
X19216294Y-13923403D02*
X19225818Y-13904355D01*
X19225818Y-13904355D02*
X19244866Y-13894831D01*
X19244866Y-13894831D02*
X19273437Y-13894831D01*
X19273437Y-13894831D02*
X19292485Y-13904355D01*
X19368675Y-14104355D02*
X19378199Y-14094831D01*
X19378199Y-14094831D02*
X19397247Y-14066260D01*
X19397247Y-14066260D02*
X19406770Y-14047212D01*
X19406770Y-14047212D02*
X19416294Y-14018641D01*
X19416294Y-14018641D02*
X19425818Y-13971022D01*
X19425818Y-13971022D02*
X19425818Y-13932926D01*
X19425818Y-13932926D02*
X19416294Y-13885307D01*
X19416294Y-13885307D02*
X19406770Y-13856736D01*
X19406770Y-13856736D02*
X19397247Y-13837688D01*
X19397247Y-13837688D02*
X19378199Y-13809117D01*
X19378199Y-13809117D02*
X19368675Y-13799593D01*
X19698199Y-14104355D02*
X19688675Y-14094831D01*
X19688675Y-14094831D02*
X19669627Y-14066260D01*
X19669627Y-14066260D02*
X19660104Y-14047212D01*
X19660104Y-14047212D02*
X19650580Y-14018641D01*
X19650580Y-14018641D02*
X19641056Y-13971022D01*
X19641056Y-13971022D02*
X19641056Y-13932926D01*
X19641056Y-13932926D02*
X19650580Y-13885307D01*
X19650580Y-13885307D02*
X19660104Y-13856736D01*
X19660104Y-13856736D02*
X19669627Y-13837688D01*
X19669627Y-13837688D02*
X19688675Y-13809117D01*
X19688675Y-13809117D02*
X19698199Y-13799593D01*
X19774389Y-13894831D02*
X19774389Y-14028164D01*
X19774389Y-13913879D02*
X19783913Y-13904355D01*
X19783913Y-13904355D02*
X19802961Y-13894831D01*
X19802961Y-13894831D02*
X19831532Y-13894831D01*
X19831532Y-13894831D02*
X19850580Y-13904355D01*
X19850580Y-13904355D02*
X19860104Y-13923403D01*
X19860104Y-13923403D02*
X19860104Y-14028164D01*
X19983913Y-14028164D02*
X19964866Y-14018641D01*
X19964866Y-14018641D02*
X19955342Y-14009117D01*
X19955342Y-14009117D02*
X19945818Y-13990069D01*
X19945818Y-13990069D02*
X19945818Y-13932926D01*
X19945818Y-13932926D02*
X19955342Y-13913879D01*
X19955342Y-13913879D02*
X19964866Y-13904355D01*
X19964866Y-13904355D02*
X19983913Y-13894831D01*
X19983913Y-13894831D02*
X20012485Y-13894831D01*
X20012485Y-13894831D02*
X20031532Y-13904355D01*
X20031532Y-13904355D02*
X20041056Y-13913879D01*
X20041056Y-13913879D02*
X20050580Y-13932926D01*
X20050580Y-13932926D02*
X20050580Y-13990069D01*
X20050580Y-13990069D02*
X20041056Y-14009117D01*
X20041056Y-14009117D02*
X20031532Y-14018641D01*
X20031532Y-14018641D02*
X20012485Y-14028164D01*
X20012485Y-14028164D02*
X19983913Y-14028164D01*
X20107723Y-13894831D02*
X20183913Y-13894831D01*
X20136294Y-13828164D02*
X20136294Y-13999593D01*
X20136294Y-13999593D02*
X20145818Y-14018641D01*
X20145818Y-14018641D02*
X20164866Y-14028164D01*
X20164866Y-14028164D02*
X20183913Y-14028164D01*
X20370580Y-13894831D02*
X20370580Y-14094831D01*
X20370580Y-13904355D02*
X20389627Y-13894831D01*
X20389627Y-13894831D02*
X20427723Y-13894831D01*
X20427723Y-13894831D02*
X20446770Y-13904355D01*
X20446770Y-13904355D02*
X20456294Y-13913879D01*
X20456294Y-13913879D02*
X20465818Y-13932926D01*
X20465818Y-13932926D02*
X20465818Y-13990069D01*
X20465818Y-13990069D02*
X20456294Y-14009117D01*
X20456294Y-14009117D02*
X20446770Y-14018641D01*
X20446770Y-14018641D02*
X20427723Y-14028164D01*
X20427723Y-14028164D02*
X20389627Y-14028164D01*
X20389627Y-14028164D02*
X20370580Y-14018641D01*
X20580104Y-14028164D02*
X20561056Y-14018641D01*
X20561056Y-14018641D02*
X20551532Y-13999593D01*
X20551532Y-13999593D02*
X20551532Y-13828164D01*
X20742008Y-14028164D02*
X20742008Y-13923403D01*
X20742008Y-13923403D02*
X20732485Y-13904355D01*
X20732485Y-13904355D02*
X20713437Y-13894831D01*
X20713437Y-13894831D02*
X20675342Y-13894831D01*
X20675342Y-13894831D02*
X20656294Y-13904355D01*
X20742008Y-14018641D02*
X20722961Y-14028164D01*
X20722961Y-14028164D02*
X20675342Y-14028164D01*
X20675342Y-14028164D02*
X20656294Y-14018641D01*
X20656294Y-14018641D02*
X20646770Y-13999593D01*
X20646770Y-13999593D02*
X20646770Y-13980545D01*
X20646770Y-13980545D02*
X20656294Y-13961498D01*
X20656294Y-13961498D02*
X20675342Y-13951974D01*
X20675342Y-13951974D02*
X20722961Y-13951974D01*
X20722961Y-13951974D02*
X20742008Y-13942450D01*
X20808675Y-13894831D02*
X20884866Y-13894831D01*
X20837247Y-13828164D02*
X20837247Y-13999593D01*
X20837247Y-13999593D02*
X20846770Y-14018641D01*
X20846770Y-14018641D02*
X20865818Y-14028164D01*
X20865818Y-14028164D02*
X20884866Y-14028164D01*
X21027723Y-14018641D02*
X21008675Y-14028164D01*
X21008675Y-14028164D02*
X20970580Y-14028164D01*
X20970580Y-14028164D02*
X20951532Y-14018641D01*
X20951532Y-14018641D02*
X20942008Y-13999593D01*
X20942008Y-13999593D02*
X20942008Y-13923403D01*
X20942008Y-13923403D02*
X20951532Y-13904355D01*
X20951532Y-13904355D02*
X20970580Y-13894831D01*
X20970580Y-13894831D02*
X21008675Y-13894831D01*
X21008675Y-13894831D02*
X21027723Y-13904355D01*
X21027723Y-13904355D02*
X21037247Y-13923403D01*
X21037247Y-13923403D02*
X21037247Y-13942450D01*
X21037247Y-13942450D02*
X20942008Y-13961498D01*
X21208675Y-14028164D02*
X21208675Y-13828164D01*
X21208675Y-14018641D02*
X21189628Y-14028164D01*
X21189628Y-14028164D02*
X21151532Y-14028164D01*
X21151532Y-14028164D02*
X21132485Y-14018641D01*
X21132485Y-14018641D02*
X21122961Y-14009117D01*
X21122961Y-14009117D02*
X21113437Y-13990069D01*
X21113437Y-13990069D02*
X21113437Y-13932926D01*
X21113437Y-13932926D02*
X21122961Y-13913879D01*
X21122961Y-13913879D02*
X21132485Y-13904355D01*
X21132485Y-13904355D02*
X21151532Y-13894831D01*
X21151532Y-13894831D02*
X21189628Y-13894831D01*
X21189628Y-13894831D02*
X21208675Y-13904355D01*
X21284866Y-14104355D02*
X21294389Y-14094831D01*
X21294389Y-14094831D02*
X21313437Y-14066260D01*
X21313437Y-14066260D02*
X21322961Y-14047212D01*
X21322961Y-14047212D02*
X21332485Y-14018641D01*
X21332485Y-14018641D02*
X21342008Y-13971022D01*
X21342008Y-13971022D02*
X21342008Y-13932926D01*
X21342008Y-13932926D02*
X21332485Y-13885307D01*
X21332485Y-13885307D02*
X21322961Y-13856736D01*
X21322961Y-13856736D02*
X21313437Y-13837688D01*
X21313437Y-13837688D02*
X21294389Y-13809117D01*
X21294389Y-13809117D02*
X21284866Y-13799593D01*
M02*
